<svg width="164" height="80" viewBox="0 0 164 80" fill="none" xmlns="http://www.w3.org/2000/svg">
<path d="M132.937 31.1082C134.33 39.0904 112.599 49.5439 84.395 54.4561C56.1943 59.3683 32.2037 56.8757 30.8131 48.8901C29.4235 40.9068 51.1596 30.4567 79.3603 25.5456C107.562 20.6311 131.548 23.1237 132.937 31.1082Z" fill="#057FE2"/>
<path d="M106.394 42.9577L106.249 34.6576H108.866V45.119H105.103L102.491 36.5335H102.435L102.58 45.119H99.9796V34.6576H103.906L106.335 42.9577H106.394Z" fill="white"/>
<path d="M58.8183 35.6374L57.3704 45.2293H54.5161L56.4762 34.6578H61.1784L63.1296 45.2293H60.2865L58.8779 35.6374H58.8183Z" fill="white"/>
<path d="M71.1467 42.7389L72.4531 34.6578H76.7644L76.9935 45.2293H74.3515L74.2818 35.725H74.2268L72.4598 45.2293H69.7774L68.0093 35.725H67.952L67.8857 45.2293H65.2381L65.4717 34.6578H69.7852L71.0905 42.7389H71.1467Z" fill="white"/>
<path d="M50.0644 42.2468C50.1677 42.5029 50.1363 42.8321 50.088 43.0309C49.9992 43.3825 49.7611 43.7408 49.0579 43.7408C48.3951 43.7408 47.993 43.3611 47.993 42.7804V41.7571H45.1578L45.1555 42.5759C45.1555 44.9326 47.0112 45.6437 48.9995 45.6437C50.9114 45.6437 52.4862 44.9899 52.7367 43.2286C52.8648 42.3153 52.7693 41.7177 52.7255 41.492C52.2796 39.279 48.2671 38.6185 47.9683 37.3807C47.9177 37.1684 47.9323 36.9437 47.9571 36.8235C48.0301 36.4865 48.2615 36.1147 48.9231 36.1147C49.5409 36.1147 49.906 36.4966 49.906 37.074C49.906 37.2683 49.906 37.7266 49.906 37.7266H52.5424V36.9841C52.5424 34.6814 50.4755 34.3219 48.9781 34.3219C47.0977 34.3219 45.561 34.9431 45.2802 36.664C45.2038 37.1391 45.1926 37.5626 45.3038 38.0928C45.7655 40.2529 49.5207 40.8786 50.0644 42.2468Z" fill="white"/>
<path d="M84.4395 42.2275C84.5439 42.4814 84.5102 42.8015 84.463 43.0003C84.3765 43.3508 84.1406 43.7035 83.4419 43.7035C82.7882 43.7035 82.3894 43.3238 82.3894 42.7566L82.3872 41.7422H79.5811L79.5778 42.5499C79.5778 44.883 81.4166 45.5873 83.3847 45.5873C85.2763 45.5873 86.8366 44.9425 87.0826 43.1969C87.2107 42.2904 87.1197 41.7007 87.0736 41.4794C86.6299 39.2867 82.6579 38.6329 82.3624 37.4074C82.3119 37.1962 82.3265 36.9738 82.3523 36.8604C82.4276 36.5211 82.6545 36.1583 83.3094 36.1583C83.9216 36.1583 84.2788 36.5312 84.2788 37.1041C84.2788 37.2962 84.2788 37.75 84.2788 37.75H86.895V37.0154C86.895 34.7373 84.845 34.3801 83.3622 34.3801C81.5031 34.3801 79.9788 34.9934 79.7036 36.702C79.6272 37.1704 79.6193 37.586 79.7283 38.114C80.1832 40.2516 83.9014 40.8728 84.4395 42.2275Z" fill="white"/>
<path d="M93.3201 43.6476C94.0536 43.6476 94.2827 43.1398 94.3333 42.8803C94.3546 42.7658 94.3602 42.613 94.358 42.476V34.6533H97.0315V42.2367C97.0371 42.431 97.018 42.8309 97.009 42.9309C96.8214 44.9045 95.2611 45.5448 93.3189 45.5448C91.3745 45.5448 89.8131 44.9045 89.6277 42.9309C89.6187 42.8309 89.5996 42.431 89.6053 42.2367V34.6533H92.2765V42.476C92.2765 42.613 92.281 42.7669 92.3012 42.8803C92.3585 43.1398 92.5809 43.6476 93.3201 43.6476Z" fill="white"/>
<path d="M115.373 43.5365C116.139 43.5365 116.406 43.0523 116.455 42.7704C116.474 42.6491 116.48 42.5019 116.479 42.3682V40.8338H115.394V39.2904H119.142V42.1279C119.14 42.3256 119.136 42.4716 119.104 42.8243C118.928 44.7474 117.26 45.4337 115.386 45.4337C113.509 45.4337 111.843 44.7474 111.664 42.8243C111.634 42.4716 111.63 42.3256 111.626 42.1279L111.629 37.6762C111.629 37.4886 111.652 37.1561 111.672 36.9798C111.907 35.0039 113.509 34.3681 115.386 34.3681C117.261 34.3681 118.902 35.0005 119.096 36.9798C119.131 37.3167 119.12 37.6762 119.12 37.6762V38.0289H116.454V37.4369C116.457 37.4381 116.451 37.1853 116.419 37.0348C116.375 36.8012 116.171 36.2642 115.366 36.2642C114.595 36.2642 114.369 36.7719 114.313 37.0348C114.281 37.1741 114.268 37.3628 114.268 37.5335V42.3682C114.266 42.5019 114.274 42.6491 114.295 42.7704C114.341 43.0535 114.608 43.5365 115.373 43.5365Z" fill="white"/>
</svg>
