<svg width="165" height="80" viewBox="0 0 165 80" fill="none" xmlns="http://www.w3.org/2000/svg">
<path d="M68.3944 47.9998C64.8082 47.9998 61.4792 47.0126 59.257 45.1817C57.5782 43.7984 56.7715 41.9196 56.7715 39.9858C56.7715 38.0755 57.613 36.1837 59.2568 34.8077C61.3205 33.0812 64.964 32 68.3944 32C72.1906 32 75.229 32.8778 77.5517 34.8125C79.2043 36.1891 80.0033 38.0726 80.0033 39.9859C80.0033 41.8406 79.1554 43.8156 77.5517 45.1817C75.3889 47.0244 71.9899 47.9998 68.3944 47.9998V45.8896C70.2979 45.8896 72.0636 45.2863 73.2967 44.1599C74.5213 43.0413 75.0919 41.6663 75.0919 39.9858C75.0919 38.3759 74.4764 36.8707 73.2967 35.8032C72.0801 34.7032 70.2723 34.0842 68.3944 34.0842C66.5109 34.0842 64.7018 34.6968 63.4842 35.8032C62.3109 36.8704 61.6939 38.3799 61.6939 39.9858C61.6939 41.5867 62.3181 43.0953 63.4842 44.1601C64.7028 45.2729 66.5055 45.8896 68.3944 45.8896V47.9998ZM42.1825 32.0077C40.2641 32.0077 38.0847 32.3371 36.233 33.0962C34.5239 33.7962 33.125 34.9284 33.125 36.8052C33.1242 38.4956 34.2945 39.4856 34.2627 39.4582C34.7605 39.8788 35.5618 40.5951 37.6569 41.0157C38.5933 41.2037 40.5951 41.4924 42.5886 41.6836C44.5675 41.8752 46.5148 42.0573 47.308 42.2417C47.9382 42.3889 48.9968 42.5895 48.9968 43.6796C48.9968 44.7654 47.8816 45.0968 47.6877 45.1687C47.4941 45.239 46.1562 45.8025 43.7512 45.8025C41.9756 45.8025 39.8409 45.3123 39.0628 45.0569C38.1658 44.7638 37.225 44.3762 36.3473 43.392C36.129 43.1481 35.7847 42.4771 35.7847 41.8126H33.6081V47.4113H36.0274V46.6549C36.0274 46.5688 36.1447 46.2146 36.5508 46.383C37.0562 46.5938 38.5396 47.1359 40.0906 47.4332C41.3623 47.6774 42.1823 47.8524 43.7633 47.8524C46.3429 47.8524 47.7287 47.4666 48.6867 47.2155C49.5892 46.9783 50.7045 46.5523 51.6104 45.8892C52.101 45.5306 53.1769 44.6114 53.1769 42.943C53.1769 41.3415 52.2405 40.3475 51.9111 40.0451C51.4625 39.633 50.9144 39.3137 50.3432 39.0675C49.8457 38.8525 49.0604 38.5943 48.4179 38.45C47.1709 38.1689 44.3512 37.8222 43.0027 37.6926C41.5887 37.5571 39.1358 37.3706 38.1561 37.0923C37.8591 37.0078 37.2536 36.743 37.2536 36.0977C37.2536 35.6388 37.5305 35.2497 38.0778 34.9353C38.9465 34.4356 40.7013 34.125 42.5304 34.125C44.6929 34.1177 46.5242 34.5716 47.6891 35.0497C48.0853 35.2121 48.5489 35.4453 48.9171 35.7213C49.3326 36.0322 49.9158 36.6784 50.1268 37.5797H52.0809V32.7062H49.8989V33.2727C49.8989 33.4555 49.6932 33.6931 49.3041 33.4967C48.3277 33.0265 45.5668 32.0119 42.1821 32.0077M89.9995 32.8933L100.643 41.711L100.534 35.7742C100.523 34.9957 100.367 34.6707 99.4498 34.6707H97.4486V32.8947H106.549V34.6707H104.597C103.662 34.6707 103.603 34.9453 103.591 35.7742L103.756 47.118H100.64L88.3799 37.074L88.3825 44.2023C88.3932 44.9771 88.4328 45.3421 89.3025 45.3421H91.4883V47.1173H82.5505V45.3423H84.6398C85.4203 45.3423 85.3892 44.6592 85.3892 44.162V35.8417C85.3892 35.3046 85.3071 34.672 84.0818 34.672H82.3864V32.8933H89.9995ZM116.949 45.3388C117.034 45.3388 117.414 45.3288 117.488 45.3082C117.58 45.2825 117.666 45.2387 117.738 45.1798C117.81 45.1208 117.868 45.0482 117.906 44.9669C117.934 44.9067 117.948 44.6403 117.948 44.5824L117.95 41.7758C117.95 41.7083 117.944 41.6791 117.82 41.5287C117.682 41.3644 112.244 35.7074 111.995 35.4583C111.686 35.149 111.144 34.6709 110.319 34.6709H108.428V32.8942H119.101V34.6687H117.814C117.516 34.6687 117.319 34.9278 117.573 35.2158C117.573 35.2158 121.164 39.1587 121.198 39.2C121.231 39.242 121.26 39.252 121.305 39.2137C121.35 39.1744 124.986 35.2519 125.015 35.2209C125.188 35.0307 125.071 34.6707 124.698 34.6707H123.378V32.8942H132.125V34.6707H130.171C129.462 34.6707 129.173 34.7911 128.64 35.3446C128.396 35.5979 122.9 41.3566 122.751 41.5126C122.672 41.5942 122.679 41.7079 122.679 41.7754V44.5817C122.679 44.6386 122.693 44.9054 122.721 44.9653C122.759 45.0467 122.817 45.1194 122.89 45.1784C122.962 45.2373 123.048 45.281 123.14 45.3065C123.214 45.3273 123.588 45.3375 123.674 45.3375H125.673V47.1138H115.055V45.3373L116.949 45.3388H116.949Z" fill="#057FE2"/>
</svg>
