<svg width="93" height="80" viewBox="0 0 93 80" fill="none" xmlns="http://www.w3.org/2000/svg">
<path d="M44.4966 43.1569H39.655L38.4396 46.8209C38.4216 46.9306 38.3479 46.9863 38.2185 46.9863H36.0287C35.8813 46.9863 35.8453 46.9126 35.8813 46.7831L40.2267 34.3744C40.3184 34.1713 40.3921 33.7667 40.4101 33.1968C40.4101 33.1051 40.4658 33.0674 40.5575 33.0674H43.5581C43.6318 33.0674 43.6876 33.1033 43.7235 33.1771L48.5652 46.8011C48.6011 46.9306 48.5652 46.9845 48.4357 46.9845H45.9691C45.8774 46.9845 45.8036 46.9288 45.7659 46.8371L44.4966 43.1569ZM40.1889 41.1325H43.9447C43.8889 40.9294 43.5941 40.0466 43.0601 38.4807C42.5441 36.8968 42.1953 35.8109 42.0299 35.223H42.012C41.8645 35.9403 41.2569 37.9108 40.1889 41.1325Z" fill="#057FE2"/>
<path d="M54.4564 47.19C52.8365 47.19 51.5474 46.7478 50.5532 45.883C49.577 44.9985 49.0988 43.6914 49.0988 41.9799C49.0988 40.4337 49.6147 39.1627 50.6629 38.1505C51.7128 37.1383 53.1296 36.6223 54.8969 36.6223C55.3751 36.6223 55.7814 36.6583 56.0744 36.7518V32.0756C56.0744 31.9839 56.1302 31.9281 56.2219 31.9281H58.5968C58.6885 31.9281 58.7263 31.9641 58.7263 32.0576V44.6497C58.7263 44.8888 58.7443 45.367 58.782 46.0664C58.8 46.1581 58.7461 46.2318 58.6526 46.2498C57.3473 46.8772 55.9468 47.19 54.4564 47.19ZM56.0583 45.0165V38.6826C55.7454 38.5352 55.3409 38.4615 54.8429 38.4615C53.9224 38.4615 53.1853 38.7563 52.6333 39.364C52.0814 39.9537 51.8045 40.7807 51.8045 41.8684C51.8045 43.0101 52.0814 43.8568 52.6333 44.4088C53.1853 44.9607 53.8847 45.2376 54.7512 45.2376C55.3211 45.2574 55.7454 45.1837 56.0583 45.0165Z" fill="#057FE2"/>
<path d="M65.4467 36.6216C67.0307 36.6216 68.282 37.1179 69.1845 38.1121C70.087 39.1063 70.5473 40.3576 70.5473 41.8678C70.5473 43.5056 70.069 44.8126 69.1306 45.7709C68.1921 46.7094 66.939 47.1876 65.4126 47.1876C63.719 47.1876 62.4479 46.6716 61.5652 45.6594C60.6806 44.6292 60.2581 43.3762 60.2581 41.9037C60.2581 40.3576 60.7363 39.0865 61.6748 38.0923C62.6295 37.1178 63.8826 36.6216 65.4467 36.6216ZM65.3371 38.4447C64.6197 38.4447 64.03 38.7575 63.5878 39.3652C63.1455 39.9728 62.9243 40.8016 62.9243 41.8696C62.9243 42.9375 63.1455 43.7843 63.5878 44.4099C64.03 45.0356 64.6557 45.3484 65.4467 45.3484C66.1281 45.3484 66.698 45.0535 67.1583 44.4836C67.6186 43.8939 67.8397 43.0292 67.8397 41.8875C67.8397 40.8376 67.6365 40.0106 67.214 39.3831C66.8095 38.7575 66.1839 38.4447 65.3371 38.4447Z" fill="#057FE2"/>
<path d="M72.2034 31.9281H74.5406C74.6503 31.9281 74.706 31.9839 74.706 32.0935V37.0088C75.3874 36.7518 76.1048 36.6403 76.8779 36.6403C78.3323 36.6403 79.4919 37.1005 80.3567 38.039C81.2413 38.9595 81.6638 40.1569 81.6638 41.6113C81.6638 43.3606 81.1298 44.7234 80.0439 45.7356C78.958 46.7298 77.6689 47.226 76.1587 47.226C74.5946 47.226 73.2678 46.9689 72.1639 46.4349C72.0722 46.399 72.0344 46.3253 72.0344 46.2318V32.0738C72.056 31.9641 72.0937 31.9281 72.2034 31.9281ZM78.9598 41.8504C78.9598 40.7825 78.7207 39.9735 78.2227 39.4198C77.7444 38.8678 77.099 38.591 76.272 38.591C75.6643 38.591 75.1303 38.7006 74.6881 38.9218V45.0147C75.0926 45.2358 75.6265 45.3455 76.29 45.3455C77.0271 45.3455 77.6527 45.0506 78.1669 44.4429C78.7027 43.8389 78.9598 42.9741 78.9598 41.8504Z" fill="#057FE2"/>
<path d="M89.6578 42.3842H85.4598C85.4778 43.231 85.7367 43.9124 86.2509 44.4283C86.7848 44.9246 87.5399 45.1834 88.5521 45.1834C89.5463 45.1834 90.4111 45.018 91.1482 44.6675C91.2399 44.6315 91.2777 44.6675 91.2777 44.7771V46.3413C91.2777 46.4707 91.2417 46.5444 91.1482 46.5984C90.2637 47.0029 89.2155 47.206 88.0002 47.206C87.0617 47.206 86.2509 47.0586 85.5515 46.7638C84.8521 46.4689 84.3182 46.0824 83.9316 45.5664C83.5451 45.0702 83.2502 44.5164 83.0471 43.9285C82.8637 43.3209 82.7702 42.6952 82.7702 42.0138C82.7702 40.5036 83.2125 39.2164 84.0772 38.1844C84.9618 37.1345 86.1753 36.6203 87.7035 36.6203C89.158 36.6203 90.2439 37.0446 90.9613 37.9094C91.6786 38.7741 92.0472 39.7863 92.0472 40.9477C92.0472 41.372 92.0112 41.7765 91.9555 42.1451C91.9375 42.2368 91.8818 42.2925 91.7901 42.3105C91.4071 42.3662 90.688 42.3842 89.6578 42.3842ZM85.4418 40.7643H88.4065C89.0699 40.7643 89.4367 40.7464 89.5104 40.7284C89.5284 40.6726 89.5284 40.581 89.5284 40.4335C89.5284 39.8996 89.3809 39.4393 89.0681 39.0168C88.7733 38.5925 88.295 38.3912 87.6136 38.3912C86.9502 38.3912 86.436 38.6123 86.0675 39.0726C85.7169 39.513 85.5155 40.083 85.4418 40.7643Z" fill="#057FE2"/>
<path d="M17.379 27.8033H27.5585V52.1965L17.379 27.8033Z" fill="#057FE2"/>
<path d="M10.1993 27.8033H0V52.1965L10.1993 27.8033Z" fill="#057FE2"/>
<path d="M13.7887 36.7874L20.2681 52.1967H16.0162L14.0835 47.2814H9.33356L13.7887 36.7874Z" fill="#057FE2"/>
</svg>
