<svg width="165" height="80" viewBox="0 0 165 80" fill="none" xmlns="http://www.w3.org/2000/svg">
<path d="M57.9033 33.2994V41.5429C57.9033 41.6765 57.8502 41.8047 57.7557 41.8992C57.6612 41.9937 57.5331 42.0468 57.3994 42.0468H54.7972C54.6636 42.0467 54.5355 41.9936 54.441 41.8991C54.3466 41.8047 54.2935 41.6765 54.2934 41.5429V28.1344C54.2934 28.0007 54.3465 27.8726 54.441 27.7781C54.5355 27.6836 54.6636 27.6305 54.7972 27.6305H57.2053C57.3389 27.6305 57.4671 27.6836 57.5615 27.7781C57.656 27.8726 57.7091 28.0007 57.7091 28.1344V30.0226C57.7091 30.0226 58.5699 27.3291 61.1246 27.3291C61.1246 27.3291 63.6515 27.0236 64.6789 29.8283C64.6789 29.8283 65.5397 27.3291 68.15 27.3291C68.15 27.3291 72.0317 27.0983 72.0317 31.115L72.0613 33.3271V41.5707C72.0613 41.7043 72.0082 41.8325 71.9137 41.927C71.8192 42.0214 71.6911 42.0745 71.5574 42.0745H68.955C68.8214 42.0745 68.6933 42.0214 68.5988 41.9269C68.5043 41.8324 68.4512 41.7043 68.4512 41.5707L68.4274 32.5774C68.5014 30.5409 66.854 30.6891 66.854 30.6891C64.7807 30.7262 64.9802 33.3271 64.9802 33.3271V41.5707C64.9802 41.7043 64.9271 41.8325 64.8326 41.927C64.7381 42.0214 64.61 42.0745 64.4763 42.0745H61.8741C61.7405 42.0745 61.6124 42.0214 61.5179 41.9269C61.4235 41.8324 61.3703 41.7043 61.3703 41.5707V32.7809C61.3703 32.7809 61.5225 30.6704 59.6711 30.6704C59.6713 30.6704 57.8386 30.4299 57.9033 33.2994ZM124.981 33.2747V41.518C124.981 41.6517 124.928 41.7798 124.834 41.8742C124.739 41.9687 124.611 42.0218 124.477 42.0219L121.771 42.0743C121.637 42.0742 121.509 42.0211 121.415 41.9267C121.32 41.8322 121.267 41.7041 121.267 41.5705V32.7809C121.267 32.7809 121.419 30.6704 119.568 30.6704C119.568 30.6704 117.8 30.5834 117.8 33.8923V41.5427C117.8 41.6763 117.747 41.8044 117.652 41.8989C117.558 41.9934 117.43 42.0465 117.296 42.0465H114.694C114.56 42.0465 114.432 41.9934 114.338 41.8989C114.243 41.8044 114.19 41.6763 114.19 41.5427V28.1344C114.19 28.0008 114.243 27.8726 114.338 27.7782C114.432 27.6837 114.56 27.6306 114.694 27.6305H117.102C117.236 27.6305 117.364 27.6836 117.458 27.7781C117.553 27.8726 117.606 28.0007 117.606 28.1344V30.0226C117.606 30.0226 118.467 27.3291 121.021 27.3291C121.021 27.3291 123.758 26.9139 124.68 29.7761C124.68 29.7758 124.981 30.3663 124.981 33.2747ZM106.192 27.2735C102.864 27.2735 100.166 30.0782 100.166 34.7989C100.166 38.9551 102.249 42.3242 106.192 42.3242C109.913 42.3242 112.218 38.9551 112.218 34.7989C112.218 30.1615 109.52 27.2735 106.192 27.2735ZM108.293 34.9655C108.293 36.7427 108.07 37.6868 108.07 37.6868C107.754 39.5656 106.391 39.5682 106.189 39.5582C105.972 39.5669 104.597 39.5473 104.313 37.6868C104.313 37.6868 104.09 36.7427 104.09 34.9655V34.6694C104.09 32.8922 104.313 31.948 104.313 31.948C104.597 30.0875 105.973 30.068 106.189 30.0764C106.391 30.0664 107.754 30.0689 108.07 31.948C108.07 31.948 108.293 32.8922 108.293 34.6694V34.9655ZM98.6561 30.004V28.0802C98.656 27.9466 98.6029 27.8184 98.5084 27.724C98.414 27.6295 98.2859 27.5764 98.1523 27.5763H89.5508C89.4171 27.5763 89.289 27.6294 89.1945 27.7239C89.1 27.8184 89.0469 27.9465 89.0469 28.0802V29.9891C89.047 30.1227 89.1001 30.2508 89.1946 30.3453C89.2891 30.4398 89.4172 30.4929 89.5508 30.4929H94.0374L88.7268 38.1971C88.7268 38.1971 88.5176 38.5095 88.5245 38.8545V41.1979C88.5245 41.1979 88.4898 42.0014 89.401 41.5351C89.401 41.5351 91.0196 40.5572 93.7336 40.5572C93.7336 40.5572 96.4137 40.5239 98.2007 41.6193C98.2007 41.6193 98.9424 41.9566 98.9424 41.215V39.1752C98.9424 39.1752 99.0097 38.6354 98.3018 38.2984C98.3018 38.2984 96.2451 37.169 93.5481 37.3543L98.6561 30.004ZM52.285 39.6489L51.4704 38.4088C51.2111 37.9459 51.2298 37.4274 51.2298 37.4274V31.7072C51.3409 26.7644 45.8612 27.1902 45.8612 27.1902C40.99 27.1902 40.2705 30.9812 40.2705 30.9812C40.0674 31.7434 40.6579 31.7619 40.6579 31.7619L43.0382 32.0033C43.0382 32.0033 43.444 32.0962 43.5918 31.613C43.5918 31.613 43.9052 29.9591 45.6582 29.9591C47.5655 29.9591 47.5457 31.5961 47.5457 31.5961V32.9666C43.7382 33.0939 41.9737 34.1509 41.9737 34.1509C39.6227 35.4838 39.7706 38.1311 39.7706 38.1311C39.7706 42.4444 43.8803 42.2591 43.8803 42.2591C46.509 42.2591 48.064 40.334 48.064 40.334C48.5267 41.1488 49.3784 41.9259 49.3784 41.9259C49.8045 42.388 50.2486 42.0001 50.2486 42.0001L52.1739 40.3526C52.5995 40.0376 52.285 39.6489 52.285 39.6489ZM45.1632 39.5956C43.9268 39.5956 43.4671 38.3668 43.6724 37.1592C43.8779 35.9516 44.9451 35.0026 47.546 35.0304V35.7646C47.6382 38.972 46.1924 39.5956 45.1632 39.5956ZM86.8655 39.6489L86.0511 38.4088C85.7919 37.9459 85.8103 37.4274 85.8103 37.4274V31.7072C85.9214 26.7644 80.4417 27.1902 80.4417 27.1902C75.5705 27.1902 74.851 30.9812 74.851 30.9812C74.6479 31.7434 75.2384 31.7619 75.2384 31.7619L77.6187 32.0033C77.6187 32.0033 78.0245 32.0962 78.1723 31.613C78.1723 31.613 78.4857 29.9591 80.2387 29.9591C82.146 29.9591 82.1262 31.5961 82.1262 31.5961V32.9666C78.3189 33.0939 76.5542 34.1509 76.5542 34.1509C74.2032 35.4838 74.3511 38.1311 74.3511 38.1311C74.3511 42.4444 78.4608 42.2591 78.4608 42.2591C81.0895 42.2591 82.6445 40.334 82.6445 40.334C83.1074 41.1488 83.9587 41.9259 83.9587 41.9259C84.3848 42.388 84.8291 42.0001 84.8291 42.0001L86.7542 40.3526C87.18 40.0376 86.8655 39.6489 86.8655 39.6489ZM79.7437 39.5956C78.5073 39.5956 78.0476 38.3668 78.2529 37.1592C78.4584 35.9516 79.5256 35.0026 82.1262 35.0304V35.7646C82.2186 38.972 80.7731 39.5956 79.7437 39.5956Z" fill="#057FE2"/>
<path d="M93.4173 50.4757C93.4173 50.4757 93.1996 50.8544 93.467 50.9391C93.467 50.9391 93.7692 51.057 94.1459 50.7074C94.1459 50.7074 96.8936 48.307 96.9598 43.9369C96.9598 43.9369 96.9801 43.391 96.761 43.2418C96.761 43.2418 95.9002 42.4802 92.8048 42.7119C92.8048 42.7119 90.1067 42.8941 88.6336 44.2019C88.6336 44.2019 88.5012 44.3176 88.5012 44.4665C88.5012 44.4665 88.4694 44.7879 89.2792 44.6486C89.2792 44.6486 91.9771 44.2677 93.5828 44.4665C93.5828 44.4665 94.4107 44.5658 94.6424 44.8475C94.6424 44.8475 95.0232 45.162 94.8244 46.2046C94.8244 46.205 94.2779 48.8535 93.4173 50.4757Z" fill="#057FE2"/>
<path d="M92.873 46.2828C92.873 46.2828 93.276 46.8048 92.6257 47.2551C92.6257 47.2551 85.6799 52.8111 74.0173 52.8111C74.0173 52.8111 62.0121 53.4034 51.9878 44.2952C51.9878 44.2952 51.6363 43.9866 51.8545 43.6998C51.8545 43.6998 52.0495 43.4359 52.5544 43.7229C52.5544 43.7229 61.9843 49.599 74.3689 49.599C74.3689 49.599 82.9771 49.9323 91.8073 46.1557C91.8073 46.1557 92.5109 45.7911 92.873 46.2828Z" fill="#057FE2"/>
</svg>
