<svg width="164" height="80" viewBox="0 0 164 80" fill="none" xmlns="http://www.w3.org/2000/svg">
<path d="M35.9141 24.5951V55.4047H128.34V24.5951H35.9141Z" fill="#057FE2"/>
<mask id="mask0_1_554" style="mask-type:luminance" maskUnits="userSpaceOnUse" x="35" y="24" width="94" height="32">
<path d="M35.9099 24.5953V55.4049H128.339V24.5953H35.9099Z" fill="white"/>
</mask>
<g mask="url(#mask0_1_554)">
<path d="M76.1774 34.9789C74.8126 34.9789 73.26 35.6118 72.3108 36.8786L72.3117 36.8763L72.3108 36.8772L72.3117 35.1776H69.0553V47.0356H72.3108V40.2888C72.3108 39.0741 73.2523 37.7833 74.9955 37.7833C76.3431 37.7833 77.7369 38.7202 77.7369 40.2888V47.0356H80.9933V39.6848C80.9933 36.958 79.0423 34.9789 76.1774 34.9789Z" fill="white"/>
<path d="M104.136 35.1789L101.192 43.2565L98.2487 35.1789H94.5295L99.4084 47.0323H102.976L107.855 35.1789H104.136Z" fill="white"/>
<path d="M59.335 38.7506C59.8894 38.006 60.7729 37.5691 61.8396 37.5691C63.0134 37.5691 63.9036 38.2393 64.3632 39.2279L58.6748 41.5882C58.5192 40.3772 58.8291 39.4298 59.335 38.7506ZM65.591 43.3899C64.2203 44.404 63.4371 44.6463 62.1876 44.6463C61.0628 44.6463 60.1826 44.2973 59.5614 43.6848L67.8859 40.2311C67.7044 38.9443 67.2162 37.7951 66.4644 36.9207C65.3705 35.6503 63.7516 34.9784 61.781 34.9784C58.2002 34.9784 55.5005 37.6199 55.5005 41.1081C55.5005 44.6871 58.2066 47.2375 62.1395 47.2375C64.3428 47.2375 66.596 46.193 67.6495 44.9729L65.591 43.3899Z" fill="white"/>
<path d="M55.1895 44.046H47.7887V31.6317H44.4883V47.0355H55.1895V44.046Z" fill="white"/>
<path d="M113.701 37.7687C111.883 37.7687 110.563 39.1467 110.563 41.1072C110.563 42.9788 111.961 44.4457 113.745 44.4457C115.564 44.4457 116.884 43.0296 116.884 41.1072C116.884 39.2352 115.486 37.7687 113.701 37.7687ZM113.701 47.2356C110.14 47.2356 107.35 44.5827 107.35 41.1072C107.35 37.6707 110.16 34.9784 113.745 34.9784C117.306 34.9784 120.096 37.6313 120.096 41.1072C120.096 44.5433 117.287 47.2356 113.701 47.2356Z" fill="white"/>
<path d="M88.633 37.7687C86.8144 37.7687 85.4945 39.1467 85.4945 41.1072C85.4945 42.9788 86.8929 44.4457 88.677 44.4457C90.4955 44.4457 91.8159 43.0296 91.8159 41.1072C91.8159 39.2352 90.4175 37.7687 88.633 37.7687ZM88.633 47.2356C85.0717 47.2356 82.2822 44.5827 82.2822 41.1072C82.2822 37.6707 85.0912 34.9784 88.677 34.9784C92.2378 34.9784 95.0278 37.6313 95.0278 41.1072C95.0278 44.5433 92.2188 47.2356 88.633 47.2356Z" fill="white"/>
</g>
</svg>
