<svg width="164" height="80" viewBox="0 0 164 80" fill="none" xmlns="http://www.w3.org/2000/svg">
<path d="M66.7073 46.1475H69.8801V58.5411H66.7073V46.1475ZM95.0645 49.7169C94.9653 49.6177 93.9738 49.0228 92.3874 49.0228C90.4044 49.0228 88.9171 50.4109 88.9171 52.2947C88.9171 54.1786 90.3052 55.5667 92.3874 55.5667C93.8747 55.5667 94.8662 54.9718 95.0645 54.8726V58.2437C94.6679 58.3428 93.5772 58.6403 92.1891 58.6403C88.6197 58.6403 85.546 56.2607 85.546 52.1956C85.546 48.5271 88.3222 45.7509 92.1891 45.7509C93.6764 45.7509 94.767 46.1475 95.0645 46.1475V49.7169ZM62.3446 49.7169C62.2455 49.6177 61.254 49.0228 59.6676 49.0228C57.6845 49.0228 56.1973 50.4109 56.1973 52.2947C56.1973 54.1786 57.5854 55.5667 59.6676 55.5667C61.1548 55.5667 62.1463 54.9718 62.3446 54.8726V58.2437C61.948 58.3428 60.8574 58.6403 59.4693 58.6403C55.999 58.6403 52.8261 56.2607 52.8261 52.1956C52.8261 48.5271 55.6024 45.7509 59.4693 45.7509C60.9565 45.7509 62.0472 46.1475 62.3446 46.1475V49.7169ZM111.424 52.3939C111.424 55.9633 108.648 58.8386 104.88 58.8386C101.113 58.8386 98.3365 55.9633 98.3365 52.3939C98.3365 48.8245 101.113 45.9492 104.88 45.9492C108.747 45.9492 111.424 48.8245 111.424 52.3939ZM104.88 49.122C102.997 49.122 101.608 50.6092 101.608 52.3939C101.608 54.1786 102.997 55.6658 104.88 55.6658C106.764 55.6658 108.152 54.1786 108.152 52.3939C108.152 50.6092 106.764 49.122 104.88 49.122ZM81.6791 49.0228C81.6791 49.0228 80.291 48.6262 79.2003 48.6262C77.9114 48.6262 77.2173 49.0228 77.2173 49.6177C77.2173 50.4109 78.1097 50.6092 78.6054 50.8075L79.4978 51.105C81.4808 51.799 82.4723 53.1871 82.4723 54.6743C82.4723 57.7479 79.6961 58.8386 77.3164 58.8386C75.6309 58.8386 74.0445 58.5411 73.9453 58.5411V55.6658C74.2428 55.765 75.5317 56.1615 76.9198 56.1615C78.5063 56.1615 79.2003 55.6658 79.2003 54.9718C79.2003 54.3769 78.6054 53.9803 77.8122 53.782C77.6139 53.6828 77.3164 53.5837 77.1181 53.5837C75.3334 52.9888 73.9453 51.9973 73.9453 49.9152C73.9453 47.6347 75.73 46.0484 78.6054 46.0484C80.0927 46.0484 81.5799 46.445 81.6791 46.445V49.0228Z" fill="#057FE2"/>
<path d="M49.5543 32.8612C49.557 32.6522 49.5178 32.4447 49.439 32.251C49.3602 32.0573 49.2434 31.8814 49.0956 31.7336C48.9477 31.5857 48.7718 31.469 48.5781 31.3902C48.3844 31.3114 48.177 31.2722 47.9679 31.2748C47.7588 31.2722 47.5513 31.3114 47.3577 31.3902C47.164 31.469 46.988 31.5857 46.8402 31.7336C46.6923 31.8814 46.5756 32.0573 46.4968 32.251C46.418 32.4447 46.3788 32.6522 46.3815 32.8612V36.1331C46.3788 36.3422 46.418 36.5497 46.4968 36.7434C46.5756 36.937 46.6923 37.113 46.8402 37.2608C46.988 37.4087 47.164 37.5254 47.3577 37.6042C47.5513 37.683 47.7588 37.7222 47.9679 37.7195C48.177 37.7222 48.3844 37.683 48.5781 37.6042C48.7718 37.5254 48.9477 37.4087 49.0956 37.2608C49.2434 37.113 49.3602 36.937 49.439 36.7434C49.5178 36.5497 49.557 36.3422 49.5543 36.1331V32.8612Z" fill="#057FE2"/>
<path d="M58.0811 28.5977C58.0837 28.3887 58.0445 28.1812 57.9657 27.9875C57.887 27.7938 57.7702 27.6179 57.6224 27.4701C57.4745 27.3222 57.2986 27.2055 57.1049 27.1267C56.9112 27.0479 56.7037 27.0087 56.4947 27.0113C55.6023 27.0113 55.0074 27.7054 55.0074 28.5977V36.133C55.0047 36.3421 55.0439 36.5496 55.1227 36.7433C55.2015 36.9369 55.3183 37.1129 55.4661 37.2607C55.614 37.4086 55.7899 37.5253 55.9836 37.6041C56.1772 37.6829 56.3847 37.7221 56.5938 37.7194C56.8029 37.7221 57.0104 37.6829 57.204 37.6041C57.3977 37.5253 57.5737 37.4086 57.7215 37.2607C57.8694 37.1129 57.9861 36.9369 58.0649 36.7433C58.1437 36.5496 58.1829 36.3421 58.1802 36.133V28.5977H58.0811ZM66.7072 22.7479C66.7099 22.5389 66.6707 22.3314 66.5919 22.1377C66.5131 21.9441 66.3963 21.7681 66.2485 21.6203C66.1006 21.4724 65.9247 21.3557 65.731 21.2769C65.5373 21.1981 65.3299 21.1589 65.1208 21.1616C64.9117 21.1589 64.7042 21.1981 64.5106 21.2769C64.3169 21.3557 64.1409 21.4724 63.9931 21.6203C63.8452 21.7681 63.7285 21.9441 63.6497 22.1377C63.5709 22.3314 63.5317 22.5389 63.5344 22.7479V39.2067C63.5317 39.4157 63.5709 39.6232 63.6497 39.8169C63.7285 40.0106 63.8452 40.1865 63.9931 40.3343C64.1409 40.4822 64.3169 40.5989 64.5106 40.6777C64.7042 40.7565 64.9117 40.7957 65.1208 40.793C65.3299 40.7957 65.5373 40.7565 65.731 40.6777C65.9247 40.5989 66.1006 40.4822 66.2485 40.3343C66.3963 40.1865 66.5131 40.0106 66.5919 39.8169C66.6707 39.6232 66.7099 39.4157 66.7072 39.2067V22.7479ZM75.2342 28.5977C75.2369 28.3887 75.1976 28.1812 75.1189 27.9875C75.0401 27.7938 74.9233 27.6179 74.7755 27.4701C74.6276 27.3222 74.4517 27.2055 74.258 27.1267C74.0643 27.0479 73.8569 27.0087 73.6478 27.0113C73.4387 27.0087 73.2312 27.0479 73.0375 27.1267C72.8439 27.2055 72.6679 27.3222 72.5201 27.4701C72.3722 27.6179 72.2555 27.7938 72.1767 27.9875C72.0979 28.1812 72.0587 28.3887 72.0614 28.5977V36.133C72.0587 36.3421 72.0979 36.5496 72.1767 36.7433C72.2555 36.9369 72.3722 37.1129 72.5201 37.2607C72.6679 37.4086 72.8439 37.5253 73.0375 37.6041C73.2312 37.6829 73.4387 37.7221 73.6478 37.7194C73.8569 37.7221 74.0643 37.6829 74.258 37.6041C74.4517 37.5253 74.6276 37.4086 74.7755 37.2607C74.9233 37.1129 75.0401 36.9369 75.1189 36.7433C75.1976 36.5496 75.2369 36.3421 75.2342 36.133V28.5977Z" fill="#057FE2"/>
<path d="M83.762 32.8612C83.7647 32.6522 83.7255 32.4447 83.6467 32.251C83.5679 32.0573 83.4512 31.8814 83.3033 31.7336C83.1555 31.5857 82.9795 31.469 82.7859 31.3902C82.5922 31.3114 82.3847 31.2722 82.1756 31.2748C81.9666 31.2722 81.7591 31.3114 81.5654 31.3902C81.3717 31.469 81.1958 31.5857 81.0479 31.7336C80.9001 31.8814 80.7833 32.0573 80.7045 32.251C80.6258 32.4447 80.5865 32.6522 80.5892 32.8612V36.1331C80.5865 36.3422 80.6258 36.5497 80.7045 36.7434C80.7833 36.937 80.9001 37.113 81.0479 37.2608C81.1958 37.4087 81.3717 37.5254 81.5654 37.6042C81.7591 37.683 81.9666 37.7222 82.1756 37.7195C82.3847 37.7222 82.5922 37.683 82.7859 37.6042C82.9795 37.5254 83.1555 37.4087 83.3033 37.2608C83.4512 37.113 83.5679 36.937 83.6467 36.7434C83.7255 36.5497 83.7647 36.3422 83.762 36.1331V32.8612Z" fill="#057FE2"/>
<path d="M92.2877 28.5976C92.2877 28.1769 92.1206 27.7734 91.823 27.4759C91.5255 27.1784 91.122 27.0112 90.7013 27.0112C90.2805 27.0112 89.877 27.1784 89.5795 27.4759C89.282 27.7734 89.1149 28.1769 89.1149 28.5976V36.1329C89.1149 36.5537 89.282 36.9572 89.5795 37.2547C89.877 37.5522 90.2805 37.7193 90.7013 37.7193C91.122 37.7193 91.5255 37.5522 91.823 37.2547C92.1206 36.9572 92.2877 36.5537 92.2877 36.1329V28.5976ZM100.815 22.7478C100.815 22.3271 100.648 21.9236 100.35 21.6261C100.053 21.3286 99.649 21.1614 99.2283 21.1614C98.8075 21.1614 98.404 21.3286 98.1065 21.6261C97.809 21.9236 97.6419 22.3271 97.6419 22.7478V39.2065C97.6419 39.6273 97.809 40.0308 98.1065 40.3283C98.404 40.6258 98.8075 40.7929 99.2283 40.7929C99.649 40.7929 100.053 40.6258 100.35 40.3283C100.648 40.0308 100.815 39.6273 100.815 39.2065V22.7478ZM109.342 28.5976C109.342 28.3893 109.301 28.183 109.221 27.9905C109.141 27.7981 109.024 27.6232 108.877 27.4759C108.73 27.3286 108.555 27.2117 108.362 27.132C108.17 27.0523 107.964 27.0112 107.755 27.0112C107.547 27.0112 107.341 27.0523 107.148 27.132C106.956 27.2117 106.781 27.3286 106.633 27.4759C106.486 27.6232 106.369 27.7981 106.29 27.9905C106.21 28.183 106.169 28.3893 106.169 28.5976V36.1329C106.169 36.3412 106.21 36.5475 106.29 36.74C106.369 36.9325 106.486 37.1074 106.633 37.2547C106.781 37.402 106.956 37.5188 107.148 37.5985C107.341 37.6783 107.547 37.7193 107.755 37.7193C107.964 37.7193 108.17 37.6783 108.362 37.5985C108.555 37.5188 108.73 37.402 108.877 37.2547C109.024 37.1074 109.141 36.9325 109.221 36.74C109.301 36.5475 109.342 36.3412 109.342 36.1329V28.5976ZM117.869 32.861C117.869 32.4403 117.702 32.0368 117.404 31.7393C117.107 31.4418 116.703 31.2746 116.282 31.2746C115.862 31.2746 115.458 31.4418 115.16 31.7393C114.863 32.0368 114.696 32.4403 114.696 32.861V36.1329C114.696 36.5537 114.863 36.9572 115.16 37.2547C115.458 37.5522 115.862 37.7193 116.282 37.7193C116.703 37.7193 117.107 37.5522 117.404 37.2547C117.702 36.9572 117.869 36.5537 117.869 36.1329V32.861Z" fill="#057FE2"/>
</svg>
