<svg width="24" height="24" viewBox="0 0 24 24" fill="none" xmlns="http://www.w3.org/2000/svg">
<path d="M4.78141 20.0001C4.62687 20.0001 4.47579 19.9543 4.34729 19.8685C4.21878 19.7826 4.11862 19.6606 4.05948 19.5178C4.00033 19.3751 3.98486 19.2179 4.01502 19.0664C4.04518 18.9148 4.11961 18.7756 4.2289 18.6663L18.6666 4.22861C18.8132 4.08208 19.0119 3.99976 19.2191 3.99976C19.4264 3.99976 19.6251 4.08208 19.7716 4.22861C19.9182 4.37515 20.0005 4.57389 20.0005 4.78112C20.0005 4.98835 19.9182 5.18709 19.7716 5.33363L5.33392 19.7713C5.26143 19.844 5.1753 19.9016 5.08048 19.9408C4.98567 19.9801 4.88403 20.0002 4.78141 20.0001Z" fill="black"/>
<path d="M19.2192 20.0001C19.1166 20.0002 19.0149 19.9801 18.9201 19.9408C18.8253 19.9016 18.7392 19.844 18.6667 19.7713L4.22898 5.33363C4.08244 5.18709 4.00012 4.98835 4.00012 4.78112C4.00012 4.57389 4.08244 4.37515 4.22898 4.22861C4.37551 4.08208 4.57426 3.99976 4.78149 3.99976C4.98872 3.99976 5.18746 4.08208 5.334 4.22861L19.7717 18.6663C19.881 18.7756 19.9554 18.9148 19.9856 19.0664C20.0157 19.2179 20.0003 19.3751 19.9411 19.5178C19.882 19.6606 19.7818 19.7826 19.6533 19.8685C19.5248 19.9543 19.3737 20.0001 19.2192 20.0001Z" fill="black"/>
</svg>
