<svg width="1920" height="295" viewBox="0 0 1920 295" fill="none" xmlns="http://www.w3.org/2000/svg">
<g opacity="0.1">
<path d="M1257.13 -191.64C1225.99 -183.982 1198.15 -183.534 1173.64 -198.161C1091.05 -247.621 1069.88 -332.259 945.625 -355.763C881.786 -367.786 802.508 -357.186 722.613 -331.603C345.252 -210.413 237.387 -17.8994 234.54 49.5738C231.594 118.718 367.66 124.28 466.071 118.58C587.313 111.587 718.186 95.5168 816.281 119.982C919.845 145.825 1171.07 190.692 1305.74 186.956C1400.76 184.32 1562.31 154.243 1640.42 97.1239C1718.53 40.0046 1714.74 -41.6477 1722.66 -101.06C1730.58 -160.472 2141.23 -289.296 2099.82 -331.529C2044.14 -388.318 1864.8 -358.313 1744.53 -334.153C1622.58 -309.645 1499.69 -275.429 1378.65 -234.292C1333.9 -219.009 1293.29 -200.499 1257.13 -191.64Z" stroke="url(#paint0_linear_41_3600)" stroke-width="1.6412" stroke-miterlimit="10"/>
<path d="M210.161 52.2885C206.986 125.96 352.178 131.824 456.968 125.818C586.083 118.444 725.753 101.173 830.21 127.38C940.542 154.958 1172.64 207.42 1316.25 203.397C1417.62 200.616 1580.62 165.995 1663.99 105.031C1738.49 50.5482 1739.73 -25.6276 1751.1 -82.7725C1762.86 -141.646 2125.32 -261.387 2090.75 -305.279C2042.76 -365.947 1882.01 -350.262 1768.63 -336.81C1654.84 -323.351 1536.69 -297.981 1417.97 -263.771C1373.99 -251.084 1333.46 -235.107 1296.63 -227.207C1265.2 -220.353 1236.65 -219.681 1210.29 -231.642C1170.62 -249.716 1139.35 -271.895 1106.78 -292.548C1079.05 -310.199 1050.08 -326.647 1012.7 -337.968C994.598 -343.475 973.836 -347.329 949.905 -349.737C884.739 -356.14 805.466 -343.655 722.749 -317.171C600.062 -277.733 500.552 -232.43 422.4 -185.597C275.828 -97.8868 212.347 0.12091 210.161 52.2885Z" stroke="url(#paint1_linear_41_3600)" stroke-width="1.6412" stroke-miterlimit="10"/>
<path d="M185.608 55.1172C182.203 133.316 336.37 139.592 447.69 133.17C584.829 125.306 732.996 107.053 844.115 134.781C961.214 164.095 1174.31 224.205 1326.71 220.003C1434.31 217.027 1599.03 177.803 1687.36 113.214C1758.41 61.2579 1764.54 -9.49349 1779.35 -64.2095C1795.09 -122.655 2109.64 -233.37 2081.34 -278.643C2041.18 -343.299 1898.85 -341.664 1792.51 -339.029C1686.7 -336.347 1573.62 -320.206 1457.22 -292.922C1414.29 -282.889 1373.84 -269.445 1336.06 -262.447C1304.21 -256.449 1274.68 -255.493 1246.58 -264.736C1203.28 -278.989 1165.75 -294.994 1127.01 -309.096C1094.31 -321.075 1061.02 -331.753 1020.55 -338.344C1001.3 -341.411 979.128 -342.929 953.965 -343.273C888.05 -344.334 808.054 -329.576 722.815 -302.41C603.274 -264.256 500.675 -221.925 415.673 -177.204C267.82 -99.6009 188.132 -4.27242 185.608 55.1172Z" stroke="url(#paint2_linear_41_3600)" stroke-width="1.6412" stroke-miterlimit="10"/>
<path d="M161.08 57.9417C157.572 140.72 320.588 147.356 438.415 140.68C583.577 132.326 740.517 113.033 857.872 142.45C981.889 173.389 1175.7 241.205 1336.89 236.825C1450.72 233.653 1617.02 189.937 1710.6 121.503C1778.04 72.1832 1789.51 6.68865 1807.63 -45.6504C1827.48 -103.615 2093.86 -205.408 2072.09 -252.12C2039.93 -320.876 1915.99 -333.127 1816.44 -341.413C1718.76 -349.619 1610.59 -342.596 1496.39 -322.291C1454.35 -314.802 1414.14 -304 1375.53 -297.853C1343.26 -292.711 1312.88 -291.419 1283.21 -298.055C1236.27 -308.486 1192.48 -318.316 1147.43 -325.92C1109.88 -332.175 1072.3 -337.245 1028.6 -338.997C1008.21 -339.786 984.896 -338.863 958.244 -337.248C891.731 -333.075 811.013 -316.045 723.101 -288.087C606.811 -251.002 501.528 -211.65 409.016 -169.138C260.985 -100.851 163.941 -8.66998 161.08 57.9417Z" stroke="url(#paint3_linear_41_3600)" stroke-width="1.6412" stroke-miterlimit="10"/>
<path d="M136.526 60.7686C132.788 148.075 304.779 155.122 429.136 148.031C582.299 139.348 747.759 118.911 871.776 149.85C1002.56 182.525 1177.37 257.988 1347.37 253.268C1467.56 249.952 1635.45 201.581 1734.27 129.465C1798.11 82.7813 1815.18 22.4857 1836.05 -27.3608C1860.29 -84.9032 2078.63 -177.722 2062.87 -225.919C2039 -298.993 1933.13 -324.749 1840.52 -344.068C1750.93 -362.837 1647.7 -365.093 1535.81 -351.716C1494.82 -346.881 1454.7 -338.611 1415.26 -333.314C1382.7 -328.976 1351.33 -327.401 1319.8 -331.372C1268.8 -337.814 1219.46 -341.694 1167.96 -342.689C1125.74 -343.492 1083.57 -342.734 1036.72 -339.433C1015.21 -337.944 990.615 -334.633 962.581 -330.844C895.642 -321.71 813.878 -302.026 723.444 -273.386C610.277 -237.423 502.948 -200.788 402.543 -160.643C254.739 -101.676 139.747 -13.227 136.526 60.7686Z" stroke="url(#paint4_linear_41_3600)" stroke-width="1.6412" stroke-miterlimit="10"/>
<path d="M111.996 63.5929C108.029 155.427 288.995 162.885 419.882 155.379C581.068 146.205 755.175 124.677 885.427 157.305C1022.98 191.715 1178.51 274.884 1357.57 269.928C1483.99 266.416 1653.45 213.553 1757.53 137.592C1817.76 93.5445 1840.45 38.4479 1864.2 -8.85406C1892.98 -66.0836 2063.15 -149.981 2053.35 -199.34C2038.04 -276.789 1949.67 -315.773 1864.29 -346.343C1782.64 -375.566 1684.5 -387.212 1574.68 -380.865C1534.71 -378.522 1494.69 -372.947 1454.46 -368.662C1421.6 -365.127 1389.1 -363.16 1356.14 -364.633C1301.2 -367.033 1246.08 -365.23 1188.23 -359.403C1141.46 -354.702 1095 -348.336 1044.62 -339.975C1022.13 -336.318 996.277 -330.782 966.709 -324.708C899.518 -310.885 816.812 -288.333 723.428 -258.844C613.384 -224.002 504.069 -189.547 395.434 -152.248C248.833 -101.862 115.555 -17.6247 111.996 63.5929Z" stroke="url(#paint5_linear_41_3600)" stroke-width="1.6412" stroke-miterlimit="10"/>
<path d="M87.7462 66.3599C83.5488 162.721 273.363 170.54 410.629 162.727C579.838 153.063 762.442 130.553 899.357 164.703C1043.83 200.738 1180.08 291.613 1367.93 286.478C1500.58 282.771 1671.89 225.357 1780.8 145.72C1837.58 104.198 1865.85 54.4625 1892.35 9.65309C1925.8 -47.2116 2047.95 -122.297 2043.98 -172.869C2037.52 -254.753 1966.23 -306.959 1888.09 -348.78C1814.1 -388.398 1721.2 -409.544 1613.85 -410.234C1574.77 -410.435 1534.85 -407.393 1493.93 -404.068C1460.66 -401.389 1427.16 -398.976 1392.77 -397.951C1333.74 -396.201 1273.26 -388.882 1208.66 -376.227C1157.21 -366.074 1106.18 -354.041 1052.67 -340.627C1029.05 -334.692 1001.94 -326.93 970.966 -318.52C903.418 -300.222 819.599 -274.53 723.564 -244.411C616.644 -210.69 505.274 -177.93 388.755 -144.02C242.709 -101.452 91.365 -22.0219 87.7462 66.3599Z" stroke="url(#paint6_linear_41_3600)" stroke-width="1.6412" stroke-miterlimit="10"/>
<path d="M63.2173 69.1842C58.9175 170.125 257.858 178.245 401.654 170.018C578.886 159.863 770.136 136.26 913.414 172.152C1064.65 209.923 1181.9 308.445 1378.69 303.023C1517.54 299.281 1690.45 237.213 1804.62 153.731C1857.79 114.846 1892.2 70.3553 1921.2 27.9342C1959.72 -28.5713 2033.58 -94.7866 2035.31 -146.625C2037.95 -232.838 1983.35 -298.26 1912.58 -351.281C1846.09 -401.185 1758.56 -431.778 1653.55 -439.557C1615.37 -442.303 1575.53 -441.793 1533.94 -439.427C1500.23 -437.442 1465.59 -434.637 1429.64 -431.166C1366.78 -425.16 1300.28 -412.424 1229.46 -392.895C1173.37 -377.452 1117.9 -359.701 1061.22 -341.072C1036.63 -332.968 1008.14 -323.032 975.606 -312.177C907.572 -289.455 822.766 -260.572 724.21 -229.77C620.157 -197.275 506.515 -165.614 382.33 -135.689C236.39 -100.608 67.1738 -26.4197 63.2173 69.1842Z" stroke="url(#paint7_linear_41_3600)" stroke-width="1.6412" stroke-miterlimit="10"/>
<path d="M1069.14 -341.777C938.501 -289.839 704.627 -191.038 375.777 -127.41C229.446 -99.1644 43.1328 -30.9278 38.6883 72.008C34.1588 177.476 242.074 186.008 392.25 177.475C577.355 166.94 777.252 142.245 927.193 179.658C1085.35 219.055 1183.31 325.282 1388.89 319.682C1533.98 315.745 1708.61 249.074 1827.88 161.857C1947.15 74.6403 2013.49 -29.3863 2025.66 -120.097C2037.71 -210.86 1999.2 -289.221 1936.1 -353.661C1807.87 -484.397 1572.04 -519.895 1249.48 -409.714C1188.74 -388.98 1128.82 -365.512 1069.14 -341.777Z" stroke="url(#paint8_linear_41_3600)" stroke-width="1.6412" stroke-miterlimit="10"/>
</g>
<defs>
<linearGradient id="paint0_linear_41_3600" x1="634.063" y1="-344.443" x2="1195.1" y2="422.772" gradientUnits="userSpaceOnUse">
<stop stop-color="#BDEE60"/>
<stop offset="0.0001" stop-color="#044A9C"/>
<stop offset="0.989583" stop-color="#057FE2"/>
</linearGradient>
<linearGradient id="paint1_linear_41_3600" x1="616.193" y1="-331.521" x2="1189.28" y2="452.17" gradientUnits="userSpaceOnUse">
<stop stop-color="#BDEE60"/>
<stop offset="0.0001" stop-color="#044A9C"/>
<stop offset="0.989583" stop-color="#057FE2"/>
</linearGradient>
<linearGradient id="paint2_linear_41_3600" x1="596.253" y1="-320.21" x2="1182.94" y2="482.078" gradientUnits="userSpaceOnUse">
<stop stop-color="#BDEE60"/>
<stop offset="0.0001" stop-color="#044A9C"/>
<stop offset="0.989583" stop-color="#057FE2"/>
</linearGradient>
<linearGradient id="paint3_linear_41_3600" x1="575.494" y1="-311.127" x2="1177.13" y2="511.609" gradientUnits="userSpaceOnUse">
<stop stop-color="#BDEE60"/>
<stop offset="0.0001" stop-color="#044A9C"/>
<stop offset="0.989583" stop-color="#057FE2"/>
</linearGradient>
<linearGradient id="paint4_linear_41_3600" x1="555.295" y1="-304.948" x2="1173.06" y2="539.851" gradientUnits="userSpaceOnUse">
<stop stop-color="#BDEE60"/>
<stop offset="0.0001" stop-color="#044A9C"/>
<stop offset="0.989583" stop-color="#057FE2"/>
</linearGradient>
<linearGradient id="paint5_linear_41_3600" x1="537.551" y1="-302.688" x2="1172.4" y2="565.473" gradientUnits="userSpaceOnUse">
<stop stop-color="#BDEE60"/>
<stop offset="0.0001" stop-color="#044A9C"/>
<stop offset="0.989583" stop-color="#057FE2"/>
</linearGradient>
<linearGradient id="paint6_linear_41_3600" x1="526.103" y1="-306.587" x2="1178.78" y2="585.95" gradientUnits="userSpaceOnUse">
<stop stop-color="#BDEE60"/>
<stop offset="0.0001" stop-color="#044A9C"/>
<stop offset="0.989583" stop-color="#057FE2"/>
</linearGradient>
<linearGradient id="paint7_linear_41_3600" x1="518.139" y1="-314.168" x2="1189.32" y2="603.672" gradientUnits="userSpaceOnUse">
<stop stop-color="#BDEE60"/>
<stop offset="0.0001" stop-color="#044A9C"/>
<stop offset="0.989583" stop-color="#057FE2"/>
</linearGradient>
<linearGradient id="paint8_linear_41_3600" x1="512.367" y1="-324.162" x2="1202.3" y2="619.32" gradientUnits="userSpaceOnUse">
<stop stop-color="#BDEE60"/>
<stop offset="0.0001" stop-color="#044A9C"/>
<stop offset="0.989583" stop-color="#057FE2"/>
</linearGradient>
</defs>
</svg>
