<svg width="1920" height="545" viewBox="0 0 1920 545" fill="none" xmlns="http://www.w3.org/2000/svg">
<g clip-path="url(#clip0_41_3622)">
<g opacity="0.2" filter="url(#filter0_f_41_3622)">
<circle cx="245.074" cy="246.344" r="464.074" fill="#0374D3"/>
</g>
<mask id="mask0_41_3622" style="mask-type:alpha" maskUnits="userSpaceOnUse" x="294" y="-1164" width="2487" height="2781">
<rect width="1640.78" height="2295.34" transform="matrix(0.898363 0.439254 -0.4411 0.897458 1306.54 -1163.76)" fill="url(#paint0_linear_41_3622)"/>
</mask>
<g mask="url(#mask0_41_3622)">
<path d="M2141.78 466.59C1920.48 910.734 1409.52 1110.94 1000.61 913.723C957.728 893.039 917.517 868.732 880.332 841.399C1261.54 944.731 1691.58 742.665 1889.72 345.019C2087.86 -52.6265 1986.73 -510.663 1670.3 -744.018C1715.04 -731.84 1759.2 -715.455 1802.08 -694.771C2210.99 -497.556 2363.09 22.446 2141.78 466.59Z" fill="url(#paint1_linear_41_3622)"/>
<g filter="url(#filter1_f_41_3622)">
<path d="M2113.78 453.082C1892.47 897.226 1409.52 1110.94 1000.61 913.723C957.728 893.039 917.517 868.732 880.332 841.399C1261.54 944.731 1719.59 756.173 1917.73 358.527C2115.86 -39.1186 1986.73 -510.663 1670.3 -744.018C1715.04 -731.84 1759.2 -715.455 1802.08 -694.771C2210.99 -497.556 2335.08 8.93822 2113.78 453.082Z" fill="url(#paint2_linear_41_3622)"/>
</g>
<g filter="url(#filter2_f_41_3622)">
<path d="M2099.77 446.328C1878.47 890.472 1374.64 1111.21 965.741 913.992C922.856 893.308 882.644 869.001 845.459 841.668C1226.67 945 1733.59 762.927 1931.73 365.281C2129.87 -32.365 1949.11 -526.67 1632.68 -760.025C1677.42 -747.847 1721.58 -731.462 1764.47 -710.778C2173.37 -513.563 2321.08 2.18391 2099.77 446.328Z" fill="url(#paint3_linear_41_3622)"/>
</g>
<g filter="url(#filter3_f_41_3622)">
<path d="M2099.77 446.328C1878.47 890.472 1374.64 1111.21 965.741 913.992C922.856 893.308 882.644 869.001 845.459 841.668C1226.67 945 1733.59 762.927 1931.73 365.281C2129.87 -32.365 1949.11 -526.67 1632.68 -760.025C1677.42 -747.847 1721.58 -731.462 1764.47 -710.778C2173.37 -513.563 2321.08 2.18391 2099.77 446.328Z" fill="url(#paint4_linear_41_3622)"/>
</g>
<g filter="url(#filter4_f_41_3622)">
<path d="M2099.77 446.328C1878.47 890.472 1374.64 1111.21 965.741 913.992C922.856 893.308 882.644 869.001 845.459 841.668C1226.67 945 1733.59 762.927 1931.73 365.281C2129.87 -32.365 1949.11 -526.67 1632.68 -760.025C1677.42 -747.847 1721.58 -731.462 1764.47 -710.778C2173.37 -513.563 2321.08 2.18391 2099.77 446.328Z" fill="url(#paint5_linear_41_3622)"/>
</g>
<g filter="url(#filter5_f_41_3622)">
<path d="M2008.59 437.597C1787.29 881.741 1374.64 1111.21 965.741 913.992C922.856 893.308 882.644 869.001 845.459 841.668C1226.67 945 1773.51 796.107 1977.24 387.231C2232.51 -125.074 1949.11 -526.67 1632.68 -760.025C1677.42 -747.847 1721.58 -731.462 1764.47 -710.778C2173.37 -513.563 2229.9 -6.54722 2008.59 437.597Z" fill="url(#paint6_linear_41_3622)"/>
</g>
<g filter="url(#filter6_f_41_3622)">
<path d="M2008.59 437.597C1787.29 881.741 1393.21 1198.13 984.309 1000.91C941.423 980.228 848.46 813.425 811.276 786.092C1192.49 889.424 1773.51 796.107 1977.24 387.231C2232.51 -125.074 1885.84 -502.078 1569.41 -735.433C1549.42 -695.307 1699.48 -824.359 1742.36 -803.675C2151.27 -606.46 2229.9 -6.54711 2008.59 437.597Z" fill="url(#paint7_linear_41_3622)"/>
</g>
<g filter="url(#filter7_f_41_3622)">
<path d="M2008.59 437.597C1787.29 881.741 1393.21 1198.13 984.309 1000.91C941.423 980.228 848.46 813.425 811.276 786.092C1192.49 889.424 1773.51 796.107 1977.24 387.231C2232.51 -125.074 1885.84 -502.078 1569.41 -735.433C1549.42 -695.307 1699.48 -824.359 1742.36 -803.675C2151.27 -606.46 2229.9 -6.54711 2008.59 437.597Z" fill="url(#paint8_linear_41_3622)"/>
</g>
<g filter="url(#filter8_f_41_3622)">
<path d="M2008.59 437.597C1787.29 881.741 1393.21 1198.13 984.309 1000.91C941.423 980.228 848.46 813.425 811.276 786.092C1192.49 889.424 1773.51 796.107 1977.24 387.231C2232.51 -125.074 1885.84 -502.078 1569.41 -735.433C1549.42 -695.307 1699.48 -824.359 1742.36 -803.675C2151.27 -606.46 2229.9 -6.54711 2008.59 437.597Z" fill="url(#paint9_linear_41_3622)"/>
</g>
</g>
<g filter="url(#filter9_f_41_3622)">
<mask id="mask1_41_3622" style="mask-type:alpha" maskUnits="userSpaceOnUse" x="1028" y="341" width="1111" height="812">
<path opacity="0.8" d="M1028.5 799.011L1266.65 1152.24L1750.1 1004.02L2138.83 341.081L1764.66 387.837L1666.92 377.516L1080.99 709.49L1028.5 799.011Z" fill="url(#paint10_linear_41_3622)"/>
</mask>
<g mask="url(#mask1_41_3622)">
<g opacity="0.8">
<path d="M2123.76 304.665C2110.08 397.074 2179.42 336.218 2126.33 425.525C2101.87 466.68 1786.62 704.22 1756.63 738.854C1598.47 868.298 1406.22 907.933 1248.19 841.676C1216.07 828.285 1186.99 810.437 1158.86 790.112C1301.24 893.214 1522.41 783.63 1660.68 652.288C1856.5 466.52 1959.34 178.222 1848.82 -88.3131C2005.58 25.762 2024.11 384.215 2036.58 326.128L2123.76 304.665Z" fill="#0375D5"/>
<g filter="url(#filter10_f_41_3622)">
<path d="M2084.21 285.185C2070.54 377.594 2139.88 316.737 2086.79 406.045C2062.32 447.2 1747.07 684.74 1717.08 719.374C1558.92 848.818 1366.67 888.453 1208.65 822.195C1176.52 808.805 1147.44 790.957 1119.31 770.632C1261.7 873.734 1565.78 761.154 1704.04 629.812C1899.87 444.044 2056.38 219.346 1945.87 -47.1894C2102.62 66.8855 1984.57 364.735 1997.03 306.648L2084.21 285.185Z" fill="#0375D5"/>
</g>
<g filter="url(#filter11_f_41_3622)">
<path d="M2084.21 285.185C2070.54 377.594 2139.88 316.737 2086.79 406.045C2062.32 447.2 1747.07 684.74 1717.08 719.374C1558.92 848.818 1366.67 888.453 1208.65 822.195C1176.52 808.805 1147.44 790.957 1119.31 770.632C1261.7 873.734 1565.78 761.154 1704.04 629.812C1899.87 444.044 2056.38 219.346 1945.87 -47.1894C2102.62 66.8855 1984.57 364.735 1997.03 306.648L2084.21 285.185Z" fill="#0375D5"/>
</g>
<g filter="url(#filter12_f_41_3622)">
<path d="M2084.21 285.185C2070.54 377.594 2139.88 316.737 2086.79 406.045C2062.32 447.2 1747.07 684.74 1717.08 719.374C1558.92 848.818 1366.67 888.453 1208.65 822.195C1176.52 808.805 1147.44 790.957 1119.31 770.632C1261.7 873.734 1565.78 761.154 1704.04 629.812C1899.87 444.044 2056.38 219.346 1945.87 -47.1894C2102.62 66.8855 1984.57 364.735 1997.03 306.648L2084.21 285.185Z" fill="#0375D5"/>
</g>
<g filter="url(#filter13_f_41_3622)">
<path d="M2084.21 285.185C2070.54 377.594 2139.88 316.737 2086.79 406.045C2062.32 447.2 1747.07 684.74 1717.08 719.374C1558.92 848.818 1366.67 888.453 1208.65 822.195C1176.52 808.805 1147.44 790.957 1119.31 770.632C1261.7 873.734 1560.14 803.695 1698.41 672.354C1894.23 486.586 2056.38 219.346 1945.87 -47.1894C2102.62 66.8855 1984.57 364.735 1997.03 306.648L2084.21 285.185Z" fill="#0375D5"/>
</g>
<g filter="url(#filter14_f_41_3622)">
<path d="M2084.21 285.185C2070.54 377.594 2139.88 316.738 2086.79 406.045C2062.32 447.2 1747.07 684.74 1717.08 719.374C1558.92 848.818 1366.67 888.453 1208.65 822.195C1176.52 808.805 1133.95 793.292 1105.81 772.966C1248.2 876.068 1554.07 811.649 1692.34 680.308C1888.16 494.54 2056.38 219.346 1945.87 -47.1892C2102.62 66.8859 1984.57 364.735 1997.03 306.648L2084.21 285.185Z" fill="#0375D5"/>
</g>
<g filter="url(#filter15_f_41_3622)">
<path d="M2123.76 304.665C2110.08 397.074 2179.42 336.218 2126.33 425.525C2101.87 466.68 1780.38 687.548 1750.39 722.182C1592.23 851.627 1406.22 907.933 1248.19 841.676C1216.07 828.285 1186.99 810.437 1158.86 790.112C1301.24 893.214 1532.44 789.398 1670.7 658.057C1866.53 472.288 2023.5 215.141 1912.98 -51.3947C2069.74 62.6802 2024.11 384.215 2036.58 326.128L2123.76 304.665Z" fill="#0375D5"/>
</g>
<g filter="url(#filter16_f_41_3622)">
<path d="M2103.37 302.751C2089.69 395.16 2159.04 334.303 2105.95 423.611C2081.48 464.766 1760 685.634 1730.01 720.268C1571.85 849.712 1385.83 906.019 1227.8 839.761C1195.68 826.371 1166.6 808.523 1138.47 788.198C1280.86 891.3 1526.09 795.56 1664.35 664.218C1860.17 478.45 2017.15 221.302 1906.63 -45.2331C2063.39 68.8418 2003.72 382.301 2016.19 324.213L2103.37 302.751Z" fill="#0375D5"/>
</g>
<g filter="url(#filter17_f_41_3622)">
<path d="M2094.24 290.953C2080.56 383.362 2149.9 322.506 2096.81 411.813C2072.35 452.968 1750.86 673.836 1720.87 708.47C1562.71 837.915 1376.7 894.221 1218.67 827.963C1186.55 814.573 1157.47 796.725 1129.33 776.4C1271.72 879.502 1554.49 802.091 1692.76 670.75C1888.58 484.981 2045.55 227.834 1935.03 -38.7017C2091.79 75.3733 1994.59 370.503 2007.06 312.416L2094.24 290.953Z" fill="#0375D5"/>
</g>
<g filter="url(#filter18_f_41_3622)">
<path d="M2094.24 290.952C2080.56 383.361 2149.9 322.504 2096.81 411.812C2072.35 452.967 1770.84 652.327 1740.85 686.961C1582.69 816.405 1345.88 891.333 1187.85 825.076C1155.73 811.685 1157.47 796.724 1129.34 776.399C1271.72 879.501 1507.93 873.418 1646.2 742.077C1842.02 556.309 2074.09 433.979 1963.58 167.444C2120.33 281.519 1994.59 370.502 2007.06 312.414L2094.24 290.952Z" fill="#0375D5"/>
</g>
<g filter="url(#filter19_f_41_3622)">
<path d="M2094.24 290.952C2080.56 383.361 2149.9 322.504 2096.81 411.812C2072.35 452.967 1725.32 676.838 1695.34 711.472C1537.17 840.917 1345.88 891.333 1187.85 825.076C1155.73 811.685 1157.47 796.724 1129.34 776.399C1271.72 879.501 1500.09 834.559 1638.35 703.217C1834.17 517.449 2074.09 433.979 1963.58 167.444C2120.33 281.519 1994.59 370.502 2007.06 312.414L2094.24 290.952Z" fill="#0375D5"/>
</g>
</g>
</g>
</g>
<mask id="mask2_41_3622" style="mask-type:alpha" maskUnits="userSpaceOnUse" x="-546" y="-581" width="1542" height="1595">
<rect width="928.921" height="1300.85" transform="matrix(-0.77974 -0.626104 0.628083 -0.778146 178.898 1013.5)" fill="url(#paint11_linear_41_3622)"/>
</mask>
<g mask="url(#mask2_41_3622)">
<path d="M-55.6508 16.3013C122.937 -201.947 430.644 -249.864 631.575 -90.7167C652.648 -74.0253 671.785 -55.66 688.866 -35.9946C491.332 -139.87 228.102 -80.9939 68.2106 114.406C-91.6802 309.805 -93.8726 575.298 51.3798 743.065C28.2054 730.847 5.88317 716.374 -15.1905 699.683C-216.121 540.536 -234.238 234.55 -55.6508 16.3013Z" fill="url(#paint12_linear_41_3622)"/>
<g filter="url(#filter20_f_41_3622)">
<path d="M-41.8884 27.2018C136.699 -191.047 430.644 -249.864 631.575 -90.7167C652.648 -74.0253 671.785 -55.66 688.866 -35.9946C491.332 -139.87 214.339 -91.8944 54.4482 103.505C-105.443 298.905 -93.8726 575.298 51.3798 743.065C28.2054 730.847 5.88317 716.374 -15.1905 699.683C-216.121 540.536 -220.476 245.45 -41.8884 27.2018Z" fill="url(#paint13_linear_41_3622)"/>
</g>
<g filter="url(#filter21_f_41_3622)">
<path d="M-35.0074 32.652C143.58 -185.596 449.946 -245.733 650.877 -86.5863C671.95 -69.8949 691.087 -51.5297 708.168 -31.8642C510.634 -135.74 207.458 -97.3447 47.5669 98.0549C-112.324 293.455 -75.1172 588.758 70.1351 756.526C46.9608 744.307 24.6385 729.835 3.56491 713.143C-197.366 553.996 -213.595 250.9 -35.0074 32.652Z" fill="url(#paint14_linear_41_3622)"/>
</g>
<g filter="url(#filter22_f_41_3622)">
<path d="M-35.0074 32.652C143.58 -185.596 449.946 -245.733 650.877 -86.5863C671.95 -69.8949 691.087 -51.5297 708.168 -31.8642C510.634 -135.74 207.458 -97.3447 47.5669 98.0549C-112.324 293.455 -75.1172 588.758 70.1351 756.526C46.9608 744.307 24.6385 729.835 3.56491 713.143C-197.366 553.996 -213.595 250.9 -35.0074 32.652Z" fill="url(#paint15_linear_41_3622)"/>
</g>
<g filter="url(#filter23_f_41_3622)">
<path d="M-35.0074 32.652C143.58 -185.596 449.946 -245.733 650.877 -86.5863C671.95 -69.8949 691.087 -51.5297 708.168 -31.8642C510.634 -135.74 207.458 -97.3447 47.5669 98.0549C-112.324 293.455 -75.1172 588.758 70.1351 756.526C46.9608 744.307 24.6385 729.835 3.56491 713.143C-197.366 553.996 -213.595 250.9 -35.0074 32.652Z" fill="url(#paint16_linear_41_3622)"/>
</g>
<g filter="url(#filter24_f_41_3622)">
<path d="M14.2648 48.6652C192.852 -169.583 449.946 -245.733 650.877 -86.5863C671.95 -69.8949 691.087 -51.5297 708.168 -31.8642C510.634 -135.74 189.609 -120.576 25.203 80.3416C-180.792 332.084 -75.1172 588.758 70.1351 756.526C46.9608 744.307 24.6385 729.835 3.56491 713.143C-197.366 553.996 -164.323 266.914 14.2648 48.6652Z" fill="url(#paint17_linear_41_3622)"/>
</g>
<g filter="url(#filter25_f_41_3622)">
<path d="M14.265 48.6653C192.853 -169.583 450.707 -296.038 651.638 -136.891C672.711 -120.199 702.929 -16.6266 720.01 3.03888C522.476 -100.837 189.61 -120.576 25.2032 80.3417C-180.791 332.084 -37.0378 582.935 108.215 750.703C124.349 730.985 25.0734 783.876 3.9998 767.185C-196.931 608.037 -164.322 266.914 14.265 48.6653Z" fill="url(#paint18_linear_41_3622)"/>
</g>
<g filter="url(#filter26_f_41_3622)">
<path d="M14.265 48.6653C192.853 -169.583 450.707 -296.038 651.638 -136.891C672.711 -120.199 702.929 -16.6266 720.01 3.03888C522.476 -100.837 189.61 -120.576 25.2032 80.3417C-180.791 332.084 -37.0378 582.935 108.215 750.703C124.349 730.985 25.0734 783.876 3.9998 767.185C-196.931 608.037 -164.322 266.914 14.265 48.6653Z" fill="url(#paint19_linear_41_3622)"/>
</g>
<g filter="url(#filter27_f_41_3622)">
<path d="M14.265 48.6653C192.853 -169.583 450.707 -296.038 651.638 -136.891C672.711 -120.199 702.929 -16.6266 720.01 3.03888C522.476 -100.837 189.61 -120.576 25.2032 80.3417C-180.791 332.084 -37.0378 582.935 108.215 750.703C124.349 730.985 25.0734 783.876 3.9998 767.185C-196.931 608.037 -164.322 266.914 14.265 48.6653Z" fill="url(#paint20_linear_41_3622)"/>
</g>
</g>
<g filter="url(#filter28_f_41_3622)">
<mask id="mask3_41_3622" style="mask-type:alpha" maskUnits="userSpaceOnUse" x="-93" y="-262" width="671" height="380">
<path opacity="0.8" d="M577.98 -36.4181L490.567 -261.218L204.907 -239.464L-92.7864 78.4721L119.809 99.1879L172.519 117.05L537.781 6.51483L577.98 -36.4181Z" fill="url(#paint21_linear_41_3622)"/>
</mask>
<g mask="url(#mask3_41_3622)">
<g opacity="0.8">
<g filter="url(#filter29_f_41_3622)">
<path d="M-254.719 354.65C-280.456 283.692 -337.296 326.577 -313.404 260.542C-302.394 230.112 -25.9901 65.5627 -5.22758 40.5532C128.724 -49.9845 345.636 -68.5412 569.349 -6.9693C614.789 5.48605 658.557 21.2124 702.301 38.8038C480.781 -50.4106 260.645 20.6747 151.894 113.954C-2.23538 245.872 4.47013 463.411 262.109 677.629C17.9747 578.97 -169.405 299.166 -157.958 343.523L-254.719 354.65Z" fill="white" fill-opacity="0.8"/>
</g>
<g filter="url(#filter30_f_41_3622)">
<path d="M-46.8436 123.6C-27.572 74.2187 -73.6002 99.335 -32.9438 56.5043C-14.2083 36.7669 190.094 -55.7966 211.055 -71.2528C314.856 -123.367 426.106 -121.675 505.021 -65.6726C521.072 -54.3319 534.878 -40.9015 547.845 -26.2189C482.24 -100.66 299.954 -75.7703 206.905 -20.167C75.155 58.4466 -39.8135 163.394 -12.5401 324.226C-84.6917 241.959 18.2996 91.8736 4.04767 122.439L-46.8436 123.6Z" fill="#0375D5"/>
</g>
<g filter="url(#filter31_f_41_3622)">
<path d="M-46.8436 123.6C-27.572 74.2187 -73.6002 99.335 -32.9438 56.5043C-14.2083 36.7669 190.094 -55.7966 211.055 -71.2528C314.856 -123.367 426.106 -121.675 505.021 -65.6726C521.072 -54.3319 534.878 -40.9015 547.845 -26.2189C482.24 -100.66 299.954 -75.7703 206.905 -20.167C75.155 58.4466 -39.8135 163.394 -12.5401 324.226C-84.6917 241.959 18.2996 91.8736 4.04767 122.439L-46.8436 123.6Z" fill="#0375D5"/>
</g>
<g filter="url(#filter32_f_41_3622)">
<path d="M-46.8436 123.6C-27.572 74.2187 -73.6002 99.335 -32.9438 56.5043C-14.2083 36.7669 190.094 -55.7966 211.055 -71.2528C314.856 -123.367 426.106 -121.675 505.021 -65.6726C521.072 -54.3319 534.878 -40.9015 547.845 -26.2189C482.24 -100.66 299.954 -75.7703 206.905 -20.167C75.155 58.4466 -39.8135 163.394 -12.5401 324.226C-84.6917 241.959 18.2996 91.8736 4.04767 122.439L-46.8436 123.6Z" fill="#0375D5"/>
</g>
<g filter="url(#filter33_f_41_3622)">
<path d="M-46.8436 123.6C-27.572 74.2187 -73.6002 99.335 -32.9438 56.5043C-14.2083 36.7669 190.094 -55.7966 211.055 -71.2528C314.856 -123.367 426.106 -121.675 505.021 -65.6726C521.072 -54.3319 534.878 -40.9015 547.845 -26.2189C482.24 -100.66 308.461 -98.5847 215.411 -42.9814C83.6615 35.6322 -39.8135 163.394 -12.5401 324.226C-84.6917 241.959 18.2996 91.8736 4.04767 122.439L-46.8436 123.6Z" fill="#0375D5"/>
</g>
<g filter="url(#filter34_f_41_3622)">
<path d="M-46.8433 123.6C-27.5716 74.2186 -73.5999 99.3349 -32.9434 56.5042C-14.208 36.7669 190.095 -55.7964 211.055 -71.2527C314.856 -123.367 426.106 -121.674 505.021 -65.6725C521.072 -54.3318 542.632 -40.535 555.598 -25.8524C489.994 -100.294 312.825 -102.234 219.776 -46.6308C88.0261 31.9827 -39.8131 163.393 -12.5397 324.226C-84.6913 241.959 18.2999 91.8735 4.04803 122.439L-46.8433 123.6Z" fill="#0375D5"/>
</g>
<g filter="url(#filter35_f_41_3622)">
<path d="M-66.223 107.984C-46.9513 58.6024 -92.9796 83.7187 -52.3232 40.8881C-33.5877 21.1507 172.046 -61.436 193.007 -76.8923C296.808 -129.006 406.727 -137.291 485.641 -81.2888C501.693 -69.9481 515.499 -56.5177 528.465 -41.8351C462.861 -116.276 321.957 -87.2851 228.908 -31.6818C97.1575 46.9317 -22.1759 169.753 5.09746 330.585C-67.0541 248.318 -1.07978 76.2574 -15.3317 106.823L-66.223 107.984Z" fill="#0375D5"/>
</g>
<g filter="url(#filter36_f_41_3622)">
<path d="M-55.202 111.543C-35.9303 62.162 -81.9586 87.2783 -41.3022 44.4476C-22.5667 24.7103 183.067 -57.8765 204.028 -73.3328C307.829 -125.447 417.748 -133.731 496.662 -77.7293C512.714 -66.3886 526.52 -52.9581 539.486 -38.2755C473.882 -112.717 326.247 -89.9101 233.197 -34.3068C101.447 44.3068 -17.8859 167.128 9.38743 327.96C-62.7641 245.693 9.94122 79.8169 -4.31069 110.383L-55.202 111.543Z" fill="#0375D5"/>
</g>
<g filter="url(#filter37_f_41_3622)">
<path d="M-51.6507 119.182C-32.379 69.8012 -78.4073 94.9175 -37.7509 52.0868C-19.0154 32.3494 186.618 -50.2373 207.579 -65.6936C311.38 -117.808 421.299 -126.092 500.214 -70.0901C516.265 -58.7494 530.071 -45.319 543.038 -30.6363C477.433 -105.077 311.38 -97.0051 218.331 -41.4018C86.5808 37.2117 -32.7525 160.033 -5.47921 320.865C-77.6308 238.598 13.4925 87.4561 -0.759421 118.022L-51.6507 119.182Z" fill="#0375D5"/>
</g>
<g filter="url(#filter38_f_41_3622)">
<path d="M-51.6514 119.183C-32.3797 69.802 -78.408 94.9183 -37.7516 52.0876C-19.0161 32.3502 172.852 -40.8041 193.813 -56.2604C297.614 -108.375 437.962 -120.714 516.876 -64.7123C532.928 -53.3716 530.07 -45.3183 543.037 -30.6356C477.433 -105.077 346.15 -130.702 253.1 -75.0989C121.35 3.51467 -22.3889 42.6269 4.88437 203.46C-67.2672 121.193 13.4918 87.4569 -0.760116 118.023L-51.6514 119.183Z" fill="#0375D5"/>
</g>
<g filter="url(#filter39_f_41_3622)">
<path d="M-51.6514 119.183C-32.3797 69.802 -78.408 94.9183 -37.7516 52.0876C-19.0161 32.3502 201.109 -48.7622 222.07 -64.2185C325.87 -116.333 437.962 -120.714 516.876 -64.7123C532.928 -53.3716 530.07 -45.3183 543.037 -30.6356C477.433 -105.077 345.557 -108.268 252.508 -52.6648C120.758 25.9487 -22.3889 42.6269 4.88437 203.46C-67.2672 121.193 13.4918 87.4569 -0.760116 118.023L-51.6514 119.183Z" fill="#0375D5"/>
</g>
</g>
</g>
</g>
</g>
<defs>
<filter id="filter0_f_41_3622" x="-419" y="-417.73" width="1328.15" height="1328.15" filterUnits="userSpaceOnUse" color-interpolation-filters="sRGB">
<feFlood flood-opacity="0" result="BackgroundImageFix"/>
<feBlend mode="normal" in="SourceGraphic" in2="BackgroundImageFix" result="shape"/>
<feGaussianBlur stdDeviation="100" result="effect1_foregroundBlur_41_3622"/>
</filter>
<filter id="filter1_f_41_3622" x="865.808" y="-758.542" width="1370.92" height="1760.49" filterUnits="userSpaceOnUse" color-interpolation-filters="sRGB">
<feFlood flood-opacity="0" result="BackgroundImageFix"/>
<feBlend mode="normal" in="SourceGraphic" in2="BackgroundImageFix" result="shape"/>
<feGaussianBlur stdDeviation="7.26216" result="effect1_foregroundBlur_41_3622"/>
</filter>
<filter id="filter2_f_41_3622" x="801.887" y="-803.598" width="1444.12" height="1833.75" filterUnits="userSpaceOnUse" color-interpolation-filters="sRGB">
<feFlood flood-opacity="0" result="BackgroundImageFix"/>
<feBlend mode="normal" in="SourceGraphic" in2="BackgroundImageFix" result="shape"/>
<feGaussianBlur stdDeviation="21.7865" result="effect1_foregroundBlur_41_3622"/>
</filter>
<filter id="filter3_f_41_3622" x="782.521" y="-822.964" width="1482.85" height="1872.48" filterUnits="userSpaceOnUse" color-interpolation-filters="sRGB">
<feFlood flood-opacity="0" result="BackgroundImageFix"/>
<feBlend mode="normal" in="SourceGraphic" in2="BackgroundImageFix" result="shape"/>
<feGaussianBlur stdDeviation="31.4693" result="effect1_foregroundBlur_41_3622"/>
</filter>
<filter id="filter4_f_41_3622" x="782.521" y="-822.964" width="1482.85" height="1872.48" filterUnits="userSpaceOnUse" color-interpolation-filters="sRGB">
<feFlood flood-opacity="0" result="BackgroundImageFix"/>
<feBlend mode="normal" in="SourceGraphic" in2="BackgroundImageFix" result="shape"/>
<feGaussianBlur stdDeviation="31.4693" result="effect1_foregroundBlur_41_3622"/>
</filter>
<filter id="filter5_f_41_3622" x="695.375" y="-910.109" width="1591.14" height="2045.42" filterUnits="userSpaceOnUse" color-interpolation-filters="sRGB">
<feFlood flood-opacity="0" result="BackgroundImageFix"/>
<feBlend mode="normal" in="SourceGraphic" in2="BackgroundImageFix" result="shape"/>
<feGaussianBlur stdDeviation="75.0423" result="effect1_foregroundBlur_41_3622"/>
</filter>
<filter id="filter6_f_41_3622" x="719.289" y="-897.923" width="1502.28" height="2050.7" filterUnits="userSpaceOnUse" color-interpolation-filters="sRGB">
<feFlood flood-opacity="0" result="BackgroundImageFix"/>
<feBlend mode="normal" in="SourceGraphic" in2="BackgroundImageFix" result="shape"/>
<feGaussianBlur stdDeviation="45.9937" result="effect1_foregroundBlur_41_3622"/>
</filter>
<filter id="filter7_f_41_3622" x="612.777" y="-1004.43" width="1715.3" height="2263.72" filterUnits="userSpaceOnUse" color-interpolation-filters="sRGB">
<feFlood flood-opacity="0" result="BackgroundImageFix"/>
<feBlend mode="normal" in="SourceGraphic" in2="BackgroundImageFix" result="shape"/>
<feGaussianBlur stdDeviation="99.2495" result="effect1_foregroundBlur_41_3622"/>
</filter>
<filter id="filter8_f_41_3622" x="515.948" y="-1101.26" width="1908.96" height="2457.38" filterUnits="userSpaceOnUse" color-interpolation-filters="sRGB">
<feFlood flood-opacity="0" result="BackgroundImageFix"/>
<feBlend mode="normal" in="SourceGraphic" in2="BackgroundImageFix" result="shape"/>
<feGaussianBlur stdDeviation="147.664" result="effect1_foregroundBlur_41_3622"/>
</filter>
<filter id="filter9_f_41_3622" x="1099.87" y="335.133" width="1044.92" height="544.096" filterUnits="userSpaceOnUse" color-interpolation-filters="sRGB">
<feFlood flood-opacity="0" result="BackgroundImageFix"/>
<feBlend mode="normal" in="SourceGraphic" in2="BackgroundImageFix" result="shape"/>
<feGaussianBlur stdDeviation="2.97408" result="effect1_foregroundBlur_41_3622"/>
</filter>
<filter id="filter10_f_41_3622" x="1113.36" y="-53.1376" width="999.687" height="912.886" filterUnits="userSpaceOnUse" color-interpolation-filters="sRGB">
<feFlood flood-opacity="0" result="BackgroundImageFix"/>
<feBlend mode="normal" in="SourceGraphic" in2="BackgroundImageFix" result="shape"/>
<feGaussianBlur stdDeviation="2.97408" result="effect1_foregroundBlur_41_3622"/>
</filter>
<filter id="filter11_f_41_3622" x="1056.26" y="-110.24" width="1113.89" height="1027.09" filterUnits="userSpaceOnUse" color-interpolation-filters="sRGB">
<feFlood flood-opacity="0" result="BackgroundImageFix"/>
<feBlend mode="normal" in="SourceGraphic" in2="BackgroundImageFix" result="shape"/>
<feGaussianBlur stdDeviation="31.5253" result="effect1_foregroundBlur_41_3622"/>
</filter>
<filter id="filter12_f_41_3622" x="1084.81" y="-81.6888" width="1056.79" height="969.988" filterUnits="userSpaceOnUse" color-interpolation-filters="sRGB">
<feFlood flood-opacity="0" result="BackgroundImageFix"/>
<feBlend mode="normal" in="SourceGraphic" in2="BackgroundImageFix" result="shape"/>
<feGaussianBlur stdDeviation="17.2497" result="effect1_foregroundBlur_41_3622"/>
</filter>
<filter id="filter13_f_41_3622" x="1084.81" y="-81.6888" width="1056.79" height="969.988" filterUnits="userSpaceOnUse" color-interpolation-filters="sRGB">
<feFlood flood-opacity="0" result="BackgroundImageFix"/>
<feBlend mode="normal" in="SourceGraphic" in2="BackgroundImageFix" result="shape"/>
<feGaussianBlur stdDeviation="17.2497" result="effect1_foregroundBlur_41_3622"/>
</filter>
<filter id="filter14_f_41_3622" x="1071.31" y="-81.6883" width="1070.29" height="969.987" filterUnits="userSpaceOnUse" color-interpolation-filters="sRGB">
<feFlood flood-opacity="0" result="BackgroundImageFix"/>
<feBlend mode="normal" in="SourceGraphic" in2="BackgroundImageFix" result="shape"/>
<feGaussianBlur stdDeviation="17.2497" result="effect1_foregroundBlur_41_3622"/>
</filter>
<filter id="filter15_f_41_3622" x="1143.39" y="-66.8598" width="1018.72" height="951.93" filterUnits="userSpaceOnUse" color-interpolation-filters="sRGB">
<feFlood flood-opacity="0" result="BackgroundImageFix"/>
<feBlend mode="normal" in="SourceGraphic" in2="BackgroundImageFix" result="shape"/>
<feGaussianBlur stdDeviation="7.73261" result="effect1_foregroundBlur_41_3622"/>
</filter>
<filter id="filter16_f_41_3622" x="1120.62" y="-63.0774" width="1023.48" height="948.613" filterUnits="userSpaceOnUse" color-interpolation-filters="sRGB">
<feFlood flood-opacity="0" result="BackgroundImageFix"/>
<feBlend mode="normal" in="SourceGraphic" in2="BackgroundImageFix" result="shape"/>
<feGaussianBlur stdDeviation="8.92225" result="effect1_foregroundBlur_41_3622"/>
</filter>
<filter id="filter17_f_41_3622" x="1119.82" y="-48.2187" width="1006.83" height="913.629" filterUnits="userSpaceOnUse" color-interpolation-filters="sRGB">
<feFlood flood-opacity="0" result="BackgroundImageFix"/>
<feBlend mode="normal" in="SourceGraphic" in2="BackgroundImageFix" result="shape"/>
<feGaussianBlur stdDeviation="4.75853" result="effect1_foregroundBlur_41_3622"/>
</filter>
<filter id="filter18_f_41_3622" x="1100.78" y="138.893" width="1044.89" height="739.317" filterUnits="userSpaceOnUse" color-interpolation-filters="sRGB">
<feFlood flood-opacity="0" result="BackgroundImageFix"/>
<feBlend mode="normal" in="SourceGraphic" in2="BackgroundImageFix" result="shape"/>
<feGaussianBlur stdDeviation="14.2756" result="effect1_foregroundBlur_41_3622"/>
</filter>
<filter id="filter19_f_41_3622" x="1100.78" y="138.893" width="1044.89" height="743.881" filterUnits="userSpaceOnUse" color-interpolation-filters="sRGB">
<feFlood flood-opacity="0" result="BackgroundImageFix"/>
<feBlend mode="normal" in="SourceGraphic" in2="BackgroundImageFix" result="shape"/>
<feGaussianBlur stdDeviation="14.2756" result="effect1_foregroundBlur_41_3622"/>
</filter>
<filter id="filter20_f_41_3622" x="-185.621" y="-195.473" width="889.012" height="953.063" filterUnits="userSpaceOnUse" color-interpolation-filters="sRGB">
<feFlood flood-opacity="0" result="BackgroundImageFix"/>
<feBlend mode="normal" in="SourceGraphic" in2="BackgroundImageFix" result="shape"/>
<feGaussianBlur stdDeviation="7.26216" result="effect1_foregroundBlur_41_3622"/>
</filter>
<filter id="filter21_f_41_3622" x="-202.355" y="-219.957" width="954.095" height="1020.06" filterUnits="userSpaceOnUse" color-interpolation-filters="sRGB">
<feFlood flood-opacity="0" result="BackgroundImageFix"/>
<feBlend mode="normal" in="SourceGraphic" in2="BackgroundImageFix" result="shape"/>
<feGaussianBlur stdDeviation="21.7865" result="effect1_foregroundBlur_41_3622"/>
</filter>
<filter id="filter22_f_41_3622" x="-221.72" y="-239.322" width="992.827" height="1058.79" filterUnits="userSpaceOnUse" color-interpolation-filters="sRGB">
<feFlood flood-opacity="0" result="BackgroundImageFix"/>
<feBlend mode="normal" in="SourceGraphic" in2="BackgroundImageFix" result="shape"/>
<feGaussianBlur stdDeviation="31.4693" result="effect1_foregroundBlur_41_3622"/>
</filter>
<filter id="filter23_f_41_3622" x="-221.72" y="-239.322" width="992.827" height="1058.79" filterUnits="userSpaceOnUse" color-interpolation-filters="sRGB">
<feFlood flood-opacity="0" result="BackgroundImageFix"/>
<feBlend mode="normal" in="SourceGraphic" in2="BackgroundImageFix" result="shape"/>
<feGaussianBlur stdDeviation="31.4693" result="effect1_foregroundBlur_41_3622"/>
</filter>
<filter id="filter24_f_41_3622" x="-283.96" y="-321.427" width="1142.21" height="1228.04" filterUnits="userSpaceOnUse" color-interpolation-filters="sRGB">
<feFlood flood-opacity="0" result="BackgroundImageFix"/>
<feBlend mode="normal" in="SourceGraphic" in2="BackgroundImageFix" result="shape"/>
<feGaussianBlur stdDeviation="75.0423" result="effect1_foregroundBlur_41_3622"/>
</filter>
<filter id="filter25_f_41_3622" x="-225.626" y="-300.321" width="1037.62" height="1162.8" filterUnits="userSpaceOnUse" color-interpolation-filters="sRGB">
<feFlood flood-opacity="0" result="BackgroundImageFix"/>
<feBlend mode="normal" in="SourceGraphic" in2="BackgroundImageFix" result="shape"/>
<feGaussianBlur stdDeviation="45.9937" result="effect1_foregroundBlur_41_3622"/>
</filter>
<filter id="filter26_f_41_3622" x="-332.138" y="-406.833" width="1250.65" height="1375.83" filterUnits="userSpaceOnUse" color-interpolation-filters="sRGB">
<feFlood flood-opacity="0" result="BackgroundImageFix"/>
<feBlend mode="normal" in="SourceGraphic" in2="BackgroundImageFix" result="shape"/>
<feGaussianBlur stdDeviation="99.2495" result="effect1_foregroundBlur_41_3622"/>
</filter>
<filter id="filter27_f_41_3622" x="-428.967" y="-503.662" width="1444.3" height="1569.48" filterUnits="userSpaceOnUse" color-interpolation-filters="sRGB">
<feFlood flood-opacity="0" result="BackgroundImageFix"/>
<feBlend mode="normal" in="SourceGraphic" in2="BackgroundImageFix" result="shape"/>
<feGaussianBlur stdDeviation="147.664" result="effect1_foregroundBlur_41_3622"/>
</filter>
<filter id="filter28_f_41_3622" x="-98.7348" y="-125.721" width="682.663" height="248.719" filterUnits="userSpaceOnUse" color-interpolation-filters="sRGB">
<feFlood flood-opacity="0" result="BackgroundImageFix"/>
<feBlend mode="normal" in="SourceGraphic" in2="BackgroundImageFix" result="shape"/>
<feGaussianBlur stdDeviation="2.97408" result="effect1_foregroundBlur_41_3622"/>
</filter>
<filter id="filter29_f_41_3622" x="-419.14" y="-142.93" width="1221.44" height="920.56" filterUnits="userSpaceOnUse" color-interpolation-filters="sRGB">
<feFlood flood-opacity="0" result="BackgroundImageFix"/>
<feBlend mode="normal" in="SourceGraphic" in2="BackgroundImageFix" result="shape"/>
<feGaussianBlur stdDeviation="50" result="effect1_foregroundBlur_41_3622"/>
</filter>
<filter id="filter30_f_41_3622" x="-56.2836" y="-115" width="610.077" height="445.175" filterUnits="userSpaceOnUse" color-interpolation-filters="sRGB">
<feFlood flood-opacity="0" result="BackgroundImageFix"/>
<feBlend mode="normal" in="SourceGraphic" in2="BackgroundImageFix" result="shape"/>
<feGaussianBlur stdDeviation="2.97408" result="effect1_foregroundBlur_41_3622"/>
</filter>
<filter id="filter31_f_41_3622" x="-113.386" y="-172.103" width="724.281" height="559.38" filterUnits="userSpaceOnUse" color-interpolation-filters="sRGB">
<feFlood flood-opacity="0" result="BackgroundImageFix"/>
<feBlend mode="normal" in="SourceGraphic" in2="BackgroundImageFix" result="shape"/>
<feGaussianBlur stdDeviation="31.5253" result="effect1_foregroundBlur_41_3622"/>
</filter>
<filter id="filter32_f_41_3622" x="-84.8348" y="-143.552" width="667.179" height="502.277" filterUnits="userSpaceOnUse" color-interpolation-filters="sRGB">
<feFlood flood-opacity="0" result="BackgroundImageFix"/>
<feBlend mode="normal" in="SourceGraphic" in2="BackgroundImageFix" result="shape"/>
<feGaussianBlur stdDeviation="17.2497" result="effect1_foregroundBlur_41_3622"/>
</filter>
<filter id="filter33_f_41_3622" x="-84.8348" y="-143.552" width="667.179" height="502.277" filterUnits="userSpaceOnUse" color-interpolation-filters="sRGB">
<feFlood flood-opacity="0" result="BackgroundImageFix"/>
<feBlend mode="normal" in="SourceGraphic" in2="BackgroundImageFix" result="shape"/>
<feGaussianBlur stdDeviation="17.2497" result="effect1_foregroundBlur_41_3622"/>
</filter>
<filter id="filter34_f_41_3622" x="-84.8348" y="-143.552" width="674.932" height="502.277" filterUnits="userSpaceOnUse" color-interpolation-filters="sRGB">
<feFlood flood-opacity="0" result="BackgroundImageFix"/>
<feBlend mode="normal" in="SourceGraphic" in2="BackgroundImageFix" result="shape"/>
<feGaussianBlur stdDeviation="17.2497" result="effect1_foregroundBlur_41_3622"/>
</filter>
<filter id="filter35_f_41_3622" x="-85.1801" y="-135.238" width="629.111" height="481.289" filterUnits="userSpaceOnUse" color-interpolation-filters="sRGB">
<feFlood flood-opacity="0" result="BackgroundImageFix"/>
<feBlend mode="normal" in="SourceGraphic" in2="BackgroundImageFix" result="shape"/>
<feGaussianBlur stdDeviation="7.73261" result="effect1_foregroundBlur_41_3622"/>
</filter>
<filter id="filter36_f_41_3622" x="-76.5383" y="-134.058" width="633.869" height="479.863" filterUnits="userSpaceOnUse" color-interpolation-filters="sRGB">
<feFlood flood-opacity="0" result="BackgroundImageFix"/>
<feBlend mode="normal" in="SourceGraphic" in2="BackgroundImageFix" result="shape"/>
<feGaussianBlur stdDeviation="8.92225" result="effect1_foregroundBlur_41_3622"/>
</filter>
<filter id="filter37_f_41_3622" x="-64.6596" y="-118.091" width="617.214" height="448.474" filterUnits="userSpaceOnUse" color-interpolation-filters="sRGB">
<feFlood flood-opacity="0" result="BackgroundImageFix"/>
<feBlend mode="normal" in="SourceGraphic" in2="BackgroundImageFix" result="shape"/>
<feGaussianBlur stdDeviation="4.75853" result="effect1_foregroundBlur_41_3622"/>
</filter>
<filter id="filter38_f_41_3622" x="-83.6947" y="-133.651" width="655.283" height="365.662" filterUnits="userSpaceOnUse" color-interpolation-filters="sRGB">
<feFlood flood-opacity="0" result="BackgroundImageFix"/>
<feBlend mode="normal" in="SourceGraphic" in2="BackgroundImageFix" result="shape"/>
<feGaussianBlur stdDeviation="14.2756" result="effect1_foregroundBlur_41_3622"/>
</filter>
<filter id="filter39_f_41_3622" x="-83.6947" y="-133.581" width="655.283" height="365.592" filterUnits="userSpaceOnUse" color-interpolation-filters="sRGB">
<feFlood flood-opacity="0" result="BackgroundImageFix"/>
<feBlend mode="normal" in="SourceGraphic" in2="BackgroundImageFix" result="shape"/>
<feGaussianBlur stdDeviation="14.2756" result="effect1_foregroundBlur_41_3622"/>
</filter>
<linearGradient id="paint0_linear_41_3622" x1="820.388" y1="0" x2="820.388" y2="2295.34" gradientUnits="userSpaceOnUse">
<stop stop-color="#C4C4C4" stop-opacity="0"/>
<stop offset="0.380208" stop-color="#C4C4C4"/>
<stop offset="0.578125" stop-color="#C4C4C4"/>
<stop offset="1" stop-color="#C4C4C4" stop-opacity="0"/>
</linearGradient>
<linearGradient id="paint1_linear_41_3622" x1="2109.29" y1="-546.607" x2="1328.66" y2="1071.94" gradientUnits="userSpaceOnUse">
<stop stop-color="#057FE2"/>
<stop offset="1" stop-color="#178AEC"/>
</linearGradient>
<linearGradient id="paint2_linear_41_3622" x1="2095.28" y1="-553.36" x2="1314.65" y2="1065.18" gradientUnits="userSpaceOnUse">
<stop stop-color="#057FE2"/>
<stop offset="1" stop-color="#178AEC"/>
</linearGradient>
<linearGradient id="paint3_linear_41_3622" x1="2069.04" y1="-563.88" x2="1282.56" y2="1066.8" gradientUnits="userSpaceOnUse">
<stop stop-color="#057FE2"/>
<stop offset="1" stop-color="#178AEC"/>
</linearGradient>
<linearGradient id="paint4_linear_41_3622" x1="2069.04" y1="-563.88" x2="1282.56" y2="1066.8" gradientUnits="userSpaceOnUse">
<stop stop-color="#057FE2"/>
<stop offset="1" stop-color="#178AEC"/>
</linearGradient>
<linearGradient id="paint5_linear_41_3622" x1="2069.04" y1="-563.88" x2="1282.56" y2="1066.8" gradientUnits="userSpaceOnUse">
<stop stop-color="white"/>
<stop offset="1" stop-color="#A4D5FF"/>
</linearGradient>
<linearGradient id="paint6_linear_41_3622" x1="2030.53" y1="-582.454" x2="1244.05" y2="1048.22" gradientUnits="userSpaceOnUse">
<stop stop-color="#057FE2"/>
<stop offset="1" stop-color="#178AEC"/>
</linearGradient>
<linearGradient id="paint7_linear_41_3622" x1="2043" y1="-658.676" x2="1193.84" y2="1101.97" gradientUnits="userSpaceOnUse">
<stop stop-color="#057FE2"/>
<stop offset="1" stop-color="#178AEC"/>
</linearGradient>
<linearGradient id="paint8_linear_41_3622" x1="2043" y1="-658.676" x2="1193.84" y2="1101.97" gradientUnits="userSpaceOnUse">
<stop stop-color="#057FE2"/>
<stop offset="1" stop-color="#178AEC"/>
</linearGradient>
<linearGradient id="paint9_linear_41_3622" x1="2043" y1="-658.676" x2="1193.84" y2="1101.97" gradientUnits="userSpaceOnUse">
<stop stop-color="#057FE2"/>
<stop offset="1" stop-color="#178AEC"/>
</linearGradient>
<linearGradient id="paint10_linear_41_3622" x1="1825.95" y1="471.506" x2="1089.85" y2="631.161" gradientUnits="userSpaceOnUse">
<stop stop-color="#C4C4C4" stop-opacity="0"/>
<stop offset="0.565737" stop-color="#C4C4C4"/>
<stop offset="1" stop-color="#C4C4C4" stop-opacity="0"/>
</linearGradient>
<linearGradient id="paint11_linear_41_3622" x1="464.461" y1="0" x2="464.461" y2="1300.85" gradientUnits="userSpaceOnUse">
<stop stop-color="#C4C4C4" stop-opacity="0"/>
<stop offset="0.380208" stop-color="#C4C4C4"/>
<stop offset="0.578125" stop-color="#C4C4C4"/>
<stop offset="1" stop-color="#C4C4C4" stop-opacity="0"/>
</linearGradient>
<linearGradient id="paint12_linear_41_3622" x1="-166.147" y1="580.118" x2="467.881" y2="-220.371" gradientUnits="userSpaceOnUse">
<stop stop-color="#057FE2"/>
<stop offset="1" stop-color="#178AEC"/>
</linearGradient>
<linearGradient id="paint13_linear_41_3622" x1="-159.265" y1="585.568" x2="474.762" y2="-214.92" gradientUnits="userSpaceOnUse">
<stop stop-color="#057FE2"/>
<stop offset="1" stop-color="#178AEC"/>
</linearGradient>
<linearGradient id="paint14_linear_41_3622" x1="-146.101" y1="594.601" x2="492.678" y2="-211.888" gradientUnits="userSpaceOnUse">
<stop stop-color="#057FE2"/>
<stop offset="1" stop-color="#178AEC"/>
</linearGradient>
<linearGradient id="paint15_linear_41_3622" x1="-146.101" y1="594.601" x2="492.678" y2="-211.888" gradientUnits="userSpaceOnUse">
<stop stop-color="#057FE2"/>
<stop offset="1" stop-color="#178AEC"/>
</linearGradient>
<linearGradient id="paint16_linear_41_3622" x1="-146.101" y1="594.601" x2="492.678" y2="-211.888" gradientUnits="userSpaceOnUse">
<stop stop-color="#057FE2"/>
<stop offset="1" stop-color="#178AEC"/>
</linearGradient>
<linearGradient id="paint17_linear_41_3622" x1="-127.178" y1="609.589" x2="511.601" y2="-196.899" gradientUnits="userSpaceOnUse">
<stop stop-color="#057FE2"/>
<stop offset="1" stop-color="#178AEC"/>
</linearGradient>
<linearGradient id="paint18_linear_41_3622" x1="-143.731" y1="650.175" x2="545.96" y2="-220.593" gradientUnits="userSpaceOnUse">
<stop stop-color="#057FE2"/>
<stop offset="1" stop-color="#178AEC"/>
</linearGradient>
<linearGradient id="paint19_linear_41_3622" x1="-143.731" y1="650.175" x2="545.96" y2="-220.593" gradientUnits="userSpaceOnUse">
<stop stop-color="#057FE2"/>
<stop offset="1" stop-color="#178AEC"/>
</linearGradient>
<linearGradient id="paint20_linear_41_3622" x1="-143.731" y1="650.175" x2="545.96" y2="-220.593" gradientUnits="userSpaceOnUse">
<stop stop-color="#057FE2"/>
<stop offset="1" stop-color="#178AEC"/>
</linearGradient>
<linearGradient id="paint21_linear_41_3622" x1="96.4023" y1="45.332" x2="523.089" y2="49.1718" gradientUnits="userSpaceOnUse">
<stop stop-color="#C4C4C4" stop-opacity="0"/>
<stop offset="0.565737" stop-color="#C4C4C4"/>
<stop offset="1" stop-color="#C4C4C4" stop-opacity="0"/>
</linearGradient>
<clipPath id="clip0_41_3622">
<rect width="1925" height="545" fill="white" transform="translate(-5)"/>
</clipPath>
</defs>
</svg>
