<svg width="164" height="80" viewBox="0 0 164 80" fill="none" xmlns="http://www.w3.org/2000/svg">
<path d="M57.4033 33.2992V41.5428C57.4033 41.6764 57.3502 41.8046 57.2557 41.8991C57.1612 41.9936 57.0331 42.0466 56.8994 42.0466H54.2972C54.1636 42.0466 54.0355 41.9935 53.941 41.899C53.8466 41.8045 53.7935 41.6764 53.7934 41.5428V28.1342C53.7934 28.0006 53.8465 27.8725 53.941 27.778C54.0355 27.6835 54.1636 27.6304 54.2972 27.6304H56.7053C56.8389 27.6304 56.9671 27.6835 57.0615 27.778C57.156 27.8725 57.2091 28.0006 57.2091 28.1342V30.0225C57.2091 30.0225 58.0699 27.329 60.6246 27.329C60.6246 27.329 63.1515 27.0235 64.1789 29.8281C64.1789 29.8281 65.0397 27.329 67.65 27.329C67.65 27.329 71.5317 27.0981 71.5317 31.1148L71.5613 33.327V41.5706C71.5613 41.7042 71.5082 41.8323 71.4137 41.9268C71.3192 42.0213 71.1911 42.0744 71.0574 42.0744H68.455C68.3214 42.0743 68.1933 42.0212 68.0988 41.9268C68.0043 41.8323 67.9512 41.7042 67.9512 41.5706L67.9274 32.5773C68.0014 30.5408 66.354 30.689 66.354 30.689C64.2807 30.7261 64.4802 33.327 64.4802 33.327V41.5706C64.4802 41.7042 64.4271 41.8323 64.3326 41.9268C64.2381 42.0213 64.11 42.0744 63.9763 42.0744H61.3741C61.2405 42.0743 61.1124 42.0212 61.0179 41.9268C60.9235 41.8323 60.8703 41.7042 60.8703 41.5706V32.7807C60.8703 32.7807 61.0225 30.6703 59.1711 30.6703C59.1713 30.6703 57.3386 30.4297 57.4033 33.2992ZM124.481 33.2746V41.5179C124.481 41.6515 124.428 41.7796 124.334 41.8741C124.239 41.9686 124.111 42.0217 123.977 42.0218L121.271 42.0742C121.137 42.0741 121.009 42.021 120.915 41.9265C120.82 41.8321 120.767 41.704 120.767 41.5703V32.7807C120.767 32.7807 120.919 30.6703 119.068 30.6703C119.068 30.6703 117.3 30.5832 117.3 33.8922V41.5426C117.3 41.6762 117.247 41.8043 117.152 41.8988C117.058 41.9933 116.93 42.0464 116.796 42.0464H114.194C114.06 42.0464 113.932 41.9933 113.838 41.8988C113.743 41.8043 113.69 41.6762 113.69 41.5426V28.1342C113.69 28.0006 113.743 27.8725 113.838 27.778C113.932 27.6836 114.06 27.6305 114.194 27.6304H116.602C116.736 27.6304 116.864 27.6835 116.958 27.778C117.053 27.8725 117.106 28.0006 117.106 28.1342V30.0225C117.106 30.0225 117.967 27.329 120.521 27.329C120.521 27.329 123.258 26.9138 124.18 29.7759C124.18 29.7757 124.481 30.3662 124.481 33.2746ZM105.692 27.2734C102.364 27.2734 99.6664 30.0781 99.6664 34.7988C99.6664 38.955 101.749 42.3241 105.692 42.3241C109.413 42.3241 111.718 38.955 111.718 34.7988C111.718 30.1614 109.02 27.2734 105.692 27.2734ZM107.793 34.9654C107.793 36.7426 107.57 37.6867 107.57 37.6867C107.254 39.5654 105.891 39.5681 105.689 39.5581C105.472 39.5668 104.097 39.5472 103.813 37.6867C103.813 37.6867 103.59 36.7426 103.59 34.9654V34.6692C103.59 32.892 103.813 31.9479 103.813 31.9479C104.097 30.0874 105.473 30.0678 105.689 30.0763C105.891 30.0663 107.254 30.0687 107.57 31.9479C107.57 31.9479 107.793 32.892 107.793 34.6692V34.9654ZM98.1561 30.0039V28.08C98.156 27.9464 98.1029 27.8183 98.0084 27.7238C97.914 27.6294 97.7859 27.5763 97.6523 27.5762H89.0508C88.9171 27.5762 88.789 27.6293 88.6945 27.7238C88.6 27.8183 88.5469 27.9464 88.5469 28.08V29.989C88.547 30.1226 88.6001 30.2507 88.6946 30.3452C88.7891 30.4397 88.9172 30.4928 89.0508 30.4928H93.5374L88.2268 38.197C88.2268 38.197 88.0176 38.5093 88.0245 38.8543V41.1978C88.0245 41.1978 87.9898 42.0013 88.901 41.535C88.901 41.535 90.5196 40.5571 93.2336 40.5571C93.2336 40.5571 95.9137 40.5238 97.7007 41.6192C97.7007 41.6192 98.4424 41.9564 98.4424 41.2149V39.1751C98.4424 39.1751 98.5097 38.6353 97.8018 38.2983C97.8018 38.2983 95.7451 37.1689 93.0481 37.3542L98.1561 30.0039ZM51.785 39.6487L50.9704 38.4087C50.7111 37.9457 50.7298 37.4272 50.7298 37.4272V31.7071C50.8409 26.7642 45.3612 27.1901 45.3612 27.1901C40.49 27.1901 39.7705 30.9811 39.7705 30.9811C39.5674 31.7433 40.1579 31.7617 40.1579 31.7617L42.5382 32.0032C42.5382 32.0032 42.944 32.0961 43.0918 31.6129C43.0918 31.6129 43.4052 29.959 45.1582 29.959C47.0655 29.959 47.0457 31.596 47.0457 31.596V32.9665C43.2382 33.0938 41.4737 34.1507 41.4737 34.1507C39.1227 35.4836 39.2706 38.131 39.2706 38.131C39.2706 42.4443 43.3803 42.259 43.3803 42.259C46.009 42.259 47.564 40.3339 47.564 40.3339C48.0267 41.1487 48.8784 41.9258 48.8784 41.9258C49.3045 42.3879 49.7486 42 49.7486 42L51.6739 40.3525C52.0995 40.0375 51.785 39.6487 51.785 39.6487ZM44.6632 39.5954C43.4268 39.5954 42.9671 38.3667 43.1724 37.1591C43.3779 35.9515 44.4451 35.0025 47.046 35.0302V35.7644C47.1382 38.9719 45.6924 39.5954 44.6632 39.5954ZM86.3655 39.6487L85.5511 38.4087C85.2919 37.9457 85.3103 37.4272 85.3103 37.4272V31.7071C85.4214 26.7642 79.9417 27.1901 79.9417 27.1901C75.0705 27.1901 74.351 30.9811 74.351 30.9811C74.1479 31.7433 74.7384 31.7617 74.7384 31.7617L77.1187 32.0032C77.1187 32.0032 77.5245 32.0961 77.6723 31.6129C77.6723 31.6129 77.9857 29.959 79.7387 29.959C81.646 29.959 81.6262 31.596 81.6262 31.596V32.9665C77.8189 33.0938 76.0542 34.1507 76.0542 34.1507C73.7032 35.4836 73.8511 38.131 73.8511 38.131C73.8511 42.4443 77.9608 42.259 77.9608 42.259C80.5895 42.259 82.1445 40.3339 82.1445 40.3339C82.6074 41.1487 83.4587 41.9258 83.4587 41.9258C83.8848 42.3879 84.3291 42 84.3291 42L86.2542 40.3525C86.68 40.0375 86.3655 39.6487 86.3655 39.6487ZM79.2437 39.5954C78.0073 39.5954 77.5476 38.3667 77.7529 37.1591C77.9584 35.9515 79.0256 35.0025 81.6262 35.0302V35.7644C81.7186 38.9719 80.2731 39.5954 79.2437 39.5954Z" fill="white"/>
<path d="M92.9173 50.4756C92.9173 50.4756 92.6996 50.8543 92.9671 50.939C92.9671 50.939 93.2692 51.0569 93.646 50.7073C93.646 50.7073 96.3937 48.3069 96.4599 43.9368C96.4599 43.9368 96.4801 43.391 96.2611 43.2417C96.2611 43.2417 95.4002 42.4801 92.3049 42.7118C92.3049 42.7118 89.6067 42.894 88.1336 44.2018C88.1336 44.2018 88.0012 44.3175 88.0012 44.4664C88.0012 44.4664 87.9695 44.7878 88.7792 44.6486C88.7792 44.6486 91.4771 44.2676 93.0828 44.4664C93.0828 44.4664 93.9108 44.5657 94.1425 44.8474C94.1425 44.8474 94.5232 45.1619 94.3244 46.2045C94.3244 46.2049 93.7779 48.8534 92.9173 50.4756Z" fill="#FF9900"/>
<path d="M92.373 46.2826C92.373 46.2826 92.776 46.8046 92.1258 47.2549C92.1258 47.2549 85.18 52.8109 73.5173 52.8109C73.5173 52.8109 61.5121 53.4032 51.4878 44.295C51.4878 44.295 51.1364 43.9864 51.3545 43.6996C51.3545 43.6996 51.5496 43.4357 52.0545 43.7227C52.0545 43.7227 61.4844 49.5988 73.869 49.5988C73.869 49.5988 82.4771 49.932 91.3074 46.1555C91.3074 46.1555 92.0109 45.7909 92.373 46.2826Z" fill="#FF9900"/>
</svg>
