<svg width="1880" height="445" viewBox="0 0 1880 445" fill="none" xmlns="http://www.w3.org/2000/svg">
<g clip-path="url(#clip0_6036_4246)">
<rect width="1880" height="445" fill="#061D61"/>
<g opacity="0.2" filter="url(#filter0_f_6036_4246)">
<circle cx="1012.75" cy="-516.901" r="464.074" fill="#0374D3"/>
</g>
<mask id="mask0_6036_4246" style="mask-type:alpha" maskUnits="userSpaceOnUse" x="156" y="-1928" width="2481" height="2782">
<rect x="1166.13" y="-1927" width="1637.34" height="2294.18" transform="rotate(26.1152 1166.13 -1927)" fill="url(#paint0_linear_6036_4246)"/>
</mask>
<g mask="url(#mask0_6036_4246)">
<path d="M1954.6 -300.079C1738.46 140.805 1239.45 339.54 840.103 143.772C798.22 123.24 758.948 99.1116 722.633 71.9794C1094.93 174.553 1514.92 -26.03 1708.42 -420.757C1901.93 -815.485 1803.17 -1270.16 1494.14 -1501.8C1537.83 -1489.71 1580.95 -1473.45 1622.84 -1452.92C2022.18 -1257.15 2170.73 -740.963 1954.6 -300.079Z" fill="url(#paint1_linear_6036_4246)"/>
<g filter="url(#filter1_f_6036_4246)">
<path d="M1927.24 -313.488C1711.11 127.397 1239.45 339.54 840.103 143.772C798.22 123.24 758.948 99.1116 722.633 71.9794C1094.93 174.553 1542.27 -12.6212 1735.78 -407.349C1929.28 -802.076 1803.17 -1270.16 1494.14 -1501.8C1537.83 -1489.71 1580.95 -1473.45 1622.84 -1452.92C2022.18 -1257.15 2143.37 -754.372 1927.24 -313.488Z" fill="url(#paint2_linear_6036_4246)"/>
</g>
<g filter="url(#filter2_f_6036_4246)">
<path d="M1913.57 -320.193C1697.44 120.692 1205.39 339.806 806.046 144.039C764.163 123.507 724.891 99.3782 688.576 72.2461C1060.88 174.82 1555.95 -5.91762 1749.45 -400.645C1942.96 -795.372 1766.43 -1286.05 1457.4 -1517.69C1501.09 -1505.6 1544.22 -1489.34 1586.1 -1468.81C1985.44 -1273.04 2129.7 -761.077 1913.57 -320.193Z" fill="url(#paint3_linear_6036_4246)"/>
</g>
<g filter="url(#filter3_f_6036_4246)">
<path d="M1913.57 -320.193C1697.44 120.692 1205.39 339.806 806.046 144.039C764.163 123.507 724.891 99.3782 688.576 72.2461C1060.88 174.82 1555.95 -5.91762 1749.45 -400.645C1942.96 -795.372 1766.43 -1286.05 1457.4 -1517.69C1501.09 -1505.6 1544.22 -1489.34 1586.1 -1468.81C1985.44 -1273.04 2129.7 -761.077 1913.57 -320.193Z" fill="url(#paint4_linear_6036_4246)"/>
</g>
<g filter="url(#filter4_f_6036_4246)">
<path d="M1913.57 -320.193C1697.44 120.692 1205.39 339.806 806.046 144.039C764.163 123.507 724.891 99.3782 688.576 72.2461C1060.88 174.82 1555.95 -5.91762 1749.45 -400.645C1942.96 -795.372 1766.43 -1286.05 1457.4 -1517.69C1501.09 -1505.6 1544.22 -1489.34 1586.1 -1468.81C1985.44 -1273.04 2129.7 -761.077 1913.57 -320.193Z" fill="url(#paint5_linear_6036_4246)"/>
</g>
<g filter="url(#filter5_f_6036_4246)">
<path d="M1824.52 -328.86C1608.39 112.025 1205.39 339.806 806.046 144.039C764.163 123.507 724.891 99.3782 688.576 72.2461C1060.88 174.82 1594.93 27.0191 1793.9 -378.856C2043.2 -887.401 1766.43 -1286.05 1457.4 -1517.69C1501.09 -1505.6 1544.22 -1489.34 1586.1 -1468.81C1985.44 -1273.04 2040.65 -769.744 1824.52 -328.86Z" fill="url(#paint6_linear_6036_4246)"/>
</g>
<g filter="url(#filter6_f_6036_4246)">
<path d="M1824.52 -328.859C1608.39 112.025 1223.52 426.088 824.179 230.321C782.296 209.789 691.506 44.2101 655.191 17.078C1027.49 119.651 1594.93 27.0194 1793.9 -378.856C2043.2 -887.401 1704.63 -1261.64 1395.6 -1493.28C1376.08 -1453.45 1522.63 -1581.55 1564.51 -1561.02C1963.86 -1365.25 2040.65 -769.744 1824.52 -328.859Z" fill="url(#paint7_linear_6036_4246)"/>
</g>
<g filter="url(#filter7_f_6036_4246)">
<path d="M1824.52 -328.859C1608.39 112.025 1223.52 426.088 824.179 230.321C782.296 209.789 691.506 44.2101 655.191 17.078C1027.49 119.651 1594.93 27.0194 1793.9 -378.856C2043.2 -887.401 1704.63 -1261.64 1395.6 -1493.28C1376.08 -1453.45 1522.63 -1581.55 1564.51 -1561.02C1963.86 -1365.25 2040.65 -769.744 1824.52 -328.859Z" fill="url(#paint8_linear_6036_4246)"/>
</g>
<g filter="url(#filter8_f_6036_4246)">
<path d="M1824.52 -328.859C1608.39 112.025 1223.52 426.088 824.179 230.321C782.296 209.789 691.506 44.2101 655.191 17.078C1027.49 119.651 1594.93 27.0194 1793.9 -378.856C2043.2 -887.401 1704.63 -1261.64 1395.6 -1493.28C1376.08 -1453.45 1522.63 -1581.55 1564.51 -1561.02C1963.86 -1365.25 2040.65 -769.744 1824.52 -328.859Z" fill="url(#paint9_linear_6036_4246)"/>
</g>
</g>
<g filter="url(#filter9_f_6036_4246)">
<mask id="mask1_6036_4246" style="mask-type:alpha" maskUnits="userSpaceOnUse" x="888" y="-423" width="1109" height="812">
<path opacity="0.8" d="M888.816 35.7659L1126.35 388.995L1608.54 240.772L1996.26 -422.164L1623.06 -375.408L1525.58 -385.729L941.173 -53.7547L888.816 35.7659Z" fill="url(#paint10_linear_6036_4246)"/>
</mask>
<g mask="url(#mask1_6036_4246)">
<g opacity="0.8">
<path d="M1936.99 -460.816C1923.64 -369.085 1991.36 -429.495 1939.51 -340.843C1915.61 -299.99 1607.73 -64.1935 1578.45 -29.8139C1423.98 98.6807 1236.23 138.025 1081.89 72.2533C1050.52 58.9612 1022.12 41.2442 994.648 21.0681C1133.71 123.413 1349.71 14.6332 1484.74 -115.744C1675.98 -300.149 1776.42 -586.331 1668.48 -850.91C1821.58 -737.672 1839.68 -381.85 1851.85 -439.511L1936.99 -460.816Z" fill="#0375D5"/>
<g filter="url(#filter10_f_6036_4246)">
<path d="M1898.37 -480.153C1885.02 -388.422 1952.74 -448.832 1900.89 -360.18C1876.99 -319.327 1569.11 -83.5306 1539.83 -49.151C1385.36 79.3436 1197.61 118.688 1043.28 52.9162C1011.9 39.6241 983.501 21.9071 956.028 1.73092C1095.09 104.076 1392.06 -7.67754 1527.09 -138.055C1718.34 -322.46 1871.19 -545.509 1763.26 -810.088C1916.35 -696.85 1801.06 -401.187 1813.23 -458.848L1898.37 -480.153Z" fill="#0375D5"/>
</g>
<g filter="url(#filter11_f_6036_4246)">
<path d="M1898.37 -480.153C1885.02 -388.422 1952.74 -448.832 1900.89 -360.18C1876.99 -319.327 1569.11 -83.5306 1539.83 -49.151C1385.36 79.3436 1197.61 118.688 1043.28 52.9162C1011.9 39.6241 983.501 21.9071 956.028 1.73092C1095.09 104.076 1392.06 -7.67754 1527.09 -138.055C1718.34 -322.46 1871.19 -545.509 1763.26 -810.088C1916.35 -696.85 1801.06 -401.187 1813.23 -458.848L1898.37 -480.153Z" fill="#0375D5"/>
</g>
<g filter="url(#filter12_f_6036_4246)">
<path d="M1898.37 -480.153C1885.02 -388.422 1952.74 -448.832 1900.89 -360.18C1876.99 -319.327 1569.11 -83.5306 1539.83 -49.151C1385.36 79.3436 1197.61 118.688 1043.28 52.9162C1011.9 39.6241 983.501 21.9071 956.028 1.73092C1095.09 104.076 1392.06 -7.67754 1527.09 -138.055C1718.34 -322.46 1871.19 -545.509 1763.26 -810.088C1916.35 -696.85 1801.06 -401.187 1813.23 -458.848L1898.37 -480.153Z" fill="#0375D5"/>
</g>
<g filter="url(#filter13_f_6036_4246)">
<path d="M1898.37 -480.153C1885.02 -388.422 1952.74 -448.832 1900.89 -360.18C1876.99 -319.327 1569.11 -83.5306 1539.83 -49.151C1385.36 79.3436 1197.61 118.688 1043.28 52.9162C1011.9 39.6241 983.501 21.9071 956.028 1.73092C1095.09 104.076 1386.55 34.5518 1521.59 -95.8255C1712.83 -280.23 1871.19 -545.509 1763.26 -810.088C1916.35 -696.85 1801.06 -401.187 1813.23 -458.848L1898.37 -480.153Z" fill="#0375D5"/>
</g>
<g filter="url(#filter14_f_6036_4246)">
<path d="M1898.37 -480.153C1885.02 -388.422 1952.74 -448.832 1900.89 -360.18C1876.99 -319.327 1569.11 -83.5309 1539.82 -49.1513C1385.36 79.3433 1197.61 118.687 1043.27 52.9159C1011.9 39.6238 970.32 24.2242 942.846 4.04799C1081.91 106.393 1380.62 42.4472 1515.66 -87.9301C1706.9 -272.335 1871.19 -545.509 1763.26 -810.088C1916.35 -696.85 1801.06 -401.187 1813.23 -458.848L1898.37 -480.153Z" fill="#0375D5"/>
</g>
<g filter="url(#filter15_f_6036_4246)">
<path d="M1936.99 -460.816C1923.64 -369.085 1991.36 -429.495 1939.51 -340.843C1915.61 -299.99 1601.64 -80.7428 1572.36 -46.3632C1417.89 82.1314 1236.23 138.025 1081.89 72.2534C1050.52 58.9612 1022.12 41.2442 994.648 21.0681C1133.71 123.413 1359.5 20.3594 1494.53 -110.018C1685.78 -294.423 1839.08 -549.683 1731.14 -814.262C1884.24 -701.025 1839.68 -381.85 1851.85 -439.511L1936.99 -460.816Z" fill="#0375D5"/>
</g>
<g filter="url(#filter16_f_6036_4246)">
<path d="M1917.08 -462.716C1903.73 -370.986 1971.45 -431.395 1919.6 -342.743C1895.7 -301.891 1581.74 -82.6432 1552.45 -48.2636C1397.98 80.231 1216.32 136.124 1061.99 70.353C1030.61 57.0608 1002.21 39.3439 974.738 19.1677C1113.8 121.513 1353.29 26.4756 1488.33 -103.902C1679.57 -288.307 1832.87 -543.567 1724.94 -808.146C1878.03 -694.908 1819.77 -383.75 1831.94 -441.411L1917.08 -462.716Z" fill="#0375D5"/>
</g>
<g filter="url(#filter17_f_6036_4246)">
<path d="M1908.16 -474.427C1894.81 -382.697 1962.53 -443.107 1910.68 -354.455C1886.78 -313.602 1572.81 -94.3543 1543.53 -59.9747C1389.06 68.5199 1207.4 124.413 1053.06 58.6418C1021.69 45.3497 993.291 27.6327 965.817 7.45651C1104.88 109.802 1381.04 32.9592 1516.07 -97.4181C1707.31 -281.823 1860.62 -537.083 1752.68 -801.663C1905.77 -688.425 1810.85 -395.461 1823.02 -453.122L1908.16 -474.427Z" fill="#0375D5"/>
</g>
<g filter="url(#filter18_f_6036_4246)">
<path d="M1908.16 -474.428C1894.81 -382.698 1962.53 -443.108 1910.68 -354.456C1886.78 -313.603 1592.33 -115.706 1563.04 -81.3262C1408.57 47.1684 1177.3 121.547 1022.97 55.7753C991.593 42.4832 993.291 27.6316 965.818 7.45547C1104.88 109.801 1335.56 103.763 1470.6 -26.614C1661.84 -211.019 1888.49 -332.451 1780.56 -597.03C1933.65 -483.792 1810.85 -395.462 1823.02 -453.123L1908.16 -474.428Z" fill="#0375D5"/>
</g>
<g filter="url(#filter19_f_6036_4246)">
<path d="M1908.16 -474.428C1894.81 -382.698 1962.53 -443.108 1910.68 -354.456C1886.78 -313.603 1547.87 -91.374 1518.59 -56.9944C1364.12 71.5002 1177.3 121.547 1022.97 55.7753C991.593 42.4832 993.291 27.6316 965.818 7.45547C1104.88 109.801 1327.9 65.1886 1462.94 -65.1886C1654.18 -249.594 1888.49 -332.451 1780.56 -597.03C1933.65 -483.792 1810.85 -395.462 1823.02 -453.123L1908.16 -474.428Z" fill="#0375D5"/>
</g>
</g>
</g>
</g>
<g opacity="0.4">
<path d="M1619.53 -598.285C1624.64 -629.679 1640.72 -656.038 1681.86 -675.243C1820.83 -739.914 1985.78 -737.31 2103.35 -848.167C2163.67 -905.139 2192.68 -982.696 2195.15 -1064.83C2206.14 -1452.85 1925.56 -1605.85 1806.02 -1626.52C1683.54 -1647.73 1591.05 -1520.95 1541.62 -1426.66C1480.68 -1310.51 1430.21 -1182.86 1326.77 -1096.92C1217.53 -1006.18 984.578 -781.328 909.639 -653.385C856.769 -563.117 812.871 -402.814 868.167 -313.957C923.462 -225.1 1072.51 -206.911 1174.48 -183.608C1276.46 -160.305 1259 261.134 1360 233.361C1495.82 196.014 1550.63 18.9635 1580.14 -100.854C1610.03 -222.336 1623.05 -347.306 1622.5 -472.366C1622.16 -518.619 1613.52 -561.837 1619.53 -598.285Z" stroke="url(#paint11_linear_6036_4246)" stroke-width="1.6412" stroke-miterlimit="10"/>
<path d="M1815.92 -1650.22C1685.45 -1672.85 1586.88 -1537.55 1534.14 -1437.17C1469.1 -1313.5 1415.46 -1177.24 1305.03 -1085.76C1188.57 -989.107 953.564 -784.31 873.723 -647.865C817.257 -551.566 780.651 -388.689 839.669 -293.851C892.412 -209.096 1028.57 -187.625 1124.37 -161.667C1223.05 -134.893 1218.48 238.698 1318.32 217.814C1456.45 188.748 1525.73 33.0388 1570.3 -77.4269C1615.1 -188.276 1641.15 -306.416 1651.64 -427.444C1655.51 -472.28 1651.36 -514.743 1659.5 -551.571C1666.24 -583.025 1682.33 -610.109 1719.82 -631.776C1776.35 -664.35 1835.17 -687.916 1892.03 -713.107C1940.57 -734.539 1987.7 -757.466 2030.7 -789.682C2051.58 -805.28 2071.09 -823.823 2089.93 -845.739C2140.95 -905.461 2166.57 -983.514 2169.13 -1068.55C2172.64 -1194.71 2151.55 -1300.59 2114.77 -1386.74C2046 -1548.29 1908.35 -1634.25 1815.92 -1650.22Z" stroke="url(#paint12_linear_6036_4246)" stroke-width="1.6412" stroke-miterlimit="10"/>
<path d="M1825.72 -1674.1C1687.25 -1698.15 1582.49 -1554.5 1526.54 -1447.86C1457.53 -1316.49 1400.5 -1171.95 1283.29 -1074.6C1159.61 -972.034 922.38 -787.189 837.531 -642.411C777.64 -540.188 748.261 -374.46 810.787 -273.983C861.085 -193.158 984.518 -168.512 1073.87 -139.964C1169.37 -109.548 1177.63 216.472 1276.16 201.858C1416.7 181.246 1500.06 46.6413 1559.8 -54.3014C1619.13 -154.754 1658.69 -265.656 1680.23 -382.652C1688.23 -425.795 1688.59 -467.503 1698.92 -504.988C1707.45 -536.609 1723.63 -564.696 1757.28 -588.716C1809.15 -625.737 1860.67 -656.848 1909.5 -689.607C1950.86 -717.239 1990.23 -745.772 2026.62 -782.161C2043.8 -799.493 2059.97 -819.985 2075.85 -843.613C2117.72 -905.464 2139.7 -984.805 2142.55 -1072.4C2146.46 -1195.25 2132.59 -1303.25 2103.76 -1395.3C2053.93 -1555.36 1930.93 -1655.89 1825.72 -1674.1Z" stroke="url(#paint13_linear_6036_4246)" stroke-width="1.6412" stroke-miterlimit="10"/>
<path d="M1835.52 -1697.97C1688.87 -1723.34 1578.11 -1571.45 1518.67 -1458.6C1445.67 -1319.54 1385.19 -1166.46 1261.17 -1063.68C1130.37 -955.023 890.982 -790.406 801.124 -637.297C737.808 -529.15 715.549 -360.741 781.798 -254.284C829.543 -177.559 940.297 -149.29 1023.37 -118.258C1115.51 -84.0938 1136.95 194.142 1234.1 186.075C1377.16 174.086 1474.32 60.5229 1549.58 -31.1094C1623.55 -120.995 1676.51 -224.831 1709.26 -337.901C1721.29 -379.521 1726.25 -420.302 1738.62 -458.338C1748.94 -490.127 1765.04 -519.109 1794.96 -545.313C1842.16 -586.78 1886.38 -625.436 1927.36 -665.87C1961.36 -699.597 1993.26 -733.669 2022.91 -774.402C2036.68 -793.405 2049.17 -815.632 2062.42 -841.186C2095.25 -904.996 2113.58 -985.623 2116.64 -1075.95C2120.5 -1195.45 2113.61 -1305.18 2093.3 -1403.72C2060.32 -1561.47 1953.49 -1677.52 1835.52 -1697.97Z" stroke="url(#paint14_linear_6036_4246)" stroke-width="1.6412" stroke-miterlimit="10"/>
<path d="M1845.31 -1721.85C1690.67 -1748.64 1573.73 -1588.4 1511.07 -1469.28C1433.81 -1322.59 1370.22 -1161.18 1239.43 -1052.52C1101.41 -937.948 859.798 -793.283 765.209 -631.777C698.297 -517.6 683.436 -346.445 753.129 -234.072C798.322 -161.448 896.332 -129.278 973.262 -96.3169C1061.98 -58.1273 1096.41 172.432 1192.59 170.421C1338.39 167.398 1448.87 74.469 1539.74 -7.68196C1627.79 -87.129 1694.43 -183.834 1738.23 -292.872C1754.39 -332.799 1763.86 -372.824 1778.25 -411.411C1790.19 -443.261 1806.38 -473.246 1832.63 -501.91C1875.14 -548.272 1912.03 -593.748 1945.04 -642.026C1972.08 -681.612 1996.29 -721.566 2018.76 -766.601C2029.12 -787.275 2038.09 -811.344 2048.27 -838.78C2072.44 -904.314 2086.64 -986.635 2090 -1079.52C2093.98 -1195.78 2093.22 -1306.72 2081.94 -1412.06C2065.58 -1567.11 1976.34 -1699.08 1845.31 -1721.85Z" stroke="url(#paint15_linear_6036_4246)" stroke-width="1.6412" stroke-miterlimit="10"/>
<path d="M1855.11 -1745.72C1692.47 -1773.94 1569.34 -1605.35 1503.48 -1479.97C1422.24 -1325.58 1355.37 -1155.72 1217.75 -1041.64C1072.51 -921.151 828.742 -796.715 729.081 -626.6C658.744 -506.498 651.003 -332.663 724.417 -214.309C767.059 -145.787 852.324 -109.716 922.936 -74.7189C1008.34 -32.333 1055.94 150.442 1150.59 154.36C1299.06 160.579 1422.71 87.6657 1529.41 15.3378C1631.44 -53.8417 1711.87 -143.245 1767.05 -248.463C1787.07 -286.762 1801.32 -325.967 1818.01 -365.04C1831.58 -396.95 1847.75 -428.109 1870.38 -458.786C1908 -509.935 1938.18 -562.379 1962.79 -618.461C1982.69 -663.8 1999.42 -709.294 2014.94 -759.014C2022 -781.188 2027.73 -807.034 2034.74 -836.525C2050.64 -903.546 2060.25 -987.519 2063.87 -1083.41C2067.98 -1196.43 2072.33 -1308.66 2071.17 -1421C2069.5 -1572.63 1998.91 -1720.72 1855.11 -1745.72Z" stroke="url(#paint16_linear_6036_4246)" stroke-width="1.6412" stroke-miterlimit="10"/>
<path d="M1864.84 -1769.32C1694.2 -1798.96 1565.07 -1622.12 1495.88 -1490.65C1410.66 -1328.57 1340.4 -1150.44 1196.01 -1030.48C1043.66 -903.904 797.729 -799.697 693.058 -621.25C619.297 -495.224 618.611 -318.431 695.706 -194.545C735.901 -129.953 808.146 -90.0457 872.609 -53.1193C954.526 -6.43063 1015.41 128.732 1108.7 138.471C1259.78 154.21 1396.83 100.929 1519.36 38.4239C1635.43 -20.7654 1729.75 -102.696 1796.09 -203.711C1820.14 -240.487 1838.88 -278.937 1857.71 -318.39C1873.07 -350.467 1889.04 -382.693 1908.05 -415.382C1940.7 -471.491 1964.21 -530.455 1980.64 -594.724C1993.58 -645.921 2002.9 -697.232 2011.24 -751.255C2014.89 -775.099 2017.37 -802.722 2021.04 -834.161C2029.11 -902.713 2033.76 -988.573 2037.85 -1087.13C2042.08 -1196.9 2050.73 -1310.62 2060.43 -1429.49C2072.47 -1578.51 2021.48 -1742.35 1864.84 -1769.32Z" stroke="url(#paint17_linear_6036_4246)" stroke-width="1.6412" stroke-miterlimit="10"/>
<path d="M1874.64 -1793.19C1695.83 -1824.16 1560.62 -1638.79 1488.22 -1501.05C1399.01 -1331.28 1325.48 -1144.71 1174.1 -1019.22C1014.52 -886.724 766.373 -802.468 656.801 -615.518C579.337 -483.633 586.049 -304.095 666.866 -174.228C704.509 -113.737 763.603 -69.4393 822.26 -30.7962C900.456 20.5787 974.678 107.851 1066.79 123.305C1220.13 148.777 1370.81 114.744 1509.01 62.1688C1639.01 12.7989 1747.06 -61.5531 1824.71 -158.471C1852.79 -193.724 1876.03 -231.419 1897 -271.251C1913.87 -303.561 1929.83 -336.96 1945.39 -371.768C1972.71 -432.623 1990.14 -498.703 1997.98 -570.669C2004.23 -627.661 2005.97 -684.683 2006.85 -743.072C2007.2 -768.416 2006.61 -797.922 2006.83 -831.48C2007.24 -901.668 2006.75 -989.309 2011.15 -1090.42C2015.84 -1197.17 2027.84 -1312.73 2049.35 -1437.77C2074.79 -1584.69 2044.06 -1763.98 1874.64 -1793.19Z" stroke="url(#paint18_linear_6036_4246)" stroke-width="1.6412" stroke-miterlimit="10"/>
<path d="M2003.31 -735.42C1989.18 -872.411 1953.41 -1119.21 2038.45 -1446.16C2076.4 -1591.62 2066.73 -1785.44 1884.43 -1817.07C1697.63 -1849.45 1556.24 -1655.74 1480.52 -1511.9C1387.22 -1334.61 1310.4 -1139.59 1152.26 -1008.23C985.561 -869.648 735.253 -805.621 620.673 -610.34C539.784 -472.531 553.723 -290.141 638.155 -154.464C722.587 -18.7864 869.316 71.4855 1024.96 107.139C1180.78 142.685 1344.95 127.282 1499.03 84.9774C1811.73 -1.05143 2018.51 -213.882 2016.07 -547.315C2015.63 -610.101 2009.78 -672.835 2003.31 -735.42Z" stroke="url(#paint19_linear_6036_4246)" stroke-width="1.6412" stroke-miterlimit="10"/>
</g>
<mask id="mask2_6036_4246" style="mask-type:alpha" maskUnits="userSpaceOnUse" x="-659" y="-1316" width="1454" height="1507">
<rect x="24.0309" y="190.529" width="876.583" height="1228.24" transform="rotate(-141.164 24.0309 190.529)" fill="url(#paint20_linear_6036_4246)"/>
</mask>
<g mask="url(#mask2_6036_4246)">
<g filter="url(#filter20_f_6036_4246)">
<path d="M-176.875 -736.711C-12.0286 -941.474 270.764 -997.895 456.234 -848.581C475.686 -832.921 493.35 -815.691 509.116 -797.241C326.782 -894.698 46.9339 -858.675 -100.654 -675.349C-248.242 -492.023 -213.898 -214.965 -79.8223 -57.5637C-101.213 -69.0272 -121.818 -82.6055 -141.27 -98.2655C-326.74 -247.579 -341.721 -531.947 -176.875 -736.711Z" fill="url(#paint21_linear_6036_4246)"/>
</g>
<g filter="url(#filter21_f_6036_4246)">
<path d="M-176.875 -736.711C-12.0286 -941.474 270.764 -997.895 456.234 -848.581C475.686 -832.921 493.35 -815.691 509.116 -797.241C326.782 -894.698 46.9339 -858.675 -100.654 -675.349C-248.242 -492.023 -213.898 -214.965 -79.8223 -57.5637C-101.213 -69.0272 -121.818 -82.6055 -141.27 -98.2655C-326.74 -247.579 -341.721 -531.947 -176.875 -736.711Z" fill="url(#paint22_linear_6036_4246)"/>
</g>
<g filter="url(#filter22_f_6036_4246)">
<path d="M-131.394 -721.687C33.4524 -926.45 270.764 -997.895 456.234 -848.581C475.686 -832.921 493.35 -815.691 509.116 -797.241C326.782 -894.698 30.4589 -880.471 -121.297 -691.968C-311.441 -455.78 -213.898 -214.965 -79.8223 -57.5637C-101.213 -69.0272 -121.818 -82.6055 -141.27 -98.2655C-326.74 -247.579 -296.24 -516.924 -131.394 -721.687Z" fill="url(#paint23_linear_6036_4246)"/>
</g>
<g filter="url(#filter23_f_6036_4246)">
<path d="M-131.394 -721.687C33.4525 -926.45 271.466 -1045.09 456.936 -895.778C476.388 -880.118 504.281 -782.944 520.047 -764.494C337.713 -861.951 30.459 -880.471 -121.297 -691.968C-311.441 -455.78 -178.749 -220.429 -44.6731 -63.027C-29.7801 -81.5263 -121.417 -31.9034 -140.869 -47.5634C-326.339 -196.877 -296.24 -516.923 -131.394 -721.687Z" fill="url(#paint24_linear_6036_4246)"/>
</g>
<g filter="url(#filter24_f_6036_4246)">
<path d="M-131.394 -721.687C33.4525 -926.45 271.466 -1045.09 456.936 -895.778C476.388 -880.118 504.281 -782.944 520.047 -764.494C337.713 -861.951 30.459 -880.471 -121.297 -691.968C-311.441 -455.78 -178.749 -220.429 -44.6731 -63.027C-29.7801 -81.5263 -121.417 -31.9034 -140.869 -47.5634C-326.339 -196.877 -296.24 -516.923 -131.394 -721.687Z" fill="url(#paint25_linear_6036_4246)"/>
</g>
<g filter="url(#filter25_f_6036_4246)">
<path d="M-131.394 -721.687C33.4525 -926.45 271.466 -1045.09 456.936 -895.778C476.388 -880.118 504.281 -782.944 520.047 -764.494C337.713 -861.951 30.459 -880.471 -121.297 -691.968C-311.441 -455.78 -178.749 -220.429 -44.6731 -63.027C-29.7801 -81.5263 -121.417 -31.9034 -140.869 -47.5634C-326.339 -196.877 -296.24 -516.923 -131.394 -721.687Z" fill="url(#paint26_linear_6036_4246)"/>
</g>
</g>
<g opacity="0.3">
<path d="M-170.145 -1128.36C-192.427 -1124.83 -213.426 -1116.02 -229.136 -1099.34C-243.723 -1083.96 -252.54 -1064.08 -258.311 -1043.72C-266.486 -1014.22 -268.731 -983.446 -268.089 -952.989C-267.128 -916.44 -263.12 -879.571 -268.41 -843.182C-278.349 -774.413 -312.814 -709.971 -346.157 -650.018C-353.851 -636.072 -362.988 -622.606 -375.492 -612.347C-390.24 -600.164 -408.033 -595.836 -426.628 -593.592C-434.804 -592.63 -446.025 -591.508 -450.193 -583.172C-454.681 -574.195 -447.467 -561.211 -442.819 -553.356C-430.155 -531.876 -407.873 -519.532 -386.072 -509.113C-361.225 -497.411 -336.538 -485.869 -313.775 -470.48C-263.922 -436.656 -223.205 -388.886 -206.854 -330.216C-197.396 -296.232 -194.03 -257.759 -202.205 -223.134C-209.419 -192.516 -227.373 -165.906 -236.51 -135.929C-247.41 -100.342 -216.472 -79.1825 -187.297 -67.3202C-150.909 -52.7327 -111.635 -47.2823 -73.643 -39.2673C-2.4689 -24.1989 68.8655 -7.52747 138.276 14.434C169.695 24.3727 202.077 34.4717 235.419 33.5099C263.633 32.7084 289.922 22.7695 312.525 6.09814C354.524 -24.5195 387.386 -74.694 393.958 -126.792C398.607 -162.86 392.355 -199.088 393.157 -235.317C393.798 -271.064 404.859 -302.964 420.408 -334.704C434.354 -363.558 450.224 -392.092 457.758 -423.511C464.972 -453.969 463.369 -485.548 455.835 -515.685C447.499 -549.188 432.27 -579.966 419.606 -611.866C406.462 -645.049 401.011 -680.636 400.049 -716.223C399.088 -750.848 401.973 -785.313 404.538 -819.778C405.82 -836.93 407.103 -854.083 407.744 -871.235C408.385 -888.548 407.584 -905.86 407.744 -923.173C407.904 -935.516 412.393 -946.577 417.843 -957.477C421.049 -963.89 425.217 -971.103 424.896 -978.477C424.576 -986.171 418.805 -992.103 413.034 -996.431C402.133 -1004.77 388.828 -1009.9 375.363 -1012.46C313.486 -1024.32 254.014 -984.408 192.458 -997.874C167.612 -1003.32 143.887 -1013.74 121.124 -1024.8C97.0787 -1036.35 73.6746 -1049.33 50.5911 -1062.64C31.0342 -1073.7 11.798 -1085.4 -8.56036 -1094.86C-34.2087 -1106.88 -61.2997 -1116.5 -88.8717 -1122.75C-115.161 -1129.16 -142.894 -1132.21 -170.145 -1128.36C-171.267 -1128.2 -170.786 -1126.44 -169.664 -1126.6C-112.116 -1134.77 -50.3992 -1114.57 0.576813 -1088.93C43.0569 -1067.6 82.8118 -1041.48 125.773 -1021.12C146.772 -1011.18 168.734 -1001.72 191.497 -996.751C217.466 -990.981 243.915 -995.148 269.564 -1000.6C301.143 -1007.33 333.043 -1016.15 365.585 -1012.62C384.821 -1010.54 431.469 -998.354 422.171 -970.622C419.286 -962.126 414.156 -954.592 410.95 -946.096C406.462 -934.554 406.462 -923.493 406.782 -911.31C407.584 -877.487 404.859 -843.663 402.454 -810C397.485 -744.596 393.638 -677.109 417.362 -614.591C429.064 -583.653 443.972 -554.157 452.789 -522.257C461.926 -489.235 464.331 -454.931 455.674 -421.427C447.82 -390.329 431.789 -362.276 418.003 -333.582C404.698 -305.689 394.118 -277.316 392.195 -246.217C390.111 -211.432 395.882 -176.806 393.958 -142.181C392.355 -112.846 383.538 -85.4343 368.791 -60.1066C338.654 -8.1687 287.197 33.6702 224.679 31.1053C191.497 29.6626 159.757 18.6018 128.338 8.82336C94.9948 -1.59631 60.8504 -10.2526 26.8664 -18.5883C-25.2318 -31.4125 -77.8109 -41.6718 -130.23 -53.0532C-148.985 -57.2211 -167.901 -62.0302 -185.854 -69.2438C-202.205 -75.8162 -220.319 -84.7931 -230.418 -99.8615C-243.563 -119.418 -233.464 -141.38 -224.968 -160.616C-213.106 -187.867 -199.801 -213.676 -196.915 -243.652C-191.144 -302.964 -208.457 -362.917 -245.006 -409.886C-278.349 -452.847 -324.035 -483.144 -373.087 -505.586C-395.209 -515.525 -419.254 -525.944 -434.964 -545.661C-443.78 -556.722 -459.009 -582.371 -438.971 -589.264C-425.827 -593.752 -411.399 -592.79 -398.094 -597.439C-371.003 -606.897 -354.813 -629.98 -341.508 -654.186C-325.798 -683.04 -310.409 -712.055 -297.264 -742.352C-284.44 -772.168 -273.379 -803.107 -267.609 -835.167C-261.517 -869.151 -264.082 -903.616 -265.525 -937.921C-266.807 -969.981 -266.166 -1001.88 -258.952 -1033.3C-253.823 -1055.9 -245.327 -1078.67 -229.617 -1096.3C-213.907 -1113.77 -192.587 -1123.07 -169.664 -1126.76C-168.542 -1126.76 -169.023 -1128.52 -170.145 -1128.36Z" fill="url(#paint27_linear_6036_4246)"/>
<path d="M-250.136 -988.897C-254.784 -954.272 -251.258 -919.486 -251.418 -884.701C-251.578 -849.114 -258.632 -815.45 -270.815 -782.107C-282.517 -749.887 -297.906 -719.109 -313.455 -688.651C-320.508 -674.865 -327.401 -660.759 -334.935 -647.133C-342.149 -634.148 -350.805 -621.485 -363.469 -613.47C-377.095 -604.974 -393.285 -604.332 -408.514 -600.645C-418.292 -598.401 -425.827 -593.752 -428.392 -583.493C-431.437 -571.47 -424.384 -564.096 -418.132 -554.478C-410.919 -543.097 -402.102 -532.517 -392.324 -523.219C-373.087 -504.945 -350.004 -492.281 -327.562 -478.495C-303.196 -463.427 -280.112 -445.954 -259.754 -425.596C-215.35 -381.512 -186.496 -324.605 -184.732 -261.446C-184.252 -244.614 -186.015 -227.943 -190.984 -211.752C-195.473 -197.165 -201.724 -183.219 -207.175 -169.112C-213.747 -152.12 -222.243 -132.724 -213.106 -115.251C-205.892 -101.465 -191.305 -92.6481 -177.839 -86.0757C-160.687 -77.9003 -142.413 -72.6104 -124.138 -68.1218C-108.589 -64.2747 -93.0396 -61.3892 -77.4904 -58.0228C-44.1475 -50.6489 -10.965 -42.4735 22.0572 -33.657C54.5985 -25.0006 87.4604 -16.6649 119.2 -5.44385C148.055 4.65527 176.749 16.9985 207.206 21.006C235.259 24.693 262.19 19.2428 286.556 4.65527C308.517 -8.4895 327.272 -26.9243 342.341 -47.6033C357.569 -68.6028 369.432 -92.4878 375.203 -117.815C381.935 -148.113 381.294 -180.173 382.737 -210.951C384.34 -244.454 387.706 -277.476 400.21 -308.896C411.591 -337.59 427.621 -364.2 439.163 -393.054C450.865 -422.229 455.674 -452.847 451.827 -484.266C448.14 -514.723 437.4 -543.898 425.537 -572.112C419.125 -587.661 411.912 -602.729 406.782 -618.759C401.492 -635.11 398.126 -651.782 396.042 -668.774C392.034 -701.636 393.156 -734.978 395.401 -767.84C397.645 -801.183 401.172 -834.526 401.813 -868.029C402.133 -883.098 399.889 -899.128 403.736 -913.876C406.301 -923.494 411.11 -931.99 414.637 -941.287C421.851 -960.203 409.026 -972.546 392.836 -981.202C369.432 -993.706 341.7 -994.668 316.051 -991.141C282.869 -986.653 250.648 -974.79 216.824 -974.309C195.183 -973.989 174.344 -981.202 154.467 -989.538C109.422 -1008.45 67.7433 -1034.58 25.5839 -1058.95C-18.3389 -1083.96 -67.5516 -1099.67 -118.047 -1102.87C-142.252 -1104.47 -168.382 -1103.35 -190.664 -1093.09C-208.778 -1084.76 -222.724 -1070.33 -231.861 -1052.7C-242.121 -1033.14 -246.93 -1011.02 -249.975 -989.218C-250.136 -988.095 -248.372 -987.615 -248.212 -988.737C-241.8 -1033.3 -226.09 -1080.75 -178.801 -1095.66C-152.832 -1103.83 -123.978 -1102.55 -97.5281 -1099.02C-69.9561 -1095.18 -42.5445 -1087.96 -16.5756 -1077.7C24.4618 -1061.35 61.3312 -1034.74 99.964 -1013.9C136.994 -993.866 178.993 -970.302 222.435 -972.706C279.983 -975.752 346.508 -1012.3 400.049 -974.47C409.668 -967.737 417.362 -959.081 414.156 -946.737C411.912 -938.402 407.263 -930.868 404.217 -922.852C399.889 -911.471 399.408 -900.891 399.729 -888.868C400.049 -872.678 399.569 -856.327 398.607 -840.137C395.08 -777.459 385.141 -713.819 396.523 -651.301C407.904 -588.783 447.819 -535.402 451.026 -470.64C452.629 -437.298 443.652 -406.199 429.866 -376.383C417.683 -349.933 402.935 -324.605 393.798 -296.873C384.019 -267.377 382.096 -235.958 380.653 -205.18C379.37 -174.723 380.012 -142.823 372.157 -113.006C358.852 -62.5114 321.501 -13.1383 273.892 9.30396C213.458 37.6775 151.261 1.12854 93.3916 -15.8634C34.5608 -33.176 -25.0716 -49.2062 -85.1848 -61.7098C-119.65 -68.9233 -156.519 -75.1752 -187.297 -93.4496C-201.083 -101.625 -214.709 -113.968 -215.35 -131.121C-215.831 -142.983 -210.541 -155.486 -206.213 -166.387C-200.923 -180.173 -194.831 -193.638 -190.183 -207.745C-172.389 -262.087 -186.656 -325.727 -215.671 -373.658C-243.082 -418.703 -283.799 -454.45 -328.523 -481.701C-351.607 -495.808 -375.011 -508.953 -394.247 -528.189C-404.667 -538.608 -412.682 -550.31 -420.537 -562.654C-424.865 -569.547 -428.552 -574.676 -426.308 -583.333C-423.743 -592.951 -416.85 -597.119 -407.713 -599.203C-394.728 -602.248 -380.942 -603.05 -368.599 -608.821C-357.859 -613.79 -349.363 -621.966 -342.47 -631.423C-334.294 -642.484 -328.523 -655.148 -322.272 -667.331C-314.898 -681.758 -307.524 -696.025 -300.31 -710.613C-286.524 -738.345 -273.7 -766.558 -264.082 -795.893C-253.823 -827.152 -249.174 -858.411 -249.334 -891.433C-249.655 -924.135 -252.38 -956.997 -248.052 -989.538C-248.052 -990.179 -249.975 -990.179 -250.136 -988.897Z" fill="url(#paint28_linear_6036_4246)"/>
<path d="M-234.426 -973.027C-239.075 -940.326 -236.189 -907.304 -237.311 -874.281C-238.594 -839.816 -247.571 -807.596 -260.395 -775.856C-272.738 -745.399 -287.807 -716.384 -302.073 -686.888C-312.974 -664.606 -321.791 -633.989 -344.073 -620.042C-356.576 -612.348 -371.164 -612.027 -385.27 -609.462C-394.087 -607.859 -404.987 -605.775 -408.354 -596.318C-411.399 -587.822 -409.957 -573.875 -406.911 -565.54C-405.468 -561.692 -402.743 -558.967 -399.858 -556.402C-393.606 -550.952 -390.56 -543.418 -386.072 -536.525C-372.446 -515.846 -353.691 -499.495 -333.813 -484.908C-311.692 -468.557 -289.249 -453.168 -268.731 -434.733C-247.571 -415.657 -228.014 -394.497 -212.144 -370.773C-204.129 -358.91 -196.915 -346.407 -190.824 -333.422C-183.931 -318.514 -179.603 -302.805 -176.236 -286.774C-172.87 -270.584 -170.786 -253.752 -172.069 -237.241C-173.351 -220.89 -178.481 -205.341 -183.771 -189.792C-189.862 -171.998 -201.564 -149.075 -193.228 -130.159C-187.297 -116.534 -173.672 -107.717 -161.008 -101.305C-144.336 -92.9692 -126.222 -87.6791 -108.268 -83.0304C-92.719 -79.0228 -76.8491 -75.9771 -61.1395 -72.2902C-29.0791 -64.4354 2.82101 -55.7791 34.5608 -46.4816C64.377 -37.6649 94.6741 -29.1689 123.368 -17.4669C149.658 -6.56641 175.947 6.41809 204.481 10.1051C256.579 16.8378 301.784 -19.0699 329.677 -59.6263C343.784 -80.145 354.844 -103.549 359.333 -128.075C364.783 -157.571 367.188 -187.868 371.516 -217.524C375.844 -247.661 379.851 -278.759 390.752 -307.453C401.332 -335.506 417.042 -361.475 428.423 -389.207C439.965 -417.1 445.415 -446.435 442.369 -476.572C439.324 -506.068 429.385 -534.12 418.164 -561.211C411.912 -576.28 404.859 -590.867 399.729 -606.417C394.279 -622.607 390.592 -639.279 388.508 -656.11C384.5 -687.85 385.622 -719.911 388.027 -751.811C390.271 -783.55 393.798 -815.13 394.599 -847.03C394.92 -861.778 393.156 -876.846 397.164 -891.273C399.729 -900.411 404.217 -908.746 406.943 -917.884C412.874 -937.28 398.286 -950.265 382.416 -958.921C359.974 -970.944 333.364 -972.226 308.517 -968.699C275.495 -964.051 243.434 -952.028 209.611 -952.509C189.573 -952.829 169.856 -960.684 151.742 -968.86C109.903 -987.615 71.1097 -1012.62 31.6754 -1036.03C14.523 -1046.29 -2.62927 -1055.42 -21.8655 -1061.67C-46.8727 -1069.69 -73.1622 -1074.34 -99.4517 -1076.1C-142.733 -1078.99 -191.465 -1075.14 -215.51 -1033.78C-226.411 -1015.35 -231.06 -994.027 -234.426 -973.027C-234.586 -971.905 -232.823 -971.424 -232.663 -972.547C-229.296 -994.508 -224.167 -1017.11 -212.144 -1036.03C-200.282 -1054.78 -181.847 -1066.64 -160.206 -1071.29C-134.237 -1076.74 -106.505 -1075.62 -80.3758 -1072.41C-54.4068 -1069.21 -28.2776 -1063.28 -4.07199 -1053.02C13.0804 -1045.8 28.7899 -1035.38 44.6599 -1025.77C64.0564 -1014.06 83.4529 -1002.2 103.33 -991.142C122.246 -980.562 141.482 -970.463 161.68 -962.287C178.352 -955.555 195.504 -950.104 213.779 -950.585C270.525 -951.707 334.165 -988.897 387.386 -953.31C397.004 -946.898 407.584 -937.761 406.301 -925.097C405.339 -915.96 400.37 -907.464 397.324 -899.128C393.477 -888.709 392.355 -878.61 392.515 -867.549C392.676 -851.839 392.195 -836.29 391.073 -820.58C387.386 -760.627 377.767 -699.873 388.828 -640.08C394.599 -609.142 407.744 -581.73 419.446 -552.715C430.828 -524.342 440.285 -494.846 441.247 -464.068C442.209 -432.008 432.911 -402.352 419.446 -373.658C407.584 -348.491 393.798 -324.125 385.141 -297.675C376.164 -269.782 372.638 -239.806 368.63 -210.951C364.623 -182.578 362.699 -153.403 356.768 -125.35C346.188 -75.4962 310.922 -27.085 265.877 -3.19995C238.786 11.2272 210.412 11.8684 181.237 3.21204C154.467 -4.6427 129.62 -18.108 103.33 -26.9247C47.0644 -46.0006 -10.8047 -62.8324 -68.6737 -75.9772C-102.337 -83.5114 -138.565 -89.6028 -168.542 -107.557C-181.847 -115.572 -194.671 -127.755 -194.351 -144.426C-194.03 -157.731 -188.259 -171.517 -183.931 -184.021C-179.282 -197.646 -174.313 -211.272 -171.748 -225.539C-166.618 -254.714 -172.71 -284.53 -180.885 -312.583C-188.259 -338.231 -202.847 -362.116 -218.716 -383.276C-249.655 -424.794 -289.73 -454.931 -331.088 -485.228C-352.729 -501.098 -373.248 -518.731 -387.194 -541.975C-390.4 -547.105 -392.324 -552.555 -396.812 -556.563C-402.583 -561.532 -405.468 -566.181 -406.59 -573.715C-407.552 -579.806 -408.514 -586.219 -407.392 -592.47C-405.629 -602.409 -397.133 -605.134 -388.476 -607.218C-375.812 -610.104 -362.507 -609.943 -350.485 -614.913C-341.347 -618.76 -333.974 -625.172 -328.042 -633.027C-321.149 -642.164 -316.34 -652.744 -311.692 -663.003C-305.44 -676.469 -298.867 -689.934 -292.135 -703.239C-265.364 -757.421 -237.632 -812.886 -235.548 -874.442C-234.426 -907.143 -237.472 -940.005 -232.663 -972.707C-232.342 -973.669 -234.266 -974.15 -234.426 -973.027Z" fill="url(#paint29_linear_6036_4246)"/>
<path d="M-218.716 -956.837C-223.525 -925.738 -221.121 -894.319 -223.525 -863.06C-226.09 -829.877 -237.472 -798.939 -250.777 -768.802C-263.28 -740.589 -277.547 -713.177 -290.211 -685.125C-299.669 -663.965 -306.081 -636.232 -328.363 -624.851C-340.546 -618.599 -354.492 -619.24 -367.637 -617.317C-375.652 -616.195 -387.675 -614.271 -392.163 -606.416C-396.491 -599.042 -393.446 -588.462 -391.201 -580.928C-388.636 -571.791 -387.194 -560.089 -380.14 -553.036C-376.774 -549.83 -372.606 -547.746 -369.08 -544.7C-363.309 -539.57 -359.622 -530.754 -355.133 -524.502C-347.118 -513.441 -338.462 -503.182 -329.004 -493.403C-310.569 -474.167 -289.89 -457.496 -270.334 -439.382C-250.135 -420.626 -230.899 -400.588 -214.068 -378.627C-196.434 -355.864 -178.641 -329.735 -170.465 -302.003C-165.817 -286.453 -161.008 -271.064 -159.244 -254.874C-157.321 -238.523 -159.565 -222.653 -163.572 -206.783C-167.099 -192.516 -171.748 -178.57 -174.152 -163.982C-175.274 -156.769 -175.595 -150.036 -172.71 -143.304C-167.259 -130.319 -154.275 -121.823 -142.252 -115.732C-125.741 -107.396 -107.787 -102.106 -89.9937 -97.6175C-73.8032 -93.4496 -57.4524 -90.0833 -41.4222 -85.7551C-10.9648 -77.4194 19.3322 -68.2822 49.3087 -58.3435C77.6822 -48.8857 105.895 -39.4278 132.666 -26.1227C155.108 -14.9016 178.512 -2.55835 204 -0.314087C251.931 3.85376 294.411 -36.3821 318.135 -74.0531C331.12 -94.5717 339.936 -117.014 343.623 -141.059C347.791 -169.112 354.203 -196.684 360.776 -224.256C367.188 -251.347 371.997 -279.881 381.294 -306.17C391.393 -334.384 407.103 -360.192 418.645 -387.925C429.545 -414.054 435.156 -441.305 432.751 -469.518C430.347 -497.892 421.209 -524.983 410.469 -551.112C398.447 -580.608 385.943 -608.5 381.294 -640.4C376.806 -672.14 377.928 -704.361 380.493 -736.261C382.897 -767.199 386.424 -797.977 387.225 -828.915C387.546 -842.701 386.584 -856.327 390.592 -869.793C393.317 -878.93 397.805 -887.586 399.408 -897.044C402.775 -916.761 384.34 -930.868 368.47 -938.562C346.829 -949.142 321.662 -949.783 298.098 -946.257C266.839 -941.287 235.74 -929.745 203.68 -931.348C185.245 -932.31 166.97 -940.325 150.459 -948.02C111.025 -966.615 74.4762 -990.66 37.4464 -1013.58C22.378 -1022.88 7.46994 -1032.34 -9.36179 -1038.11C-32.285 -1045.96 -56.8112 -1049.17 -80.8565 -1050.45C-121.413 -1052.54 -173.992 -1053.02 -198.999 -1015.19C-210.381 -997.714 -215.19 -976.874 -218.716 -956.837C-218.877 -955.714 -217.113 -955.233 -216.953 -956.356C-213.426 -977.195 -208.457 -998.836 -195.953 -1016.31C-182.007 -1035.54 -161.168 -1043.56 -138.405 -1046.45C-113.558 -1049.65 -88.2304 -1049.65 -63.3836 -1047.09C-39.6589 -1044.68 -14.812 -1040.19 6.66843 -1029.29C21.7368 -1021.76 35.8434 -1012.14 50.1103 -1003.32C68.2244 -991.943 86.4988 -980.561 104.934 -969.821C123.048 -959.241 141.643 -949.142 161.039 -940.967C174.986 -935.035 189.733 -929.585 204.962 -929.104C261.068 -927.181 320.38 -965.333 373.92 -933.272C384.34 -927.02 397.004 -917.242 397.966 -903.937C398.607 -895.12 394.439 -886.624 391.554 -878.449C382.897 -854.404 385.783 -828.755 384.18 -803.588C380.333 -745.238 370.554 -686.247 381.455 -628.057C387.065 -598.241 400.21 -571.631 411.271 -543.738C421.851 -516.807 430.507 -488.755 431.309 -459.58C432.11 -428.641 422.652 -399.947 409.668 -372.215C398.126 -347.849 384.821 -324.285 376.806 -298.476C368.791 -272.507 363.821 -245.256 357.57 -218.966C351.318 -192.356 345.547 -165.746 341.379 -138.815C333.845 -90.2435 301.785 -43.1147 259.946 -17.3062C236.061 -2.55835 210.573 2.09045 183.482 -5.7644C157.994 -13.1382 135.551 -27.4052 111.346 -37.8248C85.537 -48.8856 58.2857 -57.2213 31.5153 -65.7173C4.5845 -74.3737 -22.6669 -82.7094 -50.0785 -89.6024C-83.1007 -97.9381 -118.688 -103.228 -148.504 -121.022C-161.649 -128.876 -174.313 -140.578 -173.19 -157.25C-171.427 -185.623 -157 -211.592 -156.679 -240.447C-156.519 -254.553 -159.405 -268.5 -162.931 -282.125C-166.298 -294.789 -169.504 -307.453 -175.114 -319.315C-186.496 -343.2 -201.083 -365.482 -217.754 -386.161C-234.426 -407 -253.181 -426.076 -272.898 -444.191C-291.173 -461.022 -310.569 -476.732 -327.882 -494.846C-338.141 -505.586 -347.599 -516.968 -356.095 -528.99C-359.622 -533.96 -362.347 -540.532 -366.354 -544.86C-370.041 -548.868 -375.812 -550.952 -379.66 -554.959C-383.988 -559.608 -384.789 -565.86 -386.553 -571.631C-388.316 -577.241 -390.079 -582.852 -391.362 -588.783C-392.484 -594.233 -393.606 -601.126 -390.239 -606.096C-386.072 -612.187 -376.293 -613.95 -369.561 -615.073C-357.378 -617.156 -344.553 -616.515 -332.851 -620.843C-324.195 -624.049 -316.981 -629.66 -311.371 -636.874C-305.279 -644.728 -301.272 -654.026 -297.425 -663.163C-292.295 -675.667 -287.005 -687.85 -281.234 -700.033C-256.708 -752.131 -226.25 -804.55 -221.602 -863.06C-219.197 -894.158 -221.602 -925.417 -216.793 -956.356C-216.632 -957.478 -218.396 -957.959 -218.716 -956.837Z" fill="url(#paint30_linear_6036_4246)"/>
</g>
</g>
<defs>
<filter id="filter0_f_6036_4246" x="348.677" y="-1180.98" width="1328.15" height="1328.15" filterUnits="userSpaceOnUse" color-interpolation-filters="sRGB">
<feFlood flood-opacity="0" result="BackgroundImageFix"/>
<feBlend mode="normal" in="SourceGraphic" in2="BackgroundImageFix" result="shape"/>
<feGaussianBlur stdDeviation="100" result="effect1_foregroundBlur_6036_4246"/>
</filter>
<filter id="filter1_f_6036_4246" x="708.108" y="-1516.33" width="1339.55" height="1747.78" filterUnits="userSpaceOnUse" color-interpolation-filters="sRGB">
<feFlood flood-opacity="0" result="BackgroundImageFix"/>
<feBlend mode="normal" in="SourceGraphic" in2="BackgroundImageFix" result="shape"/>
<feGaussianBlur stdDeviation="7.26216" result="effect1_foregroundBlur_6036_4246"/>
</filter>
<filter id="filter2_f_6036_4246" x="645.003" y="-1561.26" width="1412.39" height="1820.93" filterUnits="userSpaceOnUse" color-interpolation-filters="sRGB">
<feFlood flood-opacity="0" result="BackgroundImageFix"/>
<feBlend mode="normal" in="SourceGraphic" in2="BackgroundImageFix" result="shape"/>
<feGaussianBlur stdDeviation="21.7865" result="effect1_foregroundBlur_6036_4246"/>
</filter>
<filter id="filter3_f_6036_4246" x="625.637" y="-1580.63" width="1451.13" height="1859.66" filterUnits="userSpaceOnUse" color-interpolation-filters="sRGB">
<feFlood flood-opacity="0" result="BackgroundImageFix"/>
<feBlend mode="normal" in="SourceGraphic" in2="BackgroundImageFix" result="shape"/>
<feGaussianBlur stdDeviation="31.4693" result="effect1_foregroundBlur_6036_4246"/>
</filter>
<filter id="filter4_f_6036_4246" x="625.637" y="-1580.63" width="1451.13" height="1859.66" filterUnits="userSpaceOnUse" color-interpolation-filters="sRGB">
<feFlood flood-opacity="0" result="BackgroundImageFix"/>
<feBlend mode="normal" in="SourceGraphic" in2="BackgroundImageFix" result="shape"/>
<feGaussianBlur stdDeviation="31.4693" result="effect1_foregroundBlur_6036_4246"/>
</filter>
<filter id="filter5_f_6036_4246" x="538.491" y="-1667.78" width="1560.97" height="2032.61" filterUnits="userSpaceOnUse" color-interpolation-filters="sRGB">
<feFlood flood-opacity="0" result="BackgroundImageFix"/>
<feBlend mode="normal" in="SourceGraphic" in2="BackgroundImageFix" result="shape"/>
<feGaussianBlur stdDeviation="75.0423" result="effect1_foregroundBlur_6036_4246"/>
</filter>
<filter id="filter6_f_6036_4246" x="563.204" y="-1655.25" width="1471.46" height="2037" filterUnits="userSpaceOnUse" color-interpolation-filters="sRGB">
<feFlood flood-opacity="0" result="BackgroundImageFix"/>
<feBlend mode="normal" in="SourceGraphic" in2="BackgroundImageFix" result="shape"/>
<feGaussianBlur stdDeviation="45.9937" result="effect1_foregroundBlur_6036_4246"/>
</filter>
<filter id="filter7_f_6036_4246" x="456.692" y="-1761.77" width="1684.48" height="2250.02" filterUnits="userSpaceOnUse" color-interpolation-filters="sRGB">
<feFlood flood-opacity="0" result="BackgroundImageFix"/>
<feBlend mode="normal" in="SourceGraphic" in2="BackgroundImageFix" result="shape"/>
<feGaussianBlur stdDeviation="99.2495" result="effect1_foregroundBlur_6036_4246"/>
</filter>
<filter id="filter8_f_6036_4246" x="359.863" y="-1858.59" width="1878.14" height="2443.68" filterUnits="userSpaceOnUse" color-interpolation-filters="sRGB">
<feFlood flood-opacity="0" result="BackgroundImageFix"/>
<feBlend mode="normal" in="SourceGraphic" in2="BackgroundImageFix" result="shape"/>
<feGaussianBlur stdDeviation="147.664" result="effect1_foregroundBlur_6036_4246"/>
</filter>
<filter id="filter9_f_6036_4246" x="936.898" y="-428.112" width="1028.4" height="537.686" filterUnits="userSpaceOnUse" color-interpolation-filters="sRGB">
<feFlood flood-opacity="0" result="BackgroundImageFix"/>
<feBlend mode="normal" in="SourceGraphic" in2="BackgroundImageFix" result="shape"/>
<feGaussianBlur stdDeviation="2.97408" result="effect1_foregroundBlur_6036_4246"/>
</filter>
<filter id="filter10_f_6036_4246" x="950.08" y="-816.036" width="976.596" height="906.273" filterUnits="userSpaceOnUse" color-interpolation-filters="sRGB">
<feFlood flood-opacity="0" result="BackgroundImageFix"/>
<feBlend mode="normal" in="SourceGraphic" in2="BackgroundImageFix" result="shape"/>
<feGaussianBlur stdDeviation="2.97408" result="effect1_foregroundBlur_6036_4246"/>
</filter>
<filter id="filter11_f_6036_4246" x="892.977" y="-873.138" width="1090.8" height="1020.48" filterUnits="userSpaceOnUse" color-interpolation-filters="sRGB">
<feFlood flood-opacity="0" result="BackgroundImageFix"/>
<feBlend mode="normal" in="SourceGraphic" in2="BackgroundImageFix" result="shape"/>
<feGaussianBlur stdDeviation="31.5253" result="effect1_foregroundBlur_6036_4246"/>
</filter>
<filter id="filter12_f_6036_4246" x="921.529" y="-844.587" width="1033.7" height="963.375" filterUnits="userSpaceOnUse" color-interpolation-filters="sRGB">
<feFlood flood-opacity="0" result="BackgroundImageFix"/>
<feBlend mode="normal" in="SourceGraphic" in2="BackgroundImageFix" result="shape"/>
<feGaussianBlur stdDeviation="17.2497" result="effect1_foregroundBlur_6036_4246"/>
</filter>
<filter id="filter13_f_6036_4246" x="921.529" y="-844.587" width="1033.7" height="963.375" filterUnits="userSpaceOnUse" color-interpolation-filters="sRGB">
<feFlood flood-opacity="0" result="BackgroundImageFix"/>
<feBlend mode="normal" in="SourceGraphic" in2="BackgroundImageFix" result="shape"/>
<feGaussianBlur stdDeviation="17.2497" result="effect1_foregroundBlur_6036_4246"/>
</filter>
<filter id="filter14_f_6036_4246" x="908.347" y="-844.587" width="1046.88" height="963.375" filterUnits="userSpaceOnUse" color-interpolation-filters="sRGB">
<feFlood flood-opacity="0" result="BackgroundImageFix"/>
<feBlend mode="normal" in="SourceGraphic" in2="BackgroundImageFix" result="shape"/>
<feGaussianBlur stdDeviation="17.2497" result="effect1_foregroundBlur_6036_4246"/>
</filter>
<filter id="filter15_f_6036_4246" x="979.182" y="-829.727" width="995.63" height="945.171" filterUnits="userSpaceOnUse" color-interpolation-filters="sRGB">
<feFlood flood-opacity="0" result="BackgroundImageFix"/>
<feBlend mode="normal" in="SourceGraphic" in2="BackgroundImageFix" result="shape"/>
<feGaussianBlur stdDeviation="7.73261" result="effect1_foregroundBlur_6036_4246"/>
</filter>
<filter id="filter16_f_6036_4246" x="956.894" y="-825.99" width="1000.39" height="941.913" filterUnits="userSpaceOnUse" color-interpolation-filters="sRGB">
<feFlood flood-opacity="0" result="BackgroundImageFix"/>
<feBlend mode="normal" in="SourceGraphic" in2="BackgroundImageFix" result="shape"/>
<feGaussianBlur stdDeviation="8.92225" result="effect1_foregroundBlur_6036_4246"/>
</filter>
<filter id="filter17_f_6036_4246" x="956.3" y="-811.18" width="983.734" height="907.063" filterUnits="userSpaceOnUse" color-interpolation-filters="sRGB">
<feFlood flood-opacity="0" result="BackgroundImageFix"/>
<feBlend mode="normal" in="SourceGraphic" in2="BackgroundImageFix" result="shape"/>
<feGaussianBlur stdDeviation="4.75853" result="effect1_foregroundBlur_6036_4246"/>
</filter>
<filter id="filter18_f_6036_4246" x="937.266" y="-625.581" width="1021.8" height="734.309" filterUnits="userSpaceOnUse" color-interpolation-filters="sRGB">
<feFlood flood-opacity="0" result="BackgroundImageFix"/>
<feBlend mode="normal" in="SourceGraphic" in2="BackgroundImageFix" result="shape"/>
<feGaussianBlur stdDeviation="14.2756" result="effect1_foregroundBlur_6036_4246"/>
</filter>
<filter id="filter19_f_6036_4246" x="937.266" y="-625.581" width="1021.8" height="738.841" filterUnits="userSpaceOnUse" color-interpolation-filters="sRGB">
<feFlood flood-opacity="0" result="BackgroundImageFix"/>
<feBlend mode="normal" in="SourceGraphic" in2="BackgroundImageFix" result="shape"/>
<feGaussianBlur stdDeviation="14.2756" result="effect1_foregroundBlur_6036_4246"/>
</filter>
<filter id="filter20_f_6036_4246" x="-354.064" y="-995.769" width="926.119" height="1001.14" filterUnits="userSpaceOnUse" color-interpolation-filters="sRGB">
<feFlood flood-opacity="0" result="BackgroundImageFix"/>
<feBlend mode="normal" in="SourceGraphic" in2="BackgroundImageFix" result="shape"/>
<feGaussianBlur stdDeviation="31.4693" result="effect1_foregroundBlur_6036_4246"/>
</filter>
<filter id="filter21_f_6036_4246" x="-354.064" y="-995.769" width="926.119" height="1001.14" filterUnits="userSpaceOnUse" color-interpolation-filters="sRGB">
<feFlood flood-opacity="0" result="BackgroundImageFix"/>
<feBlend mode="normal" in="SourceGraphic" in2="BackgroundImageFix" result="shape"/>
<feGaussianBlur stdDeviation="31.4693" result="effect1_foregroundBlur_6036_4246"/>
</filter>
<filter id="filter22_f_6036_4246" x="-418.219" y="-1078.19" width="1077.42" height="1170.71" filterUnits="userSpaceOnUse" color-interpolation-filters="sRGB">
<feFlood flood-opacity="0" result="BackgroundImageFix"/>
<feBlend mode="normal" in="SourceGraphic" in2="BackgroundImageFix" result="shape"/>
<feGaussianBlur stdDeviation="75.0423" result="effect1_foregroundBlur_6036_4246"/>
</filter>
<filter id="filter23_f_6036_4246" x="-359.904" y="-1054.79" width="971.939" height="1102.32" filterUnits="userSpaceOnUse" color-interpolation-filters="sRGB">
<feFlood flood-opacity="0" result="BackgroundImageFix"/>
<feBlend mode="normal" in="SourceGraphic" in2="BackgroundImageFix" result="shape"/>
<feGaussianBlur stdDeviation="45.9937" result="effect1_foregroundBlur_6036_4246"/>
</filter>
<filter id="filter24_f_6036_4246" x="-466.416" y="-1161.31" width="1184.96" height="1315.35" filterUnits="userSpaceOnUse" color-interpolation-filters="sRGB">
<feFlood flood-opacity="0" result="BackgroundImageFix"/>
<feBlend mode="normal" in="SourceGraphic" in2="BackgroundImageFix" result="shape"/>
<feGaussianBlur stdDeviation="99.2495" result="effect1_foregroundBlur_6036_4246"/>
</filter>
<filter id="filter25_f_6036_4246" x="-563.245" y="-1258.13" width="1378.62" height="1509" filterUnits="userSpaceOnUse" color-interpolation-filters="sRGB">
<feFlood flood-opacity="0" result="BackgroundImageFix"/>
<feBlend mode="normal" in="SourceGraphic" in2="BackgroundImageFix" result="shape"/>
<feGaussianBlur stdDeviation="147.664" result="effect1_foregroundBlur_6036_4246"/>
</filter>
<linearGradient id="paint0_linear_6036_4246" x1="1984.8" y1="-1927" x2="1984.8" y2="367.173" gradientUnits="userSpaceOnUse">
<stop stop-color="#C4C4C4" stop-opacity="0"/>
<stop offset="0.380208" stop-color="#C4C4C4"/>
<stop offset="0.578125" stop-color="#C4C4C4"/>
<stop offset="1" stop-color="#C4C4C4" stop-opacity="0"/>
</linearGradient>
<linearGradient id="paint1_linear_6036_4246" x1="1922.86" y1="-1305.84" x2="1140.12" y2="290.849" gradientUnits="userSpaceOnUse">
<stop stop-color="#057FE2"/>
<stop offset="1" stop-color="#178AEC"/>
</linearGradient>
<linearGradient id="paint2_linear_6036_4246" x1="1909.18" y1="-1312.54" x2="1126.45" y2="284.145" gradientUnits="userSpaceOnUse">
<stop stop-color="#057FE2"/>
<stop offset="1" stop-color="#178AEC"/>
</linearGradient>
<linearGradient id="paint3_linear_6036_4246" x1="1883.55" y1="-1322.99" x2="1094.95" y2="285.669" gradientUnits="userSpaceOnUse">
<stop stop-color="#057FE2"/>
<stop offset="1" stop-color="#178AEC"/>
</linearGradient>
<linearGradient id="paint4_linear_6036_4246" x1="1883.55" y1="-1322.99" x2="1094.95" y2="285.669" gradientUnits="userSpaceOnUse">
<stop stop-color="#057FE2"/>
<stop offset="1" stop-color="#178AEC"/>
</linearGradient>
<linearGradient id="paint5_linear_6036_4246" x1="1883.55" y1="-1322.99" x2="1094.95" y2="285.669" gradientUnits="userSpaceOnUse">
<stop stop-color="white"/>
<stop offset="1" stop-color="#A4D5FF"/>
</linearGradient>
<linearGradient id="paint6_linear_6036_4246" x1="1845.95" y1="-1341.42" x2="1057.35" y2="267.232" gradientUnits="userSpaceOnUse">
<stop stop-color="#057FE2"/>
<stop offset="1" stop-color="#178AEC"/>
</linearGradient>
<linearGradient id="paint7_linear_6036_4246" x1="1858.12" y1="-1417.09" x2="1006.67" y2="319.782" gradientUnits="userSpaceOnUse">
<stop stop-color="#057FE2"/>
<stop offset="1" stop-color="#178AEC"/>
</linearGradient>
<linearGradient id="paint8_linear_6036_4246" x1="1858.12" y1="-1417.09" x2="1006.67" y2="319.782" gradientUnits="userSpaceOnUse">
<stop stop-color="#057FE2"/>
<stop offset="1" stop-color="#178AEC"/>
</linearGradient>
<linearGradient id="paint9_linear_6036_4246" x1="1858.12" y1="-1417.09" x2="1006.67" y2="319.782" gradientUnits="userSpaceOnUse">
<stop stop-color="#057FE2"/>
<stop offset="1" stop-color="#178AEC"/>
</linearGradient>
<linearGradient id="paint10_linear_6036_4246" x1="1684.2" y1="-291.739" x2="949.832" y2="-132.875" gradientUnits="userSpaceOnUse">
<stop stop-color="#C4C4C4" stop-opacity="0"/>
<stop offset="0.565737" stop-color="#C4C4C4"/>
<stop offset="1" stop-color="#C4C4C4" stop-opacity="0"/>
</linearGradient>
<linearGradient id="paint11_linear_6036_4246" x1="2271.91" y1="-1144.87" x2="887.29" y2="-283.227" gradientUnits="userSpaceOnUse">
<stop stop-color="#BDEE60"/>
<stop offset="0.0001" stop-color="#044A9C"/>
<stop offset="0.989583" stop-color="#057FE2"/>
</linearGradient>
<linearGradient id="paint12_linear_6036_4246" x1="2259.52" y1="-1165.16" x2="845.168" y2="-285.013" gradientUnits="userSpaceOnUse">
<stop stop-color="#BDEE60"/>
<stop offset="0.0001" stop-color="#044A9C"/>
<stop offset="0.989583" stop-color="#057FE2"/>
</linearGradient>
<linearGradient id="paint13_linear_6036_4246" x1="2251.28" y1="-1186.95" x2="803.361" y2="-285.916" gradientUnits="userSpaceOnUse">
<stop stop-color="#BDEE60"/>
<stop offset="0.0001" stop-color="#044A9C"/>
<stop offset="0.989583" stop-color="#057FE2"/>
</linearGradient>
<linearGradient id="paint14_linear_6036_4246" x1="2247.54" y1="-1208.94" x2="762.72" y2="-284.941" gradientUnits="userSpaceOnUse">
<stop stop-color="#BDEE60"/>
<stop offset="0.0001" stop-color="#044A9C"/>
<stop offset="0.989583" stop-color="#057FE2"/>
</linearGradient>
<linearGradient id="paint15_linear_6036_4246" x1="2248.67" y1="-1229.61" x2="724.034" y2="-280.826" gradientUnits="userSpaceOnUse">
<stop stop-color="#BDEE60"/>
<stop offset="0.0001" stop-color="#044A9C"/>
<stop offset="0.989583" stop-color="#057FE2"/>
</linearGradient>
<linearGradient id="paint16_linear_6036_4246" x1="2255.37" y1="-1246.93" x2="688.568" y2="-271.917" gradientUnits="userSpaceOnUse">
<stop stop-color="#BDEE60"/>
<stop offset="0.0001" stop-color="#044A9C"/>
<stop offset="0.989583" stop-color="#057FE2"/>
</linearGradient>
<linearGradient id="paint17_linear_6036_4246" x1="2269.32" y1="-1256.69" x2="658.525" y2="-254.293" gradientUnits="userSpaceOnUse">
<stop stop-color="#BDEE60"/>
<stop offset="0.0001" stop-color="#044A9C"/>
<stop offset="0.989583" stop-color="#057FE2"/>
</linearGradient>
<linearGradient id="paint18_linear_6036_4246" x1="2287.77" y1="-1262.17" x2="631.311" y2="-231.361" gradientUnits="userSpaceOnUse">
<stop stop-color="#BDEE60"/>
<stop offset="0.0001" stop-color="#044A9C"/>
<stop offset="0.989583" stop-color="#057FE2"/>
</linearGradient>
<linearGradient id="paint19_linear_6036_4246" x1="2309.23" y1="-1264.95" x2="606.495" y2="-205.339" gradientUnits="userSpaceOnUse">
<stop stop-color="#BDEE60"/>
<stop offset="0.0001" stop-color="#044A9C"/>
<stop offset="0.989583" stop-color="#057FE2"/>
</linearGradient>
<linearGradient id="paint20_linear_6036_4246" x1="462.322" y1="190.529" x2="462.322" y2="1418.76" gradientUnits="userSpaceOnUse">
<stop stop-color="#C4C4C4" stop-opacity="0"/>
<stop offset="0.380208" stop-color="#C4C4C4"/>
<stop offset="0.578125" stop-color="#C4C4C4"/>
<stop offset="1" stop-color="#C4C4C4" stop-opacity="0"/>
</linearGradient>
<linearGradient id="paint21_linear_6036_4246" x1="-279.42" y1="-209.484" x2="322.054" y2="-956.604" gradientUnits="userSpaceOnUse">
<stop stop-color="#057FE2"/>
<stop offset="1" stop-color="#178AEC"/>
</linearGradient>
<linearGradient id="paint22_linear_6036_4246" x1="-279.42" y1="-209.484" x2="322.054" y2="-956.604" gradientUnits="userSpaceOnUse">
<stop stop-color="#057FE2"/>
<stop offset="1" stop-color="#178AEC"/>
</linearGradient>
<linearGradient id="paint23_linear_6036_4246" x1="-261.953" y1="-195.422" x2="339.521" y2="-942.542" gradientUnits="userSpaceOnUse">
<stop stop-color="#057FE2"/>
<stop offset="1" stop-color="#178AEC"/>
</linearGradient>
<linearGradient id="paint24_linear_6036_4246" x1="-277.232" y1="-157.344" x2="372.18" y2="-964.011" gradientUnits="userSpaceOnUse">
<stop stop-color="#057FE2"/>
<stop offset="1" stop-color="#178AEC"/>
</linearGradient>
<linearGradient id="paint25_linear_6036_4246" x1="-277.232" y1="-157.344" x2="372.18" y2="-964.011" gradientUnits="userSpaceOnUse">
<stop stop-color="#057FE2"/>
<stop offset="1" stop-color="#178AEC"/>
</linearGradient>
<linearGradient id="paint26_linear_6036_4246" x1="-277.232" y1="-157.344" x2="372.18" y2="-964.011" gradientUnits="userSpaceOnUse">
<stop stop-color="#057FE2"/>
<stop offset="1" stop-color="#178AEC"/>
</linearGradient>
<linearGradient id="paint27_linear_6036_4246" x1="5.3988" y1="-1130.06" x2="5.3988" y2="33.5735" gradientUnits="userSpaceOnUse">
<stop stop-color="#BDEE60"/>
<stop offset="0.0001" stop-color="#044A9C"/>
<stop offset="0.989583" stop-color="#057FE2"/>
</linearGradient>
<linearGradient id="paint28_linear_6036_4246" x1="12.0031" y1="-1103.47" x2="12.0031" y2="22.1218" gradientUnits="userSpaceOnUse">
<stop stop-color="#BDEE60"/>
<stop offset="0.0001" stop-color="#044A9C"/>
<stop offset="0.989583" stop-color="#057FE2"/>
</linearGradient>
<linearGradient id="paint29_linear_6036_4246" x1="16.5811" y1="-1076.84" x2="16.5811" y2="10.9221" gradientUnits="userSpaceOnUse">
<stop stop-color="#BDEE60"/>
<stop offset="0.0001" stop-color="#044A9C"/>
<stop offset="0.989583" stop-color="#057FE2"/>
</linearGradient>
<linearGradient id="paint30_linear_6036_4246" x1="19.4744" y1="-1051.22" x2="19.4744" y2="-0.0157471" gradientUnits="userSpaceOnUse">
<stop stop-color="#BDEE60"/>
<stop offset="0.0001" stop-color="#044A9C"/>
<stop offset="0.989583" stop-color="#057FE2"/>
</linearGradient>
<clipPath id="clip0_6036_4246">
<rect width="1880" height="445" fill="white"/>
</clipPath>
</defs>
</svg>
