<svg width="165" height="80" viewBox="0 0 165 80" fill="none" xmlns="http://www.w3.org/2000/svg">
<path d="M67.2073 46.1473H70.3801V58.5409H67.2073V46.1473ZM95.5645 49.7167C95.4653 49.6175 94.4738 49.0226 92.8874 49.0226C90.9044 49.0226 89.4171 50.4107 89.4171 52.2946C89.4171 54.1784 90.8052 55.5665 92.8874 55.5665C94.3747 55.5665 95.3662 54.9716 95.5645 54.8724V58.2435C95.1679 58.3426 94.0772 58.6401 92.6891 58.6401C89.1197 58.6401 86.046 56.2605 86.046 52.1954C86.046 48.5269 88.8222 45.7507 92.6891 45.7507C94.1764 45.7507 95.267 46.1473 95.5645 46.1473V49.7167ZM62.8446 49.7167C62.7455 49.6175 61.754 49.0226 60.1676 49.0226C58.1845 49.0226 56.6973 50.4107 56.6973 52.2946C56.6973 54.1784 58.0854 55.5665 60.1676 55.5665C61.6548 55.5665 62.6463 54.9716 62.8446 54.8724V58.2435C62.448 58.3426 61.3574 58.6401 59.9693 58.6401C56.499 58.6401 53.3261 56.2605 53.3261 52.1954C53.3261 48.5269 56.1024 45.7507 59.9693 45.7507C61.4565 45.7507 62.5472 46.1473 62.8446 46.1473V49.7167ZM111.924 52.3937C111.924 55.9631 109.148 58.8384 105.38 58.8384C101.613 58.8384 98.8365 55.9631 98.8365 52.3937C98.8365 48.8243 101.613 45.949 105.38 45.949C109.247 45.949 111.924 48.8243 111.924 52.3937ZM105.38 49.1218C103.497 49.1218 102.108 50.609 102.108 52.3937C102.108 54.1784 103.497 55.6656 105.38 55.6656C107.264 55.6656 108.652 54.1784 108.652 52.3937C108.652 50.609 107.264 49.1218 105.38 49.1218ZM82.1791 49.0226C82.1791 49.0226 80.791 48.6261 79.7003 48.6261C78.4114 48.6261 77.7173 49.0226 77.7173 49.6175C77.7173 50.4107 78.6097 50.609 79.1054 50.8073L79.9978 51.1048C81.9808 51.7988 82.9723 53.1869 82.9723 54.6741C82.9723 57.7477 80.1961 58.8384 77.8164 58.8384C76.1309 58.8384 74.5445 58.5409 74.4453 58.5409V55.6656C74.7428 55.7648 76.0317 56.1614 77.4198 56.1614C79.0063 56.1614 79.7003 55.6656 79.7003 54.9716C79.7003 54.3767 79.1054 53.9801 78.3122 53.7818C78.1139 53.6826 77.8164 53.5835 77.6181 53.5835C75.8334 52.9886 74.4453 51.9971 74.4453 49.915C74.4453 47.6346 76.23 46.0482 79.1054 46.0482C80.5927 46.0482 82.0799 46.4448 82.1791 46.4448V49.0226Z" fill="#C4122E"/>
<path d="M50.0543 32.8612C50.057 32.6521 50.0178 32.4446 49.939 32.2509C49.8602 32.0573 49.7434 31.8813 49.5956 31.7335C49.4477 31.5856 49.2718 31.4689 49.0781 31.3901C48.8844 31.3113 48.677 31.2721 48.4679 31.2748C48.2588 31.2721 48.0513 31.3113 47.8577 31.3901C47.664 31.4689 47.488 31.5856 47.3402 31.7335C47.1923 31.8813 47.0756 32.0573 46.9968 32.2509C46.918 32.4446 46.8788 32.6521 46.8815 32.8612V36.1331C46.8788 36.3421 46.918 36.5496 46.9968 36.7433C47.0756 36.937 47.1923 37.1129 47.3402 37.2608C47.488 37.4086 47.664 37.5254 47.8577 37.6041C48.0513 37.6829 48.2588 37.7221 48.4679 37.7195C48.677 37.7221 48.8844 37.6829 49.0781 37.6041C49.2718 37.5254 49.4477 37.4086 49.5956 37.2608C49.7434 37.1129 49.8602 36.937 49.939 36.7433C50.0178 36.5496 50.057 36.3421 50.0543 36.1331V32.8612Z" fill="white"/>
<path d="M58.5811 28.5977C58.5837 28.3886 58.5445 28.1811 58.4657 27.9875C58.387 27.7938 58.2702 27.6178 58.1224 27.47C57.9745 27.3222 57.7986 27.2054 57.6049 27.1266C57.4112 27.0478 57.2037 27.0086 56.9947 27.0113C56.1023 27.0113 55.5074 27.7053 55.5074 28.5977V36.133C55.5047 36.3421 55.5439 36.5495 55.6227 36.7432C55.7015 36.9369 55.8183 37.1128 55.9661 37.2607C56.114 37.4085 56.2899 37.5253 56.4836 37.604C56.6772 37.6828 56.8847 37.722 57.0938 37.7194C57.3029 37.722 57.5104 37.6828 57.704 37.604C57.8977 37.5253 58.0737 37.4085 58.2215 37.2607C58.3694 37.1128 58.4861 36.9369 58.5649 36.7432C58.6437 36.5495 58.6829 36.3421 58.6802 36.133V28.5977H58.5811ZM67.2072 22.7479C67.2099 22.5388 67.1707 22.3313 67.0919 22.1377C67.0131 21.944 66.8963 21.7681 66.7485 21.6202C66.6006 21.4724 66.4247 21.3556 66.231 21.2768C66.0373 21.1981 65.8299 21.1588 65.6208 21.1615C65.4117 21.1588 65.2042 21.1981 65.0106 21.2768C64.8169 21.3556 64.6409 21.4724 64.4931 21.6202C64.3452 21.7681 64.2285 21.944 64.1497 22.1377C64.0709 22.3313 64.0317 22.5388 64.0344 22.7479V39.2066C64.0317 39.4157 64.0709 39.6231 64.1497 39.8168C64.2285 40.0105 64.3452 40.1864 64.4931 40.3343C64.6409 40.4821 64.8169 40.5989 65.0106 40.6777C65.2042 40.7564 65.4117 40.7956 65.6208 40.793C65.8299 40.7956 66.0373 40.7564 66.231 40.6777C66.4247 40.5989 66.6006 40.4821 66.7485 40.3343C66.8963 40.1864 67.0131 40.0105 67.0919 39.8168C67.1707 39.6231 67.2099 39.4157 67.2072 39.2066V22.7479ZM75.7342 28.5977C75.7369 28.3886 75.6976 28.1811 75.6189 27.9875C75.5401 27.7938 75.4233 27.6178 75.2755 27.47C75.1276 27.3222 74.9517 27.2054 74.758 27.1266C74.5643 27.0478 74.3569 27.0086 74.1478 27.0113C73.9387 27.0086 73.7312 27.0478 73.5375 27.1266C73.3439 27.2054 73.1679 27.3222 73.0201 27.47C72.8722 27.6178 72.7555 27.7938 72.6767 27.9875C72.5979 28.1811 72.5587 28.3886 72.5614 28.5977V36.133C72.5587 36.3421 72.5979 36.5495 72.6767 36.7432C72.7555 36.9369 72.8722 37.1128 73.0201 37.2607C73.1679 37.4085 73.3439 37.5253 73.5375 37.604C73.7312 37.6828 73.9387 37.722 74.1478 37.7194C74.3569 37.722 74.5643 37.6828 74.758 37.604C74.9517 37.5253 75.1276 37.4085 75.2755 37.2607C75.4233 37.1128 75.5401 36.9369 75.6189 36.7432C75.6976 36.5495 75.7369 36.3421 75.7342 36.133V28.5977Z" fill="white"/>
<path d="M84.262 32.8612C84.2647 32.6521 84.2255 32.4446 84.1467 32.2509C84.0679 32.0573 83.9512 31.8813 83.8033 31.7335C83.6555 31.5856 83.4795 31.4689 83.2859 31.3901C83.0922 31.3113 82.8847 31.2721 82.6756 31.2748C82.4666 31.2721 82.2591 31.3113 82.0654 31.3901C81.8717 31.4689 81.6958 31.5856 81.5479 31.7335C81.4001 31.8813 81.2833 32.0573 81.2045 32.2509C81.1258 32.4446 81.0865 32.6521 81.0892 32.8612V36.1331C81.0865 36.3421 81.1258 36.5496 81.2045 36.7433C81.2833 36.937 81.4001 37.1129 81.5479 37.2608C81.6958 37.4086 81.8717 37.5254 82.0654 37.6041C82.2591 37.6829 82.4666 37.7221 82.6756 37.7195C82.8847 37.7221 83.0922 37.6829 83.2859 37.6041C83.4795 37.5254 83.6555 37.4086 83.8033 37.2608C83.9512 37.1129 84.0679 36.937 84.1467 36.7433C84.2255 36.5496 84.2647 36.3421 84.262 36.1331V32.8612Z" fill="white"/>
<path d="M92.7877 28.5975C92.7877 28.1768 92.6205 27.7733 92.323 27.4758C92.0255 27.1783 91.622 27.0112 91.2013 27.0112C90.7805 27.0112 90.377 27.1783 90.0795 27.4758C89.782 27.7733 89.6148 28.1768 89.6148 28.5975V36.1329C89.6148 36.5536 89.782 36.9571 90.0795 37.2546C90.377 37.5521 90.7805 37.7192 91.2013 37.7192C91.622 37.7192 92.0255 37.5521 92.323 37.2546C92.6205 36.9571 92.7877 36.5536 92.7877 36.1329V28.5975ZM101.315 22.7478C101.315 22.327 101.148 21.9235 100.85 21.626C100.552 21.3285 100.149 21.1614 99.7282 21.1614C99.3075 21.1614 98.904 21.3285 98.6065 21.626C98.309 21.9235 98.1418 22.327 98.1418 22.7478V39.2065C98.1418 39.6272 98.309 40.0307 98.6065 40.3282C98.904 40.6257 99.3075 40.7929 99.7282 40.7929C100.149 40.7929 100.552 40.6257 100.85 40.3282C101.148 40.0307 101.315 39.6272 101.315 39.2065V22.7478ZM109.842 28.5975C109.842 28.3892 109.801 28.1829 109.721 27.9905C109.641 27.798 109.524 27.6231 109.377 27.4758C109.23 27.3285 109.055 27.2116 108.862 27.1319C108.67 27.0522 108.464 27.0112 108.255 27.0112C108.047 27.0112 107.841 27.0522 107.648 27.1319C107.456 27.2116 107.281 27.3285 107.133 27.4758C106.986 27.6231 106.869 27.798 106.79 27.9905C106.71 28.1829 106.669 28.3892 106.669 28.5975V36.1329C106.669 36.3412 106.71 36.5475 106.79 36.7399C106.869 36.9324 106.986 37.1073 107.133 37.2546C107.281 37.4019 107.456 37.5188 107.648 37.5985C107.841 37.6782 108.047 37.7192 108.255 37.7192C108.464 37.7192 108.67 37.6782 108.862 37.5985C109.055 37.5188 109.23 37.4019 109.377 37.2546C109.524 37.1073 109.641 36.9324 109.721 36.7399C109.801 36.5475 109.842 36.3412 109.842 36.1329V28.5975ZM118.369 32.8609C118.369 32.4402 118.201 32.0367 117.904 31.7392C117.606 31.4417 117.203 31.2746 116.782 31.2746C116.361 31.2746 115.958 31.4417 115.66 31.7392C115.363 32.0367 115.196 32.4402 115.196 32.8609V36.1329C115.196 36.5536 115.363 36.9571 115.66 37.2546C115.958 37.5521 116.361 37.7192 116.782 37.7192C117.203 37.7192 117.606 37.5521 117.904 37.2546C118.201 36.9571 118.369 36.5536 118.369 36.1329V32.8609Z" fill="white"/>
</svg>
