<svg width="165" height="80" viewBox="0 0 165 80" fill="none" xmlns="http://www.w3.org/2000/svg">
<path d="M133.437 31.1081C134.83 39.0903 113.099 49.5438 84.895 54.456C56.6943 59.3682 32.7037 56.8756 31.3131 48.89C29.9235 40.9067 51.6596 30.4566 79.8603 25.5455C108.062 20.631 132.048 23.1236 133.437 31.1081Z" fill="#034EA2"/>
<path d="M106.894 42.9576L106.749 34.6575H109.366V45.1188H105.603L102.991 36.5334H102.935L103.08 45.1188H100.48V34.6575H104.406L106.835 42.9576H106.894Z" fill="white"/>
<path d="M59.3183 35.6372L57.8704 45.2291H55.0161L56.9762 34.6577H61.6784L63.6296 45.2291H60.7865L59.3779 35.6372H59.3183Z" fill="white"/>
<path d="M71.6467 42.7388L72.9531 34.6577H77.2644L77.4935 45.2291H74.8515L74.7818 35.7249H74.7268L72.9598 45.2291H70.2774L68.5093 35.7249H68.452L68.3857 45.2291H65.7381L65.9717 34.6577H70.2852L71.5905 42.7388H71.6467Z" fill="white"/>
<path d="M50.5644 42.2467C50.6677 42.5028 50.6363 42.8319 50.588 43.0308C50.4992 43.3824 50.2611 43.7407 49.5579 43.7407C48.8951 43.7407 48.493 43.361 48.493 42.7803V41.7569H45.6578L45.6555 42.5758C45.6555 44.9325 47.5112 45.6436 49.4995 45.6436C51.4114 45.6436 52.9862 44.9898 53.2367 43.2285C53.3648 42.3152 53.2693 41.7176 53.2255 41.4918C52.7796 39.2789 48.7671 38.6184 48.4683 37.3805C48.4177 37.1682 48.4323 36.9436 48.4571 36.8234C48.5301 36.4864 48.7615 36.1146 49.4231 36.1146C50.0409 36.1146 50.406 36.4965 50.406 37.0739C50.406 37.2682 50.406 37.7265 50.406 37.7265H53.0424V36.984C53.0424 34.6812 50.9755 34.3218 49.4781 34.3218C47.5977 34.3218 46.061 34.943 45.7802 36.6639C45.7038 37.139 45.6926 37.5625 45.8038 38.0927C46.2655 40.2528 50.0207 40.8785 50.5644 42.2467Z" fill="white"/>
<path d="M84.9395 42.2273C85.0439 42.4812 85.0102 42.8013 84.963 43.0001C84.8765 43.3506 84.6406 43.7033 83.9419 43.7033C83.2882 43.7033 82.8894 43.3236 82.8894 42.7564L82.8872 41.742H80.0811L80.0778 42.5497C80.0778 44.8828 81.9166 45.5871 83.8847 45.5871C85.7763 45.5871 87.3366 44.9423 87.5826 43.1967C87.7107 42.2902 87.6197 41.7005 87.5736 41.4792C87.1299 39.2865 83.1579 38.6327 82.8624 37.4072C82.8119 37.196 82.8265 36.9736 82.8523 36.8601C82.9276 36.5209 83.1545 36.1581 83.8094 36.1581C84.4216 36.1581 84.7788 36.531 84.7788 37.1039C84.7788 37.296 84.7788 37.7498 84.7788 37.7498H87.395V37.0152C87.395 34.7371 85.345 34.3799 83.8622 34.3799C82.0031 34.3799 80.4788 34.9932 80.2036 36.7018C80.1272 37.1702 80.1193 37.5858 80.2283 38.1137C80.6832 40.2514 84.4014 40.8726 84.9395 42.2273Z" fill="white"/>
<path d="M93.8201 43.6474C94.5536 43.6474 94.7827 43.1396 94.8333 42.8802C94.8546 42.7656 94.8602 42.6128 94.858 42.4758V34.6531H97.5315V42.2365C97.5371 42.4308 97.518 42.8307 97.509 42.9307C97.3214 44.9044 95.7611 45.5446 93.8189 45.5446C91.8745 45.5446 90.3131 44.9044 90.1277 42.9307C90.1187 42.8307 90.0996 42.4308 90.1053 42.2365V34.6531H92.7765V42.4758C92.7765 42.6128 92.781 42.7667 92.8012 42.8802C92.8585 43.1396 93.0809 43.6474 93.8201 43.6474Z" fill="white"/>
<path d="M115.873 43.5363C116.639 43.5363 116.906 43.0522 116.955 42.7702C116.974 42.6489 116.98 42.5018 116.979 42.3681V40.8337H115.894V39.2902H119.642V42.1277C119.64 42.3254 119.636 42.4714 119.604 42.8242C119.428 44.7473 117.76 45.4336 115.886 45.4336C114.009 45.4336 112.343 44.7473 112.164 42.8242C112.134 42.4714 112.13 42.3254 112.126 42.1277L112.129 37.6761C112.129 37.4885 112.152 37.156 112.172 36.9796C112.407 35.0037 114.009 34.3679 115.886 34.3679C117.761 34.3679 119.402 35.0003 119.596 36.9796C119.631 37.3166 119.62 37.6761 119.62 37.6761V38.0288H116.954V37.4368C116.957 37.4379 116.951 37.1852 116.919 37.0346C116.875 36.801 116.671 36.2641 115.866 36.2641C115.095 36.2641 114.869 36.7718 114.813 37.0346C114.781 37.1739 114.768 37.3627 114.768 37.5334V42.3681C114.766 42.5018 114.774 42.6489 114.795 42.7702C114.841 43.0533 115.108 43.5363 115.873 43.5363Z" fill="white"/>
</svg>
