<svg width="165" height="80" viewBox="0 0 165 80" fill="none" xmlns="http://www.w3.org/2000/svg">
<path d="M36.4141 24.595V55.4046H128.84V24.595H36.4141Z" fill="#E2231A"/>
<mask id="mask0_6036_4453" style="mask-type:luminance" maskUnits="userSpaceOnUse" x="36" y="24" width="93" height="32">
<path d="M36.4099 24.5952V55.4048H128.839V24.5952H36.4099Z" fill="white"/>
</mask>
<g mask="url(#mask0_6036_4453)">
<path d="M76.6774 34.9788C75.3126 34.9788 73.76 35.6117 72.8108 36.8785L72.8117 36.8762L72.8108 36.8771L72.8117 35.1775H69.5553V47.0355H72.8108V40.2887C72.8108 39.074 73.7523 37.7832 75.4955 37.7832C76.8431 37.7832 78.2369 38.7201 78.2369 40.2887V47.0355H81.4933V39.6848C81.4933 36.9579 79.5423 34.9788 76.6774 34.9788Z" fill="white"/>
<path d="M104.636 35.1787L101.692 43.2563L98.7487 35.1787H95.0295L99.9084 47.0322H103.476L108.355 35.1787H104.636Z" fill="white"/>
<path d="M59.835 38.7505C60.3894 38.006 61.2729 37.569 62.3396 37.569C63.5134 37.569 64.4036 38.2392 64.8632 39.2278L59.1748 41.5881C59.0192 40.3771 59.3291 39.4297 59.835 38.7505ZM66.091 43.3898C64.7203 44.4039 63.9371 44.6462 62.6876 44.6462C61.5628 44.6462 60.6826 44.2972 60.0614 43.6847L68.3859 40.231C68.2044 38.9442 67.7162 37.795 66.9644 36.9207C65.8705 35.6502 64.2516 34.9783 62.281 34.9783C58.7002 34.9783 56.0005 37.6198 56.0005 41.108C56.0005 44.687 58.7066 47.2374 62.6395 47.2374C64.8428 47.2374 67.096 46.1929 68.1495 44.9728L66.091 43.3898Z" fill="white"/>
<path d="M55.6895 44.0459H48.2887V31.6316H44.9883V47.0354H55.6895V44.0459Z" fill="white"/>
<path d="M114.201 37.7687C112.383 37.7687 111.063 39.1466 111.063 41.1071C111.063 42.9787 112.461 44.4456 114.245 44.4456C116.064 44.4456 117.384 43.0296 117.384 41.1071C117.384 39.2351 115.986 37.7687 114.201 37.7687ZM114.201 47.2355C110.64 47.2355 107.85 44.5826 107.85 41.1071C107.85 37.6707 110.66 34.9783 114.245 34.9783C117.806 34.9783 120.596 37.6312 120.596 41.1071C120.596 44.5432 117.787 47.2355 114.201 47.2355Z" fill="white"/>
<path d="M89.133 37.7687C87.3144 37.7687 85.9945 39.1466 85.9945 41.1071C85.9945 42.9787 87.3929 44.4456 89.177 44.4456C90.9955 44.4456 92.3159 43.0296 92.3159 41.1071C92.3159 39.2351 90.9175 37.7687 89.133 37.7687ZM89.133 47.2355C85.5717 47.2355 82.7822 44.5826 82.7822 41.1071C82.7822 37.6707 85.5912 34.9783 89.177 34.9783C92.7378 34.9783 95.5278 37.6312 95.5278 41.1071C95.5278 44.5432 92.7188 47.2355 89.133 47.2355Z" fill="white"/>
</g>
</svg>
