<svg width="164" height="80" viewBox="0 0 164 80" fill="none" xmlns="http://www.w3.org/2000/svg">
<path d="M67.8944 47.9998C64.3082 47.9998 60.9792 47.0126 58.757 45.1817C57.0782 43.7984 56.2715 41.9196 56.2715 39.9858C56.2715 38.0755 57.113 36.1837 58.7568 34.8077C60.8205 33.0812 64.464 32 67.8944 32C71.6906 32 74.729 32.8778 77.0517 34.8125C78.7043 36.1891 79.5033 38.0726 79.5033 39.9859C79.5033 41.8406 78.6554 43.8156 77.0517 45.1817C74.8889 47.0244 71.4899 47.9998 67.8944 47.9998V45.8896C69.7979 45.8896 71.5636 45.2863 72.7967 44.1599C74.0213 43.0413 74.5919 41.6663 74.5919 39.9858C74.5919 38.3759 73.9764 36.8707 72.7967 35.8032C71.5801 34.7032 69.7723 34.0842 67.8944 34.0842C66.0109 34.0842 64.2018 34.6968 62.9842 35.8032C61.8109 36.8704 61.1939 38.3799 61.1939 39.9858C61.1939 41.5867 61.8181 43.0953 62.9842 44.1601C64.2028 45.2729 66.0055 45.8896 67.8944 45.8896V47.9998ZM41.6825 32.0077C39.7641 32.0077 37.5847 32.3371 35.733 33.0962C34.0239 33.7962 32.625 34.9284 32.625 36.8052C32.6242 38.4956 33.7945 39.4856 33.7627 39.4582C34.2605 39.8788 35.0618 40.5951 37.1569 41.0157C38.0933 41.2037 40.0951 41.4924 42.0886 41.6836C44.0675 41.8752 46.0148 42.0573 46.808 42.2417C47.4382 42.3889 48.4968 42.5895 48.4968 43.6796C48.4968 44.7654 47.3816 45.0968 47.1877 45.1687C46.9941 45.239 45.6562 45.8025 43.2512 45.8025C41.4756 45.8025 39.3409 45.3123 38.5628 45.0569C37.6658 44.7638 36.725 44.3762 35.8473 43.392C35.629 43.1481 35.2847 42.4771 35.2847 41.8126H33.1081V47.4113H35.5274V46.6549C35.5274 46.5688 35.6447 46.2146 36.0508 46.383C36.5562 46.5938 38.0396 47.1359 39.5906 47.4332C40.8623 47.6774 41.6823 47.8524 43.2633 47.8524C45.8429 47.8524 47.2287 47.4666 48.1867 47.2155C49.0892 46.9783 50.2045 46.5523 51.1104 45.8892C51.601 45.5306 52.6769 44.6114 52.6769 42.943C52.6769 41.3415 51.7405 40.3475 51.4111 40.0451C50.9625 39.633 50.4144 39.3137 49.8432 39.0675C49.3457 38.8525 48.5604 38.5943 47.9179 38.45C46.6709 38.1689 43.8512 37.8222 42.5027 37.6926C41.0887 37.5571 38.6358 37.3706 37.6561 37.0923C37.3591 37.0078 36.7536 36.743 36.7536 36.0977C36.7536 35.6388 37.0305 35.2497 37.5778 34.9353C38.4465 34.4356 40.2013 34.125 42.0304 34.125C44.1929 34.1177 46.0242 34.5716 47.1891 35.0497C47.5853 35.2121 48.0489 35.4453 48.4171 35.7213C48.8326 36.0322 49.4158 36.6784 49.6268 37.5797H51.5809V32.7062H49.3989V33.2727C49.3989 33.4555 49.1932 33.6931 48.8041 33.4967C47.8277 33.0265 45.0668 32.0119 41.6821 32.0077M89.4995 32.8933L100.143 41.711L100.034 35.7742C100.023 34.9957 99.8671 34.6707 98.9498 34.6707H96.9486V32.8947H106.049V34.6707H104.097C103.162 34.6707 103.103 34.9453 103.091 35.7742L103.256 47.118H100.14L87.8799 37.074L87.8825 44.2023C87.8932 44.9771 87.9328 45.3421 88.8025 45.3421H90.9883V47.1173H82.0505V45.3423H84.1398C84.9203 45.3423 84.8892 44.6592 84.8892 44.162V35.8417C84.8892 35.3046 84.8071 34.672 83.5818 34.672H81.8864V32.8933H89.4995ZM116.449 45.3388C116.534 45.3388 116.914 45.3288 116.988 45.3082C117.08 45.2825 117.166 45.2387 117.238 45.1798C117.31 45.1208 117.368 45.0482 117.406 44.9669C117.434 44.9067 117.448 44.6403 117.448 44.5824L117.45 41.7758C117.45 41.7083 117.444 41.6791 117.32 41.5287C117.182 41.3644 111.744 35.7074 111.495 35.4583C111.186 35.149 110.644 34.6709 109.819 34.6709H107.928V32.8942H118.601V34.6687H117.314C117.016 34.6687 116.819 34.9278 117.073 35.2158C117.073 35.2158 120.664 39.1587 120.698 39.2C120.731 39.242 120.76 39.252 120.805 39.2137C120.85 39.1744 124.486 35.2519 124.515 35.2209C124.688 35.0307 124.571 34.6707 124.198 34.6707H122.878V32.8942H131.625V34.6707H129.671C128.962 34.6707 128.673 34.7911 128.14 35.3446C127.896 35.5979 122.4 41.3566 122.251 41.5126C122.172 41.5942 122.179 41.7079 122.179 41.7754V44.5817C122.179 44.6386 122.193 44.9054 122.221 44.9653C122.259 45.0467 122.317 45.1194 122.39 45.1784C122.462 45.2373 122.548 45.281 122.64 45.3065C122.714 45.3273 123.088 45.3375 123.174 45.3375H125.173V47.1138H114.555V45.3373L116.449 45.3388H116.449Z" fill="white"/>
</svg>
