<svg width="1880" height="541" viewBox="0 0 1880 541" fill="none" xmlns="http://www.w3.org/2000/svg">
<g clip-path="url(#clip0_0_1793)">
<g opacity="0.2" filter="url(#filter0_f_0_1793)">
<circle cx="1154.75" cy="246.344" r="464.074" fill="#0374D3"/>
</g>
<mask id="mask0_0_1793" style="mask-type:alpha" maskUnits="userSpaceOnUse" x="298" y="-1164" width="2481" height="2781">
<rect x="1308.13" y="-1163.76" width="1637.34" height="2294.18" transform="rotate(26.1152 1308.13 -1163.76)" fill="url(#paint0_linear_0_1793)"/>
</mask>
<g mask="url(#mask0_0_1793)">
<path d="M2096.6 463.166C1880.47 904.051 1381.45 1102.78 982.105 907.018C940.221 886.485 900.95 862.357 864.634 835.225C1236.94 937.798 1656.92 737.215 1850.43 342.488C2043.93 -52.2397 1945.17 -506.914 1636.14 -738.556C1679.83 -726.468 1722.96 -710.203 1764.84 -689.671C2164.18 -493.904 2312.73 22.2818 2096.6 463.166Z" fill="url(#paint1_linear_0_1793)"/>
<g filter="url(#filter1_f_0_1793)">
<path d="M2069.24 449.757C1853.11 890.642 1381.45 1102.78 982.105 907.018C940.221 886.485 900.95 862.357 864.634 835.225C1236.94 937.798 1684.27 750.624 1877.78 355.896C2071.28 -38.8309 1945.17 -506.914 1636.14 -738.556C1679.83 -726.468 1722.96 -710.203 1764.84 -689.671C2164.18 -493.904 2285.38 8.87315 2069.24 449.757Z" fill="url(#paint2_linear_0_1793)"/>
</g>
<g filter="url(#filter2_f_0_1793)">
<path d="M2055.57 443.052C1839.44 883.937 1347.39 1103.05 948.047 907.284C906.164 886.752 866.892 862.623 830.577 835.491C1202.88 938.065 1697.95 757.328 1891.45 362.6C2084.96 -32.1272 1908.43 -522.805 1599.4 -754.447C1643.09 -742.358 1686.22 -726.093 1728.1 -705.561C2127.44 -509.794 2271.7 2.1681 2055.57 443.052Z" fill="url(#paint3_linear_0_1793)"/>
</g>
<g filter="url(#filter3_f_0_1793)">
<path d="M2055.57 443.052C1839.44 883.937 1347.39 1103.05 948.047 907.284C906.164 886.752 866.892 862.623 830.577 835.491C1202.88 938.065 1697.95 757.328 1891.45 362.6C2084.96 -32.1272 1908.43 -522.805 1599.4 -754.447C1643.09 -742.358 1686.22 -726.093 1728.1 -705.561C2127.44 -509.794 2271.7 2.1681 2055.57 443.052Z" fill="url(#paint4_linear_0_1793)"/>
</g>
<g filter="url(#filter4_f_0_1793)">
<path d="M2055.57 443.052C1839.44 883.937 1347.39 1103.05 948.047 907.284C906.164 886.752 866.892 862.623 830.577 835.491C1202.88 938.065 1697.95 757.328 1891.45 362.6C2084.96 -32.1272 1908.43 -522.805 1599.4 -754.447C1643.09 -742.358 1686.22 -726.093 1728.1 -705.561C2127.44 -509.794 2271.7 2.1681 2055.57 443.052Z" fill="url(#paint5_linear_0_1793)"/>
</g>
<g filter="url(#filter5_f_0_1793)">
<path d="M1966.52 434.385C1750.39 875.27 1347.39 1103.05 948.047 907.284C906.164 886.752 866.892 862.623 830.577 835.491C1202.88 938.065 1736.93 790.264 1935.9 384.389C2185.2 -124.156 1908.43 -522.805 1599.4 -754.447C1643.09 -742.358 1686.22 -726.093 1728.1 -705.561C2127.44 -509.794 2182.65 -6.49892 1966.52 434.385Z" fill="url(#paint6_linear_0_1793)"/>
</g>
<g filter="url(#filter6_f_0_1793)">
<path d="M1966.52 434.386C1750.39 875.27 1365.52 1189.33 966.181 993.566C924.298 973.034 833.508 807.455 797.193 780.323C1169.49 882.897 1736.93 790.265 1935.9 384.39C2185.2 -124.155 1846.63 -498.393 1537.61 -730.035C1518.08 -690.203 1664.63 -818.308 1706.52 -797.776C2105.86 -602.009 2182.65 -6.49866 1966.52 434.386Z" fill="url(#paint7_linear_0_1793)"/>
</g>
<g filter="url(#filter7_f_0_1793)">
<path d="M1966.52 434.386C1750.39 875.27 1365.52 1189.33 966.181 993.566C924.298 973.034 833.508 807.455 797.193 780.323C1169.49 882.897 1736.93 790.265 1935.9 384.39C2185.2 -124.155 1846.63 -498.393 1537.61 -730.035C1518.08 -690.203 1664.63 -818.308 1706.52 -797.776C2105.86 -602.009 2182.65 -6.49866 1966.52 434.386Z" fill="url(#paint8_linear_0_1793)"/>
</g>
<g filter="url(#filter8_f_0_1793)">
<path d="M1966.52 434.386C1750.39 875.27 1365.52 1189.33 966.181 993.566C924.298 973.034 833.508 807.455 797.193 780.323C1169.49 882.897 1736.93 790.265 1935.9 384.39C2185.2 -124.155 1846.63 -498.393 1537.61 -730.035C1518.08 -690.203 1664.63 -818.308 1706.52 -797.776C2105.86 -602.009 2182.65 -6.49866 1966.52 434.386Z" fill="url(#paint9_linear_0_1793)"/>
</g>
</g>
<g filter="url(#filter9_f_0_1793)">
<mask id="mask1_0_1793" style="mask-type:alpha" maskUnits="userSpaceOnUse" x="1030" y="341" width="1109" height="812">
<path opacity="0.8" d="M1030.82 799.011L1268.35 1152.24L1750.54 1004.02L2138.27 341.081L1765.06 387.837L1667.58 377.516L1083.17 709.49L1030.82 799.011Z" fill="url(#paint10_linear_0_1793)"/>
</mask>
<g mask="url(#mask1_0_1793)">
<g opacity="0.8">
<path d="M2078.99 302.429C2065.64 394.159 2133.36 333.75 2081.51 422.402C2057.62 463.254 1749.73 699.051 1720.45 733.431C1565.98 861.925 1378.23 901.269 1223.9 835.498C1192.52 822.206 1164.12 804.489 1136.65 784.313C1275.71 886.658 1491.71 777.878 1626.74 647.501C1817.99 463.096 1918.42 176.914 1810.49 -87.6652C1963.58 25.5726 1981.68 381.395 1993.85 323.734L2078.99 302.429Z" fill="#0375D5"/>
<g filter="url(#filter10_f_0_1793)">
<path d="M2040.37 283.092C2027.02 374.823 2094.74 314.413 2042.89 403.065C2019 443.918 1711.11 679.714 1681.83 714.094C1527.36 842.588 1339.61 881.932 1185.28 816.161C1153.9 802.869 1125.5 785.152 1098.03 764.976C1237.09 867.321 1534.06 755.567 1669.09 625.19C1860.34 440.785 2013.19 217.736 1905.26 -46.8431C2058.35 66.3947 1943.06 362.058 1955.23 304.397L2040.37 283.092Z" fill="#0375D5"/>
</g>
<g filter="url(#filter11_f_0_1793)">
<path d="M2040.37 283.092C2027.02 374.823 2094.74 314.413 2042.89 403.065C2019 443.918 1711.11 679.714 1681.83 714.094C1527.36 842.588 1339.61 881.932 1185.28 816.161C1153.9 802.869 1125.5 785.152 1098.03 764.976C1237.09 867.321 1534.06 755.567 1669.09 625.19C1860.34 440.785 2013.19 217.736 1905.26 -46.8431C2058.35 66.3947 1943.06 362.058 1955.23 304.397L2040.37 283.092Z" fill="#0375D5"/>
</g>
<g filter="url(#filter12_f_0_1793)">
<path d="M2040.37 283.092C2027.02 374.823 2094.74 314.413 2042.89 403.065C2019 443.918 1711.11 679.714 1681.83 714.094C1527.36 842.588 1339.61 881.932 1185.28 816.161C1153.9 802.869 1125.5 785.152 1098.03 764.976C1237.09 867.321 1534.06 755.567 1669.09 625.19C1860.34 440.785 2013.19 217.736 1905.26 -46.8431C2058.35 66.3947 1943.06 362.058 1955.23 304.397L2040.37 283.092Z" fill="#0375D5"/>
</g>
<g filter="url(#filter13_f_0_1793)">
<path d="M2040.37 283.092C2027.02 374.823 2094.74 314.413 2042.89 403.065C2019 443.918 1711.11 679.714 1681.83 714.094C1527.36 842.588 1339.61 881.932 1185.28 816.161C1153.9 802.869 1125.5 785.152 1098.03 764.976C1237.09 867.321 1528.55 797.797 1663.59 667.419C1854.83 483.014 2013.19 217.736 1905.26 -46.8431C2058.35 66.3947 1943.06 362.058 1955.23 304.397L2040.37 283.092Z" fill="#0375D5"/>
</g>
<g filter="url(#filter14_f_0_1793)">
<path d="M2040.37 283.092C2027.02 374.822 2094.74 314.412 2042.89 403.064C2018.99 443.917 1711.11 679.713 1681.83 714.093C1527.36 842.588 1339.61 881.932 1185.27 816.16C1153.9 802.868 1112.32 787.469 1084.85 767.292C1223.91 869.638 1522.62 805.692 1657.66 675.314C1848.9 490.909 2013.19 217.736 1905.26 -46.8435C2058.35 66.3942 1943.06 362.058 1955.23 304.397L2040.37 283.092Z" fill="#0375D5"/>
</g>
<g filter="url(#filter15_f_0_1793)">
<path d="M2078.99 302.429C2065.64 394.159 2133.36 333.75 2081.51 422.402C2057.62 463.254 1743.65 682.502 1714.36 716.881C1559.89 845.376 1378.23 901.269 1223.9 835.498C1192.52 822.206 1164.12 804.489 1136.65 784.313C1275.71 886.658 1501.5 783.604 1636.53 653.227C1827.78 468.822 1981.08 213.561 1873.15 -51.0178C2026.24 62.22 1981.68 381.395 1993.85 323.734L2078.99 302.429Z" fill="#0375D5"/>
</g>
<g filter="url(#filter16_f_0_1793)">
<path d="M2059.08 300.528C2045.73 392.259 2113.45 331.849 2061.6 420.501C2037.71 461.354 1723.74 680.601 1694.45 714.981C1539.98 843.476 1358.32 899.369 1203.99 833.598C1172.61 820.305 1144.21 802.588 1116.74 782.412C1255.8 884.758 1495.3 789.72 1630.33 659.343C1821.57 474.938 1974.88 219.678 1866.94 -44.9015C2020.04 68.3362 1961.77 379.495 1973.94 321.833L2059.08 300.528Z" fill="#0375D5"/>
</g>
<g filter="url(#filter17_f_0_1793)">
<path d="M2050.16 288.818C2036.81 380.548 2104.53 320.138 2052.68 408.79C2028.79 449.643 1714.82 668.891 1685.53 703.27C1531.06 831.765 1349.4 887.658 1195.07 821.887C1163.69 808.595 1135.29 790.878 1107.82 770.701C1246.88 873.047 1523.04 796.204 1658.07 665.827C1849.31 481.422 2002.62 226.161 1894.68 -38.4178C2047.78 74.82 1952.85 367.784 1965.02 310.123L2050.16 288.818Z" fill="#0375D5"/>
</g>
<g filter="url(#filter18_f_0_1793)">
<path d="M2050.16 288.816C2036.81 380.547 2104.53 320.137 2052.68 408.789C2028.79 449.642 1734.33 647.539 1705.04 681.918C1550.58 810.413 1319.3 884.791 1164.97 819.02C1133.59 805.728 1135.29 790.876 1107.82 770.7C1246.88 873.045 1477.56 867.008 1612.6 736.631C1803.84 552.226 2030.49 430.794 1922.56 166.215C2075.65 279.453 1952.85 367.782 1965.02 310.121L2050.16 288.816Z" fill="#0375D5"/>
</g>
<g filter="url(#filter19_f_0_1793)">
<path d="M2050.16 288.816C2036.81 380.547 2104.53 320.137 2052.68 408.789C2028.79 449.642 1689.88 671.871 1660.59 706.25C1506.12 834.745 1319.3 884.791 1164.97 819.02C1133.59 805.728 1135.29 790.876 1107.82 770.7C1246.88 873.045 1469.9 828.433 1604.94 698.056C1796.18 513.651 2030.49 430.794 1922.56 166.215C2075.65 279.453 1952.85 367.782 1965.02 310.121L2050.16 288.816Z" fill="#0375D5"/>
</g>
</g>
</g>
</g>
<mask id="mask2_0_1793" style="mask-type:alpha" maskUnits="userSpaceOnUse" x="-517" y="-553" width="1454" height="1507">
<rect x="166.03" y="953.774" width="876.583" height="1228.24" transform="rotate(-141.164 166.03 953.774)" fill="url(#paint11_linear_0_1793)"/>
</mask>
<g mask="url(#mask2_0_1793)">
<path d="M-53.9303 11.194C110.916 -193.569 394.946 -238.525 580.416 -89.2115C599.868 -73.5515 617.533 -56.321 633.299 -37.8706C450.965 -135.328 207.988 -80.0895 60.4005 103.237C-87.1874 286.563 -89.2111 535.651 44.8647 693.053C23.4735 681.589 2.86887 668.011 -16.5832 652.351C-202.053 503.037 -218.776 215.957 -53.9303 11.194Z" fill="url(#paint12_linear_0_1793)"/>
<g filter="url(#filter20_f_0_1793)">
<path d="M-41.2269 21.421C123.619 -183.342 394.946 -238.525 580.416 -89.2115C599.868 -73.5515 617.533 -56.321 633.299 -37.8706C450.965 -135.328 195.285 -90.3165 47.6971 93.0098C-99.8909 276.336 -89.2111 535.651 44.8647 693.053C23.4735 681.589 2.86886 668.011 -16.5832 652.351C-202.053 503.037 -206.073 226.184 -41.2269 21.421Z" fill="url(#paint13_linear_0_1793)"/>
</g>
<g filter="url(#filter21_f_0_1793)">
<path d="M-34.8741 26.5349C129.972 -178.228 412.764 -234.65 598.234 -85.3358C617.686 -69.6758 635.351 -52.4453 651.117 -33.9949C468.783 -131.452 188.934 -95.4295 41.3464 87.8968C-106.242 271.223 -71.8976 548.28 62.1782 705.682C40.787 694.218 20.1823 680.64 0.730227 664.98C-184.74 515.666 -199.72 231.298 -34.8741 26.5349Z" fill="url(#paint14_linear_0_1793)"/>
</g>
<g filter="url(#filter22_f_0_1793)">
<path d="M-34.8741 26.5349C129.972 -178.228 412.764 -234.65 598.234 -85.3358C617.686 -69.6758 635.351 -52.4453 651.117 -33.9949C468.783 -131.452 188.934 -95.4295 41.3464 87.8968C-106.242 271.223 -71.8976 548.28 62.1782 705.682C40.787 694.218 20.1823 680.64 0.730227 664.98C-184.74 515.666 -199.72 231.298 -34.8741 26.5349Z" fill="url(#paint15_linear_0_1793)"/>
</g>
<g filter="url(#filter23_f_0_1793)">
<path d="M-34.8741 26.5349C129.972 -178.228 412.764 -234.65 598.234 -85.3358C617.686 -69.6758 635.351 -52.4453 651.117 -33.9949C468.783 -131.452 188.934 -95.4295 41.3464 87.8968C-106.242 271.223 -71.8976 548.28 62.1782 705.682C40.787 694.218 20.1823 680.64 0.730227 664.98C-184.74 515.666 -199.72 231.298 -34.8741 26.5349Z" fill="url(#paint16_linear_0_1793)"/>
</g>
<g filter="url(#filter24_f_0_1793)">
<path d="M10.6069 41.5587C175.453 -163.205 412.764 -234.65 598.234 -85.3358C617.686 -69.6757 635.351 -52.4453 651.117 -33.9949C468.783 -131.452 172.459 -117.226 20.7034 71.278C-169.441 307.465 -71.8976 548.28 62.1782 705.682C40.787 694.218 20.1823 680.64 0.730233 664.98C-184.74 515.666 -154.239 246.322 10.6069 41.5587Z" fill="url(#paint17_linear_0_1793)"/>
</g>
<g filter="url(#filter25_f_0_1793)">
<path d="M10.6062 41.5586C175.452 -163.205 413.466 -281.846 598.936 -132.532C618.388 -116.872 646.281 -19.6991 662.047 -1.24873C479.713 -98.706 172.459 -117.226 20.7027 71.2778C-169.441 307.465 -36.7492 542.817 97.3266 700.218C112.22 681.719 20.5829 731.342 1.13077 715.682C-184.339 566.368 -154.24 246.322 10.6062 41.5586Z" fill="url(#paint18_linear_0_1793)"/>
</g>
<g filter="url(#filter26_f_0_1793)">
<path d="M10.6062 41.5586C175.452 -163.205 413.466 -281.846 598.936 -132.532C618.388 -116.872 646.281 -19.6991 662.047 -1.24873C479.713 -98.706 172.459 -117.226 20.7027 71.2778C-169.441 307.465 -36.7492 542.817 97.3266 700.218C112.22 681.719 20.5829 731.342 1.13077 715.682C-184.339 566.368 -154.24 246.322 10.6062 41.5586Z" fill="url(#paint19_linear_0_1793)"/>
</g>
<g filter="url(#filter27_f_0_1793)">
<path d="M10.6062 41.5586C175.452 -163.205 413.466 -281.846 598.936 -132.532C618.388 -116.872 646.281 -19.6991 662.047 -1.24873C479.713 -98.706 172.459 -117.226 20.7027 71.2778C-169.441 307.465 -36.7492 542.817 97.3266 700.218C112.22 681.719 20.5829 731.342 1.13077 715.682C-184.339 566.368 -154.24 246.322 10.6062 41.5586Z" fill="url(#paint20_linear_0_1793)"/>
</g>
</g>
<g filter="url(#filter28_f_0_1793)">
<mask id="mask3_0_1793" style="mask-type:alpha" maskUnits="userSpaceOnUse" x="-91" y="-252" width="634" height="359">
<path opacity="0.8" d="M542.244 -38.5499L459.84 -251.019L190.551 -230.458L-90.0836 70.0385L110.328 89.6179L160.018 106.5L504.348 2.02813L542.244 -38.5499Z" fill="url(#paint21_linear_0_1793)"/>
</mask>
<g mask="url(#mask3_0_1793)">
<g opacity="0.8">
<path d="M-63.6871 97.2126C-45.8983 50.8826 -88.3849 74.447 -50.8568 34.2627C-33.563 15.7449 155.02 -71.0993 174.368 -85.6006C270.181 -134.495 372.871 -132.907 445.714 -80.3651C460.53 -69.7251 473.274 -57.1246 485.243 -43.3491C424.686 -113.191 299.062 -81.8463 213.172 -29.6786C91.5599 44.0776 5.37351 181.69 30.5483 332.586C-36.0515 255.401 -3.55639 67.4466 -16.7117 96.1238L-63.6871 97.2126Z" fill="#0375D5"/>
<g filter="url(#filter29_f_0_1793)">
<path d="M-45.7989 111.863C-28.0101 65.5335 -70.4967 89.0979 -32.9686 48.9136C-15.6748 30.3958 172.908 -56.4484 192.256 -70.9497C288.069 -119.844 390.759 -118.256 463.602 -65.7143C478.418 -55.0743 491.162 -42.4737 503.131 -28.6983C442.574 -98.5398 274.314 -75.188 188.425 -23.0203C66.8125 50.7358 -39.3097 149.198 -14.1349 300.094C-80.7347 222.91 14.3318 82.0975 1.1765 110.775L-45.7989 111.863Z" fill="#0375D5"/>
</g>
<g filter="url(#filter30_f_0_1793)">
<path d="M-45.7989 111.863C-28.0101 65.5335 -70.4967 89.0979 -32.9686 48.9136C-15.6748 30.3958 172.908 -56.4484 192.256 -70.9497C288.069 -119.844 390.759 -118.256 463.602 -65.7143C478.418 -55.0743 491.162 -42.4737 503.131 -28.6983C442.574 -98.5398 274.314 -75.188 188.425 -23.0203C66.8125 50.7358 -39.3097 149.198 -14.1349 300.094C-80.7347 222.91 14.3318 82.0975 1.1765 110.775L-45.7989 111.863Z" fill="#0375D5"/>
</g>
<g filter="url(#filter31_f_0_1793)">
<path d="M-45.7989 111.863C-28.0101 65.5335 -70.4967 89.0979 -32.9686 48.9136C-15.6748 30.3958 172.908 -56.4484 192.256 -70.9497C288.069 -119.844 390.759 -118.256 463.602 -65.7143C478.418 -55.0743 491.162 -42.4737 503.131 -28.6983C442.574 -98.5398 274.314 -75.188 188.425 -23.0203C66.8125 50.7358 -39.3097 149.198 -14.1349 300.094C-80.7347 222.91 14.3318 82.0975 1.1765 110.775L-45.7989 111.863Z" fill="#0375D5"/>
</g>
<g filter="url(#filter32_f_0_1793)">
<path d="M-45.7989 111.863C-28.0101 65.5335 -70.4967 89.0979 -32.9686 48.9136C-15.6748 30.3958 172.908 -56.4484 192.256 -70.9497C288.069 -119.844 390.759 -118.256 463.602 -65.7143C478.418 -55.0743 491.162 -42.4737 503.131 -28.6983C442.574 -98.5398 282.166 -96.5927 196.277 -44.425C74.6644 29.3311 -39.3097 149.198 -14.1349 300.094C-80.7347 222.91 14.3318 82.0975 1.1765 110.775L-45.7989 111.863Z" fill="#0375D5"/>
</g>
<g filter="url(#filter33_f_0_1793)">
<path d="M-45.7989 111.863C-28.0101 65.5335 -70.4967 89.0979 -32.9686 48.9136C-15.6747 30.3958 172.908 -56.4482 192.256 -70.9495C288.069 -119.844 390.759 -118.256 463.602 -65.714C478.418 -55.074 498.318 -42.1298 510.287 -28.3544C449.731 -98.1959 286.195 -100.017 200.305 -47.8489C78.6929 25.9072 -39.3096 149.198 -14.1348 300.094C-80.7347 222.91 14.3319 82.0975 1.17656 110.775L-45.7989 111.863Z" fill="#0375D5"/>
</g>
<g filter="url(#filter34_f_0_1793)">
<path d="M-63.6871 97.2125C-45.8983 50.8826 -88.3849 74.447 -50.8568 34.2627C-33.563 15.7449 156.248 -61.739 175.596 -76.2403C271.41 -125.134 372.871 -132.907 445.714 -80.3651C460.53 -69.7251 473.274 -57.1246 485.243 -43.3491C424.686 -113.191 294.624 -85.9909 208.734 -33.8232C87.122 39.933 -23.0292 155.165 2.14554 306.06C-64.4543 228.876 -3.55639 67.4466 -16.7117 96.1238L-63.6871 97.2125Z" fill="#0375D5"/>
</g>
<g filter="url(#filter35_f_0_1793)">
<path d="M-53.5143 100.552C-35.7255 54.2224 -78.2121 77.7868 -40.684 37.6026C-23.3901 19.0847 166.421 -58.3991 185.769 -72.9004C281.583 -121.795 383.044 -129.567 455.887 -77.0253C470.703 -66.3853 483.447 -53.7847 495.415 -40.0093C434.859 -109.851 298.584 -88.4535 212.694 -36.2858C91.0817 37.4704 -19.0695 152.702 6.1053 303.598C-60.4945 226.414 6.61647 70.7865 -6.53883 99.4636L-53.5143 100.552Z" fill="#0375D5"/>
</g>
<g filter="url(#filter36_f_0_1793)">
<path d="M-50.2364 107.72C-32.4476 61.3899 -74.9342 84.9543 -37.4061 44.77C-20.1123 26.2522 169.699 -51.2317 189.047 -65.7329C284.861 -114.627 386.322 -122.4 459.164 -69.8578C473.981 -59.2178 486.724 -46.6172 498.693 -32.8418C438.137 -102.683 284.861 -95.1098 198.971 -42.9421C77.3588 30.814 -32.7923 146.046 -7.61759 296.941C-74.2174 219.757 9.89432 77.9539 -3.26096 106.631L-50.2364 107.72Z" fill="#0375D5"/>
</g>
<g filter="url(#filter37_f_0_1793)">
<path d="M-50.2371 107.72C-32.4482 61.3899 -74.9349 84.9543 -37.4067 44.77C-20.1129 26.2522 156.992 -42.3821 176.34 -56.8834C272.154 -105.778 401.702 -117.355 474.545 -64.813C489.361 -54.1731 486.724 -46.6173 498.693 -32.8419C438.136 -102.683 316.955 -126.726 231.065 -74.5579C109.453 -0.801693 -23.2262 35.8939 1.94855 186.789C-64.6513 109.605 9.89369 77.9539 -3.26161 106.631L-50.2371 107.72Z" fill="#0375D5"/>
</g>
<g filter="url(#filter38_f_0_1793)">
<path d="M-50.2371 107.72C-32.4482 61.3899 -74.9349 84.9543 -37.4067 44.77C-20.1129 26.2522 183.074 -49.8485 202.422 -64.3498C298.236 -113.244 401.702 -117.355 474.545 -64.813C489.361 -54.1731 486.724 -46.6173 498.693 -32.8419C438.136 -102.683 316.408 -105.678 230.519 -53.51C108.906 20.2462 -23.2262 35.8939 1.94855 186.789C-64.6513 109.605 9.89369 77.9539 -3.26161 106.631L-50.2371 107.72Z" fill="#0375D5"/>
</g>
</g>
</g>
</g>
</g>
<defs>
<filter id="filter0_f_0_1793" x="490.678" y="-417.73" width="1328.15" height="1328.15" filterUnits="userSpaceOnUse" color-interpolation-filters="sRGB">
<feFlood flood-opacity="0" result="BackgroundImageFix"/>
<feBlend mode="normal" in="SourceGraphic" in2="BackgroundImageFix" result="shape"/>
<feGaussianBlur stdDeviation="100" result="effect1_foregroundBlur_0_1793"/>
</filter>
<filter id="filter1_f_0_1793" x="850.11" y="-753.081" width="1339.55" height="1747.78" filterUnits="userSpaceOnUse" color-interpolation-filters="sRGB">
<feFlood flood-opacity="0" result="BackgroundImageFix"/>
<feBlend mode="normal" in="SourceGraphic" in2="BackgroundImageFix" result="shape"/>
<feGaussianBlur stdDeviation="7.26216" result="effect1_foregroundBlur_0_1793"/>
</filter>
<filter id="filter2_f_0_1793" x="787.004" y="-798.019" width="1412.39" height="1820.93" filterUnits="userSpaceOnUse" color-interpolation-filters="sRGB">
<feFlood flood-opacity="0" result="BackgroundImageFix"/>
<feBlend mode="normal" in="SourceGraphic" in2="BackgroundImageFix" result="shape"/>
<feGaussianBlur stdDeviation="21.7865" result="effect1_foregroundBlur_0_1793"/>
</filter>
<filter id="filter3_f_0_1793" x="767.638" y="-817.385" width="1451.13" height="1859.66" filterUnits="userSpaceOnUse" color-interpolation-filters="sRGB">
<feFlood flood-opacity="0" result="BackgroundImageFix"/>
<feBlend mode="normal" in="SourceGraphic" in2="BackgroundImageFix" result="shape"/>
<feGaussianBlur stdDeviation="31.4693" result="effect1_foregroundBlur_0_1793"/>
</filter>
<filter id="filter4_f_0_1793" x="767.638" y="-817.385" width="1451.13" height="1859.66" filterUnits="userSpaceOnUse" color-interpolation-filters="sRGB">
<feFlood flood-opacity="0" result="BackgroundImageFix"/>
<feBlend mode="normal" in="SourceGraphic" in2="BackgroundImageFix" result="shape"/>
<feGaussianBlur stdDeviation="31.4693" result="effect1_foregroundBlur_0_1793"/>
</filter>
<filter id="filter5_f_0_1793" x="680.493" y="-904.531" width="1560.97" height="2032.61" filterUnits="userSpaceOnUse" color-interpolation-filters="sRGB">
<feFlood flood-opacity="0" result="BackgroundImageFix"/>
<feBlend mode="normal" in="SourceGraphic" in2="BackgroundImageFix" result="shape"/>
<feGaussianBlur stdDeviation="75.0423" result="effect1_foregroundBlur_0_1793"/>
</filter>
<filter id="filter6_f_0_1793" x="705.206" y="-892.008" width="1471.46" height="2036.99" filterUnits="userSpaceOnUse" color-interpolation-filters="sRGB">
<feFlood flood-opacity="0" result="BackgroundImageFix"/>
<feBlend mode="normal" in="SourceGraphic" in2="BackgroundImageFix" result="shape"/>
<feGaussianBlur stdDeviation="45.9937" result="effect1_foregroundBlur_0_1793"/>
</filter>
<filter id="filter7_f_0_1793" x="598.694" y="-998.52" width="1684.48" height="2250.02" filterUnits="userSpaceOnUse" color-interpolation-filters="sRGB">
<feFlood flood-opacity="0" result="BackgroundImageFix"/>
<feBlend mode="normal" in="SourceGraphic" in2="BackgroundImageFix" result="shape"/>
<feGaussianBlur stdDeviation="99.2495" result="effect1_foregroundBlur_0_1793"/>
</filter>
<filter id="filter8_f_0_1793" x="501.865" y="-1095.35" width="1878.14" height="2443.68" filterUnits="userSpaceOnUse" color-interpolation-filters="sRGB">
<feFlood flood-opacity="0" result="BackgroundImageFix"/>
<feBlend mode="normal" in="SourceGraphic" in2="BackgroundImageFix" result="shape"/>
<feGaussianBlur stdDeviation="147.664" result="effect1_foregroundBlur_0_1793"/>
</filter>
<filter id="filter9_f_0_1793" x="1078.9" y="335.132" width="1028.4" height="537.686" filterUnits="userSpaceOnUse" color-interpolation-filters="sRGB">
<feFlood flood-opacity="0" result="BackgroundImageFix"/>
<feBlend mode="normal" in="SourceGraphic" in2="BackgroundImageFix" result="shape"/>
<feGaussianBlur stdDeviation="2.97408" result="effect1_foregroundBlur_0_1793"/>
</filter>
<filter id="filter10_f_0_1793" x="1092.08" y="-52.7912" width="976.596" height="906.273" filterUnits="userSpaceOnUse" color-interpolation-filters="sRGB">
<feFlood flood-opacity="0" result="BackgroundImageFix"/>
<feBlend mode="normal" in="SourceGraphic" in2="BackgroundImageFix" result="shape"/>
<feGaussianBlur stdDeviation="2.97408" result="effect1_foregroundBlur_0_1793"/>
</filter>
<filter id="filter11_f_0_1793" x="1034.98" y="-109.894" width="1090.8" height="1020.48" filterUnits="userSpaceOnUse" color-interpolation-filters="sRGB">
<feFlood flood-opacity="0" result="BackgroundImageFix"/>
<feBlend mode="normal" in="SourceGraphic" in2="BackgroundImageFix" result="shape"/>
<feGaussianBlur stdDeviation="31.5253" result="effect1_foregroundBlur_0_1793"/>
</filter>
<filter id="filter12_f_0_1793" x="1063.53" y="-81.3424" width="1033.7" height="963.375" filterUnits="userSpaceOnUse" color-interpolation-filters="sRGB">
<feFlood flood-opacity="0" result="BackgroundImageFix"/>
<feBlend mode="normal" in="SourceGraphic" in2="BackgroundImageFix" result="shape"/>
<feGaussianBlur stdDeviation="17.2497" result="effect1_foregroundBlur_0_1793"/>
</filter>
<filter id="filter13_f_0_1793" x="1063.53" y="-81.3424" width="1033.7" height="963.375" filterUnits="userSpaceOnUse" color-interpolation-filters="sRGB">
<feFlood flood-opacity="0" result="BackgroundImageFix"/>
<feBlend mode="normal" in="SourceGraphic" in2="BackgroundImageFix" result="shape"/>
<feGaussianBlur stdDeviation="17.2497" result="effect1_foregroundBlur_0_1793"/>
</filter>
<filter id="filter14_f_0_1793" x="1050.35" y="-81.3429" width="1046.88" height="963.375" filterUnits="userSpaceOnUse" color-interpolation-filters="sRGB">
<feFlood flood-opacity="0" result="BackgroundImageFix"/>
<feBlend mode="normal" in="SourceGraphic" in2="BackgroundImageFix" result="shape"/>
<feGaussianBlur stdDeviation="17.2497" result="effect1_foregroundBlur_0_1793"/>
</filter>
<filter id="filter15_f_0_1793" x="1121.18" y="-66.483" width="995.63" height="945.171" filterUnits="userSpaceOnUse" color-interpolation-filters="sRGB">
<feFlood flood-opacity="0" result="BackgroundImageFix"/>
<feBlend mode="normal" in="SourceGraphic" in2="BackgroundImageFix" result="shape"/>
<feGaussianBlur stdDeviation="7.73261" result="effect1_foregroundBlur_0_1793"/>
</filter>
<filter id="filter16_f_0_1793" x="1098.89" y="-62.7461" width="1000.39" height="941.913" filterUnits="userSpaceOnUse" color-interpolation-filters="sRGB">
<feFlood flood-opacity="0" result="BackgroundImageFix"/>
<feBlend mode="normal" in="SourceGraphic" in2="BackgroundImageFix" result="shape"/>
<feGaussianBlur stdDeviation="8.92225" result="effect1_foregroundBlur_0_1793"/>
</filter>
<filter id="filter17_f_0_1793" x="1098.3" y="-47.9348" width="983.734" height="907.063" filterUnits="userSpaceOnUse" color-interpolation-filters="sRGB">
<feFlood flood-opacity="0" result="BackgroundImageFix"/>
<feBlend mode="normal" in="SourceGraphic" in2="BackgroundImageFix" result="shape"/>
<feGaussianBlur stdDeviation="4.75853" result="effect1_foregroundBlur_0_1793"/>
</filter>
<filter id="filter18_f_0_1793" x="1079.27" y="137.664" width="1021.8" height="734.309" filterUnits="userSpaceOnUse" color-interpolation-filters="sRGB">
<feFlood flood-opacity="0" result="BackgroundImageFix"/>
<feBlend mode="normal" in="SourceGraphic" in2="BackgroundImageFix" result="shape"/>
<feGaussianBlur stdDeviation="14.2756" result="effect1_foregroundBlur_0_1793"/>
</filter>
<filter id="filter19_f_0_1793" x="1079.27" y="137.664" width="1021.8" height="738.841" filterUnits="userSpaceOnUse" color-interpolation-filters="sRGB">
<feFlood flood-opacity="0" result="BackgroundImageFix"/>
<feBlend mode="normal" in="SourceGraphic" in2="BackgroundImageFix" result="shape"/>
<feGaussianBlur stdDeviation="14.2756" result="effect1_foregroundBlur_0_1793"/>
</filter>
<filter id="filter20_f_0_1793" x="-175.018" y="-188.392" width="822.841" height="895.97" filterUnits="userSpaceOnUse" color-interpolation-filters="sRGB">
<feFlood flood-opacity="0" result="BackgroundImageFix"/>
<feBlend mode="normal" in="SourceGraphic" in2="BackgroundImageFix" result="shape"/>
<feGaussianBlur stdDeviation="7.26216" result="effect1_foregroundBlur_0_1793"/>
</filter>
<filter id="filter21_f_0_1793" x="-192.698" y="-213.158" width="887.388" height="962.413" filterUnits="userSpaceOnUse" color-interpolation-filters="sRGB">
<feFlood flood-opacity="0" result="BackgroundImageFix"/>
<feBlend mode="normal" in="SourceGraphic" in2="BackgroundImageFix" result="shape"/>
<feGaussianBlur stdDeviation="21.7865" result="effect1_foregroundBlur_0_1793"/>
</filter>
<filter id="filter22_f_0_1793" x="-212.063" y="-232.523" width="926.119" height="1001.14" filterUnits="userSpaceOnUse" color-interpolation-filters="sRGB">
<feFlood flood-opacity="0" result="BackgroundImageFix"/>
<feBlend mode="normal" in="SourceGraphic" in2="BackgroundImageFix" result="shape"/>
<feGaussianBlur stdDeviation="31.4693" result="effect1_foregroundBlur_0_1793"/>
</filter>
<filter id="filter23_f_0_1793" x="-212.063" y="-232.523" width="926.119" height="1001.14" filterUnits="userSpaceOnUse" color-interpolation-filters="sRGB">
<feFlood flood-opacity="0" result="BackgroundImageFix"/>
<feBlend mode="normal" in="SourceGraphic" in2="BackgroundImageFix" result="shape"/>
<feGaussianBlur stdDeviation="31.4693" result="effect1_foregroundBlur_0_1793"/>
</filter>
<filter id="filter24_f_0_1793" x="-276.219" y="-314.939" width="1077.42" height="1170.71" filterUnits="userSpaceOnUse" color-interpolation-filters="sRGB">
<feFlood flood-opacity="0" result="BackgroundImageFix"/>
<feBlend mode="normal" in="SourceGraphic" in2="BackgroundImageFix" result="shape"/>
<feGaussianBlur stdDeviation="75.0423" result="effect1_foregroundBlur_0_1793"/>
</filter>
<filter id="filter25_f_0_1793" x="-217.905" y="-291.549" width="971.939" height="1102.32" filterUnits="userSpaceOnUse" color-interpolation-filters="sRGB">
<feFlood flood-opacity="0" result="BackgroundImageFix"/>
<feBlend mode="normal" in="SourceGraphic" in2="BackgroundImageFix" result="shape"/>
<feGaussianBlur stdDeviation="45.9937" result="effect1_foregroundBlur_0_1793"/>
</filter>
<filter id="filter26_f_0_1793" x="-324.416" y="-398.06" width="1184.96" height="1315.35" filterUnits="userSpaceOnUse" color-interpolation-filters="sRGB">
<feFlood flood-opacity="0" result="BackgroundImageFix"/>
<feBlend mode="normal" in="SourceGraphic" in2="BackgroundImageFix" result="shape"/>
<feGaussianBlur stdDeviation="99.2495" result="effect1_foregroundBlur_0_1793"/>
</filter>
<filter id="filter27_f_0_1793" x="-421.245" y="-494.889" width="1378.62" height="1509" filterUnits="userSpaceOnUse" color-interpolation-filters="sRGB">
<feFlood flood-opacity="0" result="BackgroundImageFix"/>
<feBlend mode="normal" in="SourceGraphic" in2="BackgroundImageFix" result="shape"/>
<feGaussianBlur stdDeviation="147.664" result="effect1_foregroundBlur_0_1793"/>
</filter>
<filter id="filter28_f_0_1793" x="-72.8586" y="-127.012" width="589.094" height="239.46" filterUnits="userSpaceOnUse" color-interpolation-filters="sRGB">
<feFlood flood-opacity="0" result="BackgroundImageFix"/>
<feBlend mode="normal" in="SourceGraphic" in2="BackgroundImageFix" result="shape"/>
<feGaussianBlur stdDeviation="2.97408" result="effect1_foregroundBlur_0_1793"/>
</filter>
<filter id="filter29_f_0_1793" x="-54.9704" y="-112.361" width="564.049" height="418.403" filterUnits="userSpaceOnUse" color-interpolation-filters="sRGB">
<feFlood flood-opacity="0" result="BackgroundImageFix"/>
<feBlend mode="normal" in="SourceGraphic" in2="BackgroundImageFix" result="shape"/>
<feGaussianBlur stdDeviation="2.97408" result="effect1_foregroundBlur_0_1793"/>
</filter>
<filter id="filter30_f_0_1793" x="-112.073" y="-169.464" width="678.254" height="532.608" filterUnits="userSpaceOnUse" color-interpolation-filters="sRGB">
<feFlood flood-opacity="0" result="BackgroundImageFix"/>
<feBlend mode="normal" in="SourceGraphic" in2="BackgroundImageFix" result="shape"/>
<feGaussianBlur stdDeviation="31.5253" result="effect1_foregroundBlur_0_1793"/>
</filter>
<filter id="filter31_f_0_1793" x="-83.5216" y="-140.913" width="621.152" height="475.506" filterUnits="userSpaceOnUse" color-interpolation-filters="sRGB">
<feFlood flood-opacity="0" result="BackgroundImageFix"/>
<feBlend mode="normal" in="SourceGraphic" in2="BackgroundImageFix" result="shape"/>
<feGaussianBlur stdDeviation="17.2497" result="effect1_foregroundBlur_0_1793"/>
</filter>
<filter id="filter32_f_0_1793" x="-83.5216" y="-140.913" width="621.152" height="475.506" filterUnits="userSpaceOnUse" color-interpolation-filters="sRGB">
<feFlood flood-opacity="0" result="BackgroundImageFix"/>
<feBlend mode="normal" in="SourceGraphic" in2="BackgroundImageFix" result="shape"/>
<feGaussianBlur stdDeviation="17.2497" result="effect1_foregroundBlur_0_1793"/>
</filter>
<filter id="filter33_f_0_1793" x="-83.5216" y="-140.913" width="628.308" height="475.506" filterUnits="userSpaceOnUse" color-interpolation-filters="sRGB">
<feFlood flood-opacity="0" result="BackgroundImageFix"/>
<feBlend mode="normal" in="SourceGraphic" in2="BackgroundImageFix" result="shape"/>
<feGaussianBlur stdDeviation="17.2497" result="effect1_foregroundBlur_0_1793"/>
</filter>
<filter id="filter34_f_0_1793" x="-82.3756" y="-131.937" width="583.083" height="453.462" filterUnits="userSpaceOnUse" color-interpolation-filters="sRGB">
<feFlood flood-opacity="0" result="BackgroundImageFix"/>
<feBlend mode="normal" in="SourceGraphic" in2="BackgroundImageFix" result="shape"/>
<feGaussianBlur stdDeviation="7.73261" result="effect1_foregroundBlur_0_1793"/>
</filter>
<filter id="filter35_f_0_1793" x="-74.582" y="-130.976" width="587.842" height="452.418" filterUnits="userSpaceOnUse" color-interpolation-filters="sRGB">
<feFlood flood-opacity="0" result="BackgroundImageFix"/>
<feBlend mode="normal" in="SourceGraphic" in2="BackgroundImageFix" result="shape"/>
<feGaussianBlur stdDeviation="8.92225" result="effect1_foregroundBlur_0_1793"/>
</filter>
<filter id="filter36_f_0_1793" x="-62.9768" y="-115.481" width="571.187" height="421.94" filterUnits="userSpaceOnUse" color-interpolation-filters="sRGB">
<feFlood flood-opacity="0" result="BackgroundImageFix"/>
<feBlend mode="normal" in="SourceGraphic" in2="BackgroundImageFix" result="shape"/>
<feGaussianBlur stdDeviation="4.75853" result="effect1_foregroundBlur_0_1793"/>
</filter>
<filter id="filter37_f_0_1793" x="-82.0115" y="-131.256" width="609.255" height="346.597" filterUnits="userSpaceOnUse" color-interpolation-filters="sRGB">
<feFlood flood-opacity="0" result="BackgroundImageFix"/>
<feBlend mode="normal" in="SourceGraphic" in2="BackgroundImageFix" result="shape"/>
<feGaussianBlur stdDeviation="14.2756" result="effect1_foregroundBlur_0_1793"/>
</filter>
<filter id="filter38_f_0_1793" x="-82.0115" y="-131.19" width="609.255" height="346.531" filterUnits="userSpaceOnUse" color-interpolation-filters="sRGB">
<feFlood flood-opacity="0" result="BackgroundImageFix"/>
<feBlend mode="normal" in="SourceGraphic" in2="BackgroundImageFix" result="shape"/>
<feGaussianBlur stdDeviation="14.2756" result="effect1_foregroundBlur_0_1793"/>
</filter>
<linearGradient id="paint0_linear_0_1793" x1="2126.8" y1="-1163.76" x2="2126.8" y2="1130.42" gradientUnits="userSpaceOnUse">
<stop stop-color="#C4C4C4" stop-opacity="0"/>
<stop offset="0.380208" stop-color="#C4C4C4"/>
<stop offset="0.578125" stop-color="#C4C4C4"/>
<stop offset="1" stop-color="#C4C4C4" stop-opacity="0"/>
</linearGradient>
<linearGradient id="paint1_linear_0_1793" x1="2064.86" y1="-542.594" x2="1282.12" y2="1054.09" gradientUnits="userSpaceOnUse">
<stop stop-color="#057FE2"/>
<stop offset="1" stop-color="#178AEC"/>
</linearGradient>
<linearGradient id="paint2_linear_0_1793" x1="2051.18" y1="-549.299" x2="1268.45" y2="1047.39" gradientUnits="userSpaceOnUse">
<stop stop-color="#057FE2"/>
<stop offset="1" stop-color="#178AEC"/>
</linearGradient>
<linearGradient id="paint3_linear_0_1793" x1="2025.56" y1="-559.741" x2="1236.96" y2="1048.91" gradientUnits="userSpaceOnUse">
<stop stop-color="#057FE2"/>
<stop offset="1" stop-color="#178AEC"/>
</linearGradient>
<linearGradient id="paint4_linear_0_1793" x1="2025.56" y1="-559.741" x2="1236.96" y2="1048.91" gradientUnits="userSpaceOnUse">
<stop stop-color="#057FE2"/>
<stop offset="1" stop-color="#178AEC"/>
</linearGradient>
<linearGradient id="paint5_linear_0_1793" x1="2025.56" y1="-559.741" x2="1236.96" y2="1048.91" gradientUnits="userSpaceOnUse">
<stop stop-color="white"/>
<stop offset="1" stop-color="#A4D5FF"/>
</linearGradient>
<linearGradient id="paint6_linear_0_1793" x1="1987.95" y1="-578.178" x2="1199.35" y2="1030.48" gradientUnits="userSpaceOnUse">
<stop stop-color="#057FE2"/>
<stop offset="1" stop-color="#178AEC"/>
</linearGradient>
<linearGradient id="paint7_linear_0_1793" x1="2000.13" y1="-653.842" x2="1148.67" y2="1083.03" gradientUnits="userSpaceOnUse">
<stop stop-color="#057FE2"/>
<stop offset="1" stop-color="#178AEC"/>
</linearGradient>
<linearGradient id="paint8_linear_0_1793" x1="2000.13" y1="-653.842" x2="1148.67" y2="1083.03" gradientUnits="userSpaceOnUse">
<stop stop-color="#057FE2"/>
<stop offset="1" stop-color="#178AEC"/>
</linearGradient>
<linearGradient id="paint9_linear_0_1793" x1="2000.13" y1="-653.842" x2="1148.67" y2="1083.03" gradientUnits="userSpaceOnUse">
<stop stop-color="#057FE2"/>
<stop offset="1" stop-color="#178AEC"/>
</linearGradient>
<linearGradient id="paint10_linear_0_1793" x1="1826.2" y1="471.506" x2="1091.83" y2="630.37" gradientUnits="userSpaceOnUse">
<stop stop-color="#C4C4C4" stop-opacity="0"/>
<stop offset="0.565737" stop-color="#C4C4C4"/>
<stop offset="1" stop-color="#C4C4C4" stop-opacity="0"/>
</linearGradient>
<linearGradient id="paint11_linear_0_1793" x1="604.322" y1="953.774" x2="604.322" y2="2182.01" gradientUnits="userSpaceOnUse">
<stop stop-color="#C4C4C4" stop-opacity="0"/>
<stop offset="0.380208" stop-color="#C4C4C4"/>
<stop offset="0.578125" stop-color="#C4C4C4"/>
<stop offset="1" stop-color="#C4C4C4" stop-opacity="0"/>
</linearGradient>
<linearGradient id="paint12_linear_0_1793" x1="-155.924" y1="540.174" x2="441.075" y2="-201.389" gradientUnits="userSpaceOnUse">
<stop stop-color="#057FE2"/>
<stop offset="1" stop-color="#178AEC"/>
</linearGradient>
<linearGradient id="paint13_linear_0_1793" x1="-149.572" y1="545.287" x2="447.427" y2="-196.275" gradientUnits="userSpaceOnUse">
<stop stop-color="#057FE2"/>
<stop offset="1" stop-color="#178AEC"/>
</linearGradient>
<linearGradient id="paint14_linear_0_1793" x1="-137.42" y1="553.762" x2="464.054" y2="-193.358" gradientUnits="userSpaceOnUse">
<stop stop-color="#057FE2"/>
<stop offset="1" stop-color="#178AEC"/>
</linearGradient>
<linearGradient id="paint15_linear_0_1793" x1="-137.42" y1="553.762" x2="464.054" y2="-193.358" gradientUnits="userSpaceOnUse">
<stop stop-color="#057FE2"/>
<stop offset="1" stop-color="#178AEC"/>
</linearGradient>
<linearGradient id="paint16_linear_0_1793" x1="-137.42" y1="553.762" x2="464.054" y2="-193.358" gradientUnits="userSpaceOnUse">
<stop stop-color="#057FE2"/>
<stop offset="1" stop-color="#178AEC"/>
</linearGradient>
<linearGradient id="paint17_linear_0_1793" x1="-119.952" y1="567.824" x2="481.521" y2="-179.296" gradientUnits="userSpaceOnUse">
<stop stop-color="#057FE2"/>
<stop offset="1" stop-color="#178AEC"/>
</linearGradient>
<linearGradient id="paint18_linear_0_1793" x1="-135.233" y1="605.902" x2="514.18" y2="-200.766" gradientUnits="userSpaceOnUse">
<stop stop-color="#057FE2"/>
<stop offset="1" stop-color="#178AEC"/>
</linearGradient>
<linearGradient id="paint19_linear_0_1793" x1="-135.233" y1="605.902" x2="514.18" y2="-200.766" gradientUnits="userSpaceOnUse">
<stop stop-color="#057FE2"/>
<stop offset="1" stop-color="#178AEC"/>
</linearGradient>
<linearGradient id="paint20_linear_0_1793" x1="-135.233" y1="605.902" x2="514.18" y2="-200.766" gradientUnits="userSpaceOnUse">
<stop stop-color="#057FE2"/>
<stop offset="1" stop-color="#178AEC"/>
</linearGradient>
<linearGradient id="paint21_linear_0_1793" x1="88.2634" y1="38.7161" x2="490.499" y2="42.3265" gradientUnits="userSpaceOnUse">
<stop stop-color="#C4C4C4" stop-opacity="0"/>
<stop offset="0.565737" stop-color="#C4C4C4"/>
<stop offset="1" stop-color="#C4C4C4" stop-opacity="0"/>
</linearGradient>
<clipPath id="clip0_0_1793">
<rect width="1880" height="541" fill="white"/>
</clipPath>
</defs>
</svg>
