<svg width="20" height="20" viewBox="0 0 20 20" fill="none" xmlns="http://www.w3.org/2000/svg">
<path d="M17.9307 5.63816L12.4757 0.183086C12.4176 0.125043 12.3487 0.0789999 12.2729 0.0475859C12.1971 0.0161719 12.1158 2.139e-06 12.0337 0L3.88707 0C2.78379 0 1.88621 0.897578 1.88621 2.00086V17.9991C1.88621 19.1024 2.78379 20 3.88707 20H16.1129C17.2162 20 18.1138 19.1024 18.1138 17.9991V6.08008C18.1138 5.99801 18.0976 5.91674 18.0662 5.84092C18.0348 5.76509 17.9888 5.6962 17.9307 5.63816ZM12.6587 2.13391L15.9799 5.45512H12.6587V2.13391ZM16.1129 18.75H3.88707C3.47305 18.75 3.13621 18.4132 3.13621 17.9991V2.00086C3.13621 1.58684 3.47305 1.25 3.88707 1.25H11.4087V6.08008C11.4087 6.42523 11.6886 6.70508 12.0337 6.70508H16.8638V17.9991C16.8638 18.4132 16.527 18.75 16.1129 18.75ZM14.4688 10.3838C14.4688 10.729 14.1889 11.0088 13.8438 11.0088H6.15625C5.81109 11.0088 5.53125 10.729 5.53125 10.3838C5.53125 10.0387 5.81109 9.75883 6.15625 9.75883H13.8438C14.1889 9.75883 14.4688 10.0386 14.4688 10.3838ZM14.4688 14.6494C14.4688 14.9946 14.1889 15.2744 13.8438 15.2744H6.15625C5.81109 15.2744 5.53125 14.9946 5.53125 14.6494C5.53125 14.3043 5.81109 14.0244 6.15625 14.0244H13.8438C14.1889 14.0244 14.4688 14.3043 14.4688 14.6494Z" fill="#2251FF"/>
</svg>
