<svg width="128" height="128" viewBox="0 0 128 128" fill="none" xmlns="http://www.w3.org/2000/svg">
<path d="M76.0491 53.846C76.0491 60.3312 71.5712 65.8901 65.7035 67.4342C64.4682 67.743 63.2329 67.8974 61.9976 67.8974C54.1226 67.8974 47.7917 61.5665 47.7917 53.6915C47.7917 45.8165 54.1226 39.4857 61.9976 39.4857C69.8726 39.4857 76.0491 46.1254 76.0491 53.846Z" fill="#1881DF"/>
<path d="M89.9485 53.8456C89.9485 77.9338 66.7868 82.1029 59.8382 83.4926L80.0662 112.831H97.2059L81.9191 90.9044C95.1985 83.6471 104 69.5956 104 54C104 30.8382 85.1618 12 62 12C38.8382 12 20 30.8382 20 54V112.985H33.8971V53.8456C33.8971 38.4044 46.4044 25.7426 62 25.7426C77.5956 25.7426 89.9485 38.4044 89.9485 53.8456Z" fill="#07205F"/>
</svg>
