<svg width="100" height="36" viewBox="0 0 100 36" fill="none" xmlns="http://www.w3.org/2000/svg">
<path d="M16.185 3C13.455 3 11.25 5.1782 11.25 7.875C11.25 10.5511 13.455 12.7292 16.164 12.75C15.492 12.7292 14.967 12.1899 14.967 11.526C14.967 10.8622 15.513 10.3021 16.206 10.3021C19.146 10.3021 25.677 10.3021 28.554 10.3021C30.591 10.3021 32.25 8.66331 32.25 6.65109C32.25 4.63883 30.591 3 28.554 3L16.185 3Z" fill="#2251FF"/>
<path opacity="0.9" d="M10.185 12.75C7.455 12.75 5.25 14.9282 5.25 17.625C5.25 20.3011 7.455 22.4792 10.164 22.5C9.49199 22.4792 8.967 21.9399 8.967 21.276C8.967 20.6122 9.51301 20.0521 10.206 20.0521C13.146 20.0521 19.677 20.0521 22.554 20.0521C24.591 20.0521 26.25 18.4133 26.25 16.4011C26.25 14.3888 24.591 12.75 22.554 12.75L10.185 12.75Z" fill="#2251FF"/>
<path opacity="0.8" d="M6.0375 22.5C3.1125 22.5 0.75 24.8458 0.75 27.75C0.75 30.6319 3.1125 32.9776 6.01498 33C5.29499 32.9776 4.7325 32.3968 4.7325 31.6819C4.7325 30.967 5.31751 30.3638 6.06002 30.3638C9.20999 30.3638 16.2075 30.3638 19.29 30.3638C21.4725 30.3638 23.25 28.5989 23.25 26.4319C23.25 24.2649 21.4725 22.5 19.29 22.5L6.0375 22.5Z" fill="#2251FF"/>
<path d="M49.52 23.3V10.3H51.52V25H47.76L41.66 12H41.2V25H39.2V10.3H42.96L49.06 23.3H49.52ZM53.5313 21.44C53.5313 19.44 54.9513 17.82 57.3313 17.82C59.3113 17.82 60.5913 18.08 61.6913 18.62V17.92C61.6913 16.4 60.3913 15.6 58.9313 15.6C57.7113 15.6 57.0313 15.72 56.2313 16.14L56.1113 16.94H54.5113V14.98C55.8713 14.2 56.9713 13.74 58.9313 13.74C61.6913 13.74 63.6913 15.18 63.6913 18.3V25H62.0913L61.7713 23.34C60.6713 24.22 59.3513 25.06 57.3313 25.06C54.9513 25.06 53.5313 23.44 53.5313 21.44ZM55.4712 21.44C55.4712 22.36 56.2113 23.28 57.7313 23.28C59.3113 23.28 60.6113 22.42 61.6913 21.38V20.4C60.6313 19.88 59.1113 19.6 57.5312 19.6C56.0113 19.6 55.4712 20.52 55.4712 21.44ZM67.6992 25H65.6992V13.8H67.2992L67.5592 15.2C68.6592 14.38 69.7992 13.74 70.9592 13.74C72.5792 13.74 73.8192 14.34 74.4992 15.54C75.7192 14.56 76.9992 13.74 78.3192 13.74C80.8192 13.74 82.4192 15.14 82.4192 18V25H80.4192V17.88C80.4192 16.7 79.8592 15.64 78.4592 15.64C77.1792 15.64 76.1792 16.22 74.9992 17.14C75.0392 17.42 75.0592 17.7 75.0592 18V25H73.0592V17.88C73.0592 16.7 72.4992 15.64 71.0992 15.64C69.8392 15.64 68.8392 16.2 67.6992 17.1V25ZM89.8102 23.12C91.7302 23.12 92.7102 22.12 93.0502 21.72L94.2702 23.26C94.0302 23.56 92.6902 25.06 89.8102 25.06C86.6902 25.06 84.1902 22.58 84.1902 19.38C84.1902 16.28 86.6502 13.74 89.7702 13.74C92.7702 13.74 95.1902 16.18 95.1902 19.38C95.1902 19.62 95.1702 19.96 95.1502 20.1H86.2502C86.6102 21.82 88.0502 23.12 89.8102 23.12ZM89.7702 15.74C88.0902 15.74 86.7302 16.8 86.3302 18.24H93.0102C92.7702 16.9 91.4102 15.74 89.7702 15.74Z" fill="#232332"/>
</svg>
