<svg width="105" height="21" viewBox="0 0 105 21" fill="none" xmlns="http://www.w3.org/2000/svg">
<path d="M10.3813 9.20906C10.3813 10.4102 9.55189 11.4398 8.46511 11.7258C8.23632 11.783 8.00752 11.8116 7.77873 11.8116C6.32016 11.8116 5.14758 10.639 5.14758 9.18046C5.14758 7.72189 6.32016 6.54932 7.77873 6.54932C9.2373 6.54932 10.3813 7.77909 10.3813 9.20906Z" fill="#1881DF"/>
<path d="M17.8179 13.356C17.8179 8.95174 20.878 6.0918 24.5673 6.0918C27.8849 6.0918 30.6304 8.49415 30.6304 13.0414C30.6304 13.4704 30.6018 13.8422 30.5446 14.214H20.6492C21.0782 16.645 22.9086 18.0463 25.3395 18.0463C26.9125 18.0463 28.4282 17.503 29.8296 16.4162V19.0759C28.4282 20.0197 26.7981 20.5059 25.0535 20.5059C20.5348 20.5059 17.8179 17.5888 17.8179 13.356ZM27.7991 12.2121C27.7133 9.78112 26.2261 8.55134 24.5387 8.55134C22.6798 8.55134 21.021 9.92412 20.6492 12.2121H27.7991Z" fill="#07205F"/>
<path d="M32.8602 13.3274C32.8602 8.95174 35.8918 6.0918 39.0377 6.0918C41.0397 6.0918 42.7842 7.09278 43.7852 8.78014H43.8138L44.1284 6.40639H46.5879V20.1627H44.1284L43.8138 17.789H43.7852C42.8128 19.4763 41.0683 20.4773 39.0377 20.4773C35.8918 20.5059 32.8602 17.646 32.8602 13.3274ZM39.8099 17.789C42.012 17.789 43.728 15.9586 43.728 13.2988C43.728 10.6677 42.012 8.80874 39.8099 8.80874C37.5791 8.80874 35.8632 10.6677 35.8632 13.2988C35.8346 15.9586 37.5505 17.789 39.8099 17.789Z" fill="#07205F"/>
<path d="M50.5354 0H53.5097V20.1626H50.5354V0Z" fill="#07205F"/>
<path d="M76.0466 11.039V20.1908H73.0722V11.5538C73.0722 9.78065 72.3858 8.86547 70.7557 8.86547C69.1541 8.86547 68.2103 10.1238 68.2103 11.4966V20.1622H65.236V11.5538C65.236 9.78065 64.5496 8.86547 62.9194 8.86547C61.2607 8.86547 60.4027 10.2096 60.4027 11.6682V20.1908H57.4283V6.43452H59.7163L60.0309 8.43648H60.1167C60.8317 7.14951 62.0614 6.11993 63.8346 6.11993C65.808 6.11993 67.0091 7.03511 67.6955 8.52228C68.5249 7.09231 69.8405 6.11993 71.6423 6.11993C74.6738 6.09133 76.0466 8.12188 76.0466 11.039Z" fill="#07205F"/>
<path d="M78.9915 13.3274C78.9915 8.95174 82.023 6.0918 85.1689 6.0918C87.1709 6.0918 88.9155 7.09278 89.9164 8.78014H89.945L90.2596 6.40639H92.7192V20.1627H90.2596L89.945 17.789H89.9164C88.9441 19.4763 87.1995 20.4773 85.1689 20.4773C82.023 20.5059 78.9915 17.646 78.9915 13.3274ZM85.9125 17.789C88.1147 17.789 89.8306 15.9586 89.8306 13.2988C89.8306 10.6677 88.1147 8.80874 85.9125 8.80874C83.6818 8.80874 81.9658 10.6677 81.9658 13.2988C81.9658 15.9586 83.6818 17.789 85.9125 17.789Z" fill="#07205F"/>
<path d="M96.6082 6.43499H98.9819L99.2965 8.57994H99.3537C100.297 6.83538 101.985 6.29199 103.215 6.29199C103.586 6.29199 103.901 6.32059 104.158 6.37779V9.20913C103.844 9.12333 103.472 9.09473 103.129 9.09473C101.356 9.09473 99.6111 10.1529 99.6111 12.7841V20.1913H96.6082V6.43499Z" fill="#07205F"/>
<path d="M12.9555 9.20893C12.9555 13.6704 8.66562 14.4426 7.37864 14.7L11.1252 20.1339H14.2997L11.4684 16.0728C13.9279 14.7286 15.5581 12.1261 15.5581 9.23753C15.5581 4.94762 12.0689 1.4585 7.77904 1.4585C3.48913 1.4585 0 4.94762 0 9.23753V20.1625H2.57395V9.20893C2.57395 6.34899 4.8905 4.00384 7.77904 4.00384C10.6676 4.00384 12.9555 6.34899 12.9555 9.20893Z" fill="#07205F"/>
</svg>
