<svg width="20" height="21" viewBox="0 0 20 21" fill="none" xmlns="http://www.w3.org/2000/svg">
<g clip-path="url(#clip0_6036_3928)">
<path d="M17.5585 2.88965H2.44569C1.09663 2.88965 0 3.98628 0 5.33533V15.6643C0 17.0134 1.09663 18.11 2.44569 18.11H17.5543C18.9034 18.11 20 17.0134 20 15.6643V5.33947C20.0041 3.99041 18.9075 2.88965 17.5585 2.88965ZM18.8868 15.6643C18.8868 16.3968 18.2909 16.9927 17.5585 16.9927H2.44569C1.71322 16.9927 1.11732 16.3968 1.11732 15.6643V5.33947C1.11732 4.60701 1.71322 4.01111 2.44569 4.01111H17.5543C18.2868 4.01111 18.8827 4.60701 18.8827 5.33947V15.6643H18.8868Z" fill="#2251FF"/>
<path d="M12.6133 10.3719L17.5046 5.98543C17.7322 5.77851 17.7529 5.42677 17.546 5.19503C17.3391 4.96742 16.9874 4.94673 16.7556 5.15364L10.0103 11.2079L8.69437 10.0326C8.69023 10.0285 8.68609 10.0243 8.68609 10.0202C8.65712 9.99122 8.62816 9.96639 8.59505 9.94156L3.2402 5.14951C3.00846 4.9426 2.65671 4.96329 2.4498 5.19503C2.24289 5.42677 2.26358 5.77851 2.49532 5.98543L7.44463 10.4092L2.51601 15.0233C2.29255 15.2343 2.28013 15.5861 2.49118 15.8137C2.60291 15.9296 2.75189 15.9916 2.90086 15.9916C3.03743 15.9916 3.17399 15.942 3.28158 15.8427L8.28468 11.1623L9.64202 12.3748C9.74961 12.47 9.88204 12.5155 10.0145 12.5155C10.1469 12.5155 10.2834 12.4659 10.3869 12.3707L11.7815 11.121L16.7556 15.8468C16.8632 15.9503 17.0039 15.9999 17.1405 15.9999C17.2894 15.9999 17.4343 15.942 17.546 15.8261C17.7571 15.6026 17.7488 15.2468 17.5253 15.0357L12.6133 10.3719Z" fill="#2251FF"/>
</g>
<defs>
<clipPath id="clip0_6036_3928">
<rect width="20" height="20" fill="white" transform="translate(0 0.5)"/>
</clipPath>
</defs>
</svg>
