<svg width="20" height="21" viewBox="0 0 20 21" fill="none" xmlns="http://www.w3.org/2000/svg">
<path fill-rule="evenodd" clip-rule="evenodd" d="M10 1.95801C6.20542 1.95801 3.125 5.03842 3.125 8.83301C3.125 10.4876 4.16042 12.4734 5.44417 14.2434C7.28125 16.7768 9.57833 18.8776 9.57833 18.8776C9.69353 18.9829 9.84394 19.0413 10 19.0413C10.1561 19.0413 10.3065 18.9829 10.4217 18.8776C10.4217 18.8776 12.7187 16.7768 14.5558 14.2434C15.8396 12.4734 16.875 10.4876 16.875 8.83301C16.875 5.03842 13.7946 1.95801 10 1.95801ZM10 3.20801C13.1046 3.20801 15.625 5.72842 15.625 8.83301C15.625 10.2718 14.6604 11.9705 13.5442 13.5097C12.2525 15.2901 10.7246 16.848 10 17.5538C9.27542 16.848 7.7475 15.2901 6.45583 13.5097C5.33958 11.9705 4.375 10.2718 4.375 8.83301C4.375 5.72842 6.89542 3.20801 10 3.20801ZM10 5.29134C8.04542 5.29134 6.45833 6.87842 6.45833 8.83301C6.45833 10.7876 8.04542 12.3747 10 12.3747C11.9546 12.3747 13.5417 10.7876 13.5417 8.83301C13.5417 6.87842 11.9546 5.29134 10 5.29134ZM10 6.54134C11.265 6.54134 12.2917 7.56801 12.2917 8.83301C12.2917 10.098 11.265 11.1247 10 11.1247C8.735 11.1247 7.70833 10.098 7.70833 8.83301C7.70833 7.56801 8.735 6.54134 10 6.54134Z" fill="#2251FF"/>
</svg>
