<svg width="1880" height="800" viewBox="0 0 1880 800" fill="none" xmlns="http://www.w3.org/2000/svg">
<g clip-path="url(#clip0_0_1235)">
<g opacity="0.2" filter="url(#filter0_f_0_1235)">
<circle cx="1154.75" cy="246.344" r="464.074" fill="#0374D3"/>
</g>
<mask id="mask0_0_1235" style="mask-type:alpha" maskUnits="userSpaceOnUse" x="298" y="-1164" width="2481" height="2781">
<rect x="1308.13" y="-1163.76" width="1637.34" height="2294.18" transform="rotate(26.1152 1308.13 -1163.76)" fill="url(#paint0_linear_0_1235)"/>
</mask>
<g mask="url(#mask0_0_1235)">
<path d="M2096.6 463.166C1880.46 904.051 1381.45 1102.79 982.103 907.018C940.22 886.486 900.948 862.357 864.632 835.225C1236.93 937.798 1656.92 737.215 1850.42 342.488C2043.93 -52.2394 1945.17 -506.914 1636.14 -738.556C1679.83 -726.468 1722.95 -710.203 1764.84 -689.671C2164.18 -493.904 2312.73 22.2821 2096.6 463.166Z" fill="url(#paint1_linear_0_1235)"/>
<g filter="url(#filter1_f_0_1235)">
<path d="M2069.24 449.758C1853.11 890.642 1381.45 1102.79 982.103 907.018C940.22 886.486 900.948 862.357 864.632 835.225C1236.93 937.798 1684.27 750.624 1877.78 355.897C2071.28 -38.8307 1945.17 -506.914 1636.14 -738.556C1679.83 -726.468 1722.95 -710.203 1764.84 -689.671C2164.18 -493.904 2285.37 8.87339 2069.24 449.758Z" fill="url(#paint2_linear_0_1235)"/>
</g>
<g filter="url(#filter2_f_0_1235)">
<path d="M2055.57 443.053C1839.44 883.937 1347.39 1103.05 948.046 907.284C906.163 886.752 866.891 862.624 830.576 835.491C1202.88 938.065 1697.95 757.328 1891.45 362.6C2084.96 -32.127 1908.43 -522.804 1599.4 -754.446C1643.09 -742.358 1686.22 -726.093 1728.1 -705.561C2127.44 -509.794 2271.7 2.16835 2055.57 443.053Z" fill="url(#paint3_linear_0_1235)"/>
</g>
<g filter="url(#filter3_f_0_1235)">
<path d="M2055.57 443.053C1839.44 883.937 1347.39 1103.05 948.046 907.284C906.163 886.752 866.891 862.624 830.576 835.491C1202.88 938.065 1697.95 757.328 1891.45 362.6C2084.96 -32.127 1908.43 -522.804 1599.4 -754.446C1643.09 -742.358 1686.22 -726.093 1728.1 -705.561C2127.44 -509.794 2271.7 2.16835 2055.57 443.053Z" fill="url(#paint4_linear_0_1235)"/>
</g>
<g filter="url(#filter4_f_0_1235)">
<path d="M2055.57 443.053C1839.44 883.937 1347.39 1103.05 948.046 907.284C906.163 886.752 866.891 862.624 830.576 835.491C1202.88 938.065 1697.95 757.328 1891.45 362.6C2084.96 -32.127 1908.43 -522.804 1599.4 -754.446C1643.09 -742.358 1686.22 -726.093 1728.1 -705.561C2127.44 -509.794 2271.7 2.16835 2055.57 443.053Z" fill="url(#paint5_linear_0_1235)"/>
</g>
<g filter="url(#filter5_f_0_1235)">
<path d="M1966.52 434.386C1750.39 875.27 1347.39 1103.05 948.046 907.284C906.163 886.752 866.891 862.624 830.576 835.491C1202.88 938.065 1736.93 790.264 1935.9 384.389C2185.2 -124.155 1908.43 -522.804 1599.4 -754.446C1643.09 -742.358 1686.22 -726.093 1728.1 -705.561C2127.44 -509.794 2182.65 -6.49868 1966.52 434.386Z" fill="url(#paint6_linear_0_1235)"/>
</g>
<g filter="url(#filter6_f_0_1235)">
<path d="M1966.52 434.386C1750.39 875.27 1365.52 1189.33 966.179 993.566C924.296 973.034 833.506 807.455 797.191 780.323C1169.49 882.897 1736.93 790.265 1935.9 384.39C2185.2 -124.155 1846.63 -498.393 1537.6 -730.035C1518.08 -690.203 1664.63 -818.308 1706.51 -797.776C2105.86 -602.008 2182.65 -6.49842 1966.52 434.386Z" fill="url(#paint7_linear_0_1235)"/>
</g>
<g filter="url(#filter7_f_0_1235)">
<path d="M1966.52 434.386C1750.39 875.27 1365.52 1189.33 966.179 993.566C924.296 973.034 833.506 807.455 797.191 780.323C1169.49 882.897 1736.93 790.265 1935.9 384.39C2185.2 -124.155 1846.63 -498.393 1537.6 -730.035C1518.08 -690.203 1664.63 -818.308 1706.51 -797.776C2105.86 -602.008 2182.65 -6.49842 1966.52 434.386Z" fill="url(#paint8_linear_0_1235)"/>
</g>
<g filter="url(#filter8_f_0_1235)">
<path d="M1966.52 434.386C1750.39 875.27 1365.52 1189.33 966.179 993.566C924.296 973.034 833.506 807.455 797.191 780.323C1169.49 882.897 1736.93 790.265 1935.9 384.39C2185.2 -124.155 1846.63 -498.393 1537.6 -730.035C1518.08 -690.203 1664.63 -818.308 1706.51 -797.776C2105.86 -602.008 2182.65 -6.49842 1966.52 434.386Z" fill="url(#paint9_linear_0_1235)"/>
</g>
</g>
<g filter="url(#filter9_f_0_1235)">
<mask id="mask1_0_1235" style="mask-type:alpha" maskUnits="userSpaceOnUse" x="1030" y="341" width="1109" height="812">
<path opacity="0.8" d="M1030.82 799.011L1268.35 1152.24L1750.54 1004.02L2138.26 341.081L1765.06 387.838L1667.58 377.516L1083.17 709.491L1030.82 799.011Z" fill="url(#paint10_linear_0_1235)"/>
</mask>
<g mask="url(#mask1_0_1235)">
<g opacity="0.8">
<path d="M2078.99 302.429C2065.64 394.16 2133.36 333.75 2081.51 422.402C2057.61 463.255 1749.73 699.052 1720.45 733.431C1565.98 861.926 1378.23 901.27 1223.89 835.499C1192.52 822.206 1164.12 804.49 1136.65 784.313C1275.71 886.659 1491.71 777.879 1626.74 647.501C1817.98 463.096 1918.42 176.915 1810.48 -87.6645C1963.58 25.5733 1981.68 381.396 1993.85 323.735L2078.99 302.429Z" fill="#0375D5"/>
<g filter="url(#filter10_f_0_1235)">
<path d="M2040.37 283.092C2027.02 374.823 2094.74 314.413 2042.89 403.065C2018.99 443.918 1711.11 679.715 1681.83 714.094C1527.36 842.589 1339.61 881.933 1185.28 816.161C1153.9 802.869 1125.5 785.152 1098.03 764.976C1237.09 867.322 1534.06 755.568 1669.09 625.19C1860.34 440.786 2013.19 217.736 1905.26 -46.8427C2058.35 66.3951 1943.06 362.058 1955.23 304.397L2040.37 283.092Z" fill="#0375D5"/>
</g>
<g filter="url(#filter11_f_0_1235)">
<path d="M2040.37 283.092C2027.02 374.823 2094.74 314.413 2042.89 403.065C2018.99 443.918 1711.11 679.715 1681.83 714.094C1527.36 842.589 1339.61 881.933 1185.28 816.161C1153.9 802.869 1125.5 785.152 1098.03 764.976C1237.09 867.322 1534.06 755.568 1669.09 625.19C1860.34 440.786 2013.19 217.736 1905.26 -46.8427C2058.35 66.3951 1943.06 362.058 1955.23 304.397L2040.37 283.092Z" fill="#0375D5"/>
</g>
<g filter="url(#filter12_f_0_1235)">
<path d="M2040.37 283.092C2027.02 374.823 2094.74 314.413 2042.89 403.065C2018.99 443.918 1711.11 679.715 1681.83 714.094C1527.36 842.589 1339.61 881.933 1185.28 816.161C1153.9 802.869 1125.5 785.152 1098.03 764.976C1237.09 867.322 1534.06 755.568 1669.09 625.19C1860.34 440.786 2013.19 217.736 1905.26 -46.8427C2058.35 66.3951 1943.06 362.058 1955.23 304.397L2040.37 283.092Z" fill="#0375D5"/>
</g>
<g filter="url(#filter13_f_0_1235)">
<path d="M2040.37 283.092C2027.02 374.823 2094.74 314.413 2042.89 403.065C2018.99 443.918 1711.11 679.715 1681.83 714.094C1527.36 842.589 1339.61 881.933 1185.28 816.161C1153.9 802.869 1125.5 785.152 1098.03 764.976C1237.09 867.322 1528.55 797.797 1663.59 667.42C1854.83 483.015 2013.19 217.736 1905.26 -46.8427C2058.35 66.3951 1943.06 362.058 1955.23 304.397L2040.37 283.092Z" fill="#0375D5"/>
</g>
<g filter="url(#filter14_f_0_1235)">
<path d="M2040.37 283.092C2027.02 374.823 2094.74 314.413 2042.89 403.065C2018.99 443.918 1711.11 679.714 1681.82 714.094C1527.36 842.589 1339.61 881.933 1185.27 816.161C1153.9 802.869 1112.32 787.47 1084.85 767.293C1223.91 869.639 1522.62 805.693 1657.66 675.315C1848.9 490.91 2013.19 217.737 1905.26 -46.8425C2058.35 66.3952 1943.06 362.059 1955.23 304.398L2040.37 283.092Z" fill="#0375D5"/>
</g>
<g filter="url(#filter15_f_0_1235)">
<path d="M2078.99 302.429C2065.64 394.16 2133.36 333.75 2081.51 422.402C2057.61 463.255 1743.64 682.503 1714.36 716.882C1559.89 845.377 1378.23 901.27 1223.89 835.499C1192.52 822.207 1164.12 804.49 1136.65 784.313C1275.71 886.659 1501.5 783.605 1636.53 653.227C1827.78 468.822 1981.08 213.562 1873.14 -51.0171C2026.24 62.2207 1981.68 381.396 1993.85 323.735L2078.99 302.429Z" fill="#0375D5"/>
</g>
<g filter="url(#filter16_f_0_1235)">
<path d="M2059.08 300.529C2045.73 392.26 2113.45 331.85 2061.6 420.502C2037.7 461.355 1723.74 680.602 1694.45 714.982C1539.98 843.476 1358.32 899.37 1203.99 833.598C1172.61 820.306 1144.21 802.589 1116.74 782.413C1255.8 884.758 1495.29 789.721 1630.33 659.344C1821.57 474.939 1974.87 219.678 1866.94 -44.9009C2020.03 68.3369 1961.77 379.495 1973.94 321.834L2059.08 300.529Z" fill="#0375D5"/>
</g>
<g filter="url(#filter17_f_0_1235)">
<path d="M2050.16 288.818C2036.81 380.549 2104.53 320.139 2052.68 408.791C2028.78 449.644 1714.81 668.891 1685.53 703.271C1531.06 831.765 1349.4 887.658 1195.06 821.887C1163.69 808.595 1135.29 790.878 1107.82 770.702C1246.88 873.047 1523.04 796.204 1658.07 665.827C1849.31 481.422 2002.62 226.162 1894.68 -38.4173C2047.77 74.8205 1952.85 367.784 1965.02 310.123L2050.16 288.818Z" fill="#0375D5"/>
</g>
<g filter="url(#filter18_f_0_1235)">
<path d="M2050.16 288.817C2036.81 380.547 2104.53 320.138 2052.68 408.79C2028.78 449.642 1734.33 647.539 1705.04 681.919C1550.57 810.414 1319.3 884.792 1164.97 819.021C1133.59 805.728 1135.29 790.877 1107.82 770.701C1246.88 873.046 1477.56 867.008 1612.6 736.631C1803.84 552.226 2030.49 430.795 1922.56 166.215C2075.65 279.453 1952.85 367.783 1965.02 310.122L2050.16 288.817Z" fill="#0375D5"/>
</g>
<g filter="url(#filter19_f_0_1235)">
<path d="M2050.16 288.817C2036.81 380.547 2104.53 320.138 2052.68 408.79C2028.78 449.642 1689.87 671.871 1660.59 706.251C1506.12 834.745 1319.3 884.792 1164.97 819.021C1133.59 805.728 1135.29 790.877 1107.82 770.701C1246.88 873.046 1469.9 828.434 1604.94 698.057C1796.18 513.652 2030.49 430.795 1922.56 166.215C2075.65 279.453 1952.85 367.783 1965.02 310.122L2050.16 288.817Z" fill="#0375D5"/>
</g>
</g>
</g>
</g>
<mask id="mask2_0_1235" style="mask-type:alpha" maskUnits="userSpaceOnUse" x="-517" y="-553" width="1454" height="1507">
<rect x="166.031" y="953.774" width="876.583" height="1228.24" transform="rotate(-141.164 166.031 953.774)" fill="url(#paint11_linear_0_1235)"/>
</mask>
<g mask="url(#mask2_0_1235)">
<path d="M-53.9294 11.194C110.917 -193.569 394.947 -238.525 580.417 -89.2115C599.869 -73.5515 617.534 -56.321 633.3 -37.8706C450.966 -135.328 207.989 -80.0895 60.4014 103.237C-87.1866 286.563 -89.2102 535.651 44.8656 693.053C23.4744 681.589 2.86973 668.011 -16.5824 652.351C-202.052 503.037 -218.775 215.957 -53.9294 11.194Z" fill="url(#paint12_linear_0_1235)"/>
<g filter="url(#filter20_f_0_1235)">
<path d="M-41.226 21.421C123.62 -183.342 394.947 -238.525 580.417 -89.2115C599.869 -73.5515 617.534 -56.321 633.3 -37.8706C450.966 -135.328 195.286 -90.3165 47.6979 93.0098C-99.89 276.336 -89.2102 535.651 44.8656 693.053C23.4744 681.589 2.86972 668.011 -16.5824 652.351C-202.052 503.037 -206.072 226.184 -41.226 21.421Z" fill="url(#paint13_linear_0_1235)"/>
</g>
<g filter="url(#filter21_f_0_1235)">
<path d="M-34.8745 26.5343C129.971 -178.229 412.764 -234.65 598.234 -85.3364C617.686 -69.6764 635.35 -52.4459 651.117 -33.9955C468.782 -131.453 188.934 -95.4301 41.3461 87.8962C-106.242 271.222 -71.898 548.28 62.1778 705.681C40.7866 694.218 20.182 680.64 0.729861 664.979C-184.74 515.666 -199.72 231.298 -34.8745 26.5343Z" fill="url(#paint14_linear_0_1235)"/>
</g>
<g filter="url(#filter22_f_0_1235)">
<path d="M-34.8745 26.5343C129.971 -178.229 412.764 -234.65 598.234 -85.3364C617.686 -69.6764 635.35 -52.4459 651.117 -33.9955C468.782 -131.453 188.934 -95.4301 41.3461 87.8962C-106.242 271.222 -71.898 548.28 62.1778 705.681C40.7866 694.218 20.182 680.64 0.729861 664.979C-184.74 515.666 -199.72 231.298 -34.8745 26.5343Z" fill="url(#paint15_linear_0_1235)"/>
</g>
<g filter="url(#filter23_f_0_1235)">
<path d="M-34.8745 26.5343C129.971 -178.229 412.764 -234.65 598.234 -85.3364C617.686 -69.6764 635.35 -52.4459 651.117 -33.9955C468.782 -131.453 188.934 -95.4301 41.3461 87.8962C-106.242 271.222 -71.898 548.28 62.1778 705.681C40.7866 694.218 20.182 680.64 0.729861 664.979C-184.74 515.666 -199.72 231.298 -34.8745 26.5343Z" fill="url(#paint16_linear_0_1235)"/>
</g>
<g filter="url(#filter24_f_0_1235)">
<path d="M10.6065 41.5581C175.453 -163.205 412.764 -234.65 598.234 -85.3364C617.686 -69.6764 635.35 -52.4459 651.117 -33.9955C468.782 -131.453 172.459 -117.226 20.703 71.2774C-169.441 307.465 -71.898 548.28 62.1778 705.681C40.7866 694.218 20.182 680.64 0.729867 664.979C-184.74 515.666 -154.239 246.321 10.6065 41.5581Z" fill="url(#paint17_linear_0_1235)"/>
</g>
<g filter="url(#filter25_f_0_1235)">
<path d="M10.6066 41.5582C175.453 -163.205 413.466 -281.847 598.936 -132.533C618.388 -116.873 646.281 -19.6995 662.048 -1.2491C479.713 -98.7064 172.459 -117.226 20.7031 71.2774C-169.441 307.465 -36.7488 542.816 97.327 700.218C112.22 681.719 20.5832 731.342 1.13113 715.682C-184.339 566.368 -154.239 246.321 10.6066 41.5582Z" fill="url(#paint18_linear_0_1235)"/>
</g>
<g filter="url(#filter26_f_0_1235)">
<path d="M10.6066 41.5582C175.453 -163.205 413.466 -281.847 598.936 -132.533C618.388 -116.873 646.281 -19.6995 662.048 -1.2491C479.713 -98.7064 172.459 -117.226 20.7031 71.2774C-169.441 307.465 -36.7488 542.816 97.327 700.218C112.22 681.719 20.5832 731.342 1.13113 715.682C-184.339 566.368 -154.239 246.321 10.6066 41.5582Z" fill="url(#paint19_linear_0_1235)"/>
</g>
<g filter="url(#filter27_f_0_1235)">
<path d="M10.6066 41.5582C175.453 -163.205 413.466 -281.847 598.936 -132.533C618.388 -116.873 646.281 -19.6995 662.048 -1.2491C479.713 -98.7064 172.459 -117.226 20.7031 71.2774C-169.441 307.465 -36.7488 542.816 97.327 700.218C112.22 681.719 20.5832 731.342 1.13113 715.682C-184.339 566.368 -154.239 246.321 10.6066 41.5582Z" fill="url(#paint20_linear_0_1235)"/>
</g>
</g>
<g filter="url(#filter28_f_0_1235)">
<mask id="mask3_0_1235" style="mask-type:alpha" maskUnits="userSpaceOnUse" x="-91" y="-252" width="634" height="359">
<path opacity="0.8" d="M542.245 -38.5501L459.841 -251.019L190.551 -230.458L-90.083 70.0382L110.329 89.6177L160.018 106.5L504.349 2.02789L542.245 -38.5501Z" fill="url(#paint21_linear_0_1235)"/>
</mask>
<g mask="url(#mask3_0_1235)">
<g opacity="0.8">
<path d="M-63.6869 97.2121C-45.8981 50.8821 -88.3847 74.4465 -50.8566 34.2622C-33.5627 15.7444 155.02 -71.0998 174.368 -85.6011C270.181 -134.495 372.871 -132.907 445.714 -80.3656C460.53 -69.7256 473.274 -57.125 485.243 -43.3496C424.687 -113.191 299.062 -81.8468 213.173 -29.6791C91.5601 44.0771 5.37376 181.69 30.5485 332.585C-36.0513 255.401 -3.55614 67.4461 -16.7114 96.1233L-63.6869 97.2121Z" fill="#0375D5"/>
<g filter="url(#filter29_f_0_1235)">
<path d="M-45.7984 111.863C-28.0096 65.5332 -70.4963 89.0976 -32.9681 48.9134C-15.6743 30.3955 172.908 -56.4487 192.256 -70.9499C288.07 -119.844 390.76 -118.256 463.602 -65.7145C478.419 -55.0745 491.162 -42.4739 503.131 -28.6985C442.575 -98.5401 274.315 -75.1882 188.425 -23.0206C66.813 50.7356 -39.3092 149.198 -14.1344 300.093C-80.7342 222.909 14.3323 82.0972 1.17699 110.774L-45.7984 111.863Z" fill="#0375D5"/>
</g>
<g filter="url(#filter30_f_0_1235)">
<path d="M-45.7984 111.863C-28.0096 65.5332 -70.4963 89.0976 -32.9681 48.9134C-15.6743 30.3955 172.908 -56.4487 192.256 -70.9499C288.07 -119.844 390.76 -118.256 463.602 -65.7145C478.419 -55.0745 491.162 -42.4739 503.131 -28.6985C442.575 -98.5401 274.315 -75.1882 188.425 -23.0206C66.813 50.7356 -39.3092 149.198 -14.1344 300.093C-80.7342 222.909 14.3323 82.0972 1.17699 110.774L-45.7984 111.863Z" fill="#0375D5"/>
</g>
<g filter="url(#filter31_f_0_1235)">
<path d="M-45.7984 111.863C-28.0096 65.5332 -70.4963 89.0976 -32.9681 48.9134C-15.6743 30.3955 172.908 -56.4487 192.256 -70.9499C288.07 -119.844 390.76 -118.256 463.602 -65.7145C478.419 -55.0745 491.162 -42.4739 503.131 -28.6985C442.575 -98.5401 274.315 -75.1882 188.425 -23.0206C66.813 50.7356 -39.3092 149.198 -14.1344 300.093C-80.7342 222.909 14.3323 82.0972 1.17699 110.774L-45.7984 111.863Z" fill="#0375D5"/>
</g>
<g filter="url(#filter32_f_0_1235)">
<path d="M-45.7984 111.863C-28.0096 65.5332 -70.4963 89.0976 -32.9681 48.9134C-15.6743 30.3955 172.908 -56.4487 192.256 -70.9499C288.07 -119.844 390.76 -118.256 463.602 -65.7145C478.419 -55.0745 491.162 -42.4739 503.131 -28.6985C442.575 -98.5401 282.167 -96.593 196.277 -44.4253C74.6649 29.3309 -39.3092 149.198 -14.1344 300.093C-80.7342 222.909 14.3323 82.0972 1.17699 110.774L-45.7984 111.863Z" fill="#0375D5"/>
</g>
<g filter="url(#filter33_f_0_1235)">
<path d="M-45.7984 111.863C-28.0096 65.5332 -70.4962 89.0976 -32.9681 48.9134C-15.6742 30.3955 172.908 -56.4484 192.256 -70.9497C288.07 -119.844 390.76 -118.256 463.602 -65.7143C478.419 -55.0743 498.319 -42.13 510.288 -28.3546C449.732 -98.1962 286.195 -100.017 200.306 -47.8492C78.6934 25.907 -39.3091 149.198 -14.1344 300.093C-80.7342 222.909 14.3323 82.0973 1.17704 110.774L-45.7984 111.863Z" fill="#0375D5"/>
</g>
<g filter="url(#filter34_f_0_1235)">
<path d="M-63.6869 97.212C-45.8981 50.8821 -88.3847 74.4465 -50.8566 34.2622C-33.5627 15.7444 156.248 -61.7395 175.597 -76.2407C271.41 -125.135 372.871 -132.907 445.714 -80.3656C460.53 -69.7256 473.274 -57.125 485.243 -43.3496C424.686 -113.191 294.624 -85.9914 208.735 -33.8237C87.1222 39.9325 -23.029 155.164 2.14578 306.06C-64.454 228.876 -3.55614 67.4461 -16.7114 96.1233L-63.6869 97.212Z" fill="#0375D5"/>
</g>
<g filter="url(#filter35_f_0_1235)">
<path d="M-53.5138 100.552C-35.725 54.2219 -78.2116 77.7863 -40.6835 37.6021C-23.3896 19.0842 166.422 -58.3996 185.77 -72.9009C281.583 -121.795 383.045 -129.568 455.887 -77.0258C470.703 -66.3858 483.447 -53.7852 495.416 -40.0098C434.86 -109.851 298.584 -88.4539 212.695 -36.2863C91.0822 37.4699 -19.069 152.702 6.10578 303.597C-60.494 226.413 6.61695 70.786 -6.53834 99.4631L-53.5138 100.552Z" fill="#0375D5"/>
</g>
<g filter="url(#filter36_f_0_1235)">
<path d="M-50.2357 107.719C-32.4469 61.3894 -74.9335 84.9538 -37.4054 44.7695C-20.1115 26.2517 169.7 -51.2321 189.048 -65.7334C284.861 -114.628 386.323 -122.4 459.165 -69.8583C473.982 -59.2183 486.725 -46.6177 498.694 -32.8423C438.138 -102.684 284.861 -95.1103 198.972 -42.9426C77.3596 30.8136 -32.7916 146.046 -7.61686 296.941C-74.2167 219.757 9.89505 77.9534 -3.26023 106.631L-50.2357 107.719Z" fill="#0375D5"/>
</g>
<g filter="url(#filter37_f_0_1235)">
<path d="M-50.2364 107.72C-32.4476 61.3896 -74.9342 84.954 -37.4061 44.7698C-20.1123 26.2519 156.992 -42.3823 176.341 -56.8836C272.154 -105.778 401.703 -117.355 474.546 -64.8133C489.362 -54.1733 486.724 -46.6176 498.693 -32.8422C438.137 -102.684 316.956 -126.726 231.066 -74.5581C109.454 -0.801937 -23.2256 35.8937 1.94916 186.789C-64.6506 109.605 9.8943 77.9537 -3.261 106.631L-50.2364 107.72Z" fill="#0375D5"/>
</g>
<g filter="url(#filter38_f_0_1235)">
<path d="M-50.2364 107.72C-32.4476 61.3896 -74.9342 84.954 -37.4061 44.7698C-20.1123 26.2519 183.075 -49.8487 202.423 -64.35C298.237 -113.244 401.703 -117.355 474.546 -64.8133C489.362 -54.1733 486.724 -46.6176 498.693 -32.8422C438.137 -102.684 316.409 -105.678 230.519 -53.5102C108.907 20.246 -23.2256 35.8937 1.94916 186.789C-64.6506 109.605 9.8943 77.9537 -3.261 106.631L-50.2364 107.72Z" fill="#0375D5"/>
</g>
</g>
</g>
</g>
</g>
<defs>
<filter id="filter0_f_0_1235" x="490.677" y="-417.73" width="1328.15" height="1328.15" filterUnits="userSpaceOnUse" color-interpolation-filters="sRGB">
<feFlood flood-opacity="0" result="BackgroundImageFix"/>
<feBlend mode="normal" in="SourceGraphic" in2="BackgroundImageFix" result="shape"/>
<feGaussianBlur stdDeviation="100" result="effect1_foregroundBlur_0_1235"/>
</filter>
<filter id="filter1_f_0_1235" x="850.108" y="-753.08" width="1339.55" height="1747.78" filterUnits="userSpaceOnUse" color-interpolation-filters="sRGB">
<feFlood flood-opacity="0" result="BackgroundImageFix"/>
<feBlend mode="normal" in="SourceGraphic" in2="BackgroundImageFix" result="shape"/>
<feGaussianBlur stdDeviation="7.26216" result="effect1_foregroundBlur_0_1235"/>
</filter>
<filter id="filter2_f_0_1235" x="787.003" y="-798.019" width="1412.39" height="1820.93" filterUnits="userSpaceOnUse" color-interpolation-filters="sRGB">
<feFlood flood-opacity="0" result="BackgroundImageFix"/>
<feBlend mode="normal" in="SourceGraphic" in2="BackgroundImageFix" result="shape"/>
<feGaussianBlur stdDeviation="21.7865" result="effect1_foregroundBlur_0_1235"/>
</filter>
<filter id="filter3_f_0_1235" x="767.637" y="-817.385" width="1451.13" height="1859.66" filterUnits="userSpaceOnUse" color-interpolation-filters="sRGB">
<feFlood flood-opacity="0" result="BackgroundImageFix"/>
<feBlend mode="normal" in="SourceGraphic" in2="BackgroundImageFix" result="shape"/>
<feGaussianBlur stdDeviation="31.4693" result="effect1_foregroundBlur_0_1235"/>
</filter>
<filter id="filter4_f_0_1235" x="767.637" y="-817.385" width="1451.13" height="1859.66" filterUnits="userSpaceOnUse" color-interpolation-filters="sRGB">
<feFlood flood-opacity="0" result="BackgroundImageFix"/>
<feBlend mode="normal" in="SourceGraphic" in2="BackgroundImageFix" result="shape"/>
<feGaussianBlur stdDeviation="31.4693" result="effect1_foregroundBlur_0_1235"/>
</filter>
<filter id="filter5_f_0_1235" x="680.491" y="-904.531" width="1560.97" height="2032.61" filterUnits="userSpaceOnUse" color-interpolation-filters="sRGB">
<feFlood flood-opacity="0" result="BackgroundImageFix"/>
<feBlend mode="normal" in="SourceGraphic" in2="BackgroundImageFix" result="shape"/>
<feGaussianBlur stdDeviation="75.0423" result="effect1_foregroundBlur_0_1235"/>
</filter>
<filter id="filter6_f_0_1235" x="705.204" y="-892.008" width="1471.46" height="2037" filterUnits="userSpaceOnUse" color-interpolation-filters="sRGB">
<feFlood flood-opacity="0" result="BackgroundImageFix"/>
<feBlend mode="normal" in="SourceGraphic" in2="BackgroundImageFix" result="shape"/>
<feGaussianBlur stdDeviation="45.9937" result="effect1_foregroundBlur_0_1235"/>
</filter>
<filter id="filter7_f_0_1235" x="598.692" y="-998.519" width="1684.48" height="2250.02" filterUnits="userSpaceOnUse" color-interpolation-filters="sRGB">
<feFlood flood-opacity="0" result="BackgroundImageFix"/>
<feBlend mode="normal" in="SourceGraphic" in2="BackgroundImageFix" result="shape"/>
<feGaussianBlur stdDeviation="99.2495" result="effect1_foregroundBlur_0_1235"/>
</filter>
<filter id="filter8_f_0_1235" x="501.863" y="-1095.35" width="1878.14" height="2443.68" filterUnits="userSpaceOnUse" color-interpolation-filters="sRGB">
<feFlood flood-opacity="0" result="BackgroundImageFix"/>
<feBlend mode="normal" in="SourceGraphic" in2="BackgroundImageFix" result="shape"/>
<feGaussianBlur stdDeviation="147.664" result="effect1_foregroundBlur_0_1235"/>
</filter>
<filter id="filter9_f_0_1235" x="1078.9" y="335.133" width="1028.4" height="537.686" filterUnits="userSpaceOnUse" color-interpolation-filters="sRGB">
<feFlood flood-opacity="0" result="BackgroundImageFix"/>
<feBlend mode="normal" in="SourceGraphic" in2="BackgroundImageFix" result="shape"/>
<feGaussianBlur stdDeviation="2.97408" result="effect1_foregroundBlur_0_1235"/>
</filter>
<filter id="filter10_f_0_1235" x="1092.08" y="-52.7909" width="976.596" height="906.273" filterUnits="userSpaceOnUse" color-interpolation-filters="sRGB">
<feFlood flood-opacity="0" result="BackgroundImageFix"/>
<feBlend mode="normal" in="SourceGraphic" in2="BackgroundImageFix" result="shape"/>
<feGaussianBlur stdDeviation="2.97408" result="effect1_foregroundBlur_0_1235"/>
</filter>
<filter id="filter11_f_0_1235" x="1034.98" y="-109.893" width="1090.8" height="1020.48" filterUnits="userSpaceOnUse" color-interpolation-filters="sRGB">
<feFlood flood-opacity="0" result="BackgroundImageFix"/>
<feBlend mode="normal" in="SourceGraphic" in2="BackgroundImageFix" result="shape"/>
<feGaussianBlur stdDeviation="31.5253" result="effect1_foregroundBlur_0_1235"/>
</filter>
<filter id="filter12_f_0_1235" x="1063.53" y="-81.3421" width="1033.7" height="963.375" filterUnits="userSpaceOnUse" color-interpolation-filters="sRGB">
<feFlood flood-opacity="0" result="BackgroundImageFix"/>
<feBlend mode="normal" in="SourceGraphic" in2="BackgroundImageFix" result="shape"/>
<feGaussianBlur stdDeviation="17.2497" result="effect1_foregroundBlur_0_1235"/>
</filter>
<filter id="filter13_f_0_1235" x="1063.53" y="-81.3421" width="1033.7" height="963.375" filterUnits="userSpaceOnUse" color-interpolation-filters="sRGB">
<feFlood flood-opacity="0" result="BackgroundImageFix"/>
<feBlend mode="normal" in="SourceGraphic" in2="BackgroundImageFix" result="shape"/>
<feGaussianBlur stdDeviation="17.2497" result="effect1_foregroundBlur_0_1235"/>
</filter>
<filter id="filter14_f_0_1235" x="1050.35" y="-81.3419" width="1046.88" height="963.375" filterUnits="userSpaceOnUse" color-interpolation-filters="sRGB">
<feFlood flood-opacity="0" result="BackgroundImageFix"/>
<feBlend mode="normal" in="SourceGraphic" in2="BackgroundImageFix" result="shape"/>
<feGaussianBlur stdDeviation="17.2497" result="effect1_foregroundBlur_0_1235"/>
</filter>
<filter id="filter15_f_0_1235" x="1121.18" y="-66.4823" width="995.63" height="945.171" filterUnits="userSpaceOnUse" color-interpolation-filters="sRGB">
<feFlood flood-opacity="0" result="BackgroundImageFix"/>
<feBlend mode="normal" in="SourceGraphic" in2="BackgroundImageFix" result="shape"/>
<feGaussianBlur stdDeviation="7.73261" result="effect1_foregroundBlur_0_1235"/>
</filter>
<filter id="filter16_f_0_1235" x="1098.89" y="-62.7454" width="1000.39" height="941.913" filterUnits="userSpaceOnUse" color-interpolation-filters="sRGB">
<feFlood flood-opacity="0" result="BackgroundImageFix"/>
<feBlend mode="normal" in="SourceGraphic" in2="BackgroundImageFix" result="shape"/>
<feGaussianBlur stdDeviation="8.92225" result="effect1_foregroundBlur_0_1235"/>
</filter>
<filter id="filter17_f_0_1235" x="1098.3" y="-47.9343" width="983.734" height="907.063" filterUnits="userSpaceOnUse" color-interpolation-filters="sRGB">
<feFlood flood-opacity="0" result="BackgroundImageFix"/>
<feBlend mode="normal" in="SourceGraphic" in2="BackgroundImageFix" result="shape"/>
<feGaussianBlur stdDeviation="4.75853" result="effect1_foregroundBlur_0_1235"/>
</filter>
<filter id="filter18_f_0_1235" x="1079.27" y="137.664" width="1021.8" height="734.31" filterUnits="userSpaceOnUse" color-interpolation-filters="sRGB">
<feFlood flood-opacity="0" result="BackgroundImageFix"/>
<feBlend mode="normal" in="SourceGraphic" in2="BackgroundImageFix" result="shape"/>
<feGaussianBlur stdDeviation="14.2756" result="effect1_foregroundBlur_0_1235"/>
</filter>
<filter id="filter19_f_0_1235" x="1079.27" y="137.664" width="1021.8" height="738.841" filterUnits="userSpaceOnUse" color-interpolation-filters="sRGB">
<feFlood flood-opacity="0" result="BackgroundImageFix"/>
<feBlend mode="normal" in="SourceGraphic" in2="BackgroundImageFix" result="shape"/>
<feGaussianBlur stdDeviation="14.2756" result="effect1_foregroundBlur_0_1235"/>
</filter>
<filter id="filter20_f_0_1235" x="-175.017" y="-188.392" width="822.841" height="895.969" filterUnits="userSpaceOnUse" color-interpolation-filters="sRGB">
<feFlood flood-opacity="0" result="BackgroundImageFix"/>
<feBlend mode="normal" in="SourceGraphic" in2="BackgroundImageFix" result="shape"/>
<feGaussianBlur stdDeviation="7.26216" result="effect1_foregroundBlur_0_1235"/>
</filter>
<filter id="filter21_f_0_1235" x="-192.698" y="-213.158" width="887.388" height="962.412" filterUnits="userSpaceOnUse" color-interpolation-filters="sRGB">
<feFlood flood-opacity="0" result="BackgroundImageFix"/>
<feBlend mode="normal" in="SourceGraphic" in2="BackgroundImageFix" result="shape"/>
<feGaussianBlur stdDeviation="21.7865" result="effect1_foregroundBlur_0_1235"/>
</filter>
<filter id="filter22_f_0_1235" x="-212.064" y="-232.524" width="926.119" height="1001.14" filterUnits="userSpaceOnUse" color-interpolation-filters="sRGB">
<feFlood flood-opacity="0" result="BackgroundImageFix"/>
<feBlend mode="normal" in="SourceGraphic" in2="BackgroundImageFix" result="shape"/>
<feGaussianBlur stdDeviation="31.4693" result="effect1_foregroundBlur_0_1235"/>
</filter>
<filter id="filter23_f_0_1235" x="-212.064" y="-232.524" width="926.119" height="1001.14" filterUnits="userSpaceOnUse" color-interpolation-filters="sRGB">
<feFlood flood-opacity="0" result="BackgroundImageFix"/>
<feBlend mode="normal" in="SourceGraphic" in2="BackgroundImageFix" result="shape"/>
<feGaussianBlur stdDeviation="31.4693" result="effect1_foregroundBlur_0_1235"/>
</filter>
<filter id="filter24_f_0_1235" x="-276.219" y="-314.94" width="1077.42" height="1170.71" filterUnits="userSpaceOnUse" color-interpolation-filters="sRGB">
<feFlood flood-opacity="0" result="BackgroundImageFix"/>
<feBlend mode="normal" in="SourceGraphic" in2="BackgroundImageFix" result="shape"/>
<feGaussianBlur stdDeviation="75.0423" result="effect1_foregroundBlur_0_1235"/>
</filter>
<filter id="filter25_f_0_1235" x="-217.904" y="-291.549" width="971.939" height="1102.32" filterUnits="userSpaceOnUse" color-interpolation-filters="sRGB">
<feFlood flood-opacity="0" result="BackgroundImageFix"/>
<feBlend mode="normal" in="SourceGraphic" in2="BackgroundImageFix" result="shape"/>
<feGaussianBlur stdDeviation="45.9937" result="effect1_foregroundBlur_0_1235"/>
</filter>
<filter id="filter26_f_0_1235" x="-324.416" y="-398.061" width="1184.96" height="1315.35" filterUnits="userSpaceOnUse" color-interpolation-filters="sRGB">
<feFlood flood-opacity="0" result="BackgroundImageFix"/>
<feBlend mode="normal" in="SourceGraphic" in2="BackgroundImageFix" result="shape"/>
<feGaussianBlur stdDeviation="99.2495" result="effect1_foregroundBlur_0_1235"/>
</filter>
<filter id="filter27_f_0_1235" x="-421.245" y="-494.889" width="1378.62" height="1509" filterUnits="userSpaceOnUse" color-interpolation-filters="sRGB">
<feFlood flood-opacity="0" result="BackgroundImageFix"/>
<feBlend mode="normal" in="SourceGraphic" in2="BackgroundImageFix" result="shape"/>
<feGaussianBlur stdDeviation="147.664" result="effect1_foregroundBlur_0_1235"/>
</filter>
<filter id="filter28_f_0_1235" x="-72.8583" y="-127.013" width="589.094" height="239.461" filterUnits="userSpaceOnUse" color-interpolation-filters="sRGB">
<feFlood flood-opacity="0" result="BackgroundImageFix"/>
<feBlend mode="normal" in="SourceGraphic" in2="BackgroundImageFix" result="shape"/>
<feGaussianBlur stdDeviation="2.97408" result="effect1_foregroundBlur_0_1235"/>
</filter>
<filter id="filter29_f_0_1235" x="-54.9699" y="-112.362" width="564.049" height="418.403" filterUnits="userSpaceOnUse" color-interpolation-filters="sRGB">
<feFlood flood-opacity="0" result="BackgroundImageFix"/>
<feBlend mode="normal" in="SourceGraphic" in2="BackgroundImageFix" result="shape"/>
<feGaussianBlur stdDeviation="2.97408" result="effect1_foregroundBlur_0_1235"/>
</filter>
<filter id="filter30_f_0_1235" x="-112.072" y="-169.464" width="678.254" height="532.608" filterUnits="userSpaceOnUse" color-interpolation-filters="sRGB">
<feFlood flood-opacity="0" result="BackgroundImageFix"/>
<feBlend mode="normal" in="SourceGraphic" in2="BackgroundImageFix" result="shape"/>
<feGaussianBlur stdDeviation="31.5253" result="effect1_foregroundBlur_0_1235"/>
</filter>
<filter id="filter31_f_0_1235" x="-83.5211" y="-140.913" width="621.152" height="475.506" filterUnits="userSpaceOnUse" color-interpolation-filters="sRGB">
<feFlood flood-opacity="0" result="BackgroundImageFix"/>
<feBlend mode="normal" in="SourceGraphic" in2="BackgroundImageFix" result="shape"/>
<feGaussianBlur stdDeviation="17.2497" result="effect1_foregroundBlur_0_1235"/>
</filter>
<filter id="filter32_f_0_1235" x="-83.5211" y="-140.913" width="621.152" height="475.506" filterUnits="userSpaceOnUse" color-interpolation-filters="sRGB">
<feFlood flood-opacity="0" result="BackgroundImageFix"/>
<feBlend mode="normal" in="SourceGraphic" in2="BackgroundImageFix" result="shape"/>
<feGaussianBlur stdDeviation="17.2497" result="effect1_foregroundBlur_0_1235"/>
</filter>
<filter id="filter33_f_0_1235" x="-83.5211" y="-140.913" width="628.308" height="475.506" filterUnits="userSpaceOnUse" color-interpolation-filters="sRGB">
<feFlood flood-opacity="0" result="BackgroundImageFix"/>
<feBlend mode="normal" in="SourceGraphic" in2="BackgroundImageFix" result="shape"/>
<feGaussianBlur stdDeviation="17.2497" result="effect1_foregroundBlur_0_1235"/>
</filter>
<filter id="filter34_f_0_1235" x="-82.3754" y="-131.937" width="583.083" height="453.462" filterUnits="userSpaceOnUse" color-interpolation-filters="sRGB">
<feFlood flood-opacity="0" result="BackgroundImageFix"/>
<feBlend mode="normal" in="SourceGraphic" in2="BackgroundImageFix" result="shape"/>
<feGaussianBlur stdDeviation="7.73261" result="effect1_foregroundBlur_0_1235"/>
</filter>
<filter id="filter35_f_0_1235" x="-74.5816" y="-130.977" width="587.842" height="452.418" filterUnits="userSpaceOnUse" color-interpolation-filters="sRGB">
<feFlood flood-opacity="0" result="BackgroundImageFix"/>
<feBlend mode="normal" in="SourceGraphic" in2="BackgroundImageFix" result="shape"/>
<feGaussianBlur stdDeviation="8.92225" result="effect1_foregroundBlur_0_1235"/>
</filter>
<filter id="filter36_f_0_1235" x="-62.976" y="-115.482" width="571.187" height="421.94" filterUnits="userSpaceOnUse" color-interpolation-filters="sRGB">
<feFlood flood-opacity="0" result="BackgroundImageFix"/>
<feBlend mode="normal" in="SourceGraphic" in2="BackgroundImageFix" result="shape"/>
<feGaussianBlur stdDeviation="4.75853" result="effect1_foregroundBlur_0_1235"/>
</filter>
<filter id="filter37_f_0_1235" x="-82.0109" y="-131.257" width="609.255" height="346.597" filterUnits="userSpaceOnUse" color-interpolation-filters="sRGB">
<feFlood flood-opacity="0" result="BackgroundImageFix"/>
<feBlend mode="normal" in="SourceGraphic" in2="BackgroundImageFix" result="shape"/>
<feGaussianBlur stdDeviation="14.2756" result="effect1_foregroundBlur_0_1235"/>
</filter>
<filter id="filter38_f_0_1235" x="-82.0109" y="-131.191" width="609.255" height="346.531" filterUnits="userSpaceOnUse" color-interpolation-filters="sRGB">
<feFlood flood-opacity="0" result="BackgroundImageFix"/>
<feBlend mode="normal" in="SourceGraphic" in2="BackgroundImageFix" result="shape"/>
<feGaussianBlur stdDeviation="14.2756" result="effect1_foregroundBlur_0_1235"/>
</filter>
<linearGradient id="paint0_linear_0_1235" x1="2126.8" y1="-1163.76" x2="2126.8" y2="1130.42" gradientUnits="userSpaceOnUse">
<stop stop-color="#C4C4C4" stop-opacity="0"/>
<stop offset="0.380208" stop-color="#C4C4C4"/>
<stop offset="0.578125" stop-color="#C4C4C4"/>
<stop offset="1" stop-color="#C4C4C4" stop-opacity="0"/>
</linearGradient>
<linearGradient id="paint1_linear_0_1235" x1="2064.86" y1="-542.594" x2="1282.12" y2="1054.09" gradientUnits="userSpaceOnUse">
<stop stop-color="#057FE2"/>
<stop offset="1" stop-color="#178AEC"/>
</linearGradient>
<linearGradient id="paint2_linear_0_1235" x1="2051.18" y1="-549.298" x2="1268.45" y2="1047.39" gradientUnits="userSpaceOnUse">
<stop stop-color="#057FE2"/>
<stop offset="1" stop-color="#178AEC"/>
</linearGradient>
<linearGradient id="paint3_linear_0_1235" x1="2025.55" y1="-559.741" x2="1236.95" y2="1048.91" gradientUnits="userSpaceOnUse">
<stop stop-color="#057FE2"/>
<stop offset="1" stop-color="#178AEC"/>
</linearGradient>
<linearGradient id="paint4_linear_0_1235" x1="2025.55" y1="-559.741" x2="1236.95" y2="1048.91" gradientUnits="userSpaceOnUse">
<stop stop-color="#057FE2"/>
<stop offset="1" stop-color="#178AEC"/>
</linearGradient>
<linearGradient id="paint5_linear_0_1235" x1="2025.55" y1="-559.741" x2="1236.95" y2="1048.91" gradientUnits="userSpaceOnUse">
<stop stop-color="white"/>
<stop offset="1" stop-color="#A4D5FF"/>
</linearGradient>
<linearGradient id="paint6_linear_0_1235" x1="1987.95" y1="-578.178" x2="1199.34" y2="1030.48" gradientUnits="userSpaceOnUse">
<stop stop-color="#057FE2"/>
<stop offset="1" stop-color="#178AEC"/>
</linearGradient>
<linearGradient id="paint7_linear_0_1235" x1="2000.12" y1="-653.841" x2="1148.67" y2="1083.03" gradientUnits="userSpaceOnUse">
<stop stop-color="#057FE2"/>
<stop offset="1" stop-color="#178AEC"/>
</linearGradient>
<linearGradient id="paint8_linear_0_1235" x1="2000.12" y1="-653.841" x2="1148.67" y2="1083.03" gradientUnits="userSpaceOnUse">
<stop stop-color="#057FE2"/>
<stop offset="1" stop-color="#178AEC"/>
</linearGradient>
<linearGradient id="paint9_linear_0_1235" x1="2000.12" y1="-653.841" x2="1148.67" y2="1083.03" gradientUnits="userSpaceOnUse">
<stop stop-color="#057FE2"/>
<stop offset="1" stop-color="#178AEC"/>
</linearGradient>
<linearGradient id="paint10_linear_0_1235" x1="1826.2" y1="471.506" x2="1091.83" y2="630.37" gradientUnits="userSpaceOnUse">
<stop stop-color="#C4C4C4" stop-opacity="0"/>
<stop offset="0.565737" stop-color="#C4C4C4"/>
<stop offset="1" stop-color="#C4C4C4" stop-opacity="0"/>
</linearGradient>
<linearGradient id="paint11_linear_0_1235" x1="604.323" y1="953.774" x2="604.323" y2="2182.01" gradientUnits="userSpaceOnUse">
<stop stop-color="#C4C4C4" stop-opacity="0"/>
<stop offset="0.380208" stop-color="#C4C4C4"/>
<stop offset="0.578125" stop-color="#C4C4C4"/>
<stop offset="1" stop-color="#C4C4C4" stop-opacity="0"/>
</linearGradient>
<linearGradient id="paint12_linear_0_1235" x1="-155.923" y1="540.174" x2="441.076" y2="-201.389" gradientUnits="userSpaceOnUse">
<stop stop-color="#057FE2"/>
<stop offset="1" stop-color="#178AEC"/>
</linearGradient>
<linearGradient id="paint13_linear_0_1235" x1="-149.571" y1="545.287" x2="447.428" y2="-196.275" gradientUnits="userSpaceOnUse">
<stop stop-color="#057FE2"/>
<stop offset="1" stop-color="#178AEC"/>
</linearGradient>
<linearGradient id="paint14_linear_0_1235" x1="-137.42" y1="553.761" x2="464.054" y2="-193.359" gradientUnits="userSpaceOnUse">
<stop stop-color="#057FE2"/>
<stop offset="1" stop-color="#178AEC"/>
</linearGradient>
<linearGradient id="paint15_linear_0_1235" x1="-137.42" y1="553.761" x2="464.054" y2="-193.359" gradientUnits="userSpaceOnUse">
<stop stop-color="#057FE2"/>
<stop offset="1" stop-color="#178AEC"/>
</linearGradient>
<linearGradient id="paint16_linear_0_1235" x1="-137.42" y1="553.761" x2="464.054" y2="-193.359" gradientUnits="userSpaceOnUse">
<stop stop-color="#057FE2"/>
<stop offset="1" stop-color="#178AEC"/>
</linearGradient>
<linearGradient id="paint17_linear_0_1235" x1="-119.953" y1="567.823" x2="481.521" y2="-179.297" gradientUnits="userSpaceOnUse">
<stop stop-color="#057FE2"/>
<stop offset="1" stop-color="#178AEC"/>
</linearGradient>
<linearGradient id="paint18_linear_0_1235" x1="-135.232" y1="605.901" x2="514.18" y2="-200.766" gradientUnits="userSpaceOnUse">
<stop stop-color="#057FE2"/>
<stop offset="1" stop-color="#178AEC"/>
</linearGradient>
<linearGradient id="paint19_linear_0_1235" x1="-135.232" y1="605.901" x2="514.18" y2="-200.766" gradientUnits="userSpaceOnUse">
<stop stop-color="#057FE2"/>
<stop offset="1" stop-color="#178AEC"/>
</linearGradient>
<linearGradient id="paint20_linear_0_1235" x1="-135.232" y1="605.901" x2="514.18" y2="-200.766" gradientUnits="userSpaceOnUse">
<stop stop-color="#057FE2"/>
<stop offset="1" stop-color="#178AEC"/>
</linearGradient>
<linearGradient id="paint21_linear_0_1235" x1="88.264" y1="38.7159" x2="490.499" y2="42.3262" gradientUnits="userSpaceOnUse">
<stop stop-color="#C4C4C4" stop-opacity="0"/>
<stop offset="0.565737" stop-color="#C4C4C4"/>
<stop offset="1" stop-color="#C4C4C4" stop-opacity="0"/>
</linearGradient>
<clipPath id="clip0_0_1235">
<rect width="1880" height="800" fill="white"/>
</clipPath>
</defs>
</svg>
