<svg width="170" height="80" viewBox="0 0 170 80" fill="none" xmlns="http://www.w3.org/2000/svg">
<path d="M55.3692 41.333V48.187H59.595C60.6007 48.187 61.4331 47.8491 62.092 47.1731C62.7685 46.4972 63.1072 45.6926 63.1072 44.7605C63.1072 43.8464 62.7685 43.052 62.092 42.3745C61.4331 41.6805 60.6007 41.333 59.595 41.333H55.3692ZM55.3692 50.6006V58.5513H52.8449V38.9208H59.5399C61.2413 38.9208 62.6867 39.4878 63.8757 40.6207C65.0833 41.7535 65.6866 43.1337 65.6866 44.7605C65.6866 46.424 65.0833 47.8121 63.8757 48.9269C62.7049 50.0433 61.2594 50.6006 59.5399 50.6006H55.3692Z" fill="#6F7173"/>
<path d="M69.1721 54.4376C69.1721 55.0959 69.4503 55.6447 70.0087 56.0836C70.5666 56.5224 71.2204 56.7418 71.9711 56.7418C73.0318 56.7418 73.9785 56.3484 74.8105 55.5625C75.6431 54.7771 76.0595 53.854 76.0595 52.7932C75.2724 52.1718 74.1753 51.8616 72.7668 51.8616C71.7419 51.8616 70.8867 52.1072 70.2005 52.6016C69.5149 53.0949 69.1721 53.7077 69.1721 54.4376ZM72.4371 44.6787C74.303 44.6787 75.7758 45.1765 76.8551 46.1717C77.9346 47.169 78.4743 48.5349 78.4743 50.2711V58.5512H76.0595V56.6863H75.95C74.9064 58.2223 73.5165 58.989 71.7788 58.989C70.297 58.989 69.0571 58.5512 68.0609 57.6735C67.0629 56.7958 66.565 55.6987 66.565 54.3837C66.565 52.995 67.0906 51.8878 68.1427 51.0656C69.1949 50.2434 70.5989 49.8323 72.3553 49.8323C73.8548 49.8323 75.0896 50.1062 76.0595 50.6545V50.0784C76.0595 49.2017 75.7122 48.4568 75.017 47.8448C74.3218 47.232 73.5074 46.9258 72.5739 46.9258C71.1659 46.9258 70.0496 47.5196 69.2272 48.7074L67.0043 47.3102C68.229 45.5548 70.0405 44.6787 72.4371 44.6787Z" fill="#6F7173"/>
<path d="M97.0791 58.7695C95.981 58.7695 95.0712 58.4316 94.3493 57.7556C93.6258 57.0797 93.2547 56.1375 93.237 54.9319V47.4201H90.8768V45.116H93.237V41.0039H95.7614V45.116H99.0541V47.4201H95.7614V54.1097C95.7614 55.0051 95.9355 55.6129 96.2829 55.9322C96.6307 56.2525 97.0235 56.4124 97.4628 56.4124C97.6647 56.4124 97.8616 56.3897 98.0534 56.3433C98.2452 56.2979 98.4229 56.2383 98.5886 56.1652L99.3838 58.4139C98.7249 58.651 97.9575 58.7695 97.0791 58.7695ZM81.3278 45.116H83.743V47.3102H83.8521C84.6029 45.5916 86.1488 44.7326 88.4903 44.7326L89.0113 44.7871V47.4201L87.887 47.3102C86.7157 47.3102 85.7505 47.6708 84.9917 48.3936C84.2323 49.1149 83.8521 50.033 83.8521 51.1477V58.5511H81.3278V45.116Z" fill="#6F7173"/>
<path d="M101.606 45.1161H104.021V46.9814H104.131C104.514 46.3231 105.105 45.7743 105.901 45.3355C106.697 44.8966 107.524 44.6788 108.385 44.6788C110.03 44.6788 111.298 45.1488 112.185 46.0896C113.072 47.0318 113.515 48.3696 113.515 50.1063V58.5513H110.991V50.2712C110.937 48.077 109.829 46.9814 107.671 46.9814C106.664 46.9814 105.822 47.3874 105.145 48.2006C104.469 49.0142 104.131 49.9877 104.131 51.1211V58.5513H101.606V45.1161Z" fill="#6F7173"/>
<path d="M118.482 50.2157H126.194C126.12 49.284 125.74 48.5122 125.054 47.8993C124.369 47.2875 123.449 46.9813 122.295 46.9813C121.345 46.9813 120.526 47.2738 119.841 47.8575C119.154 48.4441 118.701 49.2295 118.482 50.2157ZM122.516 58.989C120.54 58.989 118.912 58.3131 117.632 56.9597C116.351 55.6079 115.711 53.8994 115.711 51.8338C115.711 49.7868 116.332 48.0819 117.577 46.72C118.821 45.3596 120.411 44.6787 122.351 44.6787C124.346 44.6787 125.932 45.3217 127.112 46.6106C128.292 47.8993 128.882 49.7052 128.882 52.0255L128.855 52.3004H118.289C118.326 53.6154 118.765 54.6762 119.608 55.4808C120.448 56.2853 121.455 56.6863 122.625 56.6863C124.236 56.6863 125.498 55.8828 126.413 54.2737L128.662 55.3708C128.058 56.5032 127.222 57.39 126.152 58.0291C125.081 58.6697 123.87 58.989 122.516 58.989Z" fill="#6F7173"/>
<path d="M133.712 58.5513H131.187V45.1161H133.602V47.3103H133.712C133.967 46.5965 134.493 45.9902 135.29 45.4869C136.085 44.9839 136.867 44.7327 137.636 44.7327C138.367 44.7327 138.989 44.8426 139.501 45.0621L138.733 47.502C138.422 47.3749 137.928 47.3103 137.251 47.3103C136.299 47.3103 135.471 47.6936 134.768 48.4619C134.064 49.2296 133.712 50.125 133.712 51.1478V58.5513Z" fill="#6F7173"/>
<path d="M58.5645 27.4493V29.1613H62.6655C62.5333 30.2423 62.0844 31.0832 61.3195 31.6849C60.5744 32.2761 59.656 32.5712 58.5645 32.5712C57.2999 32.5712 56.2331 32.1277 55.3662 31.241C54.4989 30.3643 54.0651 29.2894 54.0651 28.0153C54.0651 26.7406 54.4989 25.6657 55.3662 24.7885C56.2331 23.9017 57.2999 23.4584 58.5645 23.4584C59.7479 23.4584 60.7784 23.8664 61.6558 24.6815L62.8649 23.4735C61.6508 22.3219 60.218 21.7458 58.5645 21.7458C57.4422 21.7458 56.3815 22.0313 55.3808 22.6018C54.3919 23.1628 53.6108 23.9325 53.0398 24.9111C52.4789 25.8695 52.1977 26.904 52.1977 28.0153C52.1977 29.1361 52.4789 30.1756 53.0398 31.134C53.6007 32.1025 54.3818 32.8667 55.3808 33.4277C56.3815 33.9987 57.4422 34.2837 58.5645 34.2837C60.2583 34.2837 61.6609 33.754 62.773 32.6937C63.8747 31.6435 64.4259 30.2529 64.4259 28.5197C64.4259 28.1121 64.3952 27.7544 64.3342 27.4493H58.5645Z" fill="#4F77C4"/>
<path d="M70.7004 31.9906C70.2612 32.4597 69.726 32.6937 69.094 32.6937C68.4507 32.6937 67.9101 32.4597 67.4713 31.9906C67.0325 31.5214 66.8129 30.9409 66.8129 30.2473C66.8129 29.5341 67.0325 28.9525 67.4713 28.5045C67.9101 28.0354 68.4507 27.8009 69.094 27.8009C69.7361 27.8009 70.2773 28.0354 70.7156 28.5045C71.1543 28.9525 71.3739 29.5341 71.3739 30.2473C71.3739 30.9298 71.1492 31.5114 70.7004 31.9906ZM69.094 26.2104C67.9403 26.2104 66.9765 26.5983 66.2011 27.3726C65.4256 28.1373 65.0379 29.0957 65.0379 30.2473C65.0379 31.3793 65.4306 32.3366 66.2162 33.122C66.9917 33.8968 67.9509 34.2837 69.094 34.2837C70.236 34.2837 71.1951 33.8968 71.9711 33.122C72.7563 32.3366 73.149 31.3793 73.149 30.2473C73.149 29.0957 72.7563 28.1373 71.9711 27.3726C71.1951 26.5983 70.236 26.2104 69.094 26.2104Z" fill="#EE282A"/>
<path d="M91.6972 34.0388H93.4719V22.1738H91.6972V34.0388Z" fill="#1DAF47"/>
<path d="M79.5457 31.9906C79.1069 32.4597 78.5713 32.6937 77.9392 32.6937C77.2961 32.6937 76.7553 32.4597 76.3165 31.9906C75.8779 31.5214 75.6593 30.9409 75.6593 30.2473C75.6593 29.5341 75.8779 28.9525 76.3165 28.5045C76.7553 28.0354 77.2961 27.8009 77.9392 27.8009C78.5814 27.8009 79.1226 28.0354 79.5608 28.5045C79.9996 28.9525 80.2192 29.5341 80.2192 30.2473C80.2192 30.9298 79.9946 31.5114 79.5457 31.9906ZM77.9392 26.2104C76.7861 26.2104 75.8218 26.5983 75.0468 27.3726C74.2713 28.1373 73.8836 29.0957 73.8836 30.2473C73.8836 31.3793 74.2764 32.3366 75.0619 33.122C75.837 33.8968 76.7961 34.2837 77.9392 34.2837C79.0812 34.2837 80.0405 33.8968 80.8164 33.122C81.602 32.3366 81.9943 31.3793 81.9943 30.2473C81.9943 29.0957 81.602 28.1373 80.8164 27.3726C80.0405 26.5983 79.0812 26.2104 77.9392 26.2104Z" fill="#F9AF0B"/>
<path d="M96.7015 28.443C97.1498 27.9951 97.6496 27.7706 98.2015 27.7706C98.5472 27.7706 98.8588 27.8493 99.1349 28.0077C99.4101 28.1651 99.5984 28.3719 99.7003 28.6266L96.0896 30.1248C96.0684 29.4423 96.2729 28.8814 96.7015 28.443ZM98.3387 32.6937C97.4517 32.6937 96.7974 32.2862 96.3799 31.4706L101.782 29.2384L101.599 28.7795C101.455 28.4021 101.27 28.0561 101.04 27.7393C100.81 27.4236 100.548 27.1511 100.252 26.9217C99.9559 26.6922 99.6287 26.5161 99.2728 26.394C98.9158 26.2715 98.5382 26.2104 98.1393 26.2104C97.059 26.2104 96.1502 26.5928 95.4156 27.3575C94.691 28.1323 94.3292 29.0957 94.3292 30.2473C94.3292 31.3893 94.7113 32.3478 95.4776 33.122C96.242 33.8968 97.1962 34.2837 98.3387 34.2837C99.7675 34.2837 100.89 33.688 101.706 32.495L100.328 31.5775C99.8282 32.3214 99.1658 32.6937 98.3387 32.6937Z" fill="#EE282A"/>
<path d="M88.2843 32.0055C87.8653 32.4641 87.3554 32.6935 86.7535 32.6935C86.121 32.6935 85.5858 32.4596 85.1472 31.9904C84.7185 31.5213 84.5039 30.9458 84.5039 30.2623C84.5039 29.5692 84.723 28.9886 85.1623 28.5195C85.6111 28.0403 86.1412 27.8008 86.7535 27.8008C87.3655 27.8008 87.8754 28.0353 88.2843 28.5044C88.7024 28.9836 88.9119 29.5692 88.9119 30.2623C88.9119 30.9458 88.7024 31.5263 88.2843 32.0055ZM88.7892 27.1127H88.7276C88.2178 26.5109 87.5094 26.2102 86.6006 26.2102C85.5601 26.2102 84.6519 26.6082 83.8769 27.4033C83.1115 28.1982 82.7289 29.1521 82.7289 30.2623C82.7289 31.363 83.1115 32.3112 83.8769 33.1068C84.6625 33.8916 85.5702 34.2835 86.6006 34.2835C87.5094 34.2835 88.2178 33.9779 88.7276 33.3659H88.7892V33.7792C88.7892 35.4709 88.0698 36.3174 86.6309 36.3174C86.1725 36.3174 85.7646 36.1846 85.4071 35.9199C85.0502 35.6545 84.7796 35.3079 84.5963 34.8803L83.0499 35.5219C83.2034 35.879 83.3973 36.2028 83.632 36.4929C83.8667 36.7834 84.1394 37.0337 84.4504 37.243C84.7614 37.4513 85.1011 37.6142 85.4687 37.7323C85.8358 37.8487 86.2235 37.9072 86.6309 37.9072C87.8351 37.9072 88.7766 37.5426 89.4546 36.8146C90.1337 36.0858 90.473 35.0488 90.473 33.703V26.455H88.7892V27.1127Z" fill="#4F77C4"/>
<path d="M29.5 65H42.3776V16.1066H29.5V65Z" fill="#4F77C4"/>
</svg>
