<svg width="170" height="80" viewBox="0 0 170 80" fill="none" xmlns="http://www.w3.org/2000/svg">
<path fill-rule="evenodd" clip-rule="evenodd" d="M140.5 27.4975C140.5 29.4327 138.933 31 137.003 31C135.067 31 133.5 29.4327 133.5 27.4975C133.5 25.5623 135.067 24 137.003 24C138.938 24 140.5 25.5673 140.5 27.4975Z" fill="#FE2C55"/>
<path fill-rule="evenodd" clip-rule="evenodd" d="M140.5 38C140.5 39.6576 138.933 41 137.003 41C135.067 41 133.5 39.6576 133.5 38C133.5 36.3468 135.067 35 137.003 35C138.938 35 140.5 36.3424 140.5 38Z" fill="#25F4EE"/>
<path fill-rule="evenodd" clip-rule="evenodd" d="M29.5 19H30.1439H46.5L44.9384 23.6878L40.5274 23.6832L40.537 40.0189V41H35.0305V40.6622V23.6832H30.1487L29.5048 23.6925L29.5 19Z" fill="#232332"/>
<path fill-rule="evenodd" clip-rule="evenodd" d="M74.505 19.0046H75.1711H92.5L90.8844 23.6859L85.9134 23.6812L85.9234 40.0101V41H80.2266C80.2266 41 80.2266 40.8335 80.2266 40.6531V23.6812H75.1711L74.505 23.6905L74.5 19L74.505 19.0046Z" fill="#232332"/>
<path fill-rule="evenodd" clip-rule="evenodd" d="M47.5 26.4812V26H53.4894L53.4947 26.4812L53.5 39.6212L53.4842 41H47.537V40.2505L47.5 26.4812Z" fill="#232332"/>
<path fill-rule="evenodd" clip-rule="evenodd" d="M55.5 20.0333V19H56.5765H59.944H60.8443V19.8996L60.849 29.2135L66.2457 24.1298H72.6903L65.9266 30.4913L73.5 40.9908H67.5556L62.4971 33.7113L60.8967 35.2151V41L55.5238 40.9908V40.5248L55.5 20.0333Z" fill="#232332"/>
<path fill-rule="evenodd" clip-rule="evenodd" d="M111.5 20.0333V19H112.576H115.944H116.844V19.8996L116.849 29.2135L122.246 24.1298H128.69L121.922 30.4913L129.5 40.9908H123.556L118.497 33.7113L116.897 35.2151V41L111.524 40.9908V40.5248L111.5 20.0333Z" fill="#232332"/>
<path fill-rule="evenodd" clip-rule="evenodd" d="M104.428 33.1755C104.316 33.5519 104.164 33.9004 103.963 34.2256C103.762 34.5509 103.527 34.8436 103.248 35.1084C102.969 35.3733 102.656 35.6009 102.318 35.7868C101.975 35.9773 101.608 36.1213 101.217 36.2235C100.879 36.3118 100.531 36.3583 100.169 36.3722C100.188 36.3722 100.208 36.3722 100.228 36.3722C100.188 36.3722 100.149 36.3769 100.11 36.3769C100.091 36.3769 100.066 36.3722 100.047 36.3722C100.027 36.3722 100.012 36.3769 99.9927 36.3769C99.7332 36.3769 99.4835 36.3536 99.2338 36.3165C99.0723 36.2932 98.9107 36.2607 98.7492 36.2235C98.3526 36.1213 97.9854 35.9773 97.6427 35.7868C97.3001 35.6009 96.9916 35.3733 96.7126 35.1084C96.4335 34.8436 96.1936 34.5509 95.9978 34.2256C95.7971 33.9004 95.6453 33.5519 95.5327 33.1755C95.4201 32.7992 95.3663 32.4089 95.3663 32C95.3663 31.5911 95.4201 31.2008 95.5327 30.8198C95.6404 30.4435 95.7971 30.095 95.9978 29.7697C96.1985 29.4491 96.4335 29.1564 96.7126 28.8916C96.9916 28.6267 97.3001 28.4037 97.6427 28.2179C97.9854 28.032 98.3526 27.888 98.7492 27.7858C98.9107 27.7439 99.0772 27.7161 99.2436 27.6882C99.4835 27.651 99.7332 27.6324 99.9878 27.6324C100.007 27.6324 100.027 27.6324 100.051 27.6371C100.071 27.6371 100.086 27.6324 100.105 27.6324C100.149 27.6324 100.193 27.6371 100.242 27.6371H100.193C100.751 27.6603 101.285 27.7672 101.784 27.9716C102.347 28.1946 102.832 28.5013 103.248 28.8962C103.664 29.2912 103.992 29.7512 104.232 30.2808C104.477 30.8105 104.595 31.3867 104.595 32C104.595 32.4089 104.541 32.7992 104.428 33.1755ZM108.731 28.4548C108.232 27.3629 107.556 26.4104 106.705 25.602C105.853 24.7935 104.849 24.1569 103.694 23.697C103.586 23.6551 103.483 23.6133 103.376 23.5761C103.336 23.5622 103.297 23.5483 103.258 23.5343C103.19 23.5111 103.126 23.4879 103.057 23.4693C103.008 23.4553 102.955 23.4368 102.906 23.4228C102.852 23.4042 102.798 23.3903 102.749 23.3764C102.69 23.3578 102.627 23.3392 102.568 23.3252C102.543 23.3206 102.519 23.316 102.499 23.3067C102.23 23.2416 101.961 23.1859 101.687 23.1394C101.677 23.1347 101.667 23.1347 101.657 23.1347C101.559 23.1208 101.461 23.1069 101.368 23.0929C101.158 23.065 100.947 23.0465 100.732 23.0279C100.57 23.0186 100.409 23.0093 100.252 23.0046C100.169 23 100.091 23 100.007 23C99.9339 23 99.8556 23 99.7821 23.0046C99.6059 23.0093 99.4346 23.0139 99.2632 23.0279C98.8911 23.0511 98.5289 23.1022 98.1715 23.1626C98.1127 23.1719 98.054 23.1859 97.9903 23.1951C97.9365 23.2044 97.8826 23.2184 97.8288 23.2277C97.7064 23.2555 97.5791 23.2834 97.4567 23.3113C96.6391 23.525 95.8803 23.8178 95.1802 24.2034C94.4753 24.5891 93.8388 25.0537 93.266 25.5927C92.6932 26.1363 92.1988 26.7403 91.7925 27.4001C91.3812 28.0645 91.063 28.7847 90.8378 29.5607C90.6126 30.3366 90.5 31.1451 90.5 31.9861C90.5 32.8271 90.6126 33.6309 90.8427 34.4068C91.0679 35.1781 91.3861 35.8983 91.7973 36.5674C92.2086 37.2364 92.6981 37.8405 93.2758 38.3841C93.8486 38.9277 94.49 39.3924 95.1949 39.7827C95.8999 40.1729 96.6587 40.4703 97.4763 40.6794C97.6085 40.7119 97.7407 40.7444 97.8728 40.7723C97.9169 40.7816 97.9659 40.7909 98.0099 40.8002C98.098 40.8188 98.1862 40.8327 98.2743 40.8513C98.3281 40.8606 98.382 40.8699 98.4358 40.8792C98.524 40.8931 98.617 40.9024 98.71 40.9164C98.7541 40.921 98.803 40.9303 98.8471 40.935C98.9939 40.9489 99.1408 40.9628 99.2877 40.9721C99.4737 40.9861 99.6598 40.9907 99.8458 40.9954C99.9045 40.9954 99.9633 41 100.027 41C100.086 41 100.144 41 100.203 40.9954C100.389 40.9907 100.58 40.9861 100.761 40.9721C100.938 40.9582 101.109 40.9396 101.28 40.921C101.393 40.9071 101.501 40.8931 101.608 40.8745C101.667 40.8653 101.731 40.856 101.789 40.842C101.868 40.8281 101.946 40.8141 102.024 40.8002C102.073 40.7909 102.122 40.7816 102.171 40.7723C102.299 40.7444 102.426 40.7166 102.553 40.684C103.356 40.475 104.115 40.1729 104.82 39.7873C105.525 39.397 106.161 38.9324 106.734 38.3887C107.307 37.8451 107.801 37.2411 108.208 36.572C108.619 35.9029 108.937 35.1828 109.162 34.4115C109.387 33.6402 109.5 32.8317 109.5 31.9907C109.5 30.7223 109.25 29.5374 108.751 28.4455L108.731 28.4548Z" fill="#232332"/>
<path fill-rule="evenodd" clip-rule="evenodd" d="M53.5 21.5C53.5 22.8816 52.1579 24 50.5 24C48.8421 24 47.5 22.8816 47.5 21.5C47.5 20.1184 48.8421 19 50.5 19C52.1579 19 53.5 20.1184 53.5 21.5Z" fill="#232332"/>
<path fill-rule="evenodd" clip-rule="evenodd" d="M38.4404 51.3209V54.4535H43.2544V56.7562H38.4404V62H35.5V49H44.5V51.3209H38.4404Z" fill="#232332"/>
<path fill-rule="evenodd" clip-rule="evenodd" d="M51.8519 57.5089C51.8519 56.1607 50.7975 55.2545 49.5024 55.2545C48.2073 55.2545 47.1529 56.1607 47.1529 57.5089C47.1529 58.8393 48.2121 59.7455 49.5024 59.7455C50.7975 59.7455 51.8519 58.8393 51.8519 57.5089ZM44.5 57.5089C44.5 54.7723 46.8495 53 49.4976 53C52.1456 53 54.5 54.7723 54.5 57.5089C54.5 60.2232 52.1505 62 49.4976 62C46.8495 62 44.5 60.2277 44.5 57.5089Z" fill="#232332"/>
<path fill-rule="evenodd" clip-rule="evenodd" d="M62.5 53.2777L61.797 55.6313C61.1393 55.349 60.6006 55.3126 60.2264 55.3126C58.6559 55.3126 57.573 56.478 57.573 58.9863V62H54.5V53.2231H57.5503V55.0895C58.1627 53.6191 59.4043 53 60.7651 53C61.349 53 62.0067 53.0774 62.5 53.2822V53.2777Z" fill="#232332"/>
<path fill-rule="evenodd" clip-rule="evenodd" d="M73.7624 58.0193C73.7624 57.2076 73.195 56.3595 71.9043 56.3595H69.2234V59.6791H71.8664C73.1383 59.6791 73.7624 58.8857 73.7624 58.0193ZM69.2234 51.3209V54.1708H71.6868C72.5473 54.1708 73.0768 53.6236 73.0768 52.739C73.0768 51.9456 72.6466 51.3255 71.6868 51.3255H69.2234V51.3209ZM76.5 58.2838C76.5 60.0758 75.2281 62 72.2541 62H66.5V49H71.8428C74.2494 49 75.7955 50.3953 75.7955 52.3606C75.7955 53.3227 75.4031 54.6222 73.9374 55.06C75.6584 55.3427 76.5 56.8155 76.5 58.2838Z" fill="#232332"/>
<path fill-rule="evenodd" clip-rule="evenodd" d="M87.5 53V61.7903H84.915V60.3587C84.5191 61.5076 83.0597 62 82.1535 62C79.745 62 78.4811 60.4726 78.5002 57.8283V53H81.0852V57.5638C81.0852 58.9407 81.9532 59.5653 82.8403 59.5653C83.7656 59.5653 84.915 59.0912 84.915 57.5091V53H87.5Z" fill="#232332"/>
<path fill-rule="evenodd" clip-rule="evenodd" d="M88.5 59.061H91.0229C91.0229 59.5613 91.4938 60.0973 92.4405 60.0973C93.2187 60.0973 93.8135 59.8025 93.8135 59.3022C93.8135 58.9315 93.4864 58.7484 92.7677 58.5831L91.4988 58.3062C89.0353 57.7166 88.7082 56.4749 88.7082 55.5682C88.7082 54.2372 90.2447 53 92.4603 53C94.2051 53 96.2522 53.7772 96.2323 55.8094H93.6698C93.6698 55.2377 93.1394 54.9206 92.5 54.9206C91.8854 54.9206 91.3947 55.1975 91.3947 55.6397C91.3947 56.0462 91.8061 56.2516 92.3364 56.3811L93.9176 56.7519C96.2125 57.3057 96.5 58.601 96.5 59.3022C96.5 61.1156 94.448 62 92.4802 62C90.4727 62 88.5198 60.9638 88.5 59.061Z" fill="#232332"/>
<path fill-rule="evenodd" clip-rule="evenodd" d="M97.8275 62H100.194V53.4194H97.8275V62ZM97.5 50.4375C97.5 49.6275 98.1856 49 99.0022 49C99.8319 49 100.5 49.6275 100.5 50.4375C100.5 51.2475 99.8319 51.8928 99.0022 51.8928C98.19 51.8928 97.5 51.2475 97.5 50.4375Z" fill="#232332"/>
<path fill-rule="evenodd" clip-rule="evenodd" d="M111.495 57.1791V62H108.91V57.4431C108.91 56.0501 108.042 55.4264 107.155 55.4264C106.23 55.4264 105.085 55.8953 105.085 57.4977V62H102.5V53.2231H105.085V54.6935C105.481 53.5053 106.94 53 107.846 53C110.255 53 111.519 54.5432 111.5 57.1791H111.495Z" fill="#232332"/>
<path fill-rule="evenodd" clip-rule="evenodd" d="M120.826 56.7251C120.747 55.7067 119.805 55.0993 118.601 55.0993C117.521 55.0993 116.559 55.5593 116.273 56.7251H120.826ZM123.461 58.2973H116.273C116.559 59.2933 117.457 59.8516 118.744 59.8516C119.706 59.8516 120.663 59.4988 121.236 58.8913L122.809 60.3161C121.911 61.406 120.239 62 118.562 62C115.641 62 113.5 60.1911 113.5 57.529C113.5 54.7375 115.829 53 118.562 53C121.275 53 123.5 54.7375 123.5 57.3816C123.5 57.6228 123.48 57.9176 123.461 58.3062V58.2973Z" fill="#232332"/>
<path fill-rule="evenodd" clip-rule="evenodd" d="M123.505 59.061H126.028C126.028 59.5613 126.499 60.0973 127.445 60.0973C128.224 60.0973 128.818 59.8025 128.818 59.3022C128.818 58.9315 128.491 58.7484 127.773 58.5831L126.499 58.3062C124.035 57.7166 123.708 56.4749 123.708 55.5682C123.708 54.2372 125.245 53 127.46 53C129.205 53 131.257 53.7772 131.237 55.8094H128.675C128.675 55.2377 128.139 54.9206 127.505 54.9206C126.89 54.9206 126.395 55.1975 126.395 55.6397C126.395 56.0462 126.806 56.2516 127.336 56.3811L128.918 56.7519C131.213 57.3057 131.5 58.601 131.5 59.3022C131.5 61.1156 129.448 62 127.48 62C125.468 62 123.52 60.9638 123.5 59.061H123.505Z" fill="#232332"/>
<path fill-rule="evenodd" clip-rule="evenodd" d="M132.51 59.061H135.033C135.033 59.5613 135.504 60.0973 136.45 60.0973C137.229 60.0973 137.823 59.8025 137.823 59.3022C137.823 58.9315 137.496 58.7484 136.778 58.5831L135.504 58.3062C133.04 57.7166 132.713 56.4749 132.713 55.5682C132.713 54.2372 134.25 53 136.465 53C138.21 53 140.257 53.7772 140.237 55.8094H137.675C137.675 55.2377 137.139 54.9206 136.505 54.9206C135.89 54.9206 135.395 55.1975 135.395 55.6397C135.395 56.0462 135.806 56.2516 136.336 56.3811L137.918 56.7519C140.213 57.3057 140.5 58.601 140.5 59.3022C140.5 61.1156 138.448 62 136.48 62C134.473 62 132.52 60.9638 132.5 59.061H132.51Z" fill="#232332"/>
</svg>
