<svg width="20" height="21" viewBox="0 0 20 21" fill="none" xmlns="http://www.w3.org/2000/svg">
<g clip-path="url(#clip0_6036_3923)">
<path d="M15.8063 12.8893C15.3969 12.4629 14.903 12.235 14.3796 12.235C13.8604 12.235 13.3623 12.4587 12.9359 12.8851L11.6021 14.2147C11.4923 14.1556 11.3826 14.1007 11.277 14.0459C11.1251 13.9699 10.9816 13.8981 10.8591 13.8222C9.60969 13.0286 8.4742 11.9944 7.38515 10.6563C6.8575 9.98936 6.50293 9.42795 6.24544 8.8581C6.59157 8.54151 6.91238 8.21226 7.22474 7.89568C7.34294 7.77749 7.46113 7.65507 7.57932 7.53688C8.46576 6.65044 8.46576 5.50229 7.57932 4.61585L6.42695 3.46348C6.29609 3.33263 6.16102 3.19755 6.03438 3.06248C5.78111 2.80077 5.51518 2.53061 5.24081 2.27734C4.83136 1.87211 4.34171 1.65684 3.82673 1.65684C3.31175 1.65684 2.81366 1.87211 2.39154 2.27734L2.3831 2.28579L0.947913 3.73364C0.407607 4.27394 0.0994644 4.93244 0.0319262 5.69647C-0.069381 6.92904 0.293637 8.07719 0.572232 8.82855C1.25606 10.6732 2.27757 12.3827 3.8014 14.2147C5.65026 16.4224 7.8748 18.1657 10.4159 19.3941C11.3868 19.8542 12.6827 20.3987 14.1305 20.4915C14.2192 20.4958 14.312 20.5 14.3965 20.5C15.3715 20.5 16.1904 20.1496 16.8321 19.4531C16.8363 19.4447 16.8447 19.4405 16.8489 19.432C17.0684 19.1661 17.3217 18.9255 17.5876 18.668C17.7691 18.495 17.9549 18.3134 18.1364 18.1235C18.5543 17.6887 18.7738 17.1822 18.7738 16.663C18.7738 16.1396 18.5501 15.6372 18.1237 15.2151L15.8063 12.8893ZM17.3175 17.3341C17.3133 17.3341 17.3133 17.3384 17.3175 17.3341C17.1529 17.5114 16.984 17.6718 16.8025 17.8491C16.5281 18.1108 16.2495 18.3852 15.9878 18.6933C15.5615 19.1492 15.0592 19.3645 14.4007 19.3645C14.3374 19.3645 14.2698 19.3645 14.2065 19.3603C12.9528 19.2801 11.7878 18.7904 10.914 18.3725C8.52485 17.2159 6.42695 15.5739 4.68362 13.4929C3.24421 11.758 2.28179 10.154 1.6444 8.43176C1.25183 7.3807 1.10832 6.5618 1.17163 5.78933C1.21384 5.29546 1.4038 4.88601 1.75415 4.53565L3.19356 3.09624C3.40039 2.90207 3.61989 2.79654 3.83517 2.79654C4.1011 2.79654 4.31638 2.95695 4.45146 3.09202L4.46412 3.10469C4.72161 3.34529 4.96643 3.59434 5.22392 3.86027C5.35478 3.99535 5.48986 4.13042 5.62493 4.26972L6.7773 5.42209C7.22474 5.86953 7.22474 6.2832 6.7773 6.73064C6.65489 6.85306 6.5367 6.97547 6.41428 7.09366C6.05971 7.45668 5.72202 7.79437 5.35478 8.12362C5.34634 8.13206 5.33789 8.13628 5.33367 8.14472C4.97066 8.50774 5.03819 8.86232 5.11417 9.10292L5.12684 9.14091C5.42654 9.86695 5.84865 10.5508 6.49026 11.3655L6.49449 11.3697C7.65952 12.8049 8.88787 13.9235 10.2429 14.7804C10.4159 14.8901 10.5932 14.9787 10.7621 15.0632C10.914 15.1391 11.0575 15.2109 11.1799 15.2869C11.1968 15.2953 11.2137 15.308 11.2306 15.3164C11.3741 15.3882 11.5092 15.422 11.6485 15.422C11.9988 15.422 12.2183 15.2025 12.2901 15.1307L13.7337 13.6871C13.8773 13.5436 14.1052 13.3705 14.3711 13.3705C14.6328 13.3705 14.8481 13.5351 14.979 13.6786L14.9874 13.6871L17.3133 16.0129C17.748 16.4435 17.748 16.8867 17.3175 17.3341ZM10.8085 5.25747C11.9144 5.4432 12.9191 5.96662 13.7211 6.76863C14.5231 7.57065 15.0423 8.57528 15.2322 9.68122C15.2787 9.95981 15.5193 10.154 15.7937 10.154C15.8274 10.154 15.857 10.1498 15.8907 10.1455C16.2031 10.0949 16.4099 9.79941 16.3593 9.48705C16.1313 8.14895 15.4982 6.92904 14.5315 5.9624C13.5649 4.99576 12.345 4.36259 11.0069 4.13464C10.6945 4.08399 10.4033 4.29083 10.3484 4.59897C10.2935 4.90711 10.4961 5.20681 10.8085 5.25747ZM19.9768 9.32242C19.6011 7.11899 18.5627 5.11395 16.9671 3.51836C15.3715 1.92277 13.3665 0.884369 11.1631 0.508688C10.8549 0.453813 10.5637 0.66487 10.5088 0.973013C10.4581 1.28538 10.665 1.57664 10.9773 1.63151C12.9444 1.96498 14.7384 2.89785 16.1651 4.32037C17.5919 5.74712 18.5205 7.5411 18.854 9.50815C18.9004 9.78675 19.141 9.98092 19.4154 9.98092C19.4492 9.98092 19.4787 9.9767 19.5125 9.97248C19.8206 9.92604 20.0317 9.63056 19.9768 9.32242Z" fill="#2251FF"/>
</g>
<defs>
<clipPath id="clip0_6036_3923">
<rect width="20" height="20" fill="white" transform="translate(0 0.5)"/>
</clipPath>
</defs>
</svg>
