<svg width="67" height="64" viewBox="0 0 67 64" fill="none" xmlns="http://www.w3.org/2000/svg">
<path d="M33.4713 2.00076C10.9845 2.11121 1.87588 13.8134 1.7072 28.3767C1.61232 36.5182 6.86768 43.5448 14.922 47.8259C18.8491 50.5976 14.1735 59.6806 10.431 62C10.431 62 23.6616 61.1006 27.3093 51.7968C29.3229 52.0913 31.3944 52.2438 33.5187 52.2438C51.0612 52.2438 65.2354 42.9452 65.2354 28.3767C65.2354 13.8081 56.1742 1.89031 33.4713 2.00076Z" stroke="#057FE2" stroke-width="2.5" stroke-miterlimit="10" stroke-linejoin="round"/>
<path d="M49.6513 11.3263C49.6379 11.2615 49.6063 11.2019 49.5601 11.1545C49.514 11.107 49.4553 11.0738 49.3909 11.0586C45.1 10.0083 35.1877 13.7508 29.8118 19.1271C28.8537 20.0781 27.9801 21.1108 27.2008 22.2133C25.5438 22.0633 23.8867 22.1896 22.4759 22.8056C18.4919 24.5588 17.3328 29.1375 17.0092 31.1031C16.9917 31.2108 16.9992 31.3211 17.0311 31.4255C17.063 31.5298 17.1185 31.6254 17.1933 31.7048C17.2681 31.7842 17.3601 31.8454 17.4623 31.8835C17.5645 31.9215 17.6741 31.9356 17.7825 31.9244L24.1795 31.2216C24.1839 31.7045 24.2129 32.1868 24.2663 32.6668C24.2997 32.9985 24.4475 33.3082 24.6845 33.5426L27.1614 36.0215C27.3957 36.2588 27.7055 36.4068 28.0372 36.44C28.5139 36.4932 28.9929 36.5222 29.4725 36.5269L28.7711 42.9236C28.7601 43.032 28.7742 43.1415 28.8123 43.2436C28.8503 43.3457 28.9114 43.4376 28.9906 43.5124C29.0698 43.5871 29.1652 43.6426 29.2693 43.6745C29.3734 43.7065 29.4834 43.7141 29.5909 43.6967C31.5557 43.3808 36.1401 42.2207 37.8816 38.2343C38.4971 36.8207 38.6233 35.171 38.4813 33.5205C39.5862 32.7413 40.6209 31.8669 41.5736 30.9073C46.9693 25.5372 50.685 15.8348 49.6513 11.3263ZM36.7777 23.9507C36.3064 23.4791 35.9854 22.8783 35.8554 22.2242C35.7253 21.57 35.792 20.892 36.047 20.2757C36.302 19.6595 36.7338 19.1328 37.2879 18.7623C37.842 18.3917 38.4935 18.1939 39.1599 18.1939C39.8263 18.1939 40.4778 18.3917 41.0319 18.7623C41.586 19.1328 42.0178 19.6595 42.2728 20.2757C42.5278 20.892 42.5945 21.57 42.4644 22.2242C42.3343 22.8783 42.0134 23.4791 41.5421 23.9507C41.2295 24.2642 40.8582 24.5129 40.4494 24.6827C40.0406 24.8524 39.6024 24.9397 39.1599 24.9397C38.7173 24.9397 38.2791 24.8524 37.8704 24.6827C37.4616 24.5129 37.0903 24.2642 36.7777 23.9507Z" stroke="#057FE2" stroke-width="2" stroke-linecap="round" stroke-linejoin="round"/>
<path d="M21.8639 34.8687C21.0773 34.9652 20.3455 35.3218 19.7848 35.8818C18.3945 37.2768 18.2627 42.4435 18.2627 42.4435C18.2627 42.4435 23.4325 42.3117 24.8236 40.9198C25.3858 40.36 25.743 39.6269 25.8375 38.8391" stroke="#057FE2" stroke-width="2" stroke-linecap="round" stroke-linejoin="round"/>
</svg>
