<svg width="500" height="127" viewBox="0 0 500 127" fill="none" xmlns="http://www.w3.org/2000/svg">
<g opacity="0.5" clip-path="url(#clip0_5_843)">
<mask id="path-1-outside-1_5_843" maskUnits="userSpaceOnUse" x="-21" y="18" width="549" height="150" fill="black">
<rect fill="white" x="-21" y="18" width="549" height="150"/>
<path d="M49.3797 22.6V162H13.5797V76.8H-19.8203V51.8C1.57969 51.2 18.3797 45.6 21.1797 22.6H49.3797ZM93.3563 126.4H125.356C127.956 135.6 134.756 139.4 144.156 139.4C162.956 139.4 168.156 119.4 169.756 104.2C160.156 115.2 151.956 119 137.556 119C109.956 119 91.5563 100.2 91.5563 72.2C91.5563 42.6 113.956 21.6 145.756 21.6C181.756 21.6 202.956 46.6 202.956 89.2C203.156 137.2 181.556 164.4 143.556 164.4C115.556 164.4 96.5563 150.2 93.3563 126.4ZM145.756 49C133.156 49 124.156 58.4 124.156 71.4C124.156 84.6 133.156 94 145.756 94C158.356 94 167.756 84.6 167.756 71.6C167.756 58.6 158.356 49 145.756 49ZM275.333 21.6C309.533 21.6 330.333 48.6 330.333 93.2C330.333 138 309.333 164 273.333 164C238.733 164 217.933 137.4 217.933 93.2C217.933 56.2 233.533 21.6 275.333 21.6ZM274.333 49C257.933 49 250.733 63 250.733 93.4C250.733 110 251.733 136.8 274.333 136.8C296.733 136.8 297.533 108 297.533 91.8C297.533 73.8 295.333 49 274.333 49ZM487.709 19.2L409.109 166.8H389.309L467.909 19.2H487.709ZM386.709 21.2C409.109 21.2 421.309 34.6 421.309 59C421.309 84.2 409.309 98 387.509 98C365.309 98 352.709 84.2 352.709 59.6C352.709 35.2 365.109 21.2 386.709 21.2ZM387.109 37.2C376.309 37.2 375.909 52.2 375.909 59.8C375.909 71.4 376.309 82.2 386.509 82.2C394.909 82.2 397.909 75.8 397.909 57.8C397.909 43.4 394.709 37.2 387.109 37.2ZM491.909 88C514.309 88 526.509 101.4 526.509 125.8C526.509 151 514.509 164.8 492.709 164.8C470.509 164.8 457.909 151 457.909 126.4C457.909 102 470.309 88 491.909 88ZM492.309 104C481.509 104 481.109 119 481.109 126.6C481.109 138.2 481.509 149 491.709 149C500.109 149 503.109 142.6 503.109 124.6C503.109 110.2 499.909 104 492.309 104Z"/>
</mask>
<path d="M49.3797 22.6H50.3797V21.6H49.3797V22.6ZM49.3797 162V163H50.3797V162H49.3797ZM13.5797 162H12.5797V163H13.5797V162ZM13.5797 76.8H14.5797V75.8H13.5797V76.8ZM-19.8203 76.8H-20.8203V77.8H-19.8203V76.8ZM-19.8203 51.8L-19.8483 50.8004L-20.8203 50.8276V51.8H-19.8203ZM21.1797 22.6V21.6H20.294L20.187 22.4791L21.1797 22.6ZM48.3797 22.6V162H50.3797V22.6H48.3797ZM49.3797 161H13.5797V163H49.3797V161ZM14.5797 162V76.8H12.5797V162H14.5797ZM13.5797 75.8H-19.8203V77.8H13.5797V75.8ZM-18.8203 76.8V51.8H-20.8203V76.8H-18.8203ZM-19.7923 52.7996C-9.04458 52.4983 0.719023 50.9431 8.17049 46.4567C15.6919 41.9282 20.74 34.4865 22.1724 22.7208L20.187 22.4791C18.8194 33.7135 14.0674 40.5718 7.13889 44.7433C0.140355 48.9569 -9.19604 50.5017 -19.8483 50.8004L-19.7923 52.7996ZM21.1797 23.6H49.3797V21.6H21.1797V23.6ZM93.3563 126.4V125.4H92.2128L92.3652 126.533L93.3563 126.4ZM125.356 126.4L126.319 126.128L126.113 125.4H125.356V126.4ZM169.756 104.2L170.751 104.305L171.082 101.16L169.003 103.542L169.756 104.2ZM202.956 89.2H201.956L201.956 89.2042L202.956 89.2ZM93.3563 127.4H125.356V125.4H93.3563V127.4ZM124.394 126.672C125.75 131.47 128.229 134.936 131.658 137.186C135.069 139.425 139.329 140.4 144.156 140.4V138.4C139.583 138.4 135.743 137.475 132.755 135.514C129.784 133.564 127.563 130.53 126.319 126.128L124.394 126.672ZM144.156 140.4C154.005 140.4 160.299 135.12 164.28 127.987C168.23 120.907 169.947 111.944 170.751 104.305L168.762 104.095C167.966 111.656 166.283 120.293 162.533 127.013C158.813 133.68 153.107 138.4 144.156 138.4V140.4ZM169.003 103.542C164.257 108.981 159.915 112.571 155.038 114.817C150.162 117.061 144.669 118 137.556 118V120C144.844 120 150.65 119.039 155.874 116.633C161.097 114.229 165.656 110.419 170.51 104.858L169.003 103.542ZM137.556 118C123.99 118 112.759 113.384 104.92 105.399C97.0792 97.4127 92.5563 85.9773 92.5563 72.2H90.5563C90.5563 86.4227 95.2333 98.3873 103.493 106.801C111.754 115.216 123.523 120 137.556 120V118ZM92.5563 72.2C92.5563 57.6638 98.0508 45.2827 107.414 36.5305C116.782 27.7742 130.078 22.6 145.756 22.6V20.6C129.634 20.6 115.831 25.9258 106.048 35.0694C96.2617 44.2173 90.5563 57.1362 90.5563 72.2H92.5563ZM145.756 22.6C163.509 22.6 177.511 28.7538 187.093 40.0712C196.694 51.4111 201.956 68.0537 201.956 89.2H203.956C203.956 67.7462 198.619 50.5889 188.619 38.7788C178.601 26.9461 164.004 20.6 145.756 20.6V22.6ZM201.956 89.2042C202.056 113.071 196.733 131.619 186.797 144.18C176.888 156.707 162.296 163.4 143.556 163.4V165.4C162.817 165.4 178.025 158.493 188.366 145.42C198.68 132.381 204.057 113.329 203.956 89.1958L201.956 89.2042ZM143.556 163.4C129.72 163.4 118.197 159.892 109.758 153.527C101.334 147.172 95.9138 137.917 94.3473 126.267L92.3652 126.533C93.9987 138.683 99.6786 148.428 108.554 155.123C117.416 161.808 129.392 165.4 143.556 165.4V163.4ZM145.756 48C132.568 48 123.156 57.8843 123.156 71.4H125.156C125.156 58.9157 133.744 50 145.756 50V48ZM123.156 71.4C123.156 85.1096 132.562 95 145.756 95V93C133.75 93 125.156 84.0903 125.156 71.4H123.156ZM145.756 95C158.92 95 168.756 85.1403 168.756 71.6H166.756C166.756 84.0597 157.792 93 145.756 93V95ZM168.756 71.6C168.756 58.0716 158.932 48 145.756 48V50C157.78 50 166.756 59.1284 166.756 71.6H168.756ZM275.333 22.6C292.141 22.6 305.59 29.2198 314.865 41.2845C324.164 53.3805 329.333 71.0406 329.333 93.2H331.333C331.333 70.7594 326.102 52.6195 316.451 40.0655C306.775 27.4802 292.725 20.6 275.333 20.6V22.6ZM329.333 93.2C329.333 115.459 324.114 132.908 314.554 144.773C305.018 156.607 291.071 163 273.333 163V165C291.595 165 306.148 158.393 316.111 146.027C326.051 133.692 331.333 115.741 331.333 93.2H329.333ZM273.333 163C256.316 163 242.766 156.473 233.445 144.559C224.101 132.614 218.933 115.158 218.933 93.2H216.933C216.933 115.442 222.165 133.386 231.87 145.791C241.599 158.227 255.75 165 273.333 165V163ZM218.933 93.2C218.933 74.8176 222.812 57.1415 231.782 44.0915C240.717 31.0931 254.756 22.6 275.333 22.6V20.6C254.11 20.6 239.449 29.4069 230.134 42.9585C220.854 56.4585 216.933 74.5824 216.933 93.2H218.933ZM274.333 48C270.087 48 266.377 48.9074 263.212 50.8048C260.047 52.7026 257.493 55.5521 255.498 59.3335C251.531 66.8566 249.733 78.1604 249.733 93.4H251.733C251.733 78.2395 253.535 67.3433 257.267 60.2665C259.123 56.7479 261.443 54.1974 264.241 52.5202C267.039 50.8426 270.378 50 274.333 50V48ZM249.733 93.4C249.733 101.686 249.975 112.699 253.114 121.656C254.688 126.148 257.014 130.193 260.465 133.116C263.933 136.055 268.468 137.8 274.333 137.8V135.8C268.897 135.8 264.832 134.195 261.757 131.59C258.664 128.97 256.502 125.277 255.002 120.994C251.99 112.401 251.733 101.714 251.733 93.4H249.733ZM274.333 137.8C280.17 137.8 284.664 135.915 288.083 132.784C291.479 129.674 293.753 125.393 295.284 120.684C298.339 111.288 298.533 99.8858 298.533 91.8H296.533C296.533 99.9142 296.326 111.012 293.382 120.066C291.913 124.582 289.786 128.513 286.732 131.309C283.701 134.085 279.696 135.8 274.333 135.8V137.8ZM298.533 91.8C298.533 82.7931 297.988 71.9324 294.744 63.2983C293.117 58.9684 290.789 55.1365 287.454 52.3848C284.101 49.6193 279.796 48 274.333 48V50C279.369 50 283.215 51.4807 286.181 53.9277C289.164 56.3885 291.324 59.8816 292.872 64.0017C295.978 72.2676 296.533 82.8069 296.533 91.8H298.533ZM487.709 19.2L488.592 19.67L489.375 18.2H487.709V19.2ZM409.109 166.8V167.8H409.71L409.992 167.27L409.109 166.8ZM389.309 166.8L388.427 166.33L387.644 167.8H389.309V166.8ZM467.909 19.2V18.2H467.309L467.027 18.73L467.909 19.2ZM486.827 18.73L408.227 166.33L409.992 167.27L488.592 19.67L486.827 18.73ZM409.109 165.8H389.309V167.8H409.109V165.8ZM390.192 167.27L468.792 19.67L467.027 18.73L388.427 166.33L390.192 167.27ZM467.909 20.2H487.709V18.2H467.909V20.2ZM386.709 22.2C397.707 22.2 406.058 25.4834 411.671 31.6247C417.298 37.7804 420.309 46.9544 420.309 59H422.309C422.309 46.6456 419.221 36.9196 413.147 30.2753C407.061 23.6166 398.112 20.2 386.709 20.2V22.2ZM420.309 59C420.309 71.4566 417.342 80.9386 411.829 87.2947C406.335 93.6281 398.189 97 387.509 97V99C398.63 99 407.384 95.4719 413.34 88.6053C419.276 81.7614 422.309 71.7434 422.309 59H420.309ZM387.509 97C376.622 97 368.218 93.623 362.525 87.3527C356.818 81.0681 353.709 71.7398 353.709 59.6H351.709C351.709 72.0602 354.901 81.9319 361.044 88.6972C367.2 95.477 376.196 99 387.509 99V97ZM353.709 59.6C353.709 47.5584 356.769 38.2246 362.358 31.9129C367.931 25.6188 376.135 22.2 386.709 22.2V20.2C375.684 20.2 366.887 23.7812 360.861 30.587C354.85 37.3754 351.709 47.2416 351.709 59.6H353.709ZM387.109 36.2C384.149 36.2 381.848 37.2389 380.103 38.9483C378.385 40.6324 377.256 42.9172 376.504 45.3552C375.004 50.2174 374.909 56.0094 374.909 59.8H376.909C376.909 55.9906 377.015 50.4826 378.415 45.9448C379.113 43.6828 380.109 41.7426 381.503 40.3767C382.871 39.0361 384.669 38.2 387.109 38.2V36.2ZM374.909 59.8C374.909 65.5607 375 71.3325 376.435 75.6645C377.16 77.8535 378.253 79.7557 379.92 81.1079C381.601 82.471 383.773 83.2 386.509 83.2V81.2C384.146 81.2 382.443 80.579 381.18 79.5546C379.903 78.5192 378.983 76.9965 378.334 75.0355C377.019 71.0675 376.909 65.6393 376.909 59.8H374.909ZM386.509 83.2C388.735 83.2 390.69 82.7758 392.35 81.7753C394.017 80.7711 395.3 79.2387 396.265 77.1735C398.168 73.104 398.909 66.8031 398.909 57.8H396.909C396.909 66.7969 396.151 72.696 394.453 76.3265C393.619 78.1112 392.577 79.3039 391.318 80.0622C390.054 80.8242 388.484 81.2 386.509 81.2V83.2ZM398.909 57.8C398.909 50.5689 398.113 45.2124 396.246 41.637C395.3 39.8267 394.068 38.4492 392.511 37.5321C390.956 36.6165 389.147 36.2 387.109 36.2V38.2C388.872 38.2 390.312 38.5585 391.496 39.2554C392.676 39.9508 393.669 41.0233 394.473 42.563C396.105 45.6876 396.909 50.6311 396.909 57.8H398.909ZM491.909 89C502.907 89 511.258 92.2834 516.871 98.4247C522.498 104.58 525.509 113.754 525.509 125.8H527.509C527.509 113.446 524.421 103.72 518.347 97.0753C512.261 90.4166 503.312 87 491.909 87V89ZM525.509 125.8C525.509 138.257 522.542 147.739 517.029 154.095C511.535 160.428 503.389 163.8 492.709 163.8V165.8C503.83 165.8 512.584 162.272 518.54 155.405C524.476 148.561 527.509 138.543 527.509 125.8H525.509ZM492.709 163.8C481.822 163.8 473.418 160.423 467.725 154.153C462.018 147.868 458.909 138.54 458.909 126.4H456.909C456.909 138.86 460.101 148.732 466.244 155.497C472.4 162.277 481.396 165.8 492.709 165.8V163.8ZM458.909 126.4C458.909 114.358 461.969 105.025 467.558 98.7129C473.131 92.4188 481.335 89 491.909 89V87C480.884 87 472.087 90.5812 466.061 97.3871C460.05 104.175 456.909 114.042 456.909 126.4H458.909ZM492.309 103C489.349 103 487.048 104.039 485.303 105.748C483.585 107.432 482.456 109.717 481.704 112.155C480.204 117.017 480.109 122.809 480.109 126.6H482.109C482.109 122.791 482.215 117.283 483.615 112.745C484.313 110.483 485.309 108.543 486.703 107.177C488.071 105.836 489.869 105 492.309 105V103ZM480.109 126.6C480.109 132.361 480.2 138.133 481.635 142.465C482.36 144.654 483.453 146.556 485.12 147.908C486.801 149.271 488.973 150 491.709 150V148C489.346 148 487.643 147.379 486.38 146.355C485.103 145.319 484.183 143.796 483.534 141.835C482.219 137.867 482.109 132.439 482.109 126.6H480.109ZM491.709 150C493.935 150 495.89 149.576 497.55 148.575C499.217 147.571 500.5 146.039 501.465 143.974C503.368 139.904 504.109 133.603 504.109 124.6H502.109C502.109 133.597 501.351 139.496 499.654 143.126C498.819 144.911 497.777 146.104 496.518 146.862C495.254 147.624 493.684 148 491.709 148V150ZM504.109 124.6C504.109 117.369 503.313 112.012 501.446 108.437C500.5 106.627 499.268 105.249 497.711 104.332C496.156 103.417 494.347 103 492.309 103V105C494.072 105 495.512 105.358 496.696 106.055C497.876 106.751 498.869 107.823 499.673 109.363C501.305 112.488 502.109 117.431 502.109 124.6H504.109Z" fill="url(#paint0_linear_5_843)" mask="url(#path-1-outside-1_5_843)"/>
</g>
<defs>
<linearGradient id="paint0_linear_5_843" x1="-41" y1="0" x2="84.6625" y2="373.523" gradientUnits="userSpaceOnUse">
<stop offset="0.345" stop-color="#057FE2"/>
<stop offset="0.895" stop-color="#057FE2" stop-opacity="0"/>
</linearGradient>
<clipPath id="clip0_5_843">
<rect width="500" height="127" fill="white"/>
</clipPath>
</defs>
</svg>
