<svg width="1880" height="939" viewBox="0 0 1880 939" fill="none" xmlns="http://www.w3.org/2000/svg">
<g clip-path="url(#clip0_0_1682)">
<g opacity="0.2" filter="url(#filter0_f_0_1682)">
<circle cx="1643.65" cy="411.924" r="666.016" fill="#0374D3"/>
</g>
<mask id="mask0_0_1682" style="mask-type:alpha" maskUnits="userSpaceOnUse" x="414" y="-1612" width="3560" height="3991">
<rect x="1863.77" y="-1611.78" width="2349.82" height="3292.49" transform="rotate(26.1152 1863.77 -1611.78)" fill="url(#paint0_linear_0_1682)"/>
</mask>
<g mask="url(#mask0_0_1682)">
<path d="M2995.33 723.096C2685.15 1355.83 1968.99 1641.04 1395.87 1360.09C1335.76 1330.62 1279.4 1295.99 1227.28 1257.05C1761.59 1404.26 2364.33 1116.4 2642.04 549.904C2919.75 -16.5882 2778.01 -669.114 2334.51 -1001.55C2397.21 -984.206 2459.1 -960.864 2519.21 -931.397C3092.33 -650.442 3305.51 90.3612 2995.33 723.096Z" fill="url(#paint1_linear_0_1682)"/>
<g filter="url(#filter1_f_0_1682)">
<path d="M2956.08 703.852C2645.9 1336.59 1968.99 1641.04 1395.87 1360.09C1335.76 1330.62 1279.4 1295.99 1227.28 1257.05C1761.59 1404.26 2403.59 1135.64 2681.3 569.148C2959 2.65529 2778.01 -669.114 2334.51 -1001.55C2397.21 -984.206 2459.1 -960.864 2519.21 -931.397C3092.33 -650.442 3266.26 71.1178 2956.08 703.852Z" fill="url(#paint2_linear_0_1682)"/>
</g>
<g filter="url(#filter2_f_0_1682)">
<path d="M2936.45 694.23C2626.27 1326.96 1920.11 1641.43 1346.99 1360.47C1286.89 1331 1230.52 1296.38 1178.41 1257.44C1712.71 1404.65 2423.22 1145.26 2700.92 578.769C2978.63 12.2762 2725.28 -691.919 2281.78 -1024.36C2344.48 -1007.01 2406.38 -983.668 2466.49 -954.201C3039.6 -673.246 3246.63 61.4952 2936.45 694.23Z" fill="url(#paint3_linear_0_1682)"/>
</g>
<g filter="url(#filter3_f_0_1682)">
<path d="M2936.45 694.23C2626.27 1326.96 1920.11 1641.43 1346.99 1360.47C1286.89 1331 1230.52 1296.38 1178.41 1257.44C1712.71 1404.65 2423.22 1145.26 2700.92 578.769C2978.63 12.2762 2725.28 -691.919 2281.78 -1024.36C2344.48 -1007.01 2406.38 -983.668 2466.49 -954.201C3039.6 -673.246 3246.63 61.4952 2936.45 694.23Z" fill="url(#paint4_linear_0_1682)"/>
</g>
<g filter="url(#filter4_f_0_1682)">
<path d="M2936.45 694.23C2626.27 1326.96 1920.11 1641.43 1346.99 1360.47C1286.89 1331 1230.52 1296.38 1178.41 1257.44C1712.71 1404.65 2423.22 1145.26 2700.92 578.769C2978.63 12.2762 2725.28 -691.919 2281.78 -1024.36C2344.48 -1007.01 2406.38 -983.668 2466.49 -954.201C3039.6 -673.246 3246.63 61.4952 2936.45 694.23Z" fill="url(#paint5_linear_0_1682)"/>
</g>
<g filter="url(#filter5_f_0_1682)">
<path d="M2808.66 681.791C2498.47 1314.53 1920.11 1641.43 1346.99 1360.47C1286.89 1331 1230.52 1296.38 1178.41 1257.44C1712.71 1404.65 2479.16 1192.53 2764.71 610.039C3122.5 -119.798 2725.28 -691.919 2281.78 -1024.36C2344.48 -1007.01 2406.38 -983.668 2466.49 -954.201C3039.6 -673.246 3118.84 49.0567 2808.66 681.791Z" fill="url(#paint6_linear_0_1682)"/>
</g>
<g filter="url(#filter6_f_0_1682)">
<path d="M2808.66 681.792C2498.47 1314.53 1946.13 1765.25 1373.02 1484.3C1312.91 1454.83 1182.61 1217.2 1130.49 1178.26C1664.8 1325.47 2479.16 1192.53 2764.71 610.04C3122.5 -119.798 2636.6 -656.884 2193.1 -989.325C2165.07 -932.161 2375.4 -1116.01 2435.51 -1086.54C3008.62 -805.588 3118.84 49.057 2808.66 681.792Z" fill="url(#paint7_linear_0_1682)"/>
</g>
<g filter="url(#filter7_f_0_1682)">
<path d="M2808.66 681.792C2498.47 1314.53 1946.13 1765.25 1373.02 1484.3C1312.91 1454.83 1182.61 1217.2 1130.49 1178.26C1664.8 1325.47 2479.16 1192.53 2764.71 610.04C3122.5 -119.798 2636.6 -656.884 2193.1 -989.325C2165.07 -932.161 2375.4 -1116.01 2435.51 -1086.54C3008.62 -805.588 3118.84 49.057 2808.66 681.792Z" fill="url(#paint8_linear_0_1682)"/>
</g>
<g filter="url(#filter8_f_0_1682)">
<path d="M2808.66 681.792C2498.47 1314.53 1946.13 1765.25 1373.02 1484.3C1312.91 1454.83 1182.61 1217.2 1130.49 1178.26C1664.8 1325.47 2479.16 1192.53 2764.71 610.04C3122.5 -119.798 2636.6 -656.884 2193.1 -989.325C2165.07 -932.161 2375.4 -1116.01 2435.51 -1086.54C3008.62 -805.588 3118.84 49.057 2808.66 681.792Z" fill="url(#paint9_linear_0_1682)"/>
</g>
</g>
<g filter="url(#filter9_f_0_1682)">
<mask id="mask1_0_1682" style="mask-type:alpha" maskUnits="userSpaceOnUse" x="1465" y="547" width="1591" height="1166">
<path opacity="0.8" d="M1465.78 1205.08L1806.67 1712.02L2498.69 1499.3L3055.13 547.885L2519.53 614.988L2379.63 600.175L1540.92 1076.61L1465.78 1205.08Z" fill="url(#paint10_linear_0_1682)"/>
</mask>
<g mask="url(#mask1_0_1682)">
<g opacity="0.8">
<path d="M2970.07 492.414C2950.9 624.061 3048.09 537.364 2973.68 664.593C2939.39 723.223 2497.53 1061.63 2455.5 1110.97C2233.82 1295.38 1964.37 1351.84 1742.88 1257.45C1697.85 1238.37 1657.09 1212.95 1617.66 1183.99C1817.24 1330.87 2127.23 1174.75 2321.02 987.644C2595.49 722.995 2739.62 312.282 2584.72 -67.4284C2804.43 95.0846 2830.41 605.742 2847.88 522.99L2970.07 492.414Z" fill="#0375D5"/>
<g filter="url(#filter10_f_0_1682)">
<path d="M2914.65 464.663C2895.48 596.31 2992.67 509.613 2918.25 636.841C2883.96 695.471 2442.11 1033.87 2400.08 1083.21C2178.4 1267.62 1908.94 1324.09 1687.45 1229.7C1642.43 1210.62 1601.67 1185.19 1562.24 1156.24C1761.81 1303.12 2188.01 1142.73 2381.8 955.624C2656.26 690.976 2875.64 370.867 2720.74 -8.84326C2940.45 153.67 2774.98 577.991 2792.45 495.238L2914.65 464.663Z" fill="#0375D5"/>
</g>
<g filter="url(#filter11_f_0_1682)">
<path d="M2914.65 464.663C2895.48 596.31 2992.67 509.613 2918.25 636.841C2883.96 695.471 2442.11 1033.87 2400.08 1083.21C2178.4 1267.62 1908.94 1324.09 1687.45 1229.7C1642.43 1210.62 1601.67 1185.19 1562.24 1156.24C1761.81 1303.12 2188.01 1142.73 2381.8 955.624C2656.26 690.976 2875.64 370.867 2720.74 -8.84326C2940.45 153.67 2774.98 577.991 2792.45 495.238L2914.65 464.663Z" fill="#0375D5"/>
</g>
<g filter="url(#filter12_f_0_1682)">
<path d="M2914.65 464.663C2895.48 596.31 2992.67 509.613 2918.25 636.841C2883.96 695.471 2442.11 1033.87 2400.08 1083.21C2178.4 1267.62 1908.94 1324.09 1687.45 1229.7C1642.43 1210.62 1601.67 1185.19 1562.24 1156.24C1761.81 1303.12 2188.01 1142.73 2381.8 955.624C2656.26 690.976 2875.64 370.867 2720.74 -8.84326C2940.45 153.67 2774.98 577.991 2792.45 495.238L2914.65 464.663Z" fill="#0375D5"/>
</g>
<g filter="url(#filter13_f_0_1682)">
<path d="M2914.65 464.663C2895.48 596.31 2992.67 509.613 2918.25 636.841C2883.96 695.471 2442.11 1033.87 2400.08 1083.21C2178.4 1267.62 1908.94 1324.09 1687.45 1229.7C1642.43 1210.62 1601.67 1185.19 1562.24 1156.24C1761.81 1303.12 2180.11 1203.34 2373.9 1016.23C2648.37 751.581 2875.64 370.867 2720.74 -8.84326C2940.45 153.67 2774.98 577.991 2792.45 495.238L2914.65 464.663Z" fill="#0375D5"/>
</g>
<g filter="url(#filter14_f_0_1682)">
<path d="M2914.64 464.663C2895.48 596.31 2992.66 509.613 2918.25 636.842C2883.96 695.472 2442.11 1033.87 2400.08 1083.21C2178.4 1267.62 1908.94 1324.09 1687.45 1229.7C1642.43 1210.62 1582.75 1188.52 1543.32 1159.56C1742.9 1306.44 2171.6 1214.67 2365.39 1027.56C2639.85 762.912 2875.64 370.868 2720.74 -8.84283C2940.45 153.67 2774.98 577.991 2792.45 495.239L2914.64 464.663Z" fill="#0375D5"/>
</g>
<g filter="url(#filter15_f_0_1682)">
<path d="M2970.07 492.414C2950.9 624.061 3048.09 537.365 2973.68 664.593C2939.39 723.223 2488.8 1037.88 2446.76 1087.22C2225.09 1271.62 1964.37 1351.84 1742.88 1257.45C1697.85 1238.37 1657.09 1212.95 1617.66 1183.99C1817.24 1330.87 2141.28 1182.97 2335.07 995.862C2609.54 731.213 2829.55 364.877 2674.65 -14.8339C2894.36 147.679 2830.41 605.743 2847.88 522.99L2970.07 492.414Z" fill="#0375D5"/>
</g>
<g filter="url(#filter16_f_0_1682)">
<path d="M2941.5 489.687C2922.33 621.334 3019.52 534.637 2945.11 661.866C2910.82 720.496 2460.22 1035.15 2418.19 1084.49C2196.51 1268.9 1935.79 1349.11 1714.3 1254.72C1669.28 1235.64 1628.52 1210.22 1589.09 1181.26C1788.67 1328.14 2132.38 1191.75 2326.17 1004.64C2600.63 739.991 2820.65 373.654 2665.75 -6.05643C2885.46 156.457 2801.83 603.015 2819.31 520.263L2941.5 489.687Z" fill="#0375D5"/>
</g>
<g filter="url(#filter17_f_0_1682)">
<path d="M2928.69 472.88C2909.53 604.527 3006.71 517.83 2932.3 645.059C2898.01 703.689 2447.42 1018.34 2405.39 1067.68C2183.71 1252.09 1922.99 1332.3 1701.5 1237.91C1656.48 1218.84 1615.72 1193.41 1576.29 1164.45C1775.86 1311.34 2172.19 1201.05 2365.98 1013.94C2640.45 749.296 2860.46 382.959 2705.56 3.24864C2925.27 165.762 2789.03 586.208 2806.5 503.456L2928.69 472.88Z" fill="#0375D5"/>
</g>
<g filter="url(#filter18_f_0_1682)">
<path d="M2928.7 472.878C2909.53 604.525 3006.71 517.828 2932.3 645.057C2898.01 703.687 2475.42 987.698 2433.39 1037.04C2211.71 1221.45 1879.79 1328.19 1658.3 1233.8C1613.28 1214.72 1615.72 1193.41 1576.29 1164.45C1775.86 1311.33 2106.93 1302.67 2300.72 1115.56C2575.19 850.91 2900.46 676.637 2745.56 296.927C2965.27 459.44 2789.03 586.206 2806.5 503.454L2928.7 472.878Z" fill="#0375D5"/>
</g>
<g filter="url(#filter19_f_0_1682)">
<path d="M2928.7 472.878C2909.53 604.525 3006.71 517.828 2932.3 645.057C2898.01 703.687 2411.63 1022.62 2369.59 1071.96C2147.92 1256.37 1879.79 1328.19 1658.3 1233.8C1613.28 1214.72 1615.72 1193.41 1576.29 1164.45C1775.86 1311.33 2095.93 1247.31 2289.73 1060.2C2564.19 795.55 2900.46 676.637 2745.56 296.927C2965.27 459.44 2789.03 586.206 2806.5 503.454L2928.7 472.878Z" fill="#0375D5"/>
</g>
</g>
</g>
</g>
<mask id="mask2_0_1682" style="mask-type:alpha" maskUnits="userSpaceOnUse" x="-756" y="-735" width="2087" height="2163">
<rect x="224.686" y="1427.19" width="1258.03" height="1762.7" transform="rotate(-141.164 224.686 1427.19)" fill="url(#paint11_linear_0_1682)"/>
</mask>
<g mask="url(#mask2_0_1682)">
<path d="M-90.9899 74.4484C145.589 -219.417 553.214 -283.936 819.391 -69.6486C847.308 -47.1741 872.659 -22.4458 895.286 4.03326C633.609 -135.832 284.902 -56.557 73.0917 206.543C-138.719 469.644 -141.623 827.122 50.7955 1053.02C20.096 1036.56 -9.47475 1017.08 -37.3914 994.603C-303.568 780.316 -327.568 368.314 -90.9899 74.4484Z" fill="url(#paint12_linear_0_1682)"/>
<g filter="url(#filter20_f_0_1682)">
<path d="M-72.7587 89.1256C163.82 -204.74 553.214 -283.936 819.391 -69.6486C847.308 -47.1741 872.659 -22.4458 895.286 4.03326C633.609 -135.832 266.671 -71.2343 54.8604 191.866C-156.95 454.967 -141.623 827.122 50.7955 1053.02C20.096 1036.56 -9.47475 1017.08 -37.3914 994.603C-303.568 780.316 -309.337 382.991 -72.7587 89.1256Z" fill="url(#paint13_linear_0_1682)"/>
</g>
<g filter="url(#filter21_f_0_1682)">
<path d="M-63.6433 96.464C172.935 -197.402 578.784 -278.375 844.961 -64.0871C872.878 -41.6127 898.229 -16.8843 920.856 9.59471C659.179 -130.271 257.555 -78.573 45.7445 184.527C-166.066 447.628 -116.777 845.246 75.6412 1071.14C44.9417 1054.69 15.3709 1035.2 -12.5457 1012.73C-278.723 798.44 -300.222 390.33 -63.6433 96.464Z" fill="url(#paint14_linear_0_1682)"/>
</g>
<g filter="url(#filter22_f_0_1682)">
<path d="M-63.6433 96.464C172.935 -197.402 578.784 -278.375 844.961 -64.0871C872.878 -41.6127 898.229 -16.8843 920.856 9.59471C659.179 -130.271 257.555 -78.573 45.7445 184.527C-166.066 447.628 -116.777 845.246 75.6412 1071.14C44.9417 1054.69 15.3709 1035.2 -12.5457 1012.73C-278.723 798.44 -300.222 390.33 -63.6433 96.464Z" fill="url(#paint15_linear_0_1682)"/>
</g>
<g filter="url(#filter23_f_0_1682)">
<path d="M-63.6433 96.464C172.935 -197.402 578.784 -278.375 844.961 -64.0871C872.878 -41.6127 898.229 -16.8843 920.856 9.59471C659.179 -130.271 257.555 -78.573 45.7445 184.527C-166.066 447.628 -116.777 845.246 75.6412 1071.14C44.9417 1054.69 15.3709 1035.2 -12.5457 1012.73C-278.723 798.44 -300.222 390.33 -63.6433 96.464Z" fill="url(#paint16_linear_0_1682)"/>
</g>
<g filter="url(#filter24_f_0_1682)">
<path d="M1.62876 118.025C238.207 -175.84 578.784 -278.375 844.961 -64.0871C872.878 -41.6126 898.229 -16.8843 920.856 9.59471C659.179 -130.271 233.911 -109.854 16.1187 160.677C-256.766 499.641 -116.777 845.246 75.6412 1071.14C44.9417 1054.69 15.371 1035.2 -12.5457 1012.73C-278.723 798.44 -234.95 411.891 1.62876 118.025Z" fill="url(#paint17_linear_0_1682)"/>
</g>
<g filter="url(#filter25_f_0_1682)">
<path d="M1.62876 118.026C238.207 -175.84 579.792 -346.108 845.969 -131.821C873.886 -109.346 913.916 30.1117 936.543 56.5908C674.867 -83.275 233.911 -109.854 16.1187 160.677C-256.766 499.641 -66.3332 837.406 126.085 1063.3C147.459 1036.75 15.9468 1107.97 -11.9699 1085.49C-278.147 871.205 -234.95 411.891 1.62876 118.026Z" fill="url(#paint18_linear_0_1682)"/>
</g>
<g filter="url(#filter26_f_0_1682)">
<path d="M1.62876 118.026C238.207 -175.84 579.792 -346.108 845.969 -131.821C873.886 -109.346 913.916 30.1117 936.543 56.5908C674.867 -83.275 233.911 -109.854 16.1187 160.677C-256.766 499.641 -66.3332 837.406 126.085 1063.3C147.459 1036.75 15.9468 1107.97 -11.9699 1085.49C-278.147 871.205 -234.95 411.891 1.62876 118.026Z" fill="url(#paint19_linear_0_1682)"/>
</g>
<g filter="url(#filter27_f_0_1682)">
<path d="M1.62876 118.026C238.207 -175.84 579.792 -346.108 845.969 -131.821C873.886 -109.346 913.916 30.1117 936.543 56.5908C674.867 -83.275 233.911 -109.854 16.1187 160.677C-256.766 499.641 -66.3332 837.406 126.085 1063.3C147.459 1036.75 15.9468 1107.97 -11.9699 1085.49C-278.147 871.205 -234.95 411.891 1.62876 118.026Z" fill="url(#paint20_linear_0_1682)"/>
</g>
</g>
<g filter="url(#filter28_f_0_1682)">
<mask id="mask3_0_1682" style="mask-type:alpha" maskUnits="userSpaceOnUse" x="-143" y="-302" width="908" height="514">
<path opacity="0.8" d="M764.609 3.05794L646.347 -301.867L259.876 -272.359L-142.876 158.898L144.745 186.998L216.057 211.226L710.222 61.2934L764.609 3.05794Z" fill="url(#paint21_linear_0_1682)"/>
</mask>
<g mask="url(#mask3_0_1682)">
<g opacity="0.8">
<path d="M-104.993 197.897C-79.4633 131.407 -140.438 165.225 -86.5795 107.555C-61.7603 80.9788 208.884 -43.6555 236.651 -64.467C374.158 -134.637 521.533 -132.359 626.073 -56.9534C647.337 -41.6834 665.626 -23.5997 682.803 -3.82996C595.895 -104.063 415.606 -59.0791 292.342 15.7893C117.81 121.64 -5.88064 319.135 30.2489 535.692C-65.3318 424.922 -18.6964 155.178 -37.5762 196.334L-104.993 197.897Z" fill="#0375D5"/>
<g filter="url(#filter29_f_0_1682)">
<path d="M-79.3205 218.923C-53.791 152.433 -114.766 186.251 -60.9071 128.581C-36.0879 102.005 234.556 -22.6291 262.323 -43.4406C399.83 -113.611 547.205 -111.332 651.745 -35.927C673.009 -20.657 691.298 -2.5733 708.475 17.1965C621.568 -83.0366 380.09 -49.5232 256.825 25.3452C82.2936 131.196 -70.0075 272.505 -33.878 489.062C-129.459 378.291 6.97599 176.205 -11.9038 217.361L-79.3205 218.923Z" fill="#0375D5"/>
</g>
<g filter="url(#filter30_f_0_1682)">
<path d="M-79.3205 218.923C-53.791 152.433 -114.766 186.251 -60.9071 128.581C-36.0879 102.005 234.556 -22.6291 262.323 -43.4406C399.83 -113.611 547.205 -111.332 651.745 -35.927C673.009 -20.657 691.298 -2.5733 708.475 17.1965C621.568 -83.0366 380.09 -49.5232 256.825 25.3452C82.2936 131.196 -70.0075 272.505 -33.878 489.062C-129.459 378.291 6.97599 176.205 -11.9038 217.361L-79.3205 218.923Z" fill="#0375D5"/>
</g>
<g filter="url(#filter31_f_0_1682)">
<path d="M-79.3205 218.923C-53.791 152.433 -114.766 186.251 -60.9071 128.581C-36.0879 102.005 234.556 -22.6291 262.323 -43.4406C399.83 -113.611 547.205 -111.332 651.745 -35.927C673.009 -20.657 691.298 -2.5733 708.475 17.1965C621.568 -83.0366 380.09 -49.5232 256.825 25.3452C82.2936 131.196 -70.0075 272.505 -33.878 489.062C-129.459 378.291 6.97599 176.205 -11.9038 217.361L-79.3205 218.923Z" fill="#0375D5"/>
</g>
<g filter="url(#filter32_f_0_1682)">
<path d="M-79.3205 218.923C-53.791 152.433 -114.766 186.251 -60.9071 128.581C-36.0879 102.005 234.556 -22.6291 262.323 -43.4406C399.83 -113.611 547.205 -111.332 651.745 -35.927C673.009 -20.657 691.298 -2.5733 708.475 17.1965C621.568 -83.0366 391.358 -80.2422 268.094 -5.3738C93.5622 100.477 -70.0075 272.505 -33.878 489.062C-129.459 378.291 6.97599 176.205 -11.9038 217.361L-79.3205 218.923Z" fill="#0375D5"/>
</g>
<g filter="url(#filter33_f_0_1682)">
<path d="M-79.3205 218.924C-53.791 152.433 -114.766 186.252 -60.9071 128.581C-36.0879 102.005 234.556 -22.6286 262.323 -43.4401C399.83 -113.61 547.205 -111.332 651.745 -35.9265C673.009 -20.6565 701.569 -2.07955 718.746 17.6902C631.839 -82.5428 397.14 -85.1558 273.876 -10.2874C99.3437 95.5636 -70.0075 272.505 -33.878 489.062C-129.459 378.291 6.97598 176.205 -11.9038 217.361L-79.3205 218.924Z" fill="#0375D5"/>
</g>
<g filter="url(#filter34_f_0_1682)">
<path d="M-104.993 197.897C-79.4633 131.407 -140.438 165.225 -86.5795 107.555C-61.7603 80.9788 210.647 -30.2221 238.414 -51.0336C375.921 -121.204 521.533 -132.359 626.073 -56.9534C647.337 -41.6834 665.626 -23.5997 682.803 -3.82996C595.895 -104.063 409.237 -65.0272 285.972 9.84119C111.441 115.692 -46.6428 281.067 -10.5133 497.624C-106.094 386.854 -18.6964 155.178 -37.5762 196.334L-104.993 197.897Z" fill="#0375D5"/>
</g>
<g filter="url(#filter35_f_0_1682)">
<path d="M-90.3932 202.69C-64.8636 136.2 -125.838 170.018 -71.9798 112.348C-47.1606 85.772 225.247 -25.4289 253.014 -46.2403C390.521 -116.411 536.133 -127.565 640.673 -52.1602C661.936 -36.8902 680.225 -18.8065 697.402 0.963281C610.495 -99.2698 414.92 -68.5613 291.655 6.30709C117.124 112.158 -40.9598 277.533 -4.83024 494.09C-100.411 383.32 -4.09664 159.972 -22.9764 201.128L-90.3932 202.69Z" fill="#0375D5"/>
</g>
<g filter="url(#filter36_f_0_1682)">
<path d="M-85.6885 212.976C-60.1589 146.486 -121.134 180.304 -67.2751 122.634C-42.4559 96.0583 229.951 -15.1426 257.719 -35.9541C395.225 -106.124 540.837 -117.279 645.377 -41.8739C666.641 -26.6039 684.93 -8.5202 702.107 11.2496C615.2 -88.9835 395.226 -78.1142 271.961 -3.24585C97.4296 102.605 -60.6537 267.98 -24.5242 484.537C-120.105 373.767 0.607988 170.258 -18.2718 211.414L-85.6885 212.976Z" fill="#0375D5"/>
</g>
<g filter="url(#filter37_f_0_1682)">
<path d="M-85.6898 212.977C-60.1602 146.486 -121.135 180.305 -67.2764 122.634C-42.4572 96.0586 211.714 -2.4418 239.482 -23.2533C376.989 -93.4236 562.911 -110.039 667.45 -34.6336C688.714 -19.3636 684.929 -8.51997 702.106 11.2498C615.199 -88.9833 441.285 -123.487 318.021 -48.6188C143.489 57.2323 -46.9252 109.896 -10.7957 326.453C-106.376 215.682 0.60675 170.258 -18.273 211.414L-85.6898 212.977Z" fill="#0375D5"/>
</g>
<g filter="url(#filter38_f_0_1682)">
<path d="M-85.6898 212.977C-60.1602 146.486 -121.135 180.305 -67.2764 122.634C-42.4572 96.0586 249.147 -13.1572 276.914 -33.9687C414.421 -104.139 562.911 -110.039 667.45 -34.6336C688.714 -19.3636 684.929 -8.51997 702.106 11.2498C615.199 -88.9833 440.5 -93.2803 317.236 -18.4119C142.704 87.4391 -46.9252 109.896 -10.7957 326.453C-106.376 215.682 0.60675 170.258 -18.273 211.414L-85.6898 212.977Z" fill="#0375D5"/>
</g>
</g>
</g>
</g>
</g>
<defs>
<filter id="filter0_f_0_1682" x="777.631" y="-454.092" width="1732.03" height="1732.03" filterUnits="userSpaceOnUse" color-interpolation-filters="sRGB">
<feFlood flood-opacity="0" result="BackgroundImageFix"/>
<feBlend mode="normal" in="SourceGraphic" in2="BackgroundImageFix" result="shape"/>
<feGaussianBlur stdDeviation="100" result="effect1_foregroundBlur_0_1682"/>
</filter>
<filter id="filter1_f_0_1682" x="1212.76" y="-1016.08" width="1909.82" height="2495.69" filterUnits="userSpaceOnUse" color-interpolation-filters="sRGB">
<feFlood flood-opacity="0" result="BackgroundImageFix"/>
<feBlend mode="normal" in="SourceGraphic" in2="BackgroundImageFix" result="shape"/>
<feGaussianBlur stdDeviation="7.26216" result="effect1_foregroundBlur_0_1682"/>
</filter>
<filter id="filter2_f_0_1682" x="1134.83" y="-1067.93" width="1989.07" height="2575.38" filterUnits="userSpaceOnUse" color-interpolation-filters="sRGB">
<feFlood flood-opacity="0" result="BackgroundImageFix"/>
<feBlend mode="normal" in="SourceGraphic" in2="BackgroundImageFix" result="shape"/>
<feGaussianBlur stdDeviation="21.7865" result="effect1_foregroundBlur_0_1682"/>
</filter>
<filter id="filter3_f_0_1682" x="1115.47" y="-1087.3" width="2027.81" height="2614.11" filterUnits="userSpaceOnUse" color-interpolation-filters="sRGB">
<feFlood flood-opacity="0" result="BackgroundImageFix"/>
<feBlend mode="normal" in="SourceGraphic" in2="BackgroundImageFix" result="shape"/>
<feGaussianBlur stdDeviation="31.4693" result="effect1_foregroundBlur_0_1682"/>
</filter>
<filter id="filter4_f_0_1682" x="1115.47" y="-1087.3" width="2027.81" height="2614.11" filterUnits="userSpaceOnUse" color-interpolation-filters="sRGB">
<feFlood flood-opacity="0" result="BackgroundImageFix"/>
<feBlend mode="normal" in="SourceGraphic" in2="BackgroundImageFix" result="shape"/>
<feGaussianBlur stdDeviation="31.4693" result="effect1_foregroundBlur_0_1682"/>
</filter>
<filter id="filter5_f_0_1682" x="1028.32" y="-1174.44" width="2109.6" height="2786.49" filterUnits="userSpaceOnUse" color-interpolation-filters="sRGB">
<feFlood flood-opacity="0" result="BackgroundImageFix"/>
<feBlend mode="normal" in="SourceGraphic" in2="BackgroundImageFix" result="shape"/>
<feGaussianBlur stdDeviation="75.0423" result="effect1_foregroundBlur_0_1682"/>
</filter>
<filter id="filter6_f_0_1682" x="1038.51" y="-1181.75" width="2031.71" height="2843.33" filterUnits="userSpaceOnUse" color-interpolation-filters="sRGB">
<feFlood flood-opacity="0" result="BackgroundImageFix"/>
<feBlend mode="normal" in="SourceGraphic" in2="BackgroundImageFix" result="shape"/>
<feGaussianBlur stdDeviation="45.9937" result="effect1_foregroundBlur_0_1682"/>
</filter>
<filter id="filter7_f_0_1682" x="931.995" y="-1288.26" width="2244.73" height="3056.36" filterUnits="userSpaceOnUse" color-interpolation-filters="sRGB">
<feFlood flood-opacity="0" result="BackgroundImageFix"/>
<feBlend mode="normal" in="SourceGraphic" in2="BackgroundImageFix" result="shape"/>
<feGaussianBlur stdDeviation="99.2495" result="effect1_foregroundBlur_0_1682"/>
</filter>
<filter id="filter8_f_0_1682" x="835.167" y="-1385.09" width="2438.39" height="3250.02" filterUnits="userSpaceOnUse" color-interpolation-filters="sRGB">
<feFlood flood-opacity="0" result="BackgroundImageFix"/>
<feBlend mode="normal" in="SourceGraphic" in2="BackgroundImageFix" result="shape"/>
<feGaussianBlur stdDeviation="147.664" result="effect1_foregroundBlur_0_1682"/>
</filter>
<filter id="filter9_f_0_1682" x="1537.37" y="541.937" width="1470.73" height="766.483" filterUnits="userSpaceOnUse" color-interpolation-filters="sRGB">
<feFlood flood-opacity="0" result="BackgroundImageFix"/>
<feBlend mode="normal" in="SourceGraphic" in2="BackgroundImageFix" result="shape"/>
<feGaussianBlur stdDeviation="2.97408" result="effect1_foregroundBlur_0_1682"/>
</filter>
<filter id="filter10_f_0_1682" x="1556.29" y="-14.7914" width="1396.38" height="1295.46" filterUnits="userSpaceOnUse" color-interpolation-filters="sRGB">
<feFlood flood-opacity="0" result="BackgroundImageFix"/>
<feBlend mode="normal" in="SourceGraphic" in2="BackgroundImageFix" result="shape"/>
<feGaussianBlur stdDeviation="2.97408" result="effect1_foregroundBlur_0_1682"/>
</filter>
<filter id="filter11_f_0_1682" x="1499.19" y="-71.8938" width="1510.59" height="1409.66" filterUnits="userSpaceOnUse" color-interpolation-filters="sRGB">
<feFlood flood-opacity="0" result="BackgroundImageFix"/>
<feBlend mode="normal" in="SourceGraphic" in2="BackgroundImageFix" result="shape"/>
<feGaussianBlur stdDeviation="31.5253" result="effect1_foregroundBlur_0_1682"/>
</filter>
<filter id="filter12_f_0_1682" x="1527.74" y="-43.3426" width="1453.49" height="1352.56" filterUnits="userSpaceOnUse" color-interpolation-filters="sRGB">
<feFlood flood-opacity="0" result="BackgroundImageFix"/>
<feBlend mode="normal" in="SourceGraphic" in2="BackgroundImageFix" result="shape"/>
<feGaussianBlur stdDeviation="17.2497" result="effect1_foregroundBlur_0_1682"/>
</filter>
<filter id="filter13_f_0_1682" x="1527.74" y="-43.3426" width="1453.49" height="1352.56" filterUnits="userSpaceOnUse" color-interpolation-filters="sRGB">
<feFlood flood-opacity="0" result="BackgroundImageFix"/>
<feBlend mode="normal" in="SourceGraphic" in2="BackgroundImageFix" result="shape"/>
<feGaussianBlur stdDeviation="17.2497" result="effect1_foregroundBlur_0_1682"/>
</filter>
<filter id="filter14_f_0_1682" x="1508.82" y="-43.3422" width="1472.4" height="1352.56" filterUnits="userSpaceOnUse" color-interpolation-filters="sRGB">
<feFlood flood-opacity="0" result="BackgroundImageFix"/>
<feBlend mode="normal" in="SourceGraphic" in2="BackgroundImageFix" result="shape"/>
<feGaussianBlur stdDeviation="17.2497" result="effect1_foregroundBlur_0_1682"/>
</filter>
<filter id="filter15_f_0_1682" x="1602.2" y="-30.2991" width="1415.42" height="1343" filterUnits="userSpaceOnUse" color-interpolation-filters="sRGB">
<feFlood flood-opacity="0" result="BackgroundImageFix"/>
<feBlend mode="normal" in="SourceGraphic" in2="BackgroundImageFix" result="shape"/>
<feGaussianBlur stdDeviation="7.73261" result="effect1_foregroundBlur_0_1682"/>
</filter>
<filter id="filter16_f_0_1682" x="1571.25" y="-23.9009" width="1420.18" height="1336.26" filterUnits="userSpaceOnUse" color-interpolation-filters="sRGB">
<feFlood flood-opacity="0" result="BackgroundImageFix"/>
<feBlend mode="normal" in="SourceGraphic" in2="BackgroundImageFix" result="shape"/>
<feGaussianBlur stdDeviation="8.92225" result="effect1_foregroundBlur_0_1682"/>
</filter>
<filter id="filter17_f_0_1682" x="1566.77" y="-6.26842" width="1403.52" height="1293.49" filterUnits="userSpaceOnUse" color-interpolation-filters="sRGB">
<feFlood flood-opacity="0" result="BackgroundImageFix"/>
<feBlend mode="normal" in="SourceGraphic" in2="BackgroundImageFix" result="shape"/>
<feGaussianBlur stdDeviation="4.75853" result="effect1_foregroundBlur_0_1682"/>
</filter>
<filter id="filter18_f_0_1682" x="1547.74" y="268.376" width="1441.59" height="1029" filterUnits="userSpaceOnUse" color-interpolation-filters="sRGB">
<feFlood flood-opacity="0" result="BackgroundImageFix"/>
<feBlend mode="normal" in="SourceGraphic" in2="BackgroundImageFix" result="shape"/>
<feGaussianBlur stdDeviation="14.2756" result="effect1_foregroundBlur_0_1682"/>
</filter>
<filter id="filter19_f_0_1682" x="1547.74" y="268.376" width="1441.59" height="1035.5" filterUnits="userSpaceOnUse" color-interpolation-filters="sRGB">
<feFlood flood-opacity="0" result="BackgroundImageFix"/>
<feBlend mode="normal" in="SourceGraphic" in2="BackgroundImageFix" result="shape"/>
<feGaussianBlur stdDeviation="14.2756" result="effect1_foregroundBlur_0_1682"/>
</filter>
<filter id="filter20_f_0_1682" x="-258.448" y="-205.668" width="1168.26" height="1273.21" filterUnits="userSpaceOnUse" color-interpolation-filters="sRGB">
<feFlood flood-opacity="0" result="BackgroundImageFix"/>
<feBlend mode="normal" in="SourceGraphic" in2="BackgroundImageFix" result="shape"/>
<feGaussianBlur stdDeviation="7.26216" result="effect1_foregroundBlur_0_1682"/>
</filter>
<filter id="filter21_f_0_1682" x="-271.183" y="-228.57" width="1235.61" height="1343.28" filterUnits="userSpaceOnUse" color-interpolation-filters="sRGB">
<feFlood flood-opacity="0" result="BackgroundImageFix"/>
<feBlend mode="normal" in="SourceGraphic" in2="BackgroundImageFix" result="shape"/>
<feGaussianBlur stdDeviation="21.7865" result="effect1_foregroundBlur_0_1682"/>
</filter>
<filter id="filter22_f_0_1682" x="-290.549" y="-247.935" width="1274.34" height="1382.01" filterUnits="userSpaceOnUse" color-interpolation-filters="sRGB">
<feFlood flood-opacity="0" result="BackgroundImageFix"/>
<feBlend mode="normal" in="SourceGraphic" in2="BackgroundImageFix" result="shape"/>
<feGaussianBlur stdDeviation="31.4693" result="effect1_foregroundBlur_0_1682"/>
</filter>
<filter id="filter23_f_0_1682" x="-290.549" y="-247.935" width="1274.34" height="1382.01" filterUnits="userSpaceOnUse" color-interpolation-filters="sRGB">
<feFlood flood-opacity="0" result="BackgroundImageFix"/>
<feBlend mode="normal" in="SourceGraphic" in2="BackgroundImageFix" result="shape"/>
<feGaussianBlur stdDeviation="31.4693" result="effect1_foregroundBlur_0_1682"/>
</filter>
<filter id="filter24_f_0_1682" x="-344.7" y="-328.293" width="1415.64" height="1549.52" filterUnits="userSpaceOnUse" color-interpolation-filters="sRGB">
<feFlood flood-opacity="0" result="BackgroundImageFix"/>
<feBlend mode="normal" in="SourceGraphic" in2="BackgroundImageFix" result="shape"/>
<feGaussianBlur stdDeviation="75.0423" result="effect1_foregroundBlur_0_1682"/>
</filter>
<filter id="filter25_f_0_1682" x="-286.29" y="-320.005" width="1314.82" height="1501.94" filterUnits="userSpaceOnUse" color-interpolation-filters="sRGB">
<feFlood flood-opacity="0" result="BackgroundImageFix"/>
<feBlend mode="normal" in="SourceGraphic" in2="BackgroundImageFix" result="shape"/>
<feGaussianBlur stdDeviation="45.9937" result="effect1_foregroundBlur_0_1682"/>
</filter>
<filter id="filter26_f_0_1682" x="-392.802" y="-426.516" width="1527.84" height="1714.96" filterUnits="userSpaceOnUse" color-interpolation-filters="sRGB">
<feFlood flood-opacity="0" result="BackgroundImageFix"/>
<feBlend mode="normal" in="SourceGraphic" in2="BackgroundImageFix" result="shape"/>
<feGaussianBlur stdDeviation="99.2495" result="effect1_foregroundBlur_0_1682"/>
</filter>
<filter id="filter27_f_0_1682" x="-489.63" y="-523.345" width="1721.5" height="1908.62" filterUnits="userSpaceOnUse" color-interpolation-filters="sRGB">
<feFlood flood-opacity="0" result="BackgroundImageFix"/>
<feBlend mode="normal" in="SourceGraphic" in2="BackgroundImageFix" result="shape"/>
<feGaussianBlur stdDeviation="147.664" result="effect1_foregroundBlur_0_1682"/>
</filter>
<filter id="filter28_f_0_1682" x="-115.567" y="-121.311" width="840.261" height="338.485" filterUnits="userSpaceOnUse" color-interpolation-filters="sRGB">
<feFlood flood-opacity="0" result="BackgroundImageFix"/>
<feBlend mode="normal" in="SourceGraphic" in2="BackgroundImageFix" result="shape"/>
<feGaussianBlur stdDeviation="2.97408" result="effect1_foregroundBlur_0_1682"/>
</filter>
<filter id="filter29_f_0_1682" x="-89.8947" y="-100.285" width="804.318" height="595.294" filterUnits="userSpaceOnUse" color-interpolation-filters="sRGB">
<feFlood flood-opacity="0" result="BackgroundImageFix"/>
<feBlend mode="normal" in="SourceGraphic" in2="BackgroundImageFix" result="shape"/>
<feGaussianBlur stdDeviation="2.97408" result="effect1_foregroundBlur_0_1682"/>
</filter>
<filter id="filter30_f_0_1682" x="-146.997" y="-157.387" width="918.523" height="709.499" filterUnits="userSpaceOnUse" color-interpolation-filters="sRGB">
<feFlood flood-opacity="0" result="BackgroundImageFix"/>
<feBlend mode="normal" in="SourceGraphic" in2="BackgroundImageFix" result="shape"/>
<feGaussianBlur stdDeviation="31.5253" result="effect1_foregroundBlur_0_1682"/>
</filter>
<filter id="filter31_f_0_1682" x="-118.446" y="-128.836" width="861.42" height="652.397" filterUnits="userSpaceOnUse" color-interpolation-filters="sRGB">
<feFlood flood-opacity="0" result="BackgroundImageFix"/>
<feBlend mode="normal" in="SourceGraphic" in2="BackgroundImageFix" result="shape"/>
<feGaussianBlur stdDeviation="17.2497" result="effect1_foregroundBlur_0_1682"/>
</filter>
<filter id="filter32_f_0_1682" x="-118.446" y="-128.836" width="861.42" height="652.397" filterUnits="userSpaceOnUse" color-interpolation-filters="sRGB">
<feFlood flood-opacity="0" result="BackgroundImageFix"/>
<feBlend mode="normal" in="SourceGraphic" in2="BackgroundImageFix" result="shape"/>
<feGaussianBlur stdDeviation="17.2497" result="effect1_foregroundBlur_0_1682"/>
</filter>
<filter id="filter33_f_0_1682" x="-118.446" y="-128.835" width="871.691" height="652.396" filterUnits="userSpaceOnUse" color-interpolation-filters="sRGB">
<feFlood flood-opacity="0" result="BackgroundImageFix"/>
<feBlend mode="normal" in="SourceGraphic" in2="BackgroundImageFix" result="shape"/>
<feGaussianBlur stdDeviation="17.2497" result="effect1_foregroundBlur_0_1682"/>
</filter>
<filter id="filter34_f_0_1682" x="-125.084" y="-124.237" width="823.352" height="637.326" filterUnits="userSpaceOnUse" color-interpolation-filters="sRGB">
<feFlood flood-opacity="0" result="BackgroundImageFix"/>
<feBlend mode="normal" in="SourceGraphic" in2="BackgroundImageFix" result="shape"/>
<feGaussianBlur stdDeviation="7.73261" result="effect1_foregroundBlur_0_1682"/>
</filter>
<filter id="filter35_f_0_1682" x="-112.864" y="-121.823" width="828.11" height="633.757" filterUnits="userSpaceOnUse" color-interpolation-filters="sRGB">
<feFlood flood-opacity="0" result="BackgroundImageFix"/>
<feBlend mode="normal" in="SourceGraphic" in2="BackgroundImageFix" result="shape"/>
<feGaussianBlur stdDeviation="8.92225" result="effect1_foregroundBlur_0_1682"/>
</filter>
<filter id="filter36_f_0_1682" x="-99.8315" y="-103.209" width="811.456" height="597.263" filterUnits="userSpaceOnUse" color-interpolation-filters="sRGB">
<feFlood flood-opacity="0" result="BackgroundImageFix"/>
<feBlend mode="normal" in="SourceGraphic" in2="BackgroundImageFix" result="shape"/>
<feGaussianBlur stdDeviation="4.75853" result="effect1_foregroundBlur_0_1682"/>
</filter>
<filter id="filter37_f_0_1682" x="-118.867" y="-117.565" width="849.524" height="472.57" filterUnits="userSpaceOnUse" color-interpolation-filters="sRGB">
<feFlood flood-opacity="0" result="BackgroundImageFix"/>
<feBlend mode="normal" in="SourceGraphic" in2="BackgroundImageFix" result="shape"/>
<feGaussianBlur stdDeviation="14.2756" result="effect1_foregroundBlur_0_1682"/>
</filter>
<filter id="filter38_f_0_1682" x="-118.867" y="-117.471" width="849.524" height="472.475" filterUnits="userSpaceOnUse" color-interpolation-filters="sRGB">
<feFlood flood-opacity="0" result="BackgroundImageFix"/>
<feBlend mode="normal" in="SourceGraphic" in2="BackgroundImageFix" result="shape"/>
<feGaussianBlur stdDeviation="14.2756" result="effect1_foregroundBlur_0_1682"/>
</filter>
<linearGradient id="paint0_linear_0_1682" x1="3038.68" y1="-1611.78" x2="3038.68" y2="1680.7" gradientUnits="userSpaceOnUse">
<stop stop-color="#C4C4C4" stop-opacity="0"/>
<stop offset="0.380208" stop-color="#C4C4C4"/>
<stop offset="0.578125" stop-color="#C4C4C4"/>
<stop offset="1" stop-color="#C4C4C4" stop-opacity="0"/>
</linearGradient>
<linearGradient id="paint1_linear_0_1682" x1="2949.78" y1="-720.32" x2="1826.44" y2="1571.17" gradientUnits="userSpaceOnUse">
<stop stop-color="#057FE2"/>
<stop offset="1" stop-color="#178AEC"/>
</linearGradient>
<linearGradient id="paint2_linear_0_1682" x1="2930.16" y1="-729.942" x2="1806.82" y2="1561.54" gradientUnits="userSpaceOnUse">
<stop stop-color="#057FE2"/>
<stop offset="1" stop-color="#178AEC"/>
</linearGradient>
<linearGradient id="paint3_linear_0_1682" x1="2893.38" y1="-744.928" x2="1761.62" y2="1563.73" gradientUnits="userSpaceOnUse">
<stop stop-color="#057FE2"/>
<stop offset="1" stop-color="#178AEC"/>
</linearGradient>
<linearGradient id="paint4_linear_0_1682" x1="2893.38" y1="-744.928" x2="1761.62" y2="1563.73" gradientUnits="userSpaceOnUse">
<stop stop-color="#057FE2"/>
<stop offset="1" stop-color="#178AEC"/>
</linearGradient>
<linearGradient id="paint5_linear_0_1682" x1="2893.38" y1="-744.928" x2="1761.62" y2="1563.73" gradientUnits="userSpaceOnUse">
<stop stop-color="white"/>
<stop offset="1" stop-color="#A4D5FF"/>
</linearGradient>
<linearGradient id="paint6_linear_0_1682" x1="2839.4" y1="-771.388" x2="1707.65" y2="1537.27" gradientUnits="userSpaceOnUse">
<stop stop-color="#057FE2"/>
<stop offset="1" stop-color="#178AEC"/>
</linearGradient>
<linearGradient id="paint7_linear_0_1682" x1="2856.88" y1="-879.976" x2="1634.92" y2="1612.69" gradientUnits="userSpaceOnUse">
<stop stop-color="#057FE2"/>
<stop offset="1" stop-color="#178AEC"/>
</linearGradient>
<linearGradient id="paint8_linear_0_1682" x1="2856.88" y1="-879.976" x2="1634.92" y2="1612.69" gradientUnits="userSpaceOnUse">
<stop stop-color="#057FE2"/>
<stop offset="1" stop-color="#178AEC"/>
</linearGradient>
<linearGradient id="paint9_linear_0_1682" x1="2856.88" y1="-879.976" x2="1634.92" y2="1612.69" gradientUnits="userSpaceOnUse">
<stop stop-color="#057FE2"/>
<stop offset="1" stop-color="#178AEC"/>
</linearGradient>
<linearGradient id="paint10_linear_0_1682" x1="2607.27" y1="735.065" x2="1553.35" y2="963.058" gradientUnits="userSpaceOnUse">
<stop stop-color="#C4C4C4" stop-opacity="0"/>
<stop offset="0.565737" stop-color="#C4C4C4"/>
<stop offset="1" stop-color="#C4C4C4" stop-opacity="0"/>
</linearGradient>
<linearGradient id="paint11_linear_0_1682" x1="853.699" y1="1427.19" x2="853.699" y2="3189.89" gradientUnits="userSpaceOnUse">
<stop stop-color="#C4C4C4" stop-opacity="0"/>
<stop offset="0.380208" stop-color="#C4C4C4"/>
<stop offset="0.578125" stop-color="#C4C4C4"/>
<stop offset="1" stop-color="#C4C4C4" stop-opacity="0"/>
</linearGradient>
<linearGradient id="paint12_linear_0_1682" x1="-237.366" y1="833.613" x2="619.417" y2="-230.639" gradientUnits="userSpaceOnUse">
<stop stop-color="#057FE2"/>
<stop offset="1" stop-color="#178AEC"/>
</linearGradient>
<linearGradient id="paint13_linear_0_1682" x1="-228.25" y1="840.951" x2="628.532" y2="-223.301" gradientUnits="userSpaceOnUse">
<stop stop-color="#057FE2"/>
<stop offset="1" stop-color="#178AEC"/>
</linearGradient>
<linearGradient id="paint14_linear_0_1682" x1="-210.811" y1="853.113" x2="652.393" y2="-219.115" gradientUnits="userSpaceOnUse">
<stop stop-color="#057FE2"/>
<stop offset="1" stop-color="#178AEC"/>
</linearGradient>
<linearGradient id="paint15_linear_0_1682" x1="-210.811" y1="853.113" x2="652.393" y2="-219.115" gradientUnits="userSpaceOnUse">
<stop stop-color="#057FE2"/>
<stop offset="1" stop-color="#178AEC"/>
</linearGradient>
<linearGradient id="paint16_linear_0_1682" x1="-210.811" y1="853.113" x2="652.393" y2="-219.115" gradientUnits="userSpaceOnUse">
<stop stop-color="#057FE2"/>
<stop offset="1" stop-color="#178AEC"/>
</linearGradient>
<linearGradient id="paint17_linear_0_1682" x1="-185.743" y1="873.294" x2="677.461" y2="-198.934" gradientUnits="userSpaceOnUse">
<stop stop-color="#057FE2"/>
<stop offset="1" stop-color="#178AEC"/>
</linearGradient>
<linearGradient id="paint18_linear_0_1682" x1="-207.671" y1="927.942" x2="724.332" y2="-229.746" gradientUnits="userSpaceOnUse">
<stop stop-color="#057FE2"/>
<stop offset="1" stop-color="#178AEC"/>
</linearGradient>
<linearGradient id="paint19_linear_0_1682" x1="-207.671" y1="927.942" x2="724.332" y2="-229.746" gradientUnits="userSpaceOnUse">
<stop stop-color="#057FE2"/>
<stop offset="1" stop-color="#178AEC"/>
</linearGradient>
<linearGradient id="paint20_linear_0_1682" x1="-207.671" y1="927.942" x2="724.332" y2="-229.746" gradientUnits="userSpaceOnUse">
<stop stop-color="#057FE2"/>
<stop offset="1" stop-color="#178AEC"/>
</linearGradient>
<linearGradient id="paint21_linear_0_1682" x1="113.079" y1="113.946" x2="690.346" y2="119.128" gradientUnits="userSpaceOnUse">
<stop stop-color="#C4C4C4" stop-opacity="0"/>
<stop offset="0.565737" stop-color="#C4C4C4"/>
<stop offset="1" stop-color="#C4C4C4" stop-opacity="0"/>
</linearGradient>
<clipPath id="clip0_0_1682">
<rect width="1881" height="945" fill="white" transform="translate(-1 -6)"/>
</clipPath>
</defs>
</svg>
