<svg width="100" height="100" viewBox="0 0 100 100" fill="none" xmlns="http://www.w3.org/2000/svg">
<path d="M4.6875 34.375C3.82812 34.375 3.125 33.6719 3.125 32.8125V14.0625C3.125 8.03125 8.03125 3.125 14.0625 3.125H32.8125C33.6719 3.125 34.375 3.82812 34.375 4.6875C34.375 5.54688 33.6719 6.25 32.8125 6.25H14.0625C9.75 6.25 6.25 9.75 6.25 14.0625V32.8125C6.25 33.6719 5.54688 34.375 4.6875 34.375ZM95.3125 34.375C94.4531 34.375 93.75 33.6719 93.75 32.8125V14.0625C93.75 9.75 90.25 6.25 85.9375 6.25H67.1875C66.3281 6.25 65.625 5.54688 65.625 4.6875C65.625 3.82812 66.3281 3.125 67.1875 3.125H85.9375C91.9687 3.125 96.875 8.03125 96.875 14.0625V32.8125C96.875 33.6719 96.1719 34.375 95.3125 34.375ZM32.8125 96.875H14.0625C8.03125 96.875 3.125 91.9687 3.125 85.9375V67.1875C3.125 66.3281 3.82812 65.625 4.6875 65.625C5.54688 65.625 6.25 66.3281 6.25 67.1875V85.9375C6.25 90.25 9.75 93.75 14.0625 93.75H32.8125C33.6719 93.75 34.375 94.4531 34.375 95.3125C34.375 96.1719 33.6719 96.875 32.8125 96.875ZM85.9375 96.875H67.1875C66.3281 96.875 65.625 96.1719 65.625 95.3125C65.625 94.4531 66.3281 93.75 67.1875 93.75H85.9375C90.25 93.75 93.75 90.25 93.75 85.9375V67.1875C93.75 66.3281 94.4531 65.625 95.3125 65.625C96.1719 65.625 96.875 66.3281 96.875 67.1875V85.9375C96.875 91.9687 91.9687 96.875 85.9375 96.875ZM50 48.4375C43.9688 48.4375 39.0625 43.5312 39.0625 37.5C39.0625 31.4688 43.9688 26.5625 50 26.5625C56.0312 26.5625 60.9375 31.4688 60.9375 37.5C60.9375 43.5312 56.0312 48.4375 50 48.4375ZM50 29.6875C45.6875 29.6875 42.1875 33.1875 42.1875 37.5C42.1875 41.8125 45.6875 45.3125 50 45.3125C54.3125 45.3125 57.8125 41.8125 57.8125 37.5C57.8125 33.1875 54.3125 29.6875 50 29.6875Z" fill="#2251FF"/>
<path d="M95.3125 48.4375H87.4531C86.6563 29 70.9844 13.3437 51.5625 12.5469V4.6875C51.5625 3.82812 50.8594 3.125 50 3.125C49.1406 3.125 48.4375 3.82812 48.4375 4.6875V12.5469C29 13.3437 13.3437 29.0156 12.5469 48.4375H4.6875C3.82812 48.4375 3.125 49.1406 3.125 50C3.125 50.8594 3.82812 51.5625 4.6875 51.5625H12.5469C13.3437 71 29.0156 86.6563 48.4531 87.4531V95.3125C48.4531 96.1719 49.1562 96.875 50.0156 96.875C50.875 96.875 51.5781 96.1719 51.5781 95.3125V87.4531C71.0156 86.6563 86.6875 71 87.4844 51.5625H95.3438C96.2031 51.5625 96.9063 50.8594 96.9063 50C96.9063 49.1406 96.2031 48.4375 95.3438 48.4375H95.3125ZM50 84.375C31.0469 84.375 15.625 68.9531 15.625 50C15.625 31.0469 31.0469 15.625 50 15.625C68.9531 15.625 84.375 31.0469 84.375 50C84.375 68.9531 68.9531 84.375 50 84.375Z" fill="white"/>
<path d="M50 79.6875C43.3594 79.6875 37.0781 77.5469 31.8594 73.4844C31.4844 73.1875 31.25 72.7344 31.25 72.25V62.5C31.25 55.6094 36.8594 50 43.75 50C44.1719 50 44.5625 50.1719 44.8594 50.4531L50 55.5938L55.1406 50.4531C55.2861 50.3076 55.4592 50.1926 55.6497 50.1148C55.8401 50.037 56.0442 49.998 56.25 50C63.1406 50 68.75 55.6094 68.75 62.5V72.25C68.75 72.7344 68.5313 73.1875 68.1406 73.4844C62.9063 77.5469 56.6406 79.6875 50 79.6875ZM34.375 71.4688C38.9219 74.7969 44.3125 76.5625 50 76.5625C55.6875 76.5625 61.0781 74.8125 65.625 71.4688V62.5C65.625 57.5469 61.75 53.4688 56.875 53.1406L51.1094 58.9063C50.9648 59.0511 50.7931 59.166 50.6041 59.2444C50.4151 59.3228 50.2125 59.3632 50.0078 59.3632C49.8032 59.3632 49.6005 59.3228 49.4115 59.2444C49.2225 59.166 49.0508 59.0511 48.9062 58.9063L43.1406 53.1406C38.2656 53.4688 34.3906 57.5313 34.3906 62.5V71.4688H34.375Z" fill="#2251FF"/>
</svg>
