<svg width="500" height="127" viewBox="0 0 500 127" fill="none" xmlns="http://www.w3.org/2000/svg">
<g opacity="0.5" clip-path="url(#clip0_5_832)">
<mask id="path-1-outside-1_5_832" maskUnits="userSpaceOnUse" x="28" y="18" width="437" height="150" fill="black">
<rect fill="white" x="28" y="18" width="437" height="150"/>
<path d="M139.568 59.4H107.568C104.368 50.4 98.968 46.8 89.168 46.8C69.368 46.8 64.968 65.8 62.768 81.6C71.768 71.2 80.968 67 94.968 67C122.168 67 141.368 86.2 141.368 113.8C141.368 146.2 116.768 164.2 86.168 164.2C46.168 164.2 29.968 133 29.968 96.8C29.968 49 51.768 21.6 90.168 21.6C117.368 21.6 135.168 35.2 139.568 59.4ZM86.568 91.8C74.368 91.8 65.368 101.4 65.368 114.4C65.368 127.6 74.368 137.2 86.968 137.2C99.768 137.2 108.968 127.6 108.968 114.4C108.968 101.2 99.768 91.8 86.568 91.8ZM258.745 23.4V52H196.745L192.545 76.6C203.345 69.6 209.945 67.4 220.745 67.4C248.745 67.4 266.345 85 266.345 112.8C266.345 144.4 243.945 164 208.145 164C176.145 164 154.545 150 152.545 119.2H185.945C186.945 130 195.745 136.6 208.945 136.6C223.145 136.6 232.345 127.8 232.345 114C232.345 99.8 223.545 90.8 209.545 90.8C200.545 90.8 193.345 94 188.145 101.4H157.145L170.745 23.4H258.745ZM424.721 19.2L346.121 166.8H326.321L404.921 19.2H424.721ZM323.721 21.2C346.121 21.2 358.321 34.6 358.321 59C358.321 84.2 346.321 98 324.521 98C302.321 98 289.721 84.2 289.721 59.6C289.721 35.2 302.121 21.2 323.721 21.2ZM324.121 37.2C313.321 37.2 312.921 52.2 312.921 59.8C312.921 71.4 313.321 82.2 323.521 82.2C331.921 82.2 334.921 75.8 334.921 57.8C334.921 43.4 331.721 37.2 324.121 37.2ZM428.921 88C451.321 88 463.521 101.4 463.521 125.8C463.521 151 451.521 164.8 429.721 164.8C407.521 164.8 394.921 151 394.921 126.4C394.921 102 407.321 88 428.921 88ZM429.321 104C418.521 104 418.121 119 418.121 126.6C418.121 138.2 418.521 149 428.721 149C437.121 149 440.121 142.6 440.121 124.6C440.121 110.2 436.921 104 429.321 104Z"/>
</mask>
<path d="M139.568 59.4V60.4H140.766L140.552 59.2211L139.568 59.4ZM107.568 59.4L106.626 59.735L106.862 60.4H107.568V59.4ZM62.768 81.6L61.7775 81.4621L61.3111 84.8116L63.5241 82.2544L62.768 81.6ZM139.568 58.4H107.568V60.4H139.568V58.4ZM108.51 59.065C106.865 54.4392 104.612 51.0806 101.406 48.8983C98.2056 46.7201 94.1827 45.8 89.168 45.8V47.8C93.9533 47.8 97.5304 48.6799 100.28 50.5517C103.024 52.4194 105.07 55.3608 106.626 59.735L108.51 59.065ZM89.168 45.8C84.0501 45.8 79.8744 47.0303 76.4676 49.1686C73.0667 51.3033 70.4867 54.3081 68.5001 57.7782C64.5452 64.6865 62.8778 73.5599 61.7775 81.4621L63.7584 81.7379C64.8581 73.8401 66.4908 65.3135 70.2358 58.7718C72.0992 55.5169 74.4693 52.7842 77.5308 50.8626C80.5865 48.9447 84.3859 47.8 89.168 47.8V45.8ZM63.5241 82.2544C67.9557 77.1335 72.3947 73.5864 77.4064 71.3105C82.4189 69.0343 88.0698 68 94.968 68V66C87.8662 66 81.917 67.0657 76.5795 69.4895C71.2413 71.9136 66.5803 75.6665 62.0118 80.9456L63.5241 82.2544ZM94.968 68C108.326 68 119.663 72.7105 127.659 80.755C135.655 88.7997 140.368 100.238 140.368 113.8H142.368C142.368 99.7622 137.481 87.8003 129.077 79.345C120.673 70.8895 108.81 66 94.968 66V68ZM140.368 113.8C140.368 129.725 134.333 142.042 124.592 150.391C114.833 158.756 101.28 163.2 86.168 163.2V165.2C101.656 165.2 115.703 160.644 125.894 151.909C136.103 143.158 142.368 130.275 142.368 113.8H140.368ZM86.168 163.2C66.4648 163.2 52.7232 155.535 43.874 143.483C34.9921 131.387 30.968 114.771 30.968 96.8H28.968C28.968 115.029 33.0439 132.113 42.2619 144.667C51.5127 157.265 65.8712 165.2 86.168 165.2V163.2ZM30.968 96.8C30.968 73.0351 36.3891 54.4866 46.4491 41.8993C56.4832 29.3445 71.2274 22.6 90.168 22.6V20.6C70.7086 20.6 55.3527 27.5555 44.8868 40.6507C34.4468 53.7134 28.968 72.7649 28.968 96.8H30.968ZM90.168 22.6C103.604 22.6 114.625 25.9581 122.81 32.2193C130.987 38.4734 136.422 47.6898 138.584 59.5789L140.552 59.2211C138.313 46.9102 132.649 37.2266 124.026 30.6307C115.411 24.0419 103.932 20.6 90.168 20.6V22.6ZM86.568 90.8C73.7562 90.8 64.368 100.909 64.368 114.4H66.368C66.368 101.891 74.9797 92.8 86.568 92.8V90.8ZM64.368 114.4C64.368 128.098 73.7626 138.2 86.968 138.2V136.2C74.9733 136.2 66.368 127.102 66.368 114.4H64.368ZM86.968 138.2C100.355 138.2 109.968 128.116 109.968 114.4H107.968C107.968 127.084 99.1805 136.2 86.968 136.2V138.2ZM109.968 114.4C109.968 107.562 107.582 101.652 103.43 97.4474C99.2763 93.2416 93.4128 90.8 86.568 90.8V92.8C92.9231 92.8 98.2596 95.0584 102.006 98.8526C105.754 102.648 107.968 108.038 107.968 114.4H109.968ZM258.745 23.4H259.745V22.4H258.745V23.4ZM258.745 52V53H259.745V52H258.745ZM196.745 52V51H195.901L195.759 51.8317L196.745 52ZM192.545 76.6L191.559 76.4317L191.175 78.6793L193.088 77.4391L192.545 76.6ZM152.545 119.2V118.2H151.477L151.547 119.265L152.545 119.2ZM185.945 119.2L186.94 119.108L186.856 118.2H185.945V119.2ZM188.145 101.4V102.4H188.664L188.963 101.975L188.145 101.4ZM157.145 101.4L156.159 101.228L155.955 102.4H157.145V101.4ZM170.745 23.4V22.4H169.904L169.759 23.2282L170.745 23.4ZM257.745 23.4V52H259.745V23.4H257.745ZM258.745 51H196.745V53H258.745V51ZM195.759 51.8317L191.559 76.4317L193.53 76.7683L197.73 52.1683L195.759 51.8317ZM193.088 77.4391C198.455 73.9609 202.722 71.7121 206.956 70.3253C211.179 68.9419 215.418 68.4 220.745 68.4V66.4C215.271 66.4 210.81 66.9581 206.333 68.4247C201.867 69.8879 197.434 72.2391 192.001 75.7608L193.088 77.4391ZM220.745 68.4C234.532 68.4 245.66 72.7291 253.339 80.3832C261.017 88.0371 265.345 99.1142 265.345 112.8H267.345C267.345 98.6858 262.872 87.0629 254.751 78.9668C246.629 70.8709 234.957 66.4 220.745 66.4V68.4ZM265.345 112.8C265.345 128.349 259.842 140.862 250.01 149.499C240.162 158.149 225.869 163 208.145 163V165C226.22 165 241.027 160.051 251.329 151.001C261.647 141.938 267.345 128.851 267.345 112.8H265.345ZM208.145 163C192.274 163 179.117 159.526 169.7 152.354C160.316 145.206 154.527 134.293 153.542 119.135L151.547 119.265C152.562 134.907 158.574 146.394 168.489 153.946C178.372 161.474 192.015 165 208.145 165V163ZM152.545 120.2H185.945V118.2H152.545V120.2ZM184.949 119.292C185.474 124.962 188.06 129.573 192.267 132.748C196.457 135.91 202.185 137.6 208.945 137.6V135.6C202.504 135.6 197.232 133.99 193.472 131.152C189.729 128.327 187.415 124.238 186.94 119.108L184.949 119.292ZM208.945 137.6C216.252 137.6 222.368 135.332 226.663 131.195C230.963 127.054 233.345 121.129 233.345 114H231.345C231.345 120.671 229.126 126.046 225.276 129.755C221.421 133.468 215.837 135.6 208.945 135.6V137.6ZM233.345 114C233.345 106.692 231.076 100.622 226.908 96.3746C222.738 92.1252 216.763 89.8 209.545 89.8V91.8C216.326 91.8 221.751 93.9748 225.481 97.7754C229.213 101.578 231.345 107.108 231.345 114H233.345ZM209.545 89.8C200.265 89.8 192.738 93.1233 187.326 100.825L188.963 101.975C193.951 94.8767 200.825 91.8 209.545 91.8V89.8ZM188.145 100.4H157.145V102.4H188.145V100.4ZM158.13 101.572L171.73 23.5718L169.759 23.2282L156.159 101.228L158.13 101.572ZM170.745 24.4H258.745V22.4H170.745V24.4ZM424.721 19.2L425.604 19.67L426.387 18.2H424.721V19.2ZM346.121 166.8V167.8H346.722L347.004 167.27L346.121 166.8ZM326.321 166.8L325.438 166.33L324.656 167.8H326.321V166.8ZM404.921 19.2V18.2H404.321L404.038 18.73L404.921 19.2ZM423.838 18.73L345.238 166.33L347.004 167.27L425.604 19.67L423.838 18.73ZM346.121 165.8H326.321V167.8H346.121V165.8ZM327.204 167.27L405.804 19.67L404.038 18.73L325.438 166.33L327.204 167.27ZM404.921 20.2H424.721V18.2H404.921V20.2ZM323.721 22.2C334.719 22.2 343.069 25.4834 348.683 31.6247C354.31 37.7804 357.321 46.9544 357.321 59H359.321C359.321 46.6456 356.233 36.9196 350.159 30.2753C344.073 23.6166 335.124 20.2 323.721 20.2V22.2ZM357.321 59C357.321 71.4566 354.354 80.9386 348.841 87.2947C343.347 93.6281 335.201 97 324.521 97V99C335.641 99 344.395 95.4719 350.352 88.6053C356.288 81.7614 359.321 71.7434 359.321 59H357.321ZM324.521 97C313.634 97 305.23 93.623 299.536 87.3527C293.83 81.0681 290.721 71.7398 290.721 59.6H288.721C288.721 72.0602 291.913 81.9319 298.056 88.6972C304.212 95.477 313.208 99 324.521 99V97ZM290.721 59.6C290.721 47.5584 293.781 38.2246 299.37 31.9129C304.943 25.6188 313.147 22.2 323.721 22.2V20.2C312.695 20.2 303.899 23.7812 297.872 30.587C291.861 37.3754 288.721 47.2416 288.721 59.6H290.721ZM324.121 36.2C321.161 36.2 318.859 37.2389 317.115 38.9483C315.396 40.6324 314.268 42.9172 313.516 45.3552C312.015 50.2174 311.921 56.0094 311.921 59.8H313.921C313.921 55.9906 314.027 50.4826 315.427 45.9448C316.125 43.6828 317.121 41.7426 318.515 40.3767C319.883 39.0361 321.681 38.2 324.121 38.2V36.2ZM311.921 59.8C311.921 65.5607 312.012 71.3325 313.447 75.6645C314.172 77.8535 315.265 79.7557 316.932 81.1079C318.612 82.471 320.785 83.2 323.521 83.2V81.2C321.158 81.2 319.455 80.579 318.192 79.5546C316.915 78.5192 315.995 76.9965 315.345 75.0355C314.031 71.0675 313.921 65.6393 313.921 59.8H311.921ZM323.521 83.2C325.746 83.2 327.702 82.7758 329.362 81.7753C331.029 80.7711 332.311 79.2387 333.277 77.1735C335.18 73.104 335.921 66.8031 335.921 57.8H333.921C333.921 66.7969 333.163 72.696 331.465 76.3265C330.631 78.1112 329.589 79.3039 328.33 80.0622C327.065 80.8242 325.496 81.2 323.521 81.2V83.2ZM335.921 57.8C335.921 50.5689 335.125 45.2124 333.257 41.637C332.312 39.8267 331.079 38.4492 329.522 37.5321C327.968 36.6165 326.159 36.2 324.121 36.2V38.2C325.884 38.2 327.324 38.5585 328.507 39.2554C329.688 39.9508 330.68 41.0233 331.485 42.563C333.117 45.6876 333.921 50.6311 333.921 57.8H335.921ZM428.921 89C439.919 89 448.269 92.2834 453.883 98.4247C459.51 104.58 462.521 113.754 462.521 125.8H464.521C464.521 113.446 461.433 103.72 455.359 97.0753C449.273 90.4166 440.324 87 428.921 87V89ZM462.521 125.8C462.521 138.257 459.554 147.739 454.041 154.095C448.547 160.428 440.401 163.8 429.721 163.8V165.8C440.841 165.8 449.595 162.272 455.552 155.405C461.488 148.561 464.521 138.543 464.521 125.8H462.521ZM429.721 163.8C418.834 163.8 410.43 160.423 404.736 154.153C399.03 147.868 395.921 138.54 395.921 126.4H393.921C393.921 138.86 397.113 148.732 403.256 155.497C409.412 162.277 418.408 165.8 429.721 165.8V163.8ZM395.921 126.4C395.921 114.358 398.981 105.025 404.57 98.7129C410.143 92.4188 418.347 89 428.921 89V87C417.895 87 409.099 90.5812 403.072 97.3871C397.061 104.175 393.921 114.042 393.921 126.4H395.921ZM429.321 103C426.361 103 424.059 104.039 422.315 105.748C420.596 107.432 419.468 109.717 418.716 112.155C417.215 117.017 417.121 122.809 417.121 126.6H419.121C419.121 122.791 419.227 117.283 420.627 112.745C421.325 110.483 422.321 108.543 423.715 107.177C425.083 105.836 426.881 105 429.321 105V103ZM417.121 126.6C417.121 132.361 417.212 138.133 418.647 142.465C419.372 144.654 420.465 146.556 422.132 147.908C423.812 149.271 425.985 150 428.721 150V148C426.358 148 424.655 147.379 423.392 146.355C422.115 145.319 421.195 143.796 420.545 141.835C419.231 137.867 419.121 132.439 419.121 126.6H417.121ZM428.721 150C430.946 150 432.902 149.576 434.562 148.575C436.229 147.571 437.511 146.039 438.477 143.974C440.38 139.904 441.121 133.603 441.121 124.6H439.121C439.121 133.597 438.363 139.496 436.665 143.126C435.831 144.911 434.789 146.104 433.53 146.862C432.265 147.624 430.696 148 428.721 148V150ZM441.121 124.6C441.121 117.369 440.325 112.012 438.457 108.437C437.512 106.627 436.279 105.249 434.722 104.332C433.168 103.417 431.359 103 429.321 103V105C431.084 105 432.524 105.358 433.707 106.055C434.888 106.751 435.88 107.823 436.685 109.363C438.317 112.488 439.121 117.431 439.121 124.6H441.121Z" fill="url(#paint0_linear_5_832)" mask="url(#path-1-outside-1_5_832)"/>
</g>
<defs>
<linearGradient id="paint0_linear_5_832" x1="22" y1="0" x2="172.745" y2="351.072" gradientUnits="userSpaceOnUse">
<stop offset="0.345" stop-color="#057FE2"/>
<stop offset="0.895" stop-color="#057FE2" stop-opacity="0"/>
</linearGradient>
<clipPath id="clip0_5_832">
<rect width="500" height="127" fill="white"/>
</clipPath>
</defs>
</svg>
