<svg width="100" height="100" viewBox="0 0 100 100" fill="none" xmlns="http://www.w3.org/2000/svg">
<path d="M34.8594 52.0469C34.4531 52.0469 34.0625 51.8906 33.75 51.5937L23.2187 41.0625C23.0741 40.9178 22.9593 40.7461 22.881 40.5571C22.8027 40.3681 22.7625 40.1655 22.7625 39.9609C22.7625 39.7564 22.8027 39.5538 22.881 39.3648C22.9593 39.1758 23.0741 39.004 23.2187 38.8594C23.3634 38.7147 23.5351 38.6 23.7241 38.5217C23.9131 38.4434 24.1157 38.4031 24.3203 38.4031C24.5249 38.4031 24.7275 38.4434 24.9165 38.5217C25.1055 38.6 25.2772 38.7147 25.4219 38.8594L35.9531 49.3906C36.1712 49.6088 36.3194 49.8869 36.3791 50.1896C36.4388 50.4922 36.4072 50.8058 36.2883 51.0904C36.1694 51.3751 35.9686 51.6179 35.7114 51.7882C35.4542 51.9585 35.1522 52.0486 34.8437 52.0469H34.8594ZM60.0469 77.2344C59.6406 77.2344 59.25 77.0781 58.9375 76.7812L48.4219 66.2656C48.2772 66.121 48.1624 65.9492 48.0842 65.7602C48.0059 65.5712 47.9656 65.3686 47.9656 65.1641C47.9656 64.9595 48.0059 64.7569 48.0842 64.5679C48.1624 64.3789 48.2772 64.2072 48.4219 64.0625C48.5665 63.9178 48.7383 63.8031 48.9273 63.7248C49.1163 63.6465 49.3188 63.6062 49.5234 63.6062C49.728 63.6062 49.9306 63.6465 50.1196 63.7248C50.3086 63.8031 50.4803 63.9178 50.625 64.0625L61.1406 74.5781C61.3587 74.7963 61.5069 75.0744 61.5666 75.3771C61.6263 75.6797 61.5947 75.9933 61.4758 76.2779C61.3569 76.5625 61.1561 76.8054 60.8989 76.9757C60.6417 77.146 60.3397 77.2361 60.0312 77.2344H60.0469ZM66.9219 31.1562C65.2344 25.8125 60.3125 22.2187 54.6875 22.2187C49.0625 22.2187 44.1406 25.8125 42.4531 31.1562C42.1875 31.9844 42.6406 32.8594 43.4687 33.1094C43.6647 33.1727 43.8712 33.1967 44.0764 33.1798C44.2816 33.163 44.4815 33.1057 44.6645 33.0113C44.8475 32.9169 45.01 32.7873 45.1427 32.6298C45.2753 32.4723 45.3755 32.2901 45.4375 32.0937C46.7187 28.0469 50.4375 25.3437 54.6875 25.3437C58.9375 25.3437 62.6719 28.0625 63.9375 32.0937C64.1406 32.7656 64.7656 33.1875 65.4219 33.1875C65.5781 33.1875 65.7344 33.1719 65.8906 33.1094C66.7187 32.8437 67.1719 31.9687 66.9062 31.1562H66.9219ZM54.6875 20.1406C57.9375 20.1406 60.5937 17.5 60.5937 14.2344C60.5937 10.9687 57.9531 8.32812 54.6875 8.32812C51.4219 8.32812 48.7812 10.9844 48.7812 14.2344C48.7812 17.4844 51.4219 20.1406 54.6875 20.1406ZM54.6875 11.4531C56.2187 11.4531 57.4687 12.7031 57.4687 14.2344C57.4687 15.7656 56.2187 17.0156 54.6875 17.0156C53.1562 17.0156 51.9062 15.7656 51.9062 14.2344C51.9062 12.7031 53.1562 11.4531 54.6875 11.4531Z" fill="#2251FF"/>
<path d="M29.9531 96.875C22.7812 96.875 16.0469 94.0781 10.9844 89.0156C5.92188 83.9531 3.125 77.2188 3.125 70.0469C3.125 62.875 5.92188 56.1406 10.9844 51.0781L30.3594 31.7031C30.9531 31.1094 31.9844 31.1094 32.5625 31.7031L43.0937 42.2344C43.3906 42.5313 43.5469 42.9219 43.5469 43.3437C43.5469 43.7656 43.375 44.1563 43.0937 44.4531L23.6563 63.875C21.9844 65.5469 21.0781 67.75 21.0781 70.1094C21.0781 72.4687 22 74.6719 23.6563 76.3438C25.3281 78.0156 27.5312 78.9219 29.8906 78.9219C32.25 78.9219 34.4531 78 36.125 76.3438L55.5625 56.9219C55.7071 56.777 55.8788 56.6621 56.0678 56.5837C56.2568 56.5053 56.4594 56.4649 56.6641 56.4649C56.8687 56.4649 57.0713 56.5053 57.2604 56.5837C57.4494 56.6621 57.6211 56.777 57.7656 56.9219L68.2813 67.4375C68.5781 67.7344 68.7344 68.125 68.7344 68.5469C68.7344 68.9687 68.5625 69.3594 68.2813 69.6563L48.9062 89.0312C46.4212 91.5304 43.4651 93.5119 40.2091 94.8609C36.9531 96.21 33.4619 96.8999 29.9375 96.8906L29.9531 96.875ZM31.4687 35.0156L13.2031 53.2969C3.96875 62.5313 3.96875 77.5781 13.2031 86.8125C17.6719 91.2813 23.625 93.75 29.9531 93.75C36.2813 93.75 42.2344 91.2813 46.7031 86.8125L64.9844 68.5313L56.6719 60.2188L38.3438 78.5312C36.0938 80.7812 33.0937 82.0312 29.9062 82.0312C26.7187 82.0312 23.7187 80.7969 21.4687 78.5312C19.2187 76.2812 17.9688 73.2813 17.9688 70.0938C17.9688 66.9063 19.2031 63.9062 21.4687 61.6562L39.7969 43.3437L31.4687 35.0156ZM54.6875 37.5C50.25 37.5 46.0625 35.8125 42.8594 32.7656C41.1671 31.1627 39.8191 29.2318 38.8977 27.0908C37.9762 24.9497 37.5007 22.6434 37.5 20.3125C37.5 10.8281 45.2031 3.125 54.6875 3.125C64.1719 3.125 71.875 10.8281 71.875 20.3125C71.875 25.0156 69.9219 29.5625 66.5 32.7656C63.3218 35.8102 59.0887 37.5068 54.6875 37.5ZM54.6875 6.25C46.9375 6.25 40.625 12.5625 40.625 20.3125C40.625 24.1563 42.2187 27.8594 45.0156 30.5C47.6406 33 51.0625 34.375 54.6875 34.375C58.3125 34.375 61.75 33 64.3594 30.5C65.7446 29.189 66.8484 27.6096 67.6032 25.8581C68.3581 24.1066 68.7483 22.2197 68.75 20.3125C68.75 12.5625 62.4375 6.25 54.6875 6.25ZM92.4062 61.2813C90.8594 56.4063 86.375 53.125 81.25 53.125C76.125 53.125 71.6406 56.4063 70.0938 61.2813C69.8281 62.1094 70.2812 62.9844 71.1094 63.2344C71.3053 63.2977 71.5118 63.3217 71.7171 63.3048C71.9223 63.288 72.1221 63.2307 72.3051 63.1363C72.4881 63.0419 72.6507 62.9123 72.7833 62.7548C72.916 62.5973 73.0162 62.4151 73.0781 62.2187C74.2031 58.6406 77.5 56.25 81.2656 56.25C85.0312 56.25 88.3125 58.6562 89.4531 62.2187C89.6562 62.8906 90.2813 63.3125 90.9375 63.3125C91.0938 63.3125 91.25 63.2969 91.4062 63.2344C92.2344 62.9688 92.6875 62.0938 92.4219 61.2813H92.4062ZM81.25 51.5625C84.2656 51.5625 86.7188 49.1094 86.7188 46.0938C86.7188 43.0781 84.2656 40.625 81.25 40.625C78.2344 40.625 75.7812 43.0781 75.7812 46.0938C75.7812 49.1094 78.2344 51.5625 81.25 51.5625ZM81.25 43.75C82.5469 43.75 83.5938 44.7969 83.5938 46.0938C83.5938 47.3906 82.5469 48.4375 81.25 48.4375C79.9531 48.4375 78.9062 47.3906 78.9062 46.0938C78.9062 44.7969 79.9531 43.75 81.25 43.75ZM90.625 89.0625C90.0469 89.0625 89.5 88.75 89.2187 88.2031L85.5 80.7656L82.3438 83.9219C81.9844 84.2812 81.4844 84.4375 80.9844 84.3594C80.4844 84.2813 80.0625 83.9688 79.8437 83.5156L75.1562 74.1406C74.7656 73.375 75.0781 72.4375 75.8594 72.0469C76.6406 71.6563 77.5781 71.9688 77.9531 72.75L81.6719 80.1875L84.8281 77.0312C85.1875 76.6719 85.6875 76.5156 86.1875 76.5938C86.6875 76.6719 87.1094 76.9844 87.3281 77.4375L92.0156 86.8125C92.4062 87.5781 92.0937 88.5156 91.3125 88.9063C91.0937 89.0156 90.8438 89.0781 90.6094 89.0781L90.625 89.0625Z" fill="white"/>
<path d="M22.6562 27.9063C22.5 27.9063 22.3281 27.875 22.1562 27.8281C21.9618 27.7642 21.782 27.6625 21.6271 27.5287C21.4723 27.395 21.3454 27.2319 21.2539 27.0488C21.1624 26.8658 21.108 26.6665 21.0939 26.4623C21.0799 26.2582 21.1063 26.0532 21.1719 25.8594L23.7969 17.9688H19.3437C18.8437 17.9688 18.375 17.7344 18.0781 17.3125C17.7812 16.8906 17.7031 16.375 17.8594 15.9063L21.1719 5.96876C21.4375 5.15626 22.3281 4.70314 23.1562 4.98439C23.9687 5.25001 24.4219 6.14064 24.1406 6.95314L21.5156 14.8438H25.9687C26.4687 14.8438 26.9375 15.0781 27.2344 15.5C27.5312 15.9219 27.6094 16.4375 27.4531 16.9063L24.1406 26.8438C23.9219 27.5 23.3125 27.9063 22.6562 27.9063ZM81.25 67.1875C77.2434 67.1965 73.3896 65.6505 70.5 62.875C68.9634 61.418 67.7389 59.664 66.9009 57.7193C66.0629 55.7747 65.6288 53.68 65.625 51.5625C65.625 42.9531 72.6406 35.9375 81.25 35.9375C89.8594 35.9375 96.875 42.9531 96.875 51.5625C96.875 55.8438 95.0937 59.9688 92 62.8906C89.1064 65.658 85.2539 67.1979 81.25 67.1875ZM81.25 39.0625C74.3594 39.0625 68.75 44.6719 68.75 51.5625C68.75 54.9844 70.1719 58.2813 72.6562 60.6094C74.9844 62.8438 78.0312 64.0625 81.25 64.0625C84.4687 64.0625 87.5156 62.8438 89.8437 60.625C92.3281 58.2813 93.75 54.9844 93.75 51.5625C93.75 44.6719 88.1406 39.0625 81.25 39.0625Z" fill="#2251FF"/>
</svg>
