<svg width="100" height="100" viewBox="0 0 100 100" fill="none" xmlns="http://www.w3.org/2000/svg">
<path d="M31.1875 60.9375H25.0781C21.8281 60.9375 19.1875 58.3906 19.1875 55.25C19.1875 54.3594 18.7187 53.5781 17.9062 53.0938C17 52.5625 15.9219 52.5469 15 53.0469C12.2188 54.5781 8.625 53.6563 7 50.9844L3.9375 45.9375C3.14062 44.6406 2.92187 43.1094 3.3125 41.6406C3.71875 40.1406 4.70312 38.8906 6.09375 38.125C6.95312 37.6563 7.45312 36.8438 7.45312 35.9219C7.45312 35 6.95312 34.2031 6.09375 33.7188C4.70312 32.9531 3.70312 31.7031 3.3125 30.2031C2.92187 28.7344 3.14062 27.2188 3.9375 25.9063L7 20.8594C8.625 18.1875 12.2188 17.2656 15 18.7969C15.9219 19.2969 17 19.2812 17.9062 18.75C18.7187 18.2656 19.1875 17.4844 19.1875 16.5937C19.1875 13.4531 21.8281 10.9062 25.0781 10.9062H31.1875C34.4375 10.9062 37.0781 13.4531 37.0781 16.5937C37.0781 17.4844 37.5469 18.2656 38.3594 18.75C39.2656 19.2812 40.3437 19.2969 41.2656 18.7969C44.0625 17.2656 47.6406 18.1875 49.2656 20.8594L52.3281 25.9063C53.125 27.2031 53.3437 28.7344 52.9531 30.2031C52.7519 30.947 52.4016 31.6422 51.9235 32.2465C51.4454 32.8508 50.8494 33.3517 50.1719 33.7188C49.3125 34.1875 48.8125 35 48.8125 35.9219C48.8125 36.8438 49.3125 37.6406 50.1719 38.125C51.5625 38.8906 52.5625 40.1406 52.9531 41.6406C53.3437 43.1094 53.125 44.625 52.3281 45.9375L49.2656 50.9844C47.6406 53.6563 44.0469 54.5781 41.2656 53.0469C40.3437 52.5469 39.2656 52.5625 38.3594 53.0938C37.5469 53.5781 37.0781 54.3594 37.0781 55.25C37.0781 58.3906 34.4375 60.9375 31.1875 60.9375ZM16.4062 49.5625C17.4687 49.5625 18.5313 49.8438 19.4844 50.4219C21.25 51.4688 22.2969 53.2656 22.2969 55.2656C22.2969 56.6719 23.5313 57.8281 25.0625 57.8281H31.1719C32.7031 57.8281 33.9375 56.6875 33.9375 55.2656C33.9375 53.2656 34.9844 51.4688 36.75 50.4219C38.6094 49.3281 40.8594 49.2812 42.75 50.3281C44.0937 51.0625 45.8125 50.6406 46.5781 49.375L49.6406 44.3281C49.9844 43.7656 50.0781 43.0938 49.9062 42.4688C49.7344 41.7969 49.2812 41.2344 48.625 40.875C46.7656 39.8438 45.6562 38 45.6562 35.9375C45.6562 33.875 46.7656 32.0156 48.625 31C49.2656 30.6406 49.7187 30.0781 49.9062 29.4063C50.0781 28.7813 49.9844 28.1094 49.6406 27.5469L46.5781 22.5C45.8125 21.2344 44.0937 20.8125 42.75 21.5469C40.8594 22.5937 38.6094 22.5469 36.75 21.4531C34.9844 20.4062 33.9375 18.6094 33.9375 16.6094C33.9375 15.2031 32.7031 14.0469 31.1719 14.0469H25.0625C23.5313 14.0469 22.2969 15.1875 22.2969 16.6094C22.2969 18.6094 21.25 20.4062 19.4844 21.4531C17.625 22.5469 15.375 22.5937 13.4844 21.5469C12.1406 20.8125 10.4219 21.2344 9.65625 22.5L6.59375 27.5469C6.25 28.1094 6.15625 28.7813 6.32813 29.4063C6.5 30.0781 6.95312 30.6406 7.60937 31C9.46875 32.0313 10.5781 33.875 10.5781 35.9375C10.5781 38 9.46875 39.8594 7.60937 40.875C6.96875 41.2344 6.51563 41.7969 6.32813 42.4688C6.15625 43.0938 6.25 43.7656 6.59375 44.3281L9.65625 49.375C10.4219 50.6406 12.1406 51.0625 13.4844 50.3281C14.4062 49.8281 15.4062 49.5781 16.4062 49.5781V49.5625Z" fill="#2251FF"/>
<path d="M28.125 46.875C22.0938 46.875 17.1875 41.9687 17.1875 35.9375C17.1875 29.9063 22.0938 25 28.125 25C34.1562 25 39.0625 29.9063 39.0625 35.9375C39.0625 41.9687 34.1562 46.875 28.125 46.875ZM28.125 28.125C23.8125 28.125 20.3125 31.625 20.3125 35.9375C20.3125 40.25 23.8125 43.75 28.125 43.75C32.4375 43.75 35.9375 40.25 35.9375 35.9375C35.9375 31.625 32.4375 28.125 28.125 28.125Z" fill="white"/>
<path d="M85.9375 25C79.9063 25 75 20.0937 75 14.0625C75 8.03125 79.9063 3.125 85.9375 3.125C91.9687 3.125 96.875 8.03125 96.875 14.0625C96.875 20.0937 91.9687 25 85.9375 25ZM85.9375 6.25C81.625 6.25 78.125 9.75 78.125 14.0625C78.125 18.375 81.625 21.875 85.9375 21.875C90.25 21.875 93.75 18.375 93.75 14.0625C93.75 9.75 90.25 6.25 85.9375 6.25ZM78.125 39.0625C77.2656 39.0625 76.5625 38.3594 76.5625 37.5C76.5625 34.0469 73.7656 31.25 70.3125 31.25C66.8594 31.25 64.0625 34.0469 64.0625 37.5C64.0625 38.3594 63.3594 39.0625 62.5 39.0625C61.6406 39.0625 60.9375 38.3594 60.9375 37.5C60.9375 32.3281 65.1406 28.125 70.3125 28.125C75.4844 28.125 79.6875 32.3281 79.6875 37.5C79.6875 38.3594 78.9844 39.0625 78.125 39.0625Z" fill="#2251FF"/>
<path d="M57.8125 17.1875C54.3594 17.1875 51.5625 14.3906 51.5625 10.9375C51.5625 7.48437 54.3594 4.6875 57.8125 4.6875C61.2656 4.6875 64.0625 7.48437 64.0625 10.9375C64.0625 14.3906 61.2656 17.1875 57.8125 17.1875ZM57.8125 7.8125C56.0937 7.8125 54.6875 9.21875 54.6875 10.9375C54.6875 12.6563 56.0937 14.0625 57.8125 14.0625C59.5312 14.0625 60.9375 12.6563 60.9375 10.9375C60.9375 9.21875 59.5312 7.8125 57.8125 7.8125ZM96.875 37.5C96.875 36.6406 96.1719 35.9375 95.3125 35.9375H56.25C55.3906 35.9375 54.6875 36.6406 54.6875 37.5C54.6875 38.3594 55.3906 39.0625 56.25 39.0625H93.75V48.4375H56.25C55.3906 48.4375 54.6875 49.1406 54.6875 50C54.6875 50.8594 55.3906 51.5625 56.25 51.5625H91.375L66.1094 75.4219C65.7969 75.7188 65.625 76.125 65.625 76.5625V87.9375L50 93.1406V76.5625C50 76.1406 49.8281 75.7188 49.5156 75.4219L36.8437 63.4531C36.5433 63.1693 36.1424 63.0164 35.7292 63.0281C35.3161 63.0398 34.9245 63.2152 34.6406 63.5156C34.3568 63.8161 34.2039 64.217 34.2156 64.6301C34.2273 65.0433 34.4027 65.4349 34.7031 65.7188L46.8906 77.2187V95.2969C46.8906 95.7969 47.125 96.2656 47.5469 96.5625C47.8125 96.75 48.1406 96.8594 48.4531 96.8594C48.625 96.8594 48.7812 96.8281 48.9531 96.7812L67.7031 90.5312C68.0135 90.4264 68.283 90.2267 68.4737 89.9604C68.6643 89.694 68.7665 89.3744 68.7656 89.0469V77.2187L96.4062 51.125V51.1094C96.5 51.0156 96.5781 50.8906 96.6406 50.7656C96.6719 50.7031 96.7187 50.6719 96.75 50.6094C96.7812 50.5469 96.7812 50.4688 96.7969 50.3906C96.8281 50.2656 96.875 50.1406 96.875 50.0156V50V37.5Z" fill="white"/>
</svg>
