<svg width="500" height="127" viewBox="0 0 500 127" fill="none" xmlns="http://www.w3.org/2000/svg">
<g opacity="0.5" clip-path="url(#clip0_5_813)">
<mask id="path-1-outside-1_5_813" maskUnits="userSpaceOnUse" x="26" y="18" width="439" height="150" fill="black">
<rect fill="white" x="26" y="18" width="439" height="150"/>
<path d="M54.768 88.4C41.968 83.8 33.768 75.2 33.768 60.2C33.768 32.2 62.168 21.6 85.768 21.6C109.768 21.6 136.768 31.2 136.768 59.4C136.768 74.2 129.568 84.2 115.768 88.4C133.368 93 142.368 104 142.368 121.2C142.368 147.8 120.768 164.4 85.568 164.4C49.768 164.4 27.968 148.2 27.968 121.8C27.968 103.2 38.968 93 54.768 88.4ZM84.968 45.8C72.368 45.8 63.968 52.4 63.968 62.4C63.968 72.4 72.568 79 85.568 79C98.568 79 106.768 72.4 106.768 62C106.768 51.8 98.768 45.8 84.968 45.8ZM84.768 100.2C70.768 100.2 61.568 107.8 61.568 119.6C61.568 131.6 70.968 139.2 85.368 139.2C99.968 139.2 108.768 131.8 108.768 119.8C108.768 107.8 99.568 100.2 84.768 100.2ZM156.345 126.4H188.345C190.945 135.6 197.745 139.4 207.145 139.4C225.945 139.4 231.145 119.4 232.745 104.2C223.145 115.2 214.945 119 200.545 119C172.945 119 154.545 100.2 154.545 72.2C154.545 42.6 176.945 21.6 208.745 21.6C244.745 21.6 265.945 46.6 265.945 89.2C266.145 137.2 244.545 164.4 206.545 164.4C178.545 164.4 159.545 150.2 156.345 126.4ZM208.745 49C196.145 49 187.145 58.4 187.145 71.4C187.145 84.6 196.145 94 208.745 94C221.345 94 230.745 84.6 230.745 71.6C230.745 58.6 221.345 49 208.745 49ZM424.721 19.2L346.121 166.8H326.321L404.921 19.2H424.721ZM323.721 21.2C346.121 21.2 358.321 34.6 358.321 59C358.321 84.2 346.321 98 324.521 98C302.321 98 289.721 84.2 289.721 59.6C289.721 35.2 302.121 21.2 323.721 21.2ZM324.121 37.2C313.321 37.2 312.921 52.2 312.921 59.8C312.921 71.4 313.321 82.2 323.521 82.2C331.921 82.2 334.921 75.8 334.921 57.8C334.921 43.4 331.721 37.2 324.121 37.2ZM428.921 88C451.321 88 463.521 101.4 463.521 125.8C463.521 151 451.521 164.8 429.721 164.8C407.521 164.8 394.921 151 394.921 126.4C394.921 102 407.321 88 428.921 88ZM429.321 104C418.521 104 418.121 119 418.121 126.6C418.121 138.2 418.521 149 428.721 149C437.121 149 440.121 142.6 440.121 124.6C440.121 110.2 436.921 104 429.321 104Z"/>
</mask>
<path d="M54.768 88.4L55.0475 89.3601L58.0025 88.4998L55.1062 87.4589L54.768 88.4ZM115.768 88.4L115.477 87.4433L112.093 88.4731L115.515 89.3675L115.768 88.4ZM55.1062 87.4589C48.8236 85.2011 43.7526 81.991 40.2513 77.5784C36.7602 73.1786 34.768 67.506 34.768 60.2H32.768C32.768 67.894 34.8758 74.0214 38.6846 78.8216C42.4834 83.609 47.9123 86.9988 54.4298 89.3411L55.1062 87.4589ZM34.768 60.2C34.768 46.6076 41.6324 37.2546 51.4399 31.253C61.2892 25.2258 74.0933 22.6 85.768 22.6V20.6C73.8426 20.6 60.6467 23.2742 50.396 29.547C40.1035 35.8454 32.768 45.7924 32.768 60.2H34.768ZM85.768 22.6C97.6599 22.6 110.209 24.9823 119.749 30.7796C129.235 36.5444 135.768 45.6882 135.768 59.4H137.768C137.768 44.9118 130.801 35.1556 120.787 29.0704C110.827 23.0177 97.876 20.6 85.768 20.6V22.6ZM135.768 59.4C135.768 66.6365 134.009 72.619 130.633 77.2891C127.258 81.9565 122.207 85.395 115.477 87.4433L116.059 89.3567C123.129 87.205 128.578 83.5434 132.253 78.4609C135.927 73.381 137.768 66.9635 137.768 59.4H135.768ZM115.515 89.3675C124.169 91.6293 130.61 95.438 134.892 100.706C139.168 105.967 141.368 112.78 141.368 121.2H143.368C143.368 112.42 141.067 105.133 136.444 99.4443C131.826 93.762 124.967 89.7706 116.021 87.4325L115.515 89.3675ZM141.368 121.2C141.368 134.199 136.105 144.7 126.562 151.98C116.988 159.282 103.025 163.4 85.568 163.4V165.4C103.311 165.4 117.748 161.218 127.774 153.57C137.831 145.9 143.368 134.801 143.368 121.2H141.368ZM85.568 163.4C67.803 163.4 53.6365 159.379 43.9381 152.196C34.2737 145.039 28.968 134.691 28.968 121.8H26.968C26.968 135.309 32.5623 146.261 42.7478 153.804C52.8994 161.321 67.533 165.4 85.568 165.4V163.4ZM28.968 121.8C28.968 112.712 31.6491 105.753 36.1985 100.505C40.7614 95.242 47.2711 91.6242 55.0475 89.3601L54.4884 87.4399C46.4649 89.7758 39.5745 93.5579 34.6874 99.1949C29.7868 104.847 26.968 112.288 26.968 121.8H28.968ZM84.968 44.8C78.5029 44.8 73.0167 46.4928 69.1235 49.565C65.2095 52.6536 62.968 57.0922 62.968 62.4H64.968C64.968 57.7078 66.9265 53.8464 70.3624 51.135C73.8192 48.4072 78.8331 46.8 84.968 46.8V44.8ZM62.968 62.4C62.968 67.7174 65.2678 72.1579 69.2838 75.243C73.2769 78.3106 78.9095 80 85.568 80V78C79.2264 78 74.059 76.3894 70.5022 73.657C66.9682 70.9421 64.968 67.0826 64.968 62.4H62.968ZM85.568 80C92.2264 80 97.7691 78.3103 101.669 75.1798C105.592 72.0306 107.768 67.4878 107.768 62H105.768C105.768 66.9122 103.844 70.8694 100.417 73.6202C96.9668 76.3897 91.9095 78 85.568 78V80ZM107.768 62C107.768 56.6066 105.636 52.2498 101.64 49.2731C97.6832 46.3251 91.9947 44.8 84.968 44.8V46.8C91.7413 46.8 96.9528 48.2749 100.446 50.8769C103.9 53.4502 105.768 57.1934 105.768 62H107.768ZM84.768 99.2C77.5948 99.2 71.5492 101.147 67.2778 104.707C62.9883 108.281 60.568 113.419 60.568 119.6H62.568C62.568 113.981 64.7477 109.419 68.5582 106.243C72.3867 103.053 77.9411 101.2 84.768 101.2V99.2ZM60.568 119.6C60.568 125.884 63.0408 131.074 67.4342 134.674C71.8071 138.256 78.0012 140.2 85.368 140.2V138.2C78.3347 138.2 72.6288 136.344 68.7017 133.126C64.7952 129.926 62.568 125.316 62.568 119.6H60.568ZM85.368 140.2C92.826 140.2 98.9274 138.31 103.183 134.769C107.46 131.208 109.768 126.064 109.768 119.8H107.768C107.768 125.536 105.676 130.092 101.903 133.231C98.1085 136.39 92.5099 138.2 85.368 138.2V140.2ZM109.768 119.8C109.768 113.522 107.35 108.33 102.952 104.726C98.5754 101.141 92.329 99.2 84.768 99.2V101.2C92.007 101.2 97.7606 103.059 101.684 106.274C105.586 109.47 107.768 114.078 107.768 119.8H109.768ZM156.345 126.4V125.4H155.201L155.353 126.533L156.345 126.4ZM188.345 126.4L189.307 126.128L189.101 125.4H188.345V126.4ZM232.745 104.2L233.739 104.305L234.07 101.16L231.991 103.542L232.745 104.2ZM265.945 89.2H264.945L264.945 89.2042L265.945 89.2ZM156.345 127.4H188.345V125.4H156.345V127.4ZM187.382 126.672C188.738 131.47 191.217 134.936 194.646 137.186C198.058 139.425 202.318 140.4 207.145 140.4V138.4C202.572 138.4 198.731 137.475 195.743 135.514C192.772 133.564 190.551 130.53 189.307 126.128L187.382 126.672ZM207.145 140.4C216.993 140.4 223.288 135.12 227.268 127.987C231.218 120.907 232.935 111.944 233.739 104.305L231.75 104.095C230.954 111.656 229.271 120.293 225.521 127.013C221.801 133.68 216.096 138.4 207.145 138.4V140.4ZM231.991 103.542C227.245 108.981 222.904 112.571 218.026 114.817C213.151 117.061 207.657 118 200.545 118V120C207.832 120 213.638 119.039 218.863 116.633C224.085 114.229 228.644 110.419 233.498 104.858L231.991 103.542ZM200.545 118C186.978 118 175.747 113.384 167.908 105.399C160.068 97.4127 155.545 85.9773 155.545 72.2H153.545C153.545 86.4227 158.222 98.3873 166.481 106.801C174.742 115.216 186.511 120 200.545 120V118ZM155.545 72.2C155.545 57.6638 161.039 45.2827 170.402 36.5305C179.77 27.7742 193.066 22.6 208.745 22.6V20.6C192.623 20.6 178.819 25.9258 169.037 35.0694C159.25 44.2173 153.545 57.1362 153.545 72.2H155.545ZM208.745 22.6C226.497 22.6 240.5 28.7538 250.081 40.0712C259.682 51.4111 264.945 68.0537 264.945 89.2H266.945C266.945 67.7462 261.607 50.5889 251.608 38.7788C241.59 26.9461 226.992 20.6 208.745 20.6V22.6ZM264.945 89.2042C265.044 113.071 259.721 131.619 249.785 144.18C239.876 156.707 225.284 163.4 206.545 163.4V165.4C225.805 165.4 241.013 158.493 251.354 145.42C261.668 132.381 267.045 113.329 266.945 89.1958L264.945 89.2042ZM206.545 163.4C192.708 163.4 181.185 159.892 172.747 153.527C164.322 147.172 158.902 137.917 157.336 126.267L155.353 126.533C156.987 138.683 162.667 148.428 171.542 155.123C180.404 161.808 192.381 165.4 206.545 165.4V163.4ZM208.745 48C195.556 48 186.145 57.8843 186.145 71.4H188.145C188.145 58.9157 196.733 50 208.745 50V48ZM186.145 71.4C186.145 85.1096 195.551 95 208.745 95V93C196.739 93 188.145 84.0903 188.145 71.4H186.145ZM208.745 95C221.909 95 231.745 85.1403 231.745 71.6H229.745C229.745 84.0597 220.78 93 208.745 93V95ZM231.745 71.6C231.745 58.0716 221.92 48 208.745 48V50C220.769 50 229.745 59.1284 229.745 71.6H231.745ZM424.721 19.2L425.604 19.67L426.387 18.2H424.721V19.2ZM346.121 166.8V167.8H346.722L347.004 167.27L346.121 166.8ZM326.321 166.8L325.438 166.33L324.656 167.8H326.321V166.8ZM404.921 19.2V18.2H404.321L404.038 18.73L404.921 19.2ZM423.838 18.73L345.238 166.33L347.004 167.27L425.604 19.67L423.838 18.73ZM346.121 165.8H326.321V167.8H346.121V165.8ZM327.204 167.27L405.804 19.67L404.038 18.73L325.438 166.33L327.204 167.27ZM404.921 20.2H424.721V18.2H404.921V20.2ZM323.721 22.2C334.719 22.2 343.069 25.4834 348.683 31.6247C354.31 37.7804 357.321 46.9544 357.321 59H359.321C359.321 46.6456 356.233 36.9196 350.159 30.2753C344.073 23.6166 335.124 20.2 323.721 20.2V22.2ZM357.321 59C357.321 71.4566 354.354 80.9386 348.841 87.2947C343.347 93.6281 335.201 97 324.521 97V99C335.641 99 344.395 95.4719 350.352 88.6053C356.288 81.7614 359.321 71.7434 359.321 59H357.321ZM324.521 97C313.634 97 305.23 93.623 299.536 87.3527C293.83 81.0681 290.721 71.7398 290.721 59.6H288.721C288.721 72.0602 291.913 81.9319 298.056 88.6972C304.212 95.477 313.208 99 324.521 99V97ZM290.721 59.6C290.721 47.5584 293.781 38.2246 299.37 31.9129C304.943 25.6188 313.147 22.2 323.721 22.2V20.2C312.695 20.2 303.899 23.7812 297.872 30.587C291.861 37.3754 288.721 47.2416 288.721 59.6H290.721ZM324.121 36.2C321.161 36.2 318.859 37.2389 317.115 38.9483C315.396 40.6324 314.268 42.9172 313.516 45.3552C312.015 50.2174 311.921 56.0094 311.921 59.8H313.921C313.921 55.9906 314.027 50.4826 315.427 45.9448C316.125 43.6828 317.121 41.7426 318.515 40.3767C319.883 39.0361 321.681 38.2 324.121 38.2V36.2ZM311.921 59.8C311.921 65.5607 312.012 71.3325 313.447 75.6645C314.172 77.8535 315.265 79.7557 316.932 81.1079C318.612 82.471 320.785 83.2 323.521 83.2V81.2C321.158 81.2 319.455 80.579 318.192 79.5546C316.915 78.5192 315.995 76.9965 315.345 75.0355C314.031 71.0675 313.921 65.6393 313.921 59.8H311.921ZM323.521 83.2C325.746 83.2 327.702 82.7758 329.362 81.7753C331.029 80.7711 332.311 79.2387 333.277 77.1735C335.18 73.104 335.921 66.8031 335.921 57.8H333.921C333.921 66.7969 333.163 72.696 331.465 76.3265C330.631 78.1112 329.589 79.3039 328.33 80.0622C327.065 80.8242 325.496 81.2 323.521 81.2V83.2ZM335.921 57.8C335.921 50.5689 335.125 45.2124 333.257 41.637C332.312 39.8267 331.079 38.4492 329.522 37.5321C327.968 36.6165 326.159 36.2 324.121 36.2V38.2C325.884 38.2 327.324 38.5585 328.507 39.2554C329.688 39.9508 330.68 41.0233 331.485 42.563C333.117 45.6876 333.921 50.6311 333.921 57.8H335.921ZM428.921 89C439.919 89 448.269 92.2834 453.883 98.4247C459.51 104.58 462.521 113.754 462.521 125.8H464.521C464.521 113.446 461.433 103.72 455.359 97.0753C449.273 90.4166 440.324 87 428.921 87V89ZM462.521 125.8C462.521 138.257 459.554 147.739 454.041 154.095C448.547 160.428 440.401 163.8 429.721 163.8V165.8C440.841 165.8 449.595 162.272 455.552 155.405C461.488 148.561 464.521 138.543 464.521 125.8H462.521ZM429.721 163.8C418.834 163.8 410.43 160.423 404.736 154.153C399.03 147.868 395.921 138.54 395.921 126.4H393.921C393.921 138.86 397.113 148.732 403.256 155.497C409.412 162.277 418.408 165.8 429.721 165.8V163.8ZM395.921 126.4C395.921 114.358 398.981 105.025 404.57 98.7129C410.143 92.4188 418.347 89 428.921 89V87C417.895 87 409.099 90.5812 403.072 97.3871C397.061 104.175 393.921 114.042 393.921 126.4H395.921ZM429.321 103C426.361 103 424.059 104.039 422.315 105.748C420.596 107.432 419.468 109.717 418.716 112.155C417.215 117.017 417.121 122.809 417.121 126.6H419.121C419.121 122.791 419.227 117.283 420.627 112.745C421.325 110.483 422.321 108.543 423.715 107.177C425.083 105.836 426.881 105 429.321 105V103ZM417.121 126.6C417.121 132.361 417.212 138.133 418.647 142.465C419.372 144.654 420.465 146.556 422.132 147.908C423.812 149.271 425.985 150 428.721 150V148C426.358 148 424.655 147.379 423.392 146.355C422.115 145.319 421.195 143.796 420.545 141.835C419.231 137.867 419.121 132.439 419.121 126.6H417.121ZM428.721 150C430.946 150 432.902 149.576 434.562 148.575C436.229 147.571 437.511 146.039 438.477 143.974C440.38 139.904 441.121 133.603 441.121 124.6H439.121C439.121 133.597 438.363 139.496 436.665 143.126C435.831 144.911 434.789 146.104 433.53 146.862C432.265 147.624 430.696 148 428.721 148V150ZM441.121 124.6C441.121 117.369 440.325 112.012 438.457 108.437C437.512 106.627 436.279 105.249 434.722 104.332C433.168 103.417 431.359 103 429.321 103V105C431.084 105 432.524 105.358 433.707 106.055C434.888 106.751 435.88 107.823 436.685 109.363C438.317 112.488 439.121 117.431 439.121 124.6H441.121Z" fill="url(#paint0_linear_5_813)" mask="url(#path-1-outside-1_5_813)"/>
</g>
<defs>
<linearGradient id="paint0_linear_5_813" x1="22" y1="0" x2="172.745" y2="351.072" gradientUnits="userSpaceOnUse">
<stop offset="0.345" stop-color="#057FE2"/>
<stop offset="0.895" stop-color="#057FE2" stop-opacity="0"/>
</linearGradient>
<clipPath id="clip0_5_813">
<rect width="500" height="127" fill="white"/>
</clipPath>
</defs>
</svg>
