<svg width="177" height="160" fill="none" xmlns="http://www.w3.org/2000/svg"><path d="M27.406 84.375c-.25 0-.531 0-.781-.094-1.656-.437-2.688-2.125-2.25-3.812 7.094-27.5 28.563-49 56.094-56.094a3.113 3.113 0 013.812 2.25 3.124 3.124 0 01-2.25 3.813A71.69 71.69 0 0030.437 82.03a3.134 3.134 0 01-3.03 2.344zm91.344 91.344a3.126 3.126 0 01-.781-6.157 71.69 71.69 0 0051.593-51.593 3.124 3.124 0 013.813-2.25 3.112 3.112 0 012.25 3.812 78.093 78.093 0 01-56.094 56.094 3.31 3.31 0 01-.781.094zm-37.5 0c-.25 0-.531 0-.781-.094a78.098 78.098 0 01-56.094-56.094c-.438-1.656.563-3.375 2.25-3.812 1.688-.438 3.375.593 3.813 2.25a71.69 71.69 0 0051.593 51.593c1.656.438 2.688 2.126 2.25 3.813a3.134 3.134 0 01-3.031 2.344zm91.344-91.344a3.136 3.136 0 01-3.032-2.344 71.684 71.684 0 00-51.593-51.594 3.111 3.111 0 01-2.25-3.812c.437-1.688 2.156-2.688 3.812-2.25 27.5 7.094 49 28.594 56.094 56.094a3.127 3.127 0 01-3.031 3.906zM100 43.75c-5.156 0-9.375-4.219-9.375-9.375v-18.75c0-5.156 4.219-9.375 9.375-9.375s9.375 4.219 9.375 9.375v18.75c0 5.156-4.219 9.375-9.375 9.375zm0-31.25a3.134 3.134 0 00-3.125 3.125v18.75A3.134 3.134 0 00100 37.5a3.134 3.134 0 003.125-3.125v-18.75A3.134 3.134 0 00100 12.5zm0 181.25c-5.156 0-9.375-4.219-9.375-9.375v-18.75c0-5.156 4.219-9.375 9.375-9.375s9.375 4.219 9.375 9.375v18.75c0 5.156-4.219 9.375-9.375 9.375zm0-31.25a3.134 3.134 0 00-3.125 3.125v18.75A3.134 3.134 0 00100 187.5a3.134 3.134 0 003.125-3.125v-18.75A3.134 3.134 0 00100 162.5zm84.375-53.125h-18.75c-5.156 0-9.375-4.219-9.375-9.375s4.219-9.375 9.375-9.375h18.75c5.156 0 9.375 4.219 9.375 9.375s-4.219 9.375-9.375 9.375zm-18.75-12.5A3.134 3.134 0 00162.5 100a3.134 3.134 0 003.125 3.125h18.75A3.134 3.134 0 00187.5 100a3.134 3.134 0 00-3.125-3.125h-18.75zm-131.25 12.5h-18.75c-5.156 0-9.375-4.219-9.375-9.375s4.219-9.375 9.375-9.375h18.75c5.156 0 9.375 4.219 9.375 9.375s-4.219 9.375-9.375 9.375zm-18.75-12.5A3.134 3.134 0 0012.5 100a3.134 3.134 0 003.125 3.125h18.75A3.134 3.134 0 0037.5 100a3.134 3.134 0 00-3.125-3.125h-18.75zM100 93.75c-12.063 0-21.875-9.813-21.875-21.875C78.125 59.812 87.938 50 100 50s21.875 9.813 21.875 21.875c0 12.063-9.813 21.875-21.875 21.875zm0-37.5c-8.625 0-15.625 7-15.625 15.625S91.375 87.5 100 87.5s15.625-7 15.625-15.625-7-15.625-15.625-15.625zm0 93.75c-13.281 0-25.844-4.281-36.281-12.406-.75-.594-1.219-1.5-1.219-2.469v-13.25c0-13.781 11.219-25 25-25a3.23 3.23 0 012.219.906L100 108.063l10.281-10.282a3.094 3.094 0 012.219-.906c13.781 0 25 11.219 25 25v13.25a3.08 3.08 0 01-1.219 2.469C125.813 145.719 113.281 150 100 150zm-31.25-16.437c9.094 6.656 19.875 10.187 31.25 10.187s22.156-3.5 31.25-10.187v-11.688c0-9.906-7.75-18.063-17.5-18.719l-11.531 11.532a3.127 3.127 0 01-2.203.913 3.11 3.11 0 01-2.204-.913l-11.53-11.532c-9.75.656-17.5 8.782-17.5 18.719v11.688h-.032z" fill="#DCEBFC"/></svg>