<svg width="72" height="64" viewBox="0 0 72 64" fill="none" xmlns="http://www.w3.org/2000/svg">
<path d="M26.8143 57.7268H27.6877C30.5157 57.7268 33.345 57.7254 36.1743 57.7294C36.4503 57.7308 36.737 57.7308 37.001 57.8014C37.517 57.9388 37.757 58.3174 37.7277 58.8454C37.701 59.3454 37.4317 59.6761 36.9397 59.7721C36.6703 59.8241 36.3863 59.8161 36.109 59.8161C31.889 59.8188 27.669 59.8174 23.449 59.8188C23.1943 59.8188 22.937 59.8174 22.685 59.8494C22.0903 59.9281 21.753 60.3028 21.761 60.8814C21.769 61.4588 22.109 61.8268 22.709 61.8921C22.893 61.9121 23.0797 61.9081 23.265 61.9081C31.4957 61.9094 39.7277 61.9094 47.9583 61.9068C48.1903 61.9068 48.4263 61.9108 48.6517 61.8694C49.1823 61.7708 49.4623 61.4028 49.4757 60.8921C49.4877 60.3801 49.2183 59.9974 48.6943 59.8814C48.4263 59.8228 48.1423 59.8214 47.8663 59.8201C45.825 59.8148 43.785 59.8241 41.745 59.8121C41.017 59.8081 40.573 59.4188 40.545 58.8254C40.5157 58.2068 40.9757 57.7734 41.7223 57.7334C42.0223 57.7161 42.325 57.7268 42.6263 57.7268C43.1983 57.7268 43.769 57.7268 44.421 57.7268C44.0677 55.6881 43.733 53.7561 43.3983 51.8201H27.8343C27.4957 53.7761 27.165 55.6934 26.8143 57.7268ZM71.2343 48.1868C71.0503 48.6321 70.9117 49.1028 70.6743 49.5188C69.789 51.0748 68.4063 51.7761 66.6437 51.7761C59.897 51.7761 53.1503 51.7761 46.4023 51.7761H45.5183C45.849 53.7081 46.1557 55.5561 46.501 57.3961C46.5263 57.5321 46.8157 57.6961 46.993 57.7121C47.5917 57.7641 48.201 57.7148 48.7983 57.7761C50.397 57.9414 51.605 59.3188 51.581 60.9041C51.557 62.5054 50.3303 63.8321 48.733 63.9774C48.549 63.9948 48.3623 63.9988 48.177 63.9988C39.8077 64.0001 31.437 64.0028 23.0677 63.9974C21.2237 63.9974 19.981 62.9988 19.701 61.3294C19.4237 59.6694 20.6157 58.0134 22.2877 57.7988C22.9277 57.7161 23.585 57.7734 24.229 57.7094C24.417 57.6908 24.713 57.4948 24.7423 57.3388C25.0863 55.5201 25.389 53.6921 25.717 51.7761H22.8957C21.7597 51.7761 20.6237 51.7801 19.4877 51.7748C18.6197 51.7708 18.1197 51.3854 18.1117 50.7334C18.1037 50.0841 18.6023 49.6881 19.4677 49.6868C27.025 49.6841 34.5837 49.6854 42.1423 49.6854C50.1423 49.6854 58.141 49.6854 66.1397 49.6854C68.5343 49.6854 69.373 48.7228 69.089 46.2468H1.98633C2.109 47.0094 2.10634 47.7708 2.36767 48.4268C2.73967 49.3614 3.593 49.6881 4.57833 49.6868C7.63833 49.6814 10.6983 49.6854 13.7597 49.6854C13.9903 49.6868 14.225 49.6788 14.4543 49.7068C14.9837 49.7734 15.2957 50.0881 15.345 50.6161C15.3983 51.1734 15.137 51.5614 14.5943 51.7121C14.3757 51.7734 14.1357 51.7734 13.9063 51.7734C10.8223 51.7774 7.73833 51.7801 4.65567 51.7748C1.82633 51.7694 0.00233333 49.9414 0.001 47.1068C-0.000333333 32.9588 -0.000333333 18.8121 0.001 4.66409C0.00233333 1.85742 1.805 0.036087 4.609 0.0347519C19.1237 0.0294189 33.637 0.0320854 48.1517 0.0334206C48.3597 0.0334206 48.5717 0.0320892 48.7757 0.0654221C49.3103 0.150757 49.605 0.510754 49.629 1.01742C49.6557 1.56142 49.369 1.95876 48.8117 2.06542C48.4957 2.12542 48.1663 2.12142 47.8423 2.12142C33.4677 2.12409 19.0917 2.12275 4.717 2.12409C3.329 2.12409 2.46367 2.69475 2.17033 3.81209C2.10633 4.05609 2.09033 4.31609 2.09033 4.56942C2.08633 17.5561 2.08767 30.5414 2.089 43.5281C2.089 43.6881 2.105 43.8494 2.11567 44.0588H69.1477V43.2934C69.1477 30.4694 69.1477 17.6454 69.1477 4.82275C69.1477 2.94275 68.3223 2.12409 66.4223 2.12409C62.2957 2.12275 58.1677 2.12409 54.041 2.12276C52.9077 2.12276 52.4237 1.79209 52.4423 1.04142C52.461 0.318756 52.9077 0.0334206 54.0303 0.0334206C57.949 0.0320854 61.869 0.114754 65.785 0.00408936C68.5157 -0.0719147 70.4023 0.878754 71.2343 3.57875V48.1868Z" fill="#2251FF"/>
<path d="M50.6016 36.722C51.4842 34.9914 52.3042 33.3834 53.1216 31.774C53.8776 30.2874 54.6362 28.8007 55.3829 27.3087C55.6162 26.842 55.9429 26.39 56.4709 26.5194C56.8562 26.6127 57.2882 26.9634 57.4816 27.318C58.4122 29.0274 59.2776 30.7727 60.1416 32.518C60.3202 32.878 60.5296 33.0207 60.9362 33.0074C61.8856 32.9754 62.8362 32.99 63.7869 32.9994C64.5536 33.0074 65.0069 33.3914 65.0202 34.0207C65.0336 34.6834 64.5776 35.0807 63.7656 35.086C62.5149 35.0927 61.2629 35.07 60.0122 35.0954C59.3736 35.1074 58.9749 34.8367 58.6989 34.274C58.0842 33.026 57.4429 31.7927 56.8109 30.554C56.7082 30.3514 56.5949 30.154 56.4402 29.8687C56.1162 30.4967 55.8296 31.0394 55.5522 31.5874C54.2722 34.1087 52.9936 36.6314 51.7189 39.1554C51.4816 39.6247 51.2256 40.0727 50.6216 40.0874C49.9789 40.1034 49.7136 39.638 49.4642 39.1434C48.2856 36.8047 47.0976 34.47 45.9096 32.1354C45.7989 31.9167 45.6749 31.706 45.4962 31.382C45.0002 32.3554 44.5242 33.222 44.1109 34.118C43.7909 34.814 43.3256 35.134 42.5389 35.1007C41.4069 35.0514 40.2696 35.0887 39.1336 35.0874C38.1749 35.086 37.7082 34.75 37.6989 34.0607C37.6882 33.3527 38.1762 32.9994 39.1696 32.9967C40.0269 32.9954 40.8856 32.974 41.7416 33.006C42.1709 33.0234 42.4056 32.8887 42.5949 32.4927C43.1656 31.302 43.7869 30.1354 44.3762 28.9527C44.6242 28.4567 44.8962 27.9874 45.5322 28.002C46.1269 28.0154 46.3896 28.4594 46.6296 28.934C47.8189 31.294 49.0202 33.6474 50.2176 36.002C50.3216 36.2074 50.4336 36.4074 50.6016 36.722Z" fill="#2251FF"/>
<path d="M59.6641 21.2361H62.8988V9.65883H59.6641V21.2361ZM65.0361 15.5015C65.0361 17.6589 65.0361 19.8162 65.0361 21.9735C65.0361 23.0549 64.7041 23.3748 63.6214 23.3775C62.0241 23.3802 60.4254 23.3829 58.8281 23.3762C57.9228 23.3722 57.5521 23.0228 57.5508 22.1202C57.5374 17.6895 57.5373 13.2575 57.5493 8.8268C57.5506 7.8748 57.9081 7.52419 58.8561 7.51886C60.4774 7.50953 62.0974 7.50953 63.7187 7.51886C64.6681 7.52419 65.0293 7.87354 65.0347 8.82021C65.048 11.0469 65.0347 13.2735 65.0347 15.5015" fill="#2251FF"/>
<path d="M43.0517 12.4191H39.8357V21.2671H43.0517V12.4191ZM37.6929 16.8471C37.6929 15.0845 37.6929 13.3218 37.6929 11.5591C37.6929 10.6578 38.0597 10.2885 38.953 10.2832C40.6197 10.2738 42.2864 10.2725 43.953 10.2845C44.7917 10.2898 45.1877 10.6778 45.1903 11.5284C45.2037 15.0538 45.2037 18.5791 45.1903 22.1045C45.189 22.9978 44.8049 23.3712 43.9156 23.3765C42.2489 23.3845 40.581 23.3845 38.9143 23.3751C38.0636 23.3698 37.6969 22.9978 37.6929 22.1365C37.6796 20.3738 37.6929 18.6111 37.6929 16.8471Z" fill="#2251FF"/>
<path d="M53.0115 15.4083H49.7863V21.2617H53.0115V15.4083ZM55.1396 18.3576C55.1396 19.6123 55.153 20.8669 55.1396 22.1216C55.1263 23.0216 54.7675 23.3723 53.8608 23.3763C52.2142 23.383 50.5676 23.3843 48.9209 23.3763C48.0289 23.371 47.6583 23.0083 47.6543 22.099C47.641 19.5896 47.6408 17.0816 47.6528 14.5723C47.6528 13.6176 48.0022 13.287 48.9769 13.279C50.6009 13.267 52.2235 13.267 53.8475 13.2803C54.8061 13.2883 55.1343 13.6283 55.1409 14.5936C55.1543 15.8483 55.1396 17.1029 55.1396 18.3576Z" fill="#2251FF"/>
<path d="M19.0356 21.4325C15.213 21.4325 11.389 21.4392 7.5663 21.4205C7.2183 21.4192 6.7783 21.3512 6.54897 21.1339C6.32763 20.9259 6.17697 20.4405 6.26363 20.1605C6.3623 19.8485 6.7303 19.5779 7.0423 19.3899C7.23297 19.2752 7.53963 19.3432 7.79297 19.3432C15.301 19.3419 22.8076 19.3419 30.3156 19.3419C30.5236 19.3419 30.7343 19.3299 30.9396 19.3565C31.541 19.4365 31.9143 19.8699 31.893 20.4392C31.8703 21.0125 31.4783 21.4179 30.853 21.4245C29.1383 21.4419 27.4236 21.4325 25.709 21.4325C23.485 21.4325 21.2596 21.4325 19.0356 21.4325Z" fill="#2251FF"/>
<path d="M19.0397 32.4692C15.2864 32.4692 11.533 32.4692 7.77971 32.4692C7.54904 32.4679 7.31571 32.4772 7.08637 32.4505C6.55171 32.3852 6.24904 32.0519 6.19971 31.5345C6.15037 31.0159 6.38904 30.6225 6.89971 30.4692C7.15971 30.3919 7.44771 30.3825 7.72237 30.3812C15.2744 30.3772 22.8277 30.3772 30.3797 30.3825C30.677 30.3825 30.9917 30.3985 31.2664 30.4959C31.7357 30.6639 31.9344 31.0505 31.885 31.5452C31.8357 32.0425 31.553 32.3545 31.0624 32.4412C30.8357 32.4799 30.5997 32.4679 30.369 32.4679C26.593 32.4692 22.8157 32.4692 19.0397 32.4692Z" fill="#2251FF"/>
<path d="M19.0371 9.60726C15.3064 9.60726 11.5771 9.60726 7.84642 9.60593C7.59176 9.60593 7.33442 9.61393 7.08376 9.58326C6.55042 9.51659 6.24509 9.18059 6.19976 8.66326C6.15176 8.11126 6.42376 7.71926 6.96776 7.57793C7.20909 7.51393 7.47176 7.51926 7.72509 7.51793C15.2771 7.51526 22.8304 7.51526 30.3838 7.51926C30.6584 7.51926 30.9464 7.52593 31.2051 7.60593C31.7144 7.76459 31.9344 8.15526 31.8851 8.68059C31.8371 9.18059 31.5491 9.48993 31.0598 9.57393C30.8104 9.61793 30.5518 9.60593 30.2971 9.60593C26.5438 9.60726 22.7904 9.60726 19.0371 9.60726Z" fill="#2251FF"/>
<path d="M14.5094 15.1593C12.1708 15.1593 9.8321 15.162 7.49343 15.158C6.66277 15.1566 6.2001 14.7913 6.18543 14.1473C6.16943 13.4846 6.66677 13.0713 7.5161 13.07C12.2161 13.066 16.9174 13.066 21.6174 13.0713C22.4254 13.0713 22.9161 13.4686 22.9321 14.0993C22.9508 14.758 22.4534 15.1566 21.5948 15.158C19.2334 15.162 16.8708 15.1593 14.5094 15.1593Z" fill="#2251FF"/>
<path d="M23.5197 26.9972C21.1571 26.9972 18.7944 27.0039 16.4331 26.9945C15.4744 26.9905 14.8851 26.2292 15.3304 25.5199C15.5157 25.2239 15.9797 24.9359 16.3197 24.9332C21.1371 24.8959 25.9544 24.9039 30.7717 24.9119C31.4731 24.9132 31.9037 25.3452 31.8957 25.9639C31.8877 26.5785 31.4557 26.9892 30.7464 26.9932C28.3371 27.0039 25.9291 26.9972 23.5197 26.9972Z" fill="#2251FF"/>
<path d="M12.7569 38.0101C10.9969 38.0101 9.23686 38.0141 7.47686 38.0088C6.66753 38.0048 6.18753 37.6101 6.1822 36.9701C6.17553 36.3248 6.65686 35.9221 7.46086 35.9208C11.0049 35.9168 14.5475 35.9168 18.0902 35.9208C18.9169 35.9221 19.3689 36.2941 19.3742 36.9541C19.3782 37.6128 18.9195 38.0048 18.1062 38.0074C16.3235 38.0154 14.5395 38.0101 12.7569 38.0101Z" fill="#2251FF"/>
<path d="M9.34351 26.9966C8.67284 26.9966 8.00218 27.0099 7.33284 26.9926C6.63818 26.9766 6.18618 26.5552 6.18218 25.9566C6.17684 25.3566 6.63151 24.9192 7.32218 24.9112C8.66218 24.8966 10.0022 24.8979 11.3435 24.9112C12.0328 24.9179 12.4955 25.3526 12.4982 25.9446C12.5022 26.5392 12.0435 26.9752 11.3542 26.9926C10.6848 27.0099 10.0142 26.9966 9.34351 26.9966Z" fill="#2251FF"/>
<path d="M28.7327 15.1581C28.062 15.1581 27.3914 15.1728 26.722 15.1541C26.0767 15.1368 25.6354 14.7128 25.6247 14.1394C25.614 13.5754 26.0527 13.0941 26.6887 13.0821C28.074 13.0541 29.462 13.0541 30.8487 13.0821C31.498 13.0941 31.9034 13.5501 31.894 14.1408C31.8847 14.7381 31.4767 15.1368 30.8127 15.1541C30.1207 15.1714 29.426 15.1581 28.7327 15.1581Z" fill="#2251FF"/>
</svg>
