<svg width="177" height="160" fill="none" xmlns="http://www.w3.org/2000/svg"><path d="M156.25 193.75a3.204 3.204 0 01-2.219-.906l-8.469-8.469h-17.468c-5.157 0-9.375-4.219-9.375-9.375v-34.375c0-5.156 4.218-9.375 9.375-9.375h56.25c5.156 0 9.375 4.219 9.375 9.375V175c0 5.156-4.219 9.375-9.375 9.375h-17.469l-8.469 8.469a3.068 3.068 0 01-2.219.906h.063zm-28.125-56.25a3.134 3.134 0 00-3.125 3.125V175a3.134 3.134 0 003.125 3.125h18.75a3.23 3.23 0 012.219.906l7.156 7.157 7.156-7.157a3.089 3.089 0 012.219-.906h18.75A3.134 3.134 0 00187.5 175v-34.375a3.134 3.134 0 00-3.125-3.125h-56.25z" fill="#DCEBFC"/><path d="M171.875 153.125h-31.25A3.134 3.134 0 01137.5 150a3.134 3.134 0 013.125-3.125h31.25A3.134 3.134 0 01175 150a3.134 3.134 0 01-3.125 3.125zm0 15.625h-31.25a3.134 3.134 0 01-3.125-3.125 3.134 3.134 0 013.125-3.125h31.25a3.134 3.134 0 013.125 3.125 3.134 3.134 0 01-3.125 3.125zM37.5 68.75a3.195 3.195 0 01-2.25-.938L11.375 43.25c-6.813-7-6.813-18.406 0-25.438 3.344-3.406 7.75-5.312 12.469-5.312 4.718 0 9.156 1.875 12.468 5.313.407.437.813.875 1.188 1.343.375-.468.75-.906 1.156-1.343C42 14.405 46.406 12.5 51.125 12.5c4.719 0 9.156 1.875 12.469 5.313 6.812 7 6.812 18.406 0 25.437L39.719 67.813a3.195 3.195 0 01-2.25.937h.031zm-13.656-50c-3.032 0-5.844 1.219-8 3.406-4.469 4.594-4.469 12.094 0 16.719L37.5 61.156l21.656-22.281c4.469-4.594 4.469-12.094 0-16.719-4.281-4.406-11.718-4.406-16 0-1.187 1.219-2.093 2.75-2.687 4.532-.438 1.28-1.625 2.156-2.969 2.156-1.344 0-2.531-.875-2.969-2.157-.593-1.78-1.5-3.312-2.687-4.53-2.125-2.188-4.969-3.407-8-3.407zm123.031 40.625a3.142 3.142 0 01-1.5-.375 3.143 3.143 0 01-1.625-2.75V25a3.18 3.18 0 011.625-2.75c1-.531 2.219-.531 3.156.094l25 15.625A3.122 3.122 0 01175 40.625a3.122 3.122 0 01-1.469 2.656l-25 15.625c-.5.313-1.093.469-1.656.469zM150 30.625v19.969l15.969-10-15.969-10v.031z" fill="#DCEBFC"/><path d="M156.25 75c-18.969 0-34.375-15.406-34.375-34.375S137.281 6.25 156.25 6.25s34.375 15.406 34.375 34.375S175.219 75 156.25 75zm0-62.5c-15.5 0-28.125 12.625-28.125 28.125S140.75 68.75 156.25 68.75s28.125-12.625 28.125-28.125S171.75 12.5 156.25 12.5zm0 112.5a3.134 3.134 0 01-3.125-3.125v-37.5a3.134 3.134 0 013.125-3.125 3.134 3.134 0 013.125 3.125v37.5A3.134 3.134 0 01156.25 125zM37.5 103.125A3.134 3.134 0 0134.375 100V78.125A3.134 3.134 0 0137.5 75a3.134 3.134 0 013.125 3.125V100a3.134 3.134 0 01-3.125 3.125zm75-59.375H75a3.134 3.134 0 01-3.125-3.125A3.134 3.134 0 0175 37.5h37.5a3.134 3.134 0 013.125 3.125 3.134 3.134 0 01-3.125 3.125zm-3.125 118.75h-31.25A3.134 3.134 0 0175 159.375a3.134 3.134 0 013.125-3.125h31.25a3.134 3.134 0 013.125 3.125 3.134 3.134 0 01-3.125 3.125zM37.5 146.875c-10.344 0-18.75-8.406-18.75-18.75s8.406-18.75 18.75-18.75 18.75 8.406 18.75 18.75-8.406 18.75-18.75 18.75zm0-31.25c-6.906 0-12.5 5.594-12.5 12.5s5.594 12.5 12.5 12.5 12.5-5.594 12.5-12.5-5.594-12.5-12.5-12.5zm21.875 78.125h-43.75c-5.156 0-9.375-4.219-9.375-9.375v-3.125C6.25 164.031 20.281 150 37.5 150s31.25 14.031 31.25 31.25v3.125c0 5.156-4.219 9.375-9.375 9.375zM37.5 156.25c-13.781 0-25 11.219-25 25v3.125a3.134 3.134 0 003.125 3.125h43.75a3.134 3.134 0 003.125-3.125v-3.125c0-13.781-11.219-25-25-25z" fill="#DCEBFC"/></svg>