<svg width="60" height="60" fill="none" xmlns="http://www.w3.org/2000/svg"><path d="M46.875 58.125a.96.96 0 01-.666-.272l-2.54-2.54h-5.24a2.82 2.82 0 01-2.813-2.813V42.187a2.82 2.82 0 012.812-2.812h16.875a2.82 2.82 0 012.813 2.813V52.5a2.82 2.82 0 01-2.813 2.813h-5.24l-2.541 2.54a.92.92 0 01-.666.272h.019zM38.437 41.25a.94.94 0 00-.937.938V52.5a.94.94 0 00.938.938h5.624a.97.97 0 01.666.271l2.147 2.147 2.147-2.147a.927.927 0 01.666-.272h5.624a.94.94 0 00.938-.937V42.187a.94.94 0 00-.938-.937H38.439z" fill="#2251FF"/><path d="M51.563 45.938h-9.376A.94.94 0 0141.25 45a.94.94 0 01.938-.938h9.374A.94.94 0 0152.5 45a.94.94 0 01-.938.938zm0 4.687h-9.376a.94.94 0 01-.937-.938.94.94 0 01.938-.937h9.374a.94.94 0 01.938.938.94.94 0 01-.938.937zm-40.313-30a.959.959 0 01-.675-.281l-7.162-7.369c-2.044-2.1-2.044-5.522 0-7.631C4.416 4.322 5.738 3.75 7.153 3.75c1.416 0 2.747.563 3.74 1.594.123.131.244.262.357.403a7.43 7.43 0 01.347-.403c1.003-1.022 2.325-1.594 3.74-1.594 1.416 0 2.747.563 3.741 1.594 2.044 2.1 2.044 5.522 0 7.631l-7.162 7.369a.958.958 0 01-.675.281h.009zm-4.097-15c-.91 0-1.753.366-2.4 1.022-1.34 1.378-1.34 3.628 0 5.015l6.497 6.685 6.497-6.685c1.34-1.378 1.34-3.628 0-5.015-1.285-1.322-3.516-1.322-4.8 0a3.523 3.523 0 00-.806 1.36.946.946 0 01-.891.646.946.946 0 01-.89-.647 3.522 3.522 0 00-.807-1.36 3.326 3.326 0 00-2.4-1.021z" fill="#057FE2"/><path d="M44.063 17.813a.942.942 0 01-.45-.113.943.943 0 01-.488-.825V7.5c0-.337.188-.656.487-.825.3-.16.666-.16.947.028l7.5 4.688a.935.935 0 01.441.797.936.936 0 01-.44.796l-7.5 4.688a.95.95 0 01-.498.14zM45 9.188v5.99l4.79-3-4.79-3v.01z" fill="#232332"/><path d="M46.875 22.5c-5.69 0-10.313-4.622-10.313-10.313 0-5.69 4.622-10.312 10.313-10.312 5.69 0 10.313 4.622 10.313 10.313 0 5.69-4.622 10.312-10.313 10.312zm0-18.75c-4.65 0-8.438 3.787-8.438 8.438 0 4.65 3.788 8.437 8.438 8.437s8.438-3.788 8.438-8.438-3.788-8.437-8.438-8.437zm0 33.75a.94.94 0 01-.938-.938v-11.25a.94.94 0 01.938-.937.94.94 0 01.938.938v11.25a.94.94 0 01-.938.937zM11.25 30.937a.94.94 0 01-.938-.937v-6.563a.94.94 0 01.938-.937.94.94 0 01.938.938V30a.94.94 0 01-.938.938zm22.5-17.812H22.5a.94.94 0 01-.938-.938.94.94 0 01.938-.937h11.25a.94.94 0 01.938.938.94.94 0 01-.938.937zm-.938 35.625h-9.374a.94.94 0 01-.938-.938.94.94 0 01.938-.937h9.375a.94.94 0 01.937.938.94.94 0 01-.938.937zM11.25 44.062a5.63 5.63 0 01-5.625-5.624 5.63 5.63 0 015.625-5.626 5.63 5.63 0 015.625 5.626 5.63 5.63 0 01-5.625 5.624zm0-9.374a3.749 3.749 0 00-3.75 3.75 3.749 3.749 0 003.75 3.75 3.749 3.749 0 003.75-3.75 3.749 3.749 0 00-3.75-3.75zm6.563 23.437H4.688a2.82 2.82 0 01-2.813-2.813v-.937c0-5.166 4.21-9.375 9.375-9.375 5.166 0 9.375 4.21 9.375 9.375v.938a2.82 2.82 0 01-2.813 2.812zm-6.563-11.25c-4.134 0-7.5 3.366-7.5 7.5v.938a.94.94 0 00.938.937h13.125a.94.94 0 00.937-.938v-.937c0-4.134-3.366-7.5-7.5-7.5z" fill="#0A0F26"/></svg>