<svg width="64" height="65" viewBox="0 0 64 65" fill="none" xmlns="http://www.w3.org/2000/svg">
<path d="M36.2531 64.4447C35.0957 64.214 33.9224 64.0434 32.7851 63.7394C28.5691 62.614 24.8517 60.466 21.2704 58.042C14.2784 53.3074 8.69307 47.2554 4.35573 40.0287C4.2704 39.886 4.17573 39.7474 4.1064 39.5967C3.87573 39.1007 4.01573 38.6034 4.4464 38.3447C4.88107 38.0847 5.3824 38.1927 5.69973 38.654C5.9704 39.0474 6.19707 39.4714 6.4504 39.8767C11.6397 48.2247 18.5517 54.7554 27.1851 59.446C30.0717 61.014 33.1011 62.2087 36.4157 62.498C37.1584 62.5634 37.9117 62.558 38.6584 62.5287C39.3691 62.502 39.9744 62.194 40.4824 61.6834C41.9771 60.1754 43.4891 58.6847 44.9824 57.174C46.0944 56.0474 46.0011 54.6287 44.7451 53.6754C42.5077 51.9767 40.2597 50.2927 38.0117 48.6074C37.3197 48.0887 36.9624 48.1287 36.3411 48.7687C35.3677 49.7674 34.4024 50.774 33.4277 51.7714C32.4291 52.794 31.4331 52.91 30.2371 52.1514C22.9024 47.4914 16.8944 41.5007 12.2357 34.162C11.4251 32.8847 11.5371 31.9274 12.6197 30.878C13.6224 29.9074 14.6264 28.9394 15.6237 27.9647C16.2144 27.3874 16.2437 27.002 15.7424 26.334C14.0571 24.086 12.3731 21.8367 10.6744 19.5994C9.71973 18.342 8.29973 18.25 7.17707 19.3607C5.71307 20.8114 4.27573 22.2887 2.7984 23.7247C2.12773 24.3767 1.81707 25.1354 1.78507 26.0567C1.69307 28.794 2.36507 31.3727 3.36507 33.8874C3.50373 34.234 3.65973 34.5754 3.78773 34.926C3.9864 35.4727 3.78507 35.9874 3.31707 36.182C2.8344 36.3834 2.31307 36.1847 2.07707 35.654C1.19707 33.6727 0.438401 31.638 0.173068 29.478C0.00240095 28.0834 -0.0109342 26.662 0.00506583 25.254C0.0157325 24.2634 0.497066 23.4087 1.18907 22.7074C2.78373 21.0914 4.3864 19.486 6.00107 17.8914C6.86107 17.042 7.92107 16.6487 9.12373 16.7487C9.53573 16.7834 9.7024 16.6447 9.8744 16.3074C13.3864 9.40337 18.7517 4.50737 26.0984 2.07671C36.1144 -1.23663 45.3331 0.524704 53.6091 7.09537C54.1451 7.5207 54.2211 8.06604 53.8557 8.50871C53.4944 8.94737 52.9611 8.97804 52.4211 8.53271C50.0397 6.57004 47.4091 5.05537 44.5171 3.97271C31.9837 -0.719292 17.4517 5.05938 11.5584 17.0807C11.3904 17.4247 11.3824 17.6327 11.6837 17.93C12.1531 18.3927 12.5331 18.9447 12.8957 19.3887C13.7837 17.8994 14.6704 16.4007 15.5717 14.91C15.7544 14.6087 15.9811 14.3314 16.2051 14.058C16.6144 13.5594 17.1277 13.4714 17.5664 13.8087C17.9944 14.1354 18.0637 14.6927 17.6824 15.194C16.4917 16.7567 15.5211 18.442 14.7117 20.234C14.3757 20.9807 14.3677 21.5247 14.9317 22.1767C15.7864 23.1674 16.5317 24.2527 17.3104 25.3074C18.2917 26.634 18.1771 28.0887 16.9997 29.246C15.9757 30.2527 14.9477 31.2554 13.8984 32.2367C13.5731 32.542 13.5664 32.7847 13.7984 33.1474C18.3104 40.2274 24.1024 46.022 31.1784 50.5394C31.5717 50.79 31.8211 50.7607 32.1384 50.4207C33.1051 49.386 34.0971 48.3767 35.0877 47.3647C36.2691 46.158 37.7051 46.0474 39.0691 47.062C40.2384 47.9314 41.4051 48.802 42.5571 49.694C42.8851 49.9487 43.1611 50.018 43.5651 49.8447C51.6971 46.346 56.5451 40.2554 57.5944 31.4514C58.9691 19.9234 51.3984 9.45671 40.0251 7.06337C32.9677 5.57804 26.5784 7.22871 20.9704 11.802C20.8251 11.9194 20.6864 12.046 20.5411 12.1634C20.0104 12.5927 19.4731 12.5954 19.1037 12.1727C18.7357 11.7527 18.7744 11.154 19.3197 10.762C20.8864 9.63537 22.3944 8.37937 24.0917 7.49004C37.6224 0.402039 54.0477 7.26604 58.5904 21.8474C62.1931 33.41 56.4664 46.1327 45.4317 51.086C45.2464 51.1687 45.0677 51.262 44.8691 51.358C45.4717 51.8727 46.0211 52.3807 46.6171 52.826C46.7504 52.9247 47.0797 52.8647 47.2651 52.7714C50.7424 51.034 53.7104 48.6527 56.1277 45.61C60.2544 40.4154 62.2077 34.4794 61.9477 27.8607C61.7144 21.934 59.6731 16.6594 55.9104 12.062C55.7397 11.8527 55.5544 11.6527 55.3971 11.434C55.0691 10.9807 55.1091 10.4767 55.4837 10.1394C55.8824 9.7807 56.4437 9.7807 56.8104 10.242C57.6784 11.3314 58.5704 12.4114 59.3251 13.578C61.8931 17.5447 63.3691 21.8954 63.7464 26.6127C63.7597 26.7754 63.8184 26.934 63.8557 27.094V30.7167C63.8184 30.9367 63.7637 31.1567 63.7451 31.3794C63.4037 35.4594 62.2477 39.2954 60.2371 42.858C57.3544 47.9647 53.2917 51.846 48.0464 54.4807C47.7944 54.6074 47.5397 54.6767 47.5837 55.0954C47.7317 56.47 47.2224 57.6127 46.2451 58.574C45.0584 59.7407 43.8611 60.9007 42.7171 62.11C41.6717 63.2154 40.5651 64.1834 39.0011 64.4447H36.2531Z" fill="#2251FF"/>
<path d="M30.7971 30.1808H33.5597V25.5928C33.5224 25.5768 33.4864 25.5608 33.4504 25.5448C32.5851 27.0581 31.7184 28.5701 30.7971 30.1808ZM35.4677 30.1781C36.4117 30.2634 36.7744 30.5408 36.7877 31.1234C36.8024 31.7221 36.4651 31.9861 35.4171 32.1568C35.4171 32.8074 35.4277 33.4701 35.4131 34.1328C35.3984 34.8234 35.0411 35.2208 34.4757 35.2128C33.9144 35.2061 33.5611 34.7981 33.5477 34.1114C33.5344 33.4688 33.5451 32.8248 33.5451 32.0861C33.3077 32.0861 33.0891 32.0861 32.8691 32.0861C31.6851 32.0861 30.4997 32.0994 29.3157 32.0808C28.4397 32.0661 28.0011 31.3848 28.4224 30.6368C29.7251 28.3208 31.0477 26.0141 32.3997 23.7274C32.8904 22.8981 33.5957 22.5888 34.2544 22.7621C34.9824 22.9528 35.4397 23.6048 35.4557 24.5994C35.4811 26.1994 35.4651 27.8008 35.4664 29.4021C35.4677 29.6474 35.4677 29.8928 35.4677 30.1781Z" fill="#2251FF"/>
<path d="M23.7923 33.4418C25.0483 33.4418 26.1709 33.4365 27.2936 33.4431C27.9963 33.4471 28.3856 33.7778 28.3923 34.3525C28.3989 34.9231 28.0056 35.3018 27.3203 35.3085C25.6763 35.3245 24.0336 35.3178 22.3896 35.3111C21.8949 35.3098 21.4216 35.2231 21.1763 34.7151C20.9309 34.2071 21.1696 33.7925 21.4616 33.3938C22.6176 31.8165 23.7883 30.2511 24.9136 28.6525C25.3176 28.0805 25.6696 27.4538 25.9336 26.8071C26.3016 25.9085 25.8309 24.9578 24.9456 24.6165C24.0669 24.2778 23.0856 24.6725 22.6896 25.5298C22.6296 25.6605 22.5923 25.8031 22.5416 25.9391C22.3269 26.5245 21.9123 26.7791 21.4056 26.6418C20.8643 26.4938 20.6296 26.0511 20.7563 25.4138C21.1536 23.4178 23.3936 22.1511 25.3989 22.7898C27.4136 23.4325 28.5043 25.5911 27.6509 27.5285C27.1536 28.6565 26.4203 29.6871 25.7403 30.7271C25.1523 31.6258 24.4896 32.4751 23.7923 33.4418Z" fill="#2251FF"/>
<path d="M51.2076 24.5952C49.7783 24.5952 48.4303 24.5979 47.081 24.5939C46.3183 24.5912 45.8676 24.2232 45.8863 23.6325C45.9023 23.0632 46.3343 22.7245 47.0676 22.7232C48.8556 22.7192 50.6436 22.7165 52.4316 22.7232C53.433 22.7272 53.8343 23.3259 53.4343 24.2405C51.9463 27.6445 50.449 31.0459 48.9503 34.4459C48.653 35.1219 48.1676 35.3672 47.6383 35.1392C47.0796 34.8965 46.9356 34.3765 47.2516 33.6552C48.477 30.8605 49.7076 28.0685 50.9343 25.2739C51.0236 25.0712 51.101 24.8619 51.2076 24.5952Z" fill="#2251FF"/>
<path d="M44.1299 23.7144C44.0925 23.8358 44.0552 23.9971 43.9952 24.1504C42.6179 27.6211 41.2419 31.0918 39.8579 34.5598C39.6125 35.1758 39.1592 35.4358 38.6645 35.2838C38.0592 35.0984 37.8512 34.5371 38.1405 33.8078C39.1179 31.3384 40.1045 28.8731 41.0872 26.4064C41.4939 25.3851 41.8885 24.3584 42.3085 23.3438C42.5072 22.8638 42.8912 22.6304 43.4099 22.7584C43.8645 22.8704 44.0872 23.2064 44.1299 23.7144Z" fill="#2251FF"/>
</svg>
