<svg width="177" height="160" fill="none" xmlns="http://www.w3.org/2000/svg"><path d="M178.125 187.5H21.875c-8.625 0-15.625-7-15.625-15.625V50a3.134 3.134 0 013.125-3.125A3.134 3.134 0 0112.5 50v121.875c0 5.156 4.219 9.375 9.375 9.375h156.25c5.156 0 9.375-4.219 9.375-9.375V65.625a3.134 3.134 0 013.125-3.125 3.134 3.134 0 013.125 3.125v106.25c0 8.625-7 15.625-15.625 15.625z" fill="#DCEBFC"/><path d="M162.5 162.5h-125c-3.438 0-6.25-2.812-6.25-6.25v-12.5c0-3.438 2.813-6.25 6.25-6.25h125c3.438 0 6.25 2.812 6.25 6.25v12.5c0 3.438-2.812 6.25-6.25 6.25zm-125-18.75v12.5h125v-12.5h-125zM165.625 75h-50a3.134 3.134 0 01-3.125-3.125 3.134 3.134 0 013.125-3.125h50a3.134 3.134 0 013.125 3.125A3.134 3.134 0 01165.625 75zm0 25h-50a3.134 3.134 0 01-3.125-3.125 3.134 3.134 0 013.125-3.125h50a3.134 3.134 0 013.125 3.125 3.134 3.134 0 01-3.125 3.125zm0 25h-50a3.134 3.134 0 01-3.125-3.125 3.134 3.134 0 013.125-3.125h50a3.134 3.134 0 013.125 3.125 3.134 3.134 0 01-3.125 3.125zM93.75 68.75H40.625c-5.156 0-9.375 4.219-9.375 9.375v37.5c0 5.156 4.219 9.375 9.375 9.375H93.75c5.156 0 9.375-4.219 9.375-9.375v-37.5c0-5.156-4.219-9.375-9.375-9.375zm3.125 10.125v36l-24.406-18 24.406-18zM67.187 93L42.782 75h48.844L67.219 93h-.031zm-5.28 3.875l-24.407 18v-36l24.406 18zm5.28 3.875l24.407 18H42.75l24.406-18h.031zm103.125-61.687a4.688 4.688 0 100-9.376 4.688 4.688 0 000 9.375zm-18.75 0a4.688 4.688 0 100-9.376 4.688 4.688 0 000 9.375zm-18.75 0a4.688 4.688 0 100-9.376 4.688 4.688 0 000 9.375z" fill="#DCEBFC"/><path d="M190.625 56.25h-68.75a3.126 3.126 0 01-2.437-1.188l-11.563-14.437h-98.5A3.134 3.134 0 016.25 37.5v-9.375c0-8.625 7-15.625 15.625-15.625h156.25c8.625 0 15.625 7 15.625 15.625v25a3.134 3.134 0 01-3.125 3.125zM123.375 50H187.5V28.125c0-5.156-4.219-9.375-9.375-9.375H21.875c-5.156 0-9.375 4.219-9.375 9.375v6.25h96.875a3.126 3.126 0 012.437 1.188L123.375 50z" fill="#DCEBFC"/></svg>