<svg width="60" height="60" fill="none" xmlns="http://www.w3.org/2000/svg"><path d="M26.25 42.188h-1.875a.94.94 0 01-.938-.938V28.125a.94.94 0 01.938-.938H30a.94.94 0 01.938.938V37.5a4.69 4.69 0 01-4.688 4.688zm-.938-1.876h.938a2.82 2.82 0 002.813-2.812v-8.438h-3.75v11.25z" fill="#2251FF"/><path d="M57.188 21.563c0-2.26-1.613-4.154-3.75-4.594V7.5a.94.94 0 00-.938-.938.94.94 0 00-.938.938v1.181L33.61 14.063H23.437a4.69 4.69 0 00-4.687 4.687v5.625a4.69 4.69 0 004.688 4.688h10.171l17.953 5.38v1.182a.94.94 0 00.938.938.94.94 0 00.938-.938v-9.469a4.687 4.687 0 003.75-4.593zm-36.563 2.812V18.75a2.82 2.82 0 012.813-2.813h9.375v11.25h-9.376a2.82 2.82 0 01-2.812-2.812zm14.063 3.056V15.703l16.874-5.062v21.853L34.689 27.43zm18.75-3.225v-5.278a2.804 2.804 0 011.874 2.644c0 1.228-.787 2.25-1.874 2.644v-.01z" fill="#232332"/><path d="M31.875 57.188H7.5A4.69 4.69 0 012.812 52.5v-45A4.69 4.69 0 017.5 2.812h24.375A4.69 4.69 0 0136.563 7.5v2.813a.94.94 0 01-.938.937.94.94 0 01-.938-.938V7.5a2.82 2.82 0 00-2.812-2.813H7.5A2.82 2.82 0 004.687 7.5v45A2.82 2.82 0 007.5 55.313h24.375a2.82 2.82 0 002.813-2.813V32.812a.94.94 0 01.937-.937.94.94 0 01.938.938V52.5a4.69 4.69 0 01-4.688 4.688z" fill="#2251FF"/><path d="M35.625 49.688H3.75a.94.94 0 01-.938-.938.94.94 0 01.938-.938h31.875a.94.94 0 01.938.938.94.94 0 01-.938.938z" fill="#2251FF"/></svg>