<svg width="49" height="55" viewBox="0 0 49 55" fill="none" xmlns="http://www.w3.org/2000/svg">
<path d="M20.7179 30.7047H28.0603V29.3206H20.7179V30.7047ZM13.2162 53.3589H35.5415C35.7191 51.835 35.5804 51.1887 33.7654 51.2024C27.4496 51.2494 21.1327 51.2208 14.8169 51.2208C14.6026 51.2208 14.3861 51.2139 14.1741 51.2345C13.6516 51.2849 13.2655 51.6447 13.2219 52.1592C13.1898 52.5465 13.2162 52.9384 13.2162 53.3589ZM29.7252 18.19C29.7252 18.6988 29.7275 19.1777 29.7252 19.6566C29.7184 20.9239 29.1489 21.5014 27.9 21.5106C27.6674 21.5129 27.4348 21.5152 27.2022 21.5094C26.1789 21.4819 25.5843 20.8827 25.5694 19.8549C25.5602 19.3061 25.5671 18.7572 25.5671 18.1911H23.2296C23.2296 18.5418 23.209 18.8615 23.233 19.1777C23.3682 21.0431 22.6246 21.6103 20.8737 21.5209C19.6603 21.459 19.0851 20.9228 19.0725 19.6899C19.0667 19.1949 19.0714 18.701 19.0714 18.2026H16.9768C16.9768 19.6945 16.9745 21.1439 16.9779 22.5923C16.9802 23.4986 17.3377 23.8538 18.2498 23.855C20.2183 23.8584 22.1869 23.8538 24.1554 23.8573C24.8234 23.8584 25.1947 24.1575 25.1912 24.6743C25.1878 25.1933 24.8326 25.4694 24.1451 25.4717C22.7128 25.4752 21.2816 25.4706 19.8505 25.4729C19.006 25.4751 18.487 25.9003 18.4916 26.5786C18.4962 27.2604 18.998 27.6626 19.8654 27.6672C20.9746 27.6717 22.0837 27.6683 23.1929 27.6683C25.1431 27.6683 27.0944 27.674 29.0446 27.6648C29.8192 27.6603 30.3039 27.2226 30.3039 26.5718C30.3039 25.9244 29.8032 25.4855 29.0458 25.474C28.6345 25.4683 28.2231 25.4775 27.8117 25.4717C27.1792 25.4626 26.8286 25.1681 26.8332 24.6605C26.8378 24.1586 27.1976 23.8618 27.8289 23.8573C28.741 23.8515 29.6531 23.8595 30.5663 23.855C31.4451 23.8515 31.813 23.4906 31.8176 22.6255C31.8233 21.6412 31.8198 20.6569 31.8198 19.6727V18.19H29.7252ZM31.7878 45.856C31.8645 44.9978 31.8336 44.2564 31.3524 43.5735C29.1157 40.4007 28.0615 36.8589 28.1073 32.9837C28.1096 32.7786 28.0879 32.5724 28.0787 32.3799H20.6869C20.6869 32.6286 20.6984 32.8405 20.6858 33.0514C20.6194 34.0689 20.6102 35.0944 20.4647 36.1004C20.0705 38.8172 19.053 41.3014 17.466 43.5415C16.963 44.2519 16.908 45.0092 17.0272 45.8583C17.9897 45.8583 18.9178 45.848 19.846 45.8629C20.3398 45.8709 20.6389 46.1665 20.6606 46.61C20.6847 47.0706 20.3822 47.4086 19.8849 47.4636C19.744 47.4796 19.5996 47.4716 19.4564 47.4716C18.346 47.4728 17.2357 47.4625 16.1266 47.4774C15.5227 47.4854 15.0919 47.9036 15.0575 48.4651C15.0232 49.0208 15.4116 49.4871 15.9982 49.5857C16.1208 49.6074 16.2481 49.6086 16.3729 49.6086C21.7263 49.6097 27.0784 49.6108 32.4306 49.6074C33.2441 49.6063 33.7528 49.1686 33.7402 48.5098C33.7276 47.8612 33.2487 47.4728 32.4443 47.4728C29.4904 47.4716 26.5364 47.4716 23.5836 47.4716C23.4404 47.4716 23.296 47.4785 23.1539 47.4682C22.6257 47.4293 22.2831 47.0866 22.3026 46.6225C22.3209 46.1699 22.6452 45.8812 23.1654 45.8583C23.3075 45.8514 23.4519 45.856 23.5951 45.856C26.1182 45.856 28.6425 45.856 31.1667 45.856H31.7878ZM18.3552 38.2397C18.2005 38.1538 18.1249 38.1091 18.047 38.0701C11.8664 35.0096 8.61796 29.167 9.49337 22.323C10.0961 17.6068 12.5997 14.0203 16.6205 11.4949C17.0719 11.2108 17.5532 11.3173 17.7961 11.7103C18.0333 12.093 17.9266 12.5216 17.5119 12.831C17.411 12.9055 17.3022 12.9684 17.1968 13.036C9.20808 18.1224 8.80015 29.5784 16.4188 35.2285C17.1223 35.7498 17.9084 36.16 18.6554 36.6229L18.8525 36.5084C18.943 35.1345 19.0336 33.7618 19.1241 32.3925C18.0046 32.2791 17.6803 32.1015 17.6872 31.5916C17.6998 30.6853 18.4217 30.7414 19.0714 30.7024C19.0714 30.4103 19.0462 30.1593 19.076 29.9152C19.1344 29.4443 18.9774 29.214 18.4996 29.0261C17.238 28.5311 16.6227 27.1573 16.9802 25.8441C17.026 25.678 17.0708 25.5118 17.1189 25.3377C15.8321 24.7476 15.3073 23.7645 15.3531 22.3975C15.399 21.0019 15.3543 19.6051 15.3669 18.2083C15.3761 17.2378 16.0555 16.5664 17.0306 16.5469C17.6391 16.5343 18.2475 16.5412 18.856 16.5434C20.0293 16.5503 20.6686 17.1886 20.6858 18.3722C20.6927 18.8661 20.6869 19.3599 20.6869 19.8686H21.6162C21.6162 19.3324 21.6093 18.8179 21.6174 18.3046C21.6323 17.2367 22.3038 16.5583 23.3614 16.5446C24.0236 16.5365 24.6859 16.54 25.3482 16.5446C26.5112 16.5503 27.1712 17.2115 27.1804 18.3791C27.1838 18.8729 27.1804 19.3679 27.1804 19.8675H28.1143C28.1143 19.2751 28.0924 18.7045 28.1199 18.1373C28.1646 17.2103 28.8246 16.5698 29.7459 16.548C30.4253 16.5308 31.106 16.532 31.7855 16.548C32.7308 16.5686 33.4183 17.239 33.4274 18.1751C33.4423 19.7506 33.4434 21.3261 33.4251 22.9017C33.4137 23.8745 32.9301 24.5952 32.1177 25.1074C31.9722 25.199 31.821 25.2815 31.6823 25.3617C32.2231 27.297 31.7316 28.3684 29.9831 29.175C29.8777 29.2232 29.747 29.3561 29.7401 29.4581C29.7126 29.8625 29.7287 30.2705 29.7287 30.6669C30.8322 30.8388 31.1323 31.0393 31.1174 31.5641C31.1025 32.0614 30.8253 32.2367 29.6691 32.4178C29.762 33.779 29.8559 35.1528 29.9567 36.6057C30.2168 36.506 30.3326 36.4728 30.4391 36.4212C35.8348 33.8133 38.893 27.4414 37.5604 21.5874C35.7947 13.8335 28.1853 9.32359 20.5426 11.5007C19.8666 11.6943 19.4231 11.519 19.281 11.0022C19.1504 10.5279 19.4358 10.1566 20.0935 9.95837C22.0735 9.36024 24.09 9.20671 26.1445 9.43587C33.1776 10.2173 38.8426 16.0347 39.419 23.0804C39.9346 29.3871 36.6174 35.2101 30.9284 37.9876C30.7875 38.0563 30.6488 38.1309 30.4357 38.242C30.7978 39.1082 31.1506 39.9539 31.5425 40.8946C32.5142 40.3377 33.4102 39.8565 34.2719 39.3202C34.7646 39.012 35.1737 38.9982 35.64 39.3568C36.5773 40.0764 37.5363 40.7662 38.4885 41.4652C38.9835 41.8273 39.2093 41.8101 39.6516 41.3724C40.2245 40.8064 40.7928 40.2369 41.36 39.6639C41.8172 39.201 41.8321 38.9856 41.4437 38.4585C40.7333 37.4926 40.0251 36.5255 39.3044 35.5676C39.0076 35.1746 38.9778 34.7999 39.2563 34.3862C40.5889 32.4028 41.4952 30.2407 41.9547 27.894C42.0521 27.3944 42.3133 27.1171 42.8404 27.0472C44.0103 26.8937 45.1744 26.6989 46.342 26.5271C47.0261 26.4262 47.1751 26.2692 47.1773 25.6001C47.1808 24.7762 47.1659 23.9524 47.1831 23.1297C47.1934 22.6278 46.9837 22.3722 46.4818 22.3035C45.3486 22.1477 44.2188 21.9609 43.0856 21.7993C42.279 21.6836 42.0796 21.5439 41.9398 20.8369C41.4837 18.5452 40.6003 16.4311 39.3021 14.4924C38.9858 14.0203 39.0019 13.6204 39.3434 13.1735C40.0618 12.2362 40.755 11.2806 41.4539 10.3285C41.8275 9.81857 41.8138 9.60429 41.3818 9.16543C40.8031 8.57877 40.2222 7.99673 39.6355 7.41809C39.1841 6.97351 38.9939 6.962 38.4759 7.34242C37.51 8.05169 36.5418 8.75867 35.5862 9.48168C35.1748 9.79335 34.7921 9.82317 34.359 9.53099C32.3778 8.19381 30.2145 7.29087 27.8644 6.84056C27.3912 6.74889 27.1174 6.48993 27.0498 5.98462C26.8894 4.79754 26.7026 3.61391 26.5192 2.43027C26.415 1.75309 26.2499 1.61445 25.5716 1.61216C24.8016 1.60987 24.0317 1.60987 23.2628 1.61216C22.5272 1.61445 22.3748 1.75311 22.2648 2.4979C22.0975 3.62997 21.9073 4.75975 21.7663 5.89412C21.6918 6.49224 21.3722 6.7615 20.8107 6.87035C18.5363 7.3115 16.436 8.19267 14.5144 9.48287C14.024 9.81173 13.6172 9.8014 13.152 9.44161C12.2319 8.7312 11.2866 8.05169 10.3504 7.36305C9.78439 6.94711 9.62057 6.96206 9.11068 7.46851C8.54006 8.0357 7.98087 8.6166 7.39879 9.17348C7.01609 9.53785 6.99894 9.88271 7.31634 10.2998C7.99811 11.197 8.6592 12.1102 9.32951 13.0166C9.87034 13.7499 9.87839 13.8931 9.39371 14.6379C8.16996 16.5171 7.32203 18.5486 6.8763 20.7486C6.71818 21.5278 6.55544 21.6733 5.74649 21.7925C4.64993 21.954 3.55114 22.1076 2.45573 22.2794C1.71438 22.3963 1.61926 22.5178 1.61811 23.2523C1.61696 24.0222 1.61582 24.7922 1.61811 25.5622C1.6204 26.2761 1.75905 26.4251 2.46832 26.5282C3.6004 26.6943 4.72903 26.8937 5.86454 27.03C6.45923 27.1022 6.75255 27.3933 6.8614 27.9605C7.30255 30.2556 8.19403 32.3684 9.49225 34.3083C9.80735 34.7793 9.79475 35.1792 9.45329 35.6272C8.73601 36.5645 8.04278 37.5213 7.34382 38.4723C6.96914 38.9822 6.98058 39.2022 7.41026 39.6376C7.9889 40.2231 8.57101 40.8052 9.15768 41.3839C9.5908 41.8113 9.81993 41.8261 10.3229 41.4572C11.2614 40.7708 12.2055 40.0914 13.1245 39.3787C13.6069 39.0051 14.0251 39.0051 14.5396 39.3282C15.3978 39.8679 16.295 40.3446 17.2598 40.8946C17.6505 39.9481 18 39.1002 18.3552 38.2397ZM26.3313 0C27.5333 0.39875 28.0592 1.27411 28.1669 2.49671C28.238 3.31483 28.4064 4.12381 28.5142 4.93963C28.552 5.2238 28.6665 5.36246 28.9622 5.43121C30.9823 5.89756 32.874 6.68476 34.6283 7.78819C34.8815 7.94631 35.0327 7.88671 35.2378 7.73203C36.0227 7.13849 36.8134 6.55412 37.6097 5.97433C38.6708 5.20319 39.7673 5.28452 40.7114 6.20806C41.352 6.83368 41.9856 7.46501 42.6101 8.10667C43.5073 9.02907 43.5886 10.1291 42.8381 11.1683C42.2503 11.9807 41.6556 12.7874 41.0483 13.5838C40.8787 13.8038 40.881 13.9607 41.0277 14.1956C42.1048 15.9224 42.8862 17.7786 43.348 19.762C43.4305 20.1184 43.5966 20.2548 43.9461 20.3006C44.9212 20.4267 45.8929 20.579 46.8645 20.7314C48.0195 20.9125 48.7735 21.7787 48.7884 22.9532C48.801 23.9203 48.801 24.8874 48.7884 25.8533C48.7735 27.0106 48.0654 27.8493 46.9092 28.0533C45.9066 28.2309 44.8972 28.3775 43.8877 28.5185C43.5864 28.5609 43.4374 28.6629 43.3617 28.9894C42.8965 30.99 42.1128 32.8646 41.0277 34.6074C40.881 34.8435 40.881 34.9993 41.0506 35.2204C41.6488 36.0007 42.2285 36.7959 42.8094 37.5911C43.5989 38.6751 43.5153 39.7774 42.57 40.7365C41.9673 41.3472 41.3589 41.9556 40.7482 42.5583C39.7696 43.5254 38.6868 43.6044 37.5616 42.7886C36.7801 42.2214 36.0124 41.6336 35.2241 41.0756C35.0934 40.9839 34.8426 40.9244 34.7177 40.9874C33.9568 41.3781 33.2166 41.8078 32.4122 42.2558C32.5257 42.4277 32.6311 42.6041 32.7514 42.7703C33.3484 43.5987 33.4767 44.5372 33.4423 45.526C33.4377 45.6887 33.5111 45.9316 33.6302 46.0073C35.2688 47.0454 35.6125 47.8291 35.1611 49.6395C35.2814 49.6922 35.4063 49.7461 35.5312 49.8022C36.5716 50.2732 37.1537 51.0661 37.2007 52.2176C37.2236 52.7894 37.2121 53.3623 37.2086 53.9352C37.2029 54.7385 36.9463 54.9985 36.1511 54.9985C33.8606 55.0008 31.5689 54.9997 29.2772 54.9997C23.7818 54.9997 18.2864 54.9997 12.791 54.9997C11.8033 54.9997 11.5891 54.7889 11.5868 53.8138C11.5857 53.4746 11.5868 53.1343 11.5868 52.794C11.588 51.0374 12.0349 50.343 13.5886 49.6544C13.5416 49.1903 13.4247 48.7286 13.4625 48.2794C13.545 47.2779 14.0916 46.5607 14.9842 46.092C15.14 46.0095 15.352 45.8102 15.3451 45.675C15.2786 44.4123 15.5319 43.2572 16.4142 42.2753C15.5858 41.8101 14.8169 41.3632 14.0286 40.9542C13.922 40.8992 13.6928 40.9908 13.5668 41.0802C12.7658 41.652 11.9832 42.249 11.1857 42.8253C10.1236 43.5953 9.01443 43.5094 8.08402 42.5927C7.4458 41.9648 6.81103 41.3345 6.18541 40.694C5.29051 39.7785 5.20802 38.6694 5.95853 37.6336C6.53603 36.8361 7.1135 36.0385 7.71735 35.2628C7.91787 35.0039 7.90526 34.8206 7.74141 34.557C6.6712 32.8452 5.90353 31.0026 5.44863 29.0375C5.36499 28.6732 5.19653 28.5494 4.85278 28.5036C3.87768 28.3753 2.9037 28.2344 1.93548 28.0636C0.688818 27.8436 0.0128254 27.0175 0.00595044 25.7433C0.0002213 24.8129 -0.00438887 23.8813 0.00706941 22.9509C0.0219652 21.7764 0.775955 20.9113 1.93324 20.7314C2.9049 20.579 3.87766 20.4335 4.85047 20.296C5.15526 20.2536 5.35121 20.1791 5.43485 19.8125C5.89548 17.8107 6.67806 15.935 7.76889 14.1945C7.9167 13.9585 7.91558 13.8026 7.74714 13.5826C7.13985 12.7863 6.54516 11.9796 5.95735 11.1672C5.20568 10.1291 5.2882 9.02678 6.18652 8.10667C6.82475 7.45355 7.46868 6.80616 8.1241 6.17022C9.02357 5.2971 10.1282 5.21346 11.1434 5.94335C11.9706 6.53918 12.7784 7.16251 13.6149 7.74574C13.7444 7.83626 14.0262 7.8535 14.158 7.77329C15.9295 6.69392 17.8144 5.89871 19.8333 5.43121C20.1301 5.36246 20.2436 5.22268 20.2814 4.93851C20.3902 4.12383 20.5598 3.31368 20.6297 2.49671C20.7339 1.27182 21.2633 0.39875 22.4641 0H26.3313Z" fill="#2251FF"/>
</svg>
