<svg width="58" height="54" viewBox="0 0 58 54" fill="none" xmlns="http://www.w3.org/2000/svg">
<path d="M6.18042 32.4014C8.5423 32.4014 10.7453 32.4105 12.9492 32.3862C13.1405 32.3831 13.3977 32.206 13.508 32.0359C14.3635 30.7178 15.1805 29.3753 16.0329 28.0562C16.2415 27.7343 16.1979 27.5115 15.9934 27.2149C15.2301 26.1053 14.4941 24.9765 13.7449 23.8578C13.4503 23.4185 13.1486 22.9852 12.8034 22.482C10.5863 25.8036 8.42284 29.0423 6.18042 32.4014ZM24.7151 18.2432C21.7306 23.0085 18.818 27.6583 15.8811 32.3477H33.5542C30.5991 27.633 27.6936 22.9953 24.7151 18.2432ZM34.4036 29.591V12.997H5.28851V29.8066C5.48896 29.5242 5.62057 29.347 5.74307 29.1637C7.74151 26.1701 9.73388 23.1735 11.7384 20.1839C12.3792 19.2262 13.2388 19.2313 13.8857 20.189C14.8818 21.662 15.8639 23.1431 16.8509 24.6202C17.0585 24.929 17.267 25.2377 17.5181 25.6113C17.7074 25.3258 17.8451 25.1274 17.9727 24.9229C19.8233 21.9687 21.6719 19.0126 23.5236 16.0595C24.292 14.8325 25.1383 14.8406 25.9148 16.0807C28.5885 20.351 31.2612 24.6212 33.9349 28.8904C34.0614 29.0919 34.1991 29.2862 34.4036 29.591ZM19.8456 10.8042C24.9166 10.8042 29.9886 10.8042 35.0607 10.8042C36.3019 10.8042 36.6157 11.117 36.6167 12.3562C36.6167 19.2404 36.6167 26.1246 36.6157 33.0078C36.6157 34.2459 36.3008 34.5608 35.0597 34.5608C24.9166 34.5618 14.7735 34.5618 4.63046 34.5608C3.38927 34.5608 3.07544 34.2479 3.07544 33.0078C3.07442 26.1236 3.07442 19.2394 3.07544 12.3562C3.07544 11.115 3.38725 10.8042 4.63046 10.8042C9.7025 10.8042 14.7735 10.8042 19.8456 10.8042Z" fill="#2251FF"/>
<path d="M5.26912 51.791H16.0054V41.0759H5.26912V51.791ZM10.6489 38.8811C12.7223 38.8811 14.7956 38.877 16.87 38.8821C17.8399 38.8851 18.2205 39.2618 18.2205 40.2306C18.2246 44.3702 18.2246 48.5099 18.2205 52.6485C18.2195 53.6163 17.8378 53.996 16.868 53.997C12.7212 54.001 8.57351 54.001 4.42679 53.997C3.45692 53.996 3.0773 53.6163 3.07628 52.6474C3.07325 48.5078 3.07325 44.3692 3.07628 40.2296C3.0773 39.2597 3.45595 38.8851 4.42784 38.8821C6.5012 38.877 8.57553 38.8811 10.6489 38.8811Z" fill="#2251FF"/>
<path d="M34.4058 41.0932H23.6674V51.8082H34.4058V41.0932ZM29.1039 38.8811C31.155 38.8811 33.2061 38.877 35.2572 38.8821C36.2321 38.8841 36.6138 39.2597 36.6148 40.2245C36.6188 44.3641 36.6188 48.5027 36.6148 52.6424C36.6138 53.6143 36.2352 53.996 35.2694 53.997C31.1216 54.001 26.9738 54.001 22.8271 53.997C21.8532 53.997 21.4716 53.6194 21.4706 52.6536C21.4665 48.5149 21.4665 44.3753 21.4706 40.2356C21.4716 39.2627 21.8472 38.8851 22.815 38.8821C24.9117 38.877 27.0073 38.8811 29.1039 38.8811Z" fill="#2251FF"/>
<path d="M52.7977 41.0951H42.0624V51.8102H52.7977V41.0951ZM55.0097 46.4396C55.0097 48.5099 55.0138 50.5792 55.0087 52.6485C55.0057 53.6163 54.6261 53.996 53.6562 53.997C49.5085 54.001 45.3618 54.001 41.214 53.997C40.2442 53.996 39.8655 53.6163 39.8645 52.6474C39.8605 48.5078 39.8605 44.3692 39.8645 40.2296C39.8655 39.2597 40.2431 38.8831 41.215 38.8821C45.3628 38.879 49.5105 38.879 53.6572 38.8821C54.6281 38.8831 55.0057 39.2618 55.0087 40.2306C55.0138 42.3009 55.0097 44.3702 55.0097 46.4396Z" fill="#2251FF"/>
<path d="M47.3684 17.2833C45.3173 17.2833 43.2662 17.2864 41.2151 17.2823C40.3627 17.2803 39.8676 16.8764 39.8676 16.2031C39.8676 15.5289 40.3606 15.1259 41.2141 15.1249C45.3618 15.1219 49.5085 15.1219 53.6563 15.1249C54.5087 15.1259 55.0038 15.5289 55.0038 16.2021C55.0048 16.8743 54.5077 17.2803 53.6563 17.2823C51.5606 17.2864 49.464 17.2833 47.3684 17.2833Z" fill="#2251FF"/>
<path d="M47.4098 21.6024C45.2909 21.6024 43.1729 21.6095 41.054 21.5974C40.3231 21.5933 39.8523 21.1317 39.8675 20.4969C39.8827 19.8864 40.3393 19.4764 41.0378 19.444C41.1057 19.441 41.1735 19.443 41.2403 19.443C45.3658 19.443 49.4902 19.442 53.6147 19.444C54.5127 19.445 55.0219 19.8551 55.0047 20.5475C54.9875 21.2157 54.4934 21.6004 53.6309 21.6014C51.5565 21.6055 49.4831 21.6024 47.4098 21.6024Z" fill="#2251FF"/>
<path d="M47.3684 25.9222C45.3173 25.9222 43.2662 25.9253 41.2151 25.9212C40.3627 25.9192 39.8676 25.5153 39.8676 24.842C39.8676 24.1678 40.3606 23.7649 41.2151 23.7638C45.3618 23.7608 49.5096 23.7608 53.6563 23.7638C54.5097 23.7649 55.0038 24.1688 55.0048 24.842C55.0048 25.5132 54.5077 25.9192 53.6563 25.9212C51.5606 25.9253 49.464 25.9222 47.3684 25.9222Z" fill="#2251FF"/>
<path d="M47.3686 30.2416C45.3175 30.2416 43.2664 30.2446 41.2153 30.2406C40.3629 30.2385 39.8678 29.8346 39.8678 29.1614C39.8678 28.4871 40.3609 28.0842 41.2143 28.0832C45.362 28.0801 49.5088 28.0801 53.6555 28.0832C54.5089 28.0842 55.004 28.4871 55.004 29.1604C55.005 29.8326 54.5079 30.2385 53.6565 30.2406C51.5609 30.2446 49.4642 30.2416 47.3686 30.2416Z" fill="#2251FF"/>
<path d="M50.1411 12.9634C48.9465 12.9634 47.7519 12.9695 46.5573 12.9614C45.7616 12.9553 45.2776 12.5392 45.2776 11.8842C45.2776 11.2261 45.7565 10.808 46.5563 10.806C48.9455 10.7999 51.3337 10.7999 53.7229 10.806C54.5187 10.808 55.0036 11.2282 55.0036 11.8822C55.0046 12.5352 54.5177 12.9553 53.725 12.9614C52.5304 12.9695 51.3358 12.9634 50.1411 12.9634Z" fill="#2251FF"/>
<path d="M44.6684 34.561C43.496 34.561 42.3247 34.5671 41.1523 34.559C40.3536 34.5529 39.8717 34.1409 39.8676 33.4859C39.8646 32.8278 40.3455 32.4067 41.1422 32.4037C43.5314 32.3976 45.9197 32.3976 48.3089 32.4037C49.1066 32.4057 49.5906 32.8218 49.5946 33.4758C49.5976 34.1288 49.1107 34.5529 48.319 34.559C47.1021 34.5671 45.8852 34.561 44.6684 34.561Z" fill="#2251FF"/>
<path d="M41.4828 12.9632C41.415 12.9642 41.3472 12.9642 41.2804 12.9642C40.3692 12.9581 39.8661 12.5724 39.8681 11.882C39.8691 11.1905 40.3682 10.8098 41.2834 10.8048C41.5092 10.8028 41.7349 10.7967 41.9597 10.8068C42.6491 10.8412 43.1037 11.2725 43.1026 11.885C43.1016 12.4965 42.6461 12.9257 41.9556 12.9612C41.7987 12.9693 41.6408 12.9622 41.4828 12.9632Z" fill="#2251FF"/>
<path d="M53.3849 34.5606C53.3171 34.5616 53.2493 34.5616 53.1825 34.5616C52.2713 34.5555 51.7682 34.1698 51.7702 33.4794C51.7712 32.7879 52.2703 32.4073 53.1855 32.4022C53.4113 32.4002 53.637 32.3941 53.8618 32.4042C54.5512 32.4386 55.0047 32.8699 55.0047 33.4824C55.0037 34.0939 54.5482 34.5231 53.8577 34.5586C53.7008 34.5667 53.5429 34.5596 53.3849 34.5606Z" fill="#2251FF"/>
<path d="M37.7667 0.00522566C41.9144 0.00522566 46.0612 0.00522566 50.2089 0.00522566C50.4114 0.00522566 50.6189 -0.0140097 50.8163 0.0224361C51.3984 0.130761 51.7497 0.489145 51.7497 1.08544C51.7487 1.68173 51.3954 2.04113 50.8133 2.14743C50.5946 2.18691 50.3638 2.16464 50.139 2.16464C41.8436 2.16464 33.5491 2.16464 25.2547 2.16464C25.1868 2.16464 25.12 2.16565 25.0522 2.16464C24.14 2.15856 23.6379 1.77386 23.6379 1.08341C23.6389 0.390944 24.139 0.00623798 25.0542 0.00623798C29.292 0.00421309 33.5289 0.00522566 37.7667 0.00522566Z" fill="#2251FF"/>
<path d="M2.5173 2.16468C2.40492 2.16468 2.29154 2.1667 2.17916 2.16468C1.39153 2.14544 0.906597 1.72429 0.91672 1.06827C0.926844 0.434515 1.39558 0.0265248 2.14373 0.00627708C2.41404 -0.000809669 2.68535 -0.00182199 2.95465 0.00728941C3.68964 0.0315866 4.16141 0.465899 4.15128 1.10066C4.14116 1.73442 3.67142 2.14139 2.92326 2.16367C2.7876 2.16772 2.65296 2.16468 2.5173 2.16468Z" fill="#2251FF"/>
<path d="M7.93891 2.16435C7.84881 2.16536 7.75871 2.16638 7.66861 2.16435C6.81922 2.15423 6.32315 1.75332 6.32619 1.08009C6.33024 0.406854 6.82225 0.0140495 7.67772 0.00595045C7.92575 0.00291324 8.17379 -0.00316095 8.42081 0.00898767C9.11024 0.0423963 9.56379 0.476709 9.56075 1.0892C9.55873 1.69967 9.10315 2.12791 8.4117 2.16233C8.25478 2.17043 8.09684 2.16334 7.93891 2.16435Z" fill="#2251FF"/>
<path d="M13.3486 0.00513744C14.4562 0.00513744 14.9674 0.343273 14.9715 1.07928C14.9745 1.81427 14.4542 2.16455 13.3578 2.16455C12.2532 2.16455 11.74 1.8254 11.7369 1.0894C11.7329 0.352385 12.2492 0.00513744 13.3486 0.00513744Z" fill="#2251FF"/>
<path d="M55.5295 2.16433C55.3939 2.16433 55.2592 2.16939 55.1236 2.16433C54.3906 2.13497 53.9209 1.69964 53.934 1.06386C53.9462 0.453397 54.4007 0.0352829 55.0983 0.00794864C55.3908 -0.00318766 55.6844 -0.00217533 55.977 0.00794864C56.7079 0.0322456 57.1807 0.47162 57.1686 1.10537C57.1554 1.71381 56.6978 2.13092 56.0023 2.16331C55.8454 2.1704 55.6875 2.16433 55.5295 2.16433Z" fill="#2251FF"/>
</svg>
