<svg width="60" height="60" fill="none" xmlns="http://www.w3.org/2000/svg"><path d="M17.344 50.194a4.2 4.2 0 01-2.794-1.05L3.197 39.075a.935.935 0 01-.075-1.322.927.927 0 011.322-.075l11.353 10.069a2.367 2.367 0 003.112 0l2.925-2.578a.927.927 0 011.322.084.927.927 0 01-.084 1.322l-2.925 2.578a4.217 4.217 0 01-2.794 1.05l-.01-.01z" fill="#2251FF"/><path d="M56.784 50.325l-7.368-6.281c-1.257-1.07-3.047-1.172-4.416-.366l-2.55-2.55a13.982 13.982 0 003.487-9.244c0-7.753-6.309-14.062-14.062-14.062-7.753 0-14.063 6.31-14.063 14.062 0 7.753 6.31 14.063 14.063 14.063 3.544 0 6.769-1.322 9.244-3.488l2.55 2.55c-.806 1.369-.713 3.16.365 4.425l6.282 7.369a3.84 3.84 0 002.756 1.34h.15a3.825 3.825 0 002.7-1.115L57 55.95a3.849 3.849 0 001.116-2.85 3.838 3.838 0 00-1.341-2.756l.01-.02zm-37.096-18.45c0-6.722 5.465-12.188 12.187-12.188 6.722 0 12.188 5.466 12.188 12.188s-5.466 12.187-12.188 12.187-12.188-5.465-12.188-12.187zM55.678 54.6L54.6 55.678a1.92 1.92 0 01-1.453.563 1.882 1.882 0 01-1.397-.685l-6.281-7.36a1.948 1.948 0 01.103-2.634A1.93 1.93 0 0146.94 45c.45 0 .9.15 1.256.46l7.369 6.28c.421.357.656.854.684 1.397a1.926 1.926 0 01-.563 1.453l-.009.01z" fill="#232332"/><path d="M29.063 58.125H5.625a3.749 3.749 0 01-3.75-3.75V38.859a3.749 3.749 0 013.75-3.75h9.9a.94.94 0 01.937.938.94.94 0 01-.937.937h-9.9A1.88 1.88 0 003.75 38.86v15.516a1.88 1.88 0 001.875 1.875h23.438a1.88 1.88 0 001.875-1.875V48.75a.94.94 0 01.937-.938.94.94 0 01.938.938v5.625a3.749 3.749 0 01-3.75 3.75z" fill="#232332"/><path d="M55.313 24.375H46.48a.94.94 0 01-.937-.938.94.94 0 01.937-.937h8.831a.94.94 0 00.938-.938V4.688a.94.94 0 00-.938-.937h-18.75a.94.94 0 00-.937.938v10.556a.94.94 0 01-.938.937.94.94 0 01-.937-.937V4.688a2.82 2.82 0 012.813-2.813h18.75a2.82 2.82 0 012.812 2.813v16.875a2.82 2.82 0 01-2.813 2.812z" fill="#2251FF"/><path d="M42.188 18.75a.937.937 0 01-.938-.938V8.438c0-.328.169-.628.44-.796a.925.925 0 01.91-.038l9.375 4.688a.935.935 0 01.516.834.937.937 0 01-.516.834L42.6 18.647a.935.935 0 01-.422.103h.01zm.937-8.794v6.338l6.337-3.169-6.337-3.169zM12.187 22.5c-5.69 0-10.312-4.622-10.312-10.313 0-5.69 4.622-10.312 10.313-10.312 5.69 0 10.312 4.622 10.312 10.313 0 5.69-4.622 10.312-10.313 10.312zm0-18.75c-4.65 0-8.437 3.787-8.437 8.438 0 4.65 3.787 8.437 8.438 8.437 4.65 0 8.437-3.788 8.437-8.438S16.837 3.75 12.187 3.75z" fill="#232332"/><path d="M12.188 17.813a.93.93 0 01-.676-.291l-3.984-4.144c-1.284-1.34-1.284-3.515 0-4.856 1.228-1.285 3.375-1.331 4.66-.103a3.284 3.284 0 012.278-.919 3.3 3.3 0 012.38 1.022c1.285 1.34 1.285 3.515 0 4.856l-3.983 4.144a.93.93 0 01-.675.29zM9.909 9.374c-.384 0-.75.16-1.03.45-.6.619-.6 1.631 0 2.26l3.3 3.44 3.3-3.44c.6-.62.6-1.632 0-2.26a1.43 1.43 0 00-1.032-.45c-.384 0-.75.16-1.031.45-.16.16-.272.366-.357.61a.938.938 0 01-1.78 0 1.46 1.46 0 00-.357-.61 1.43 1.43 0 00-1.031-.45h.018zM38.438 26.25h-3.75a.94.94 0 00-.938.938.94.94 0 00.938.937h1.715l-3.637 4.247-2.1-2.1a.905.905 0 00-.704-.272.912.912 0 00-.674.337L24.6 35.962a.939.939 0 101.444 1.2l4.031-4.837 2.09 2.09a.896.896 0 00.704.273.935.935 0 00.675-.329l3.975-4.64v1.218a.94.94 0 00.937.938.94.94 0 00.938-.938v-3.75a.94.94 0 00-.938-.937h-.019z" fill="#2251FF"/></svg>