<svg width="64" height="64" viewBox="0 0 64 64" fill="none" xmlns="http://www.w3.org/2000/svg">
<path d="M60.692 26.6015C60.2747 26.6375 59.964 26.6548 59.656 26.6921C58.316 26.8548 58.0747 26.6801 57.6787 25.4015C55.0947 17.0641 49.7853 11.1828 41.7413 7.78281C40.9173 7.43481 40.0533 7.17881 39.144 6.85748C39.144 7.27881 39.1773 7.57481 39.136 7.85881C39.0613 8.36681 39.2653 8.59748 39.7533 8.73348C40.3507 8.90015 40.936 9.13348 41.504 9.38548C48.6947 12.5695 53.5773 17.8615 56.0387 25.3495C56.4147 26.4921 56.0133 27.0401 54.8027 27.1295C54.4667 27.1548 54.1333 27.2135 53.72 27.2668C55.0867 29.2015 56.388 31.0441 57.748 32.9695C58.7427 30.8201 59.6907 28.7695 60.692 26.6015ZM38.4027 0.000144958C38.964 0.354809 39.1853 0.84948 39.1547 1.52148C39.112 2.45615 39.164 3.39614 39.1347 4.33215C39.12 4.77081 39.2387 4.96948 39.6933 5.10681C47.588 7.47614 53.4827 12.3161 57.3373 19.5881C58.132 21.0855 58.6733 22.7188 59.2973 24.3028C59.44 24.6641 59.568 24.8428 59.9947 24.7761C60.5893 24.6841 61.196 24.6455 61.7987 24.6215C62.7947 24.5815 63.332 25.3215 62.9227 26.2201C61.5973 29.1348 60.2547 32.0428 58.8947 34.9415C58.492 35.7975 57.5307 35.8895 56.98 35.1201C55.1013 32.4961 53.24 29.8601 51.4013 27.2095C50.8693 26.4428 51.3173 25.5961 52.2533 25.4895C52.8267 25.4241 53.4027 25.3721 53.9787 25.3148C53.116 19.9135 44.9933 11.8241 39.144 10.5508C39.144 11.5761 39.1453 12.5908 39.1427 13.6055C39.14 14.6868 38.768 15.0655 37.672 15.0668C33.6307 15.0721 29.5907 15.0721 25.5493 15.0668C24.4187 15.0655 24.0667 14.6988 24.064 13.5548C24.06 11.9708 24.0627 10.3881 24.064 8.80548C24.064 8.63881 24.0587 8.47081 24.084 8.30681C24.1707 7.76015 24.556 7.43481 25.076 7.48014C25.6147 7.52814 25.9173 7.84814 25.9253 8.37881C25.944 9.73215 25.936 11.0868 25.9387 12.4401C25.9387 12.6628 25.9387 12.8868 25.9387 13.1521H37.2427V1.91348H25.9373C25.9373 2.57748 25.9453 3.21881 25.9347 3.85881C25.9227 4.54281 25.5613 4.95748 25.004 4.95348C24.4547 4.95081 24.0813 4.52814 24.0667 3.84948C24.052 3.10015 24.0933 2.34814 24.0533 1.60148C24.0187 0.924145 24.204 0.384144 24.7773 0.000144958H38.4027Z" fill="#2251FF"/>
<path d="M18.5369 10.325C16.1702 10.5396 13.9222 10.7437 11.5556 10.9583C11.8556 11.3917 12.0876 11.729 12.3209 12.0637C12.8862 12.877 12.8582 13.261 12.1862 13.9796C6.02356 20.5676 3.51689 28.3223 4.80223 37.2623C5.00356 38.6583 5.41156 40.0236 5.72356 41.4036C6.17689 40.9783 6.47689 40.577 6.70622 40.141C6.81822 39.9276 6.88356 39.6237 6.82756 39.397C5.93689 35.833 5.77156 32.2437 6.40356 28.6237C7.28356 23.593 9.45289 19.1957 12.9316 15.453C13.5449 14.7943 14.2342 14.8423 14.7809 15.553C15.0502 15.9023 15.3009 16.265 15.6062 16.6823C16.5969 14.533 17.5422 12.4823 18.5369 10.325ZM16.1996 49.9903C13.9062 46.469 11.6609 43.0223 9.37156 39.509C7.06489 43.0543 4.82889 46.4903 2.55156 49.9903H16.1996ZM13.7302 17.317C8.83956 23.2543 7.06089 29.9276 8.30356 37.493C8.43022 37.4263 8.50356 37.401 8.55956 37.3556C9.28089 36.793 9.88622 36.8756 10.3929 37.645C11.5382 39.3836 12.6676 41.1316 13.8036 42.8756C15.3262 45.213 16.8462 47.5503 18.3729 49.885C18.6662 50.3356 18.9262 50.7796 18.6249 51.329C18.3262 51.8743 17.8196 51.905 17.2769 51.9036C12.0062 51.897 6.73689 51.8983 1.46622 51.9036C0.926225 51.9036 0.411559 51.8863 0.124892 51.325C-0.153775 50.781 0.079558 50.3343 0.378225 49.8783C1.68222 47.897 2.96623 45.901 4.27423 43.921C4.47823 43.6116 4.50223 43.357 4.38356 43.0063C0.666225 31.9983 2.67022 22.109 10.2382 13.3277C10.5196 13.0023 10.5996 12.7917 10.3036 12.4383C9.94356 12.009 9.63956 11.5317 9.32489 11.065C8.72223 10.1757 9.07823 9.32632 10.1396 9.21965C12.7076 8.95965 15.2796 8.73565 17.8516 8.49965C18.4729 8.44365 19.0956 8.37165 19.7182 8.34899C20.6382 8.31699 21.1689 9.05965 20.7889 9.89832C19.4582 12.833 18.1089 15.761 16.7396 18.6797C16.3382 19.5343 15.4009 19.5957 14.8182 18.841C14.4516 18.3677 14.1209 17.8663 13.7302 17.317Z" fill="#2251FF"/>
<path d="M47.0611 50.9682C45.9731 48.5442 45.9331 46.1882 47.0451 43.8429C47.2224 43.4682 47.4504 43.1149 47.6838 42.7722C48.0744 42.2029 48.5958 42.0549 49.0611 42.3496C49.5638 42.6669 49.6438 43.2176 49.2304 43.8149C48.1758 45.3442 47.8664 47.0149 48.2838 48.8096C48.9598 51.7216 51.7878 53.7456 54.7504 53.4722C57.8784 53.1829 60.2531 50.6376 60.3531 47.4656C60.4451 44.5309 58.2664 41.8322 55.3184 41.3736C54.4571 41.2389 53.5491 41.4122 52.6624 41.4442C52.3558 41.4562 51.9744 41.5869 51.7611 41.4509C51.4904 41.2776 51.2371 40.9069 51.1918 40.5896C51.1291 40.1389 51.4664 39.8402 51.9171 39.7082C54.0611 39.0829 56.1264 39.2789 58.0784 40.3616C61.3571 42.1829 62.9251 45.9189 61.9384 49.4722C60.9384 53.0709 57.6691 55.4976 53.9171 55.3402C53.0584 55.3042 52.2011 55.0469 51.3638 54.8176C51.0238 54.7242 50.8078 54.7136 50.5304 54.9522C46.4944 58.4269 41.8464 60.6216 36.6038 61.5496C32.8464 62.2149 29.0998 62.1322 25.3758 61.3069C24.8838 61.1976 24.6131 61.2469 24.4344 61.7549C24.2478 62.2816 23.9931 62.7869 23.7384 63.2869C23.2931 64.1602 22.3558 64.2522 21.7824 63.4496C19.9318 60.8589 18.0958 58.2549 16.2718 55.6442C15.6918 54.8136 16.1104 53.9629 17.1251 53.8509C17.9118 53.7629 18.6984 53.6802 19.4878 53.6269C20.1491 53.5816 20.5971 53.9536 20.6184 54.5122C20.6398 55.0389 20.2424 55.4269 19.6171 55.4936C19.2891 55.5282 18.9638 55.5656 18.5371 55.6136C19.8944 57.5362 21.1984 59.3829 22.5664 61.3216C22.7931 60.8429 22.9811 60.4442 23.1704 60.0456C23.5611 59.2256 23.9304 59.0296 24.8131 59.2549C28.5171 60.2002 32.2531 60.3736 36.0238 59.7456C40.8958 58.9336 45.2304 56.9429 49.0264 53.7816C49.0731 53.7429 49.1051 53.6896 49.0971 53.7002C48.7544 53.3269 48.4224 52.9656 48.0571 52.5669C47.8304 52.7429 47.5744 52.9469 47.3131 53.1429C40.9758 57.8976 33.9158 59.4976 26.1451 57.9749C25.9611 57.9389 25.7771 57.9002 25.5998 57.8429C24.9331 57.6256 24.6358 57.0162 24.8918 56.3576C25.0624 55.9162 25.2691 55.4896 25.4998 54.9669C25.0384 55.0069 24.6718 55.0416 24.3038 55.0709C23.6718 55.1216 23.2238 54.8109 23.1518 54.2802C23.0744 53.7082 23.4264 53.2936 24.1011 53.2176C24.9491 53.1216 25.7984 53.0296 26.6504 52.9869C27.6344 52.9362 28.1398 53.6962 27.7504 54.6042C27.5238 55.1349 27.2704 55.6549 26.9931 56.2549C34.5238 57.5402 41.1584 55.7656 47.0611 50.9682Z" fill="#2251FF"/>
<path d="M29.6465 42.6146C29.0758 42.6146 28.5451 42.3746 28.2518 41.98L21.9771 33.5413C21.5198 32.9253 21.7731 32.1293 22.5438 31.7626C23.3145 31.396 24.3105 31.5986 24.7678 32.2146L29.5158 38.6013L39.3705 22.668C39.7691 22.0253 40.7425 21.7626 41.5465 22.08C42.3491 22.3973 42.6785 23.176 42.2811 23.8186L31.1025 41.892C30.8385 42.3186 30.3038 42.596 29.7091 42.6133C29.6878 42.6146 29.6678 42.6146 29.6465 42.6146Z" fill="#2251FF"/>
</svg>
