<svg width="177" height="160" fill="none" xmlns="http://www.w3.org/2000/svg"><path d="M87.5 140.625h-6.25a3.134 3.134 0 01-3.125-3.125V93.75a3.134 3.134 0 013.125-3.125H100a3.134 3.134 0 013.125 3.125V125c0 8.625-7 15.625-15.625 15.625zm-3.125-6.25H87.5c5.156 0 9.375-4.219 9.375-9.375V96.875h-12.5v37.5z" fill="#DCEBFC"/><path d="M190.625 71.875c0-7.531-5.375-13.844-12.5-15.313V25A3.134 3.134 0 00175 21.875 3.134 3.134 0 00171.875 25v3.938l-59.844 17.937H78.125c-8.625 0-15.625 7-15.625 15.625v18.75c0 8.625 7 15.625 15.625 15.625h33.906l59.844 17.938v3.937a3.134 3.134 0 003.125 3.125 3.134 3.134 0 003.125-3.125V87.187a15.626 15.626 0 0012.5-15.312zM68.75 81.25V62.5c0-5.156 4.219-9.375 9.375-9.375h31.25v37.5h-31.25c-5.156 0-9.375-4.219-9.375-9.375zm46.875 10.188V52.343l56.25-16.875v72.843l-56.25-16.874zm62.5-10.75V63.093c3.625 1.281 6.25 4.718 6.25 8.812 0 4.094-2.625 7.5-6.25 8.813v-.031z" fill="#DCEBFC"/><path d="M106.25 190.625H25c-8.625 0-15.625-7-15.625-15.625V25c0-8.625 7-15.625 15.625-15.625h81.25c8.625 0 15.625 7 15.625 15.625v9.375a3.134 3.134 0 01-3.125 3.125 3.134 3.134 0 01-3.125-3.125V25c0-5.156-4.219-9.375-9.375-9.375H25c-5.156 0-9.375 4.219-9.375 9.375v150c0 5.156 4.219 9.375 9.375 9.375h81.25c5.156 0 9.375-4.219 9.375-9.375v-65.625a3.134 3.134 0 013.125-3.125 3.134 3.134 0 013.125 3.125V175c0 8.625-7 15.625-15.625 15.625z" fill="#DCEBFC"/><path d="M118.75 165.625H12.5a3.134 3.134 0 01-3.125-3.125 3.134 3.134 0 013.125-3.125h106.25a3.134 3.134 0 013.125 3.125 3.134 3.134 0 01-3.125 3.125z" fill="#DCEBFC"/></svg>