<svg width="60" height="60" fill="none" xmlns="http://www.w3.org/2000/svg"><path d="M8.222 25.313c-.075 0-.16 0-.234-.029a.94.94 0 01-.676-1.143 23.414 23.414 0 0116.83-16.828.934.934 0 011.143.675.937.937 0 01-.675 1.143A21.507 21.507 0 009.131 24.61a.94.94 0 01-.91.703zm27.403 27.403a.938.938 0 01-.234-1.847A21.507 21.507 0 0050.869 35.39a.938.938 0 011.144-.675.934.934 0 01.675 1.143 23.43 23.43 0 01-16.829 16.828.937.937 0 01-.234.029zm-11.25 0c-.075 0-.16 0-.234-.029A23.43 23.43 0 017.313 35.86a.938.938 0 111.818-.468A21.507 21.507 0 0024.61 50.869a.94.94 0 01.675 1.144.94.94 0 01-.909.703zm27.403-27.404a.94.94 0 01-.91-.703A21.507 21.507 0 0035.392 9.131a.934.934 0 01-.675-1.144.938.938 0 011.143-.675 23.43 23.43 0 0116.828 16.829.937.937 0 01-.909 1.172zM30 13.126a2.82 2.82 0 01-2.813-2.813V4.689A2.82 2.82 0 0130 1.874a2.82 2.82 0 012.813 2.813v5.625A2.82 2.82 0 0130 13.124zm0-9.375a.94.94 0 00-.938.938v5.625a.94.94 0 00.938.937.94.94 0 00.938-.938V4.689A.94.94 0 0030 3.75zm0 54.375a2.82 2.82 0 01-2.813-2.813v-5.624A2.82 2.82 0 0130 46.874a2.82 2.82 0 012.813 2.813v5.624A2.82 2.82 0 0130 58.126zm0-9.375a.94.94 0 00-.938.938v5.624a.94.94 0 00.938.938.94.94 0 00.938-.938v-5.624A.94.94 0 0030 48.75zm25.313-15.938h-5.626A2.82 2.82 0 0146.876 30a2.82 2.82 0 012.813-2.813h5.624A2.82 2.82 0 0158.126 30a2.82 2.82 0 01-2.813 2.813zm-5.626-3.75a.94.94 0 00-.937.938.94.94 0 00.938.938h5.624A.94.94 0 0056.25 30a.94.94 0 00-.938-.938h-5.624zm-39.374 3.75H4.686A2.82 2.82 0 011.876 30a2.82 2.82 0 012.813-2.813h5.625A2.82 2.82 0 0113.124 30a2.82 2.82 0 01-2.813 2.813zm-5.626-3.75A.94.94 0 003.75 30a.94.94 0 00.938.938h5.625A.94.94 0 0011.25 30a.94.94 0 00-.938-.938H4.689z" fill="#0A0F26"/><path d="M30 28.125a6.57 6.57 0 01-6.563-6.563A6.57 6.57 0 0130 15a6.57 6.57 0 016.563 6.563A6.57 6.57 0 0130 28.125zm0-11.25a4.69 4.69 0 00-4.688 4.688A4.69 4.69 0 0030 26.25a4.69 4.69 0 004.688-4.688A4.69 4.69 0 0030 16.875zM30 45c-3.984 0-7.753-1.284-10.884-3.722a.951.951 0 01-.366-.74v-3.975c0-4.135 3.366-7.5 7.5-7.5.253 0 .488.103.666.271L30 32.42l3.084-3.085a.927.927 0 01.666-.271c4.134 0 7.5 3.365 7.5 7.5v3.974a.922.922 0 01-.366.741A17.584 17.584 0 0130 45zm-9.375-4.931A15.752 15.752 0 0030 43.125c3.413 0 6.647-1.05 9.375-3.056v-3.507c0-2.971-2.325-5.418-5.25-5.615l-3.46 3.46a.933.933 0 01-1.321 0l-3.46-3.46a5.635 5.635 0 00-5.25 5.616v3.506h-.009z" fill="#2251FF"/></svg>