<svg width="59" height="65" viewBox="0 0 59 65" fill="none" xmlns="http://www.w3.org/2000/svg">
<path d="M2.00731 41.2788C2.00731 47.6495 2.00597 54.0201 2.00731 60.3908C2.00864 61.8775 2.74064 62.6095 4.23797 62.6095C15.4593 62.6108 26.6806 62.6108 37.9033 62.6081C39.3433 62.6081 40.098 61.8521 40.098 60.4095C40.1006 47.6468 40.1006 34.8841 40.098 22.1215C40.098 20.6375 39.3593 19.9108 37.8646 19.9108C26.6846 19.9095 15.5046 19.9095 4.32464 19.9108C2.70331 19.9108 2.00731 20.6081 2.00731 22.2295C2.00731 28.5788 2.00731 34.9295 2.00731 41.2788ZM2.75664 64.5001C2.48731 64.3548 2.21131 64.2228 1.94997 64.0641C0.719307 63.3135 0.0579733 62.2121 0.01664 60.7735C-0.01536 59.6081 0.00864007 58.4415 0.00864007 57.2761C0.00864007 45.5975 0.00730673 33.9188 0.00864007 22.2401C0.00864007 19.4935 1.59664 17.9121 4.35531 17.9121C15.514 17.9108 26.6713 17.9108 37.83 17.9108C40.4953 17.9121 42.098 19.5135 42.098 22.1908C42.0993 34.7855 42.0806 47.3801 42.1153 59.9748C42.122 62.1628 41.3273 63.7068 39.2406 64.5001H2.75664Z" fill="#2251FF"/>
<path d="M24.7317 0.499817C25.0997 0.622482 25.7984 0.769146 26.417 1.07848C35.2504 5.49048 44.073 9.92515 52.8984 14.3531C54.105 14.9598 55.317 15.5571 56.5224 16.1665C58.821 17.3291 59.569 19.5838 58.4144 21.8865C54.3317 30.0238 50.2464 38.1598 46.1584 46.2958C46.0477 46.5158 45.933 46.7532 45.761 46.9212C45.409 47.2665 44.9797 47.2998 44.561 47.0411C44.1344 46.7771 44.0184 46.3651 44.1464 45.8998C44.2064 45.6825 44.337 45.4851 44.4397 45.2811C48.4664 37.2545 52.4944 29.2278 56.521 21.2011C57.333 19.5825 57.0384 18.6705 55.4264 17.8611C45.4504 12.8545 35.4744 7.85048 25.4957 2.84781C24.181 2.18781 23.229 2.50915 22.5717 3.81981C20.7117 7.53715 18.853 11.2558 16.9917 14.9731C16.8997 15.1585 16.8157 15.3558 16.689 15.5158C16.3624 15.9225 15.9317 16.0385 15.465 15.8011C14.981 15.5531 14.7944 15.1385 14.969 14.5998C15.013 14.4625 15.0784 14.3305 15.1437 14.2011C17.049 10.3891 18.9584 6.57981 20.861 2.76781C21.5904 1.30381 22.773 0.574482 24.7317 0.499817Z" fill="#2251FF"/>
<path d="M52.173 20.7797C43.221 16.2864 34.329 11.8237 25.3904 7.33708C25.2597 7.56908 25.145 7.75974 25.045 7.95708C23.8317 10.3491 22.6317 12.7464 21.3944 15.1264C21.237 15.4291 20.9264 15.7757 20.6264 15.8477C20.333 15.9171 19.8904 15.7411 19.6437 15.5251C19.2757 15.2011 19.365 14.7477 19.5837 14.3197C20.7437 12.0411 21.893 9.75708 23.0464 7.47575C23.2144 7.14108 23.381 6.80641 23.5557 6.47575C24.173 5.30908 25.1264 4.98508 26.3224 5.57574C28.633 6.71841 30.933 7.87975 33.237 9.03575C39.6824 12.2717 46.1277 15.5091 52.573 18.7451C52.629 18.7731 52.6864 18.7971 52.7424 18.8251C54.2917 19.6131 54.5797 20.4704 53.8077 22.0104C52.6597 24.2957 51.5077 26.5784 50.3584 28.8624C48.9384 31.6837 47.5197 34.5064 46.0997 37.3291C46.0144 37.4957 45.9384 37.6691 45.837 37.8251C45.537 38.2784 44.9797 38.4277 44.5237 38.1891C44.0704 37.9517 43.8704 37.4131 44.0904 36.9077C44.2957 36.4317 44.541 35.9717 44.7744 35.5077C47.129 30.8291 49.485 26.1504 51.841 21.4717C51.9437 21.2677 52.0384 21.0611 52.173 20.7797Z" fill="#2251FF"/>
<path d="M26.2814 35.6375C26.2947 32.7815 23.9521 30.4135 21.1081 30.4082C18.2787 30.4042 15.8947 32.7842 15.8961 35.6149C15.8961 38.4295 18.2254 40.7695 21.0547 40.7962C23.9187 40.8229 26.2681 38.5042 26.2814 35.6375ZM11.3041 49.7349H30.6361C30.6361 48.8749 30.7054 48.0429 30.6241 47.2242C30.3827 44.7935 28.3614 42.9349 25.9187 42.9095C22.7361 42.8775 19.5521 42.8775 16.3694 42.9109C14.1067 42.9349 12.1574 44.3975 11.6294 46.5469C11.3827 47.5549 11.4081 48.6309 11.3041 49.7349ZM16.1601 40.8962C12.7707 37.2842 13.6534 32.9229 15.9761 30.5789C18.5321 28.0002 22.5521 27.6895 25.4254 29.8855C26.8707 30.9909 27.8041 32.4362 28.1427 34.2295C28.6241 36.7842 27.8507 38.9735 26.0601 40.8375C26.7147 40.9762 27.3174 41.0549 27.8881 41.2335C30.8267 42.1589 32.6467 44.7669 32.7001 48.0909C32.7094 48.6442 32.7014 49.1975 32.7014 49.7402H36.0641V23.9415H6.04007V49.7549H9.4094C9.30673 47.6122 9.41873 45.5509 10.7667 43.7762C12.1081 42.0135 13.8934 41.0855 16.1601 40.8962ZM21.0121 51.8455C18.0574 51.8455 15.1014 51.8509 12.1454 51.8429C9.8574 51.8362 7.56807 51.8149 5.28007 51.7962C4.3334 51.7882 4.00807 51.4602 4.00807 50.5149C4.0054 41.4189 4.0054 32.3229 4.00674 23.2282C4.00807 22.2522 4.3454 21.9109 5.32007 21.9109C15.8094 21.9082 26.3001 21.9082 36.7907 21.9109C37.7534 21.9109 38.1001 22.2629 38.1001 23.2389C38.1014 32.3149 38.1014 41.3895 38.1001 50.4642C38.1001 51.4762 37.7747 51.7949 36.7454 51.7962C31.5014 51.7975 26.2561 51.7975 21.0121 51.7975V51.8455Z" fill="#2251FF"/>
</svg>
