<svg width="60" height="60" fill="none" xmlns="http://www.w3.org/2000/svg"><path d="M9.375 46.875c-1.603 0-2.813-2.016-2.813-4.688a.94.94 0 01.938-.937.94.94 0 01.938.938c0 1.818.703 2.812.937 2.812.234 0 .938-.994.938-2.813 0-1.818-.704-2.812-.938-2.812a.94.94 0 01-.938-.938.94.94 0 01.938-.937c1.603 0 2.813 2.016 2.813 4.688 0 2.671-1.21 4.687-2.813 4.687zM37.5 58.125a.852.852 0 01-.422-.103l-5.11-2.55-3.29 2.465a.94.94 0 01-1.444-.421l-2.812-7.5a.944.944 0 01.553-1.21.944.944 0 011.21.553l2.371 6.328 2.747-2.062a.934.934 0 01.985-.084l3.487 1.743-1.978-5.268a.944.944 0 01.553-1.21.944.944 0 011.21.553l2.812 7.5a.932.932 0 01-.253 1.022.945.945 0 01-.628.244h.009z" fill="#2251FF"/><path d="M34.688 50.625h-9.376a.94.94 0 01-.937-.938.94.94 0 01.938-.937C27.9 48.75 30 45.806 30 42.187c0-3.618-2.1-6.562-4.688-6.562a.94.94 0 01-.937-.938.94.94 0 01.938-.937h9.375c3.618 0 6.562 3.788 6.562 8.438s-2.944 8.437-6.563 8.437zm-5.25-1.875h5.25c2.587 0 4.687-2.944 4.687-6.563 0-3.618-2.1-6.562-4.688-6.562h-5.25c1.491 1.547 2.438 3.919 2.438 6.563 0 2.643-.956 5.015-2.438 6.562zm13.687-19.688a.89.89 0 01-.506-.15c-3.525-2.287-8.803-3.6-14.494-3.6-5.69 0-10.969 1.313-14.494 3.6a.924.924 0 01-.956.038.943.943 0 01-.488-.825v-8.438a.94.94 0 01.938-.937.94.94 0 01.938.938v6.806c3.73-1.96 8.746-3.056 14.062-3.056 5.316 0 10.331 1.106 14.063 3.056v-6.806a.94.94 0 01.937-.938.94.94 0 01.938.938v8.437a.943.943 0 01-.488.825.942.942 0 01-.45.113z" fill="#057FE2"/><path d="M51.563 33.75H9.374c-3.619 0-6.563 3.788-6.563 8.438s2.944 8.437 6.563 8.437h42.188c3.618 0 6.562-3.787 6.562-8.438 0-4.65-2.944-8.437-6.563-8.437zM4.687 42.188c0-3.62 2.1-6.563 4.688-6.563 2.588 0 4.688 2.944 4.688 6.563 0 3.618-2.1 6.562-4.688 6.562-2.588 0-4.688-2.944-4.688-6.563zm46.876 6.562H13.49c1.49-1.547 2.447-3.91 2.447-6.563 0-2.653-.957-5.015-2.447-6.562h38.072c2.587 0 4.687 2.944 4.687 6.563 0 3.618-2.1 6.562-4.688 6.562zm6.524-19.003l-1.359-4.763c-.328-1.153-1.237-2.015-2.353-2.343v-9.6c0-.094-.038-.188-.066-.272 0-.019-.018-.028-.028-.047a.94.94 0 00-.15-.225.41.41 0 01-.056-.066 1.129 1.129 0 00-.244-.168s-.019-.01-.028-.01L28.481 1.941a.914.914 0 00-.703 0L2.456 12.253a.938.938 0 00-.581.788.906.906 0 00.431.871l10.313 6.563a.942.942 0 001.012 0c3.525-2.288 8.803-3.6 14.494-3.6 5.69 0 10.969 1.313 14.494 3.6a.91.91 0 00.506.15.91.91 0 00.506-.15l8.869-5.644v7.81a3.42 3.42 0 00-2.353 2.343l-1.36 4.763a.937.937 0 00.9 1.2h7.5a.95.95 0 00.75-.375.929.929 0 00.15-.825zM43.117 18.58C39.309 16.303 33.89 15 28.125 15s-11.194 1.303-14.99 3.581l-8.288-5.268 23.278-9.488 23.278 9.488-8.287 5.268zm7.809 10.482l1.022-3.563a1.547 1.547 0 011.49-1.125c.694 0 1.304.46 1.491 1.125l1.022 3.563h-5.025z" fill="#232332"/></svg>