<svg width="177" height="160" fill="none" xmlns="http://www.w3.org/2000/svg"><path d="M57.813 167.313a14.006 14.006 0 01-9.313-3.5L10.656 130.25c-1.281-1.156-1.406-3.125-.25-4.406a3.09 3.09 0 014.406-.25l37.844 33.562c2.938 2.594 7.407 2.594 10.375 0l9.75-8.593a3.09 3.09 0 014.406.281 3.09 3.09 0 01-.28 4.406l-9.75 8.594c-2.657 2.344-6 3.5-9.313 3.5l-.032-.031zm131.468.437l-24.562-20.938c-4.188-3.562-10.156-3.906-14.719-1.218l-8.5-8.5c7.219-8.25 11.625-19 11.625-30.813 0-25.844-21.031-46.875-46.875-46.875s-46.875 21.032-46.875 46.875c0 25.844 21.031 46.875 46.875 46.875 11.813 0 22.563-4.406 30.813-11.625l8.5 8.5c-2.688 4.563-2.375 10.531 1.218 14.75l20.938 24.563c2.281 2.687 5.625 4.312 9.187 4.468h.5a12.75 12.75 0 009-3.718L190 186.5c2.5-2.5 3.844-5.969 3.719-9.5-.125-3.531-1.781-6.875-4.469-9.188l.031-.062zm-123.656-61.5c0-22.406 18.219-40.625 40.625-40.625s40.625 18.219 40.625 40.625-18.219 40.625-40.625 40.625-40.625-18.219-40.625-40.625zM185.594 182L182 185.594a6.38 6.38 0 01-4.844 1.875 6.273 6.273 0 01-4.656-2.282l-20.937-24.531c-2.188-2.562-2.032-6.406.343-8.781a6.435 6.435 0 014.563-1.875c1.5 0 3 .5 4.187 1.531l24.563 20.938c1.406 1.187 2.187 2.843 2.281 4.656.094 1.812-.594 3.531-1.875 4.844l-.031.031z" fill="#DCEBFC"/><path d="M96.875 193.75H18.75c-6.906 0-12.5-5.594-12.5-12.5v-51.719c0-6.906 5.594-12.5 12.5-12.5h33a3.135 3.135 0 013.125 3.125 3.134 3.134 0 01-3.125 3.125h-33c-3.438 0-6.25 2.813-6.25 6.25v51.719c0 3.438 2.813 6.25 6.25 6.25h78.125c3.437 0 6.25-2.812 6.25-6.25V162.5a3.134 3.134 0 013.125-3.125 3.134 3.134 0 013.125 3.125v18.75c0 6.906-5.594 12.5-12.5 12.5zm87.5-112.5h-29.437a3.134 3.134 0 01-3.125-3.125A3.134 3.134 0 01154.938 75h29.437a3.134 3.134 0 003.125-3.125v-56.25a3.134 3.134 0 00-3.125-3.125h-62.5a3.134 3.134 0 00-3.125 3.125v35.188a3.134 3.134 0 01-3.125 3.124 3.134 3.134 0 01-3.125-3.124V15.624c0-5.156 4.219-9.375 9.375-9.375h62.5c5.156 0 9.375 4.219 9.375 9.375v56.25c0 5.156-4.219 9.375-9.375 9.375z" fill="#DCEBFC"/><path d="M140.625 62.5a3.12 3.12 0 01-3.125-3.125v-31.25a3.12 3.12 0 011.469-2.656 3.082 3.082 0 013.031-.125l31.25 15.625a3.123 3.123 0 011.719 2.781c0 1.156-.657 2.25-1.719 2.781L142 62.156a3.115 3.115 0 01-1.406.344h.031zm3.125-29.313v21.126l21.125-10.563-21.125-10.563zM40.625 75C21.656 75 6.25 59.594 6.25 40.625S21.656 6.25 40.625 6.25 75 21.656 75 40.625 59.594 75 40.625 75zm0-62.5c-15.5 0-28.125 12.625-28.125 28.125S25.125 68.75 40.625 68.75 68.75 56.125 68.75 40.625 56.125 12.5 40.625 12.5z" fill="#DCEBFC"/><path d="M40.625 59.375a3.099 3.099 0 01-2.25-.969L25.094 44.594c-4.282-4.469-4.282-11.719 0-16.188 4.093-4.281 11.25-4.437 15.531-.343 2.063-1.97 4.75-3.063 7.594-3.063 3 0 5.812 1.219 7.937 3.406 4.282 4.469 4.282 11.719 0 16.188L42.875 58.406a3.099 3.099 0 01-2.25.969zM33.031 31.25c-1.281 0-2.5.531-3.437 1.5-2 2.063-2 5.438 0 7.531l11 11.469 11-11.469c2-2.062 2-5.437 0-7.531-.938-.969-2.157-1.5-3.438-1.5-1.281 0-2.5.531-3.437 1.5-.532.531-.907 1.219-1.188 2.031a3.124 3.124 0 01-5.937 0c-.25-.812-.657-1.5-1.188-2.031-.937-.969-2.156-1.5-3.437-1.5h.062zm95.094 56.25h-12.5a3.134 3.134 0 00-3.125 3.125 3.134 3.134 0 003.125 3.125h5.719l-12.125 14.156-7-7c-.625-.625-1.469-.969-2.344-.906a3.04 3.04 0 00-2.25 1.125L82 119.875a3.133 3.133 0 00-.362 3.458 3.128 3.128 0 005.174.542l13.438-16.125 6.969 6.969c.625.625 1.437.969 2.343.906a3.112 3.112 0 002.25-1.094l13.25-15.469v4.063a3.135 3.135 0 003.126 3.125 3.134 3.134 0 003.124-3.125v-12.5a3.134 3.134 0 00-3.124-3.125h-.063z" fill="#DCEBFC"/></svg>