<svg width="57" height="55" viewBox="0 0 57 55" fill="none" xmlns="http://www.w3.org/2000/svg">
<path d="M45.7602 38.9868C48.0037 38.9799 49.8175 37.1603 49.8153 34.9191C49.8118 32.6538 47.9716 30.8457 45.688 30.864C43.4513 30.8812 41.6318 32.734 41.6627 34.9604C41.6936 37.2108 43.5086 38.9937 45.7602 38.9868ZM10.4435 38.9868C12.6939 38.9937 14.51 37.2073 14.541 34.9592C14.5719 32.734 12.7489 30.8812 10.5134 30.8629C8.22977 30.8457 6.39072 32.6538 6.38842 34.9202C6.38613 37.1626 8.19883 38.9799 10.4435 38.9868ZM28.0892 41.4022C30.979 41.4091 33.2982 39.1002 33.3039 36.2139C33.3096 33.3298 30.9928 31.0015 28.1133 30.9969C25.2281 30.9935 22.9032 33.3081 22.8998 36.1898C22.8963 39.0819 25.1995 41.3965 28.0892 41.4022ZM54.2038 48.5006C54.0067 46.657 53.2734 45.1319 52.1092 43.7981C48.1824 39.3007 40.7449 40.2781 38.1049 45.6303C37.9388 45.9672 37.9617 46.1917 38.1897 46.4897C38.5552 46.9663 38.8932 47.4739 39.1659 48.0067C39.3584 48.3837 39.5761 48.512 39.9967 48.5098C44.5192 48.4949 49.0418 48.5006 53.5644 48.5006H54.2038ZM2.00678 48.4525C2.13397 48.4731 2.21074 48.4971 2.28866 48.4971C6.99228 48.4994 11.6959 48.504 16.3984 48.4857C16.5817 48.4845 16.8212 48.3081 16.9369 48.1442C17.2955 47.6378 17.5637 47.0614 17.951 46.5813C18.2557 46.2055 18.2546 45.9202 18.0403 45.5134C15.1448 40.0066 7.493 39.3351 3.7026 44.2702C2.75844 45.4985 2.15918 46.8758 2.00678 48.4525ZM38.6996 53.0369C38.4429 48.4914 34.4234 43.2928 28.0022 43.357C21.456 43.4223 17.6817 48.8352 17.5144 53.0369H38.6996ZM32.3414 41.9934C33.7026 42.7886 35.0971 43.6033 36.5409 44.4467C37.7405 42.2925 39.5612 40.67 42.0271 39.6777C40.29 38.1435 39.4891 36.2872 39.8099 34.0231C40.0253 32.5071 40.7552 31.257 41.9354 30.2888C44.4287 28.2424 48.0472 28.5368 50.2048 30.9179C52.1424 33.0571 52.5985 36.9071 49.4795 39.6571C49.884 39.8565 50.2839 40.0295 50.6597 40.2438C54.1304 42.2169 55.9878 45.1972 56.1987 49.1858C56.2456 50.0818 55.887 50.4279 54.9841 50.429C50.2988 50.4313 45.6147 50.4302 40.9305 50.4302H40.3072C40.4424 51.5302 40.5994 52.5797 40.6945 53.6339C40.7838 54.6434 40.4298 54.9986 39.4249 54.9986C31.8854 55.0009 24.347 54.9997 16.8074 54.9997C15.7636 54.9986 15.4175 54.6525 15.5103 53.6041C15.6032 52.5683 15.759 51.537 15.8965 50.4302H15.303C10.6589 50.4302 6.01488 50.4313 1.37085 50.4302C0.267416 50.4302 -0.0671612 50.1242 0.010755 49.0368C0.312107 44.8007 2.39522 41.762 6.21655 39.9115C6.37582 39.8336 6.53738 39.7591 6.7104 39.6777C3.25115 36.529 4.33281 32.4361 6.30707 30.5948C8.67206 28.3902 12.2791 28.3822 14.6074 30.5776C16.7547 32.6034 17.519 36.7146 14.211 39.6834C16.6138 40.6666 18.4586 42.2684 19.6594 44.4535C21.0848 43.6182 22.477 42.8001 23.876 41.9797C21.9316 40.4649 20.8522 38.415 20.9805 35.8151C21.0733 33.9028 21.8491 32.286 23.247 30.9775C26.1218 28.2871 30.6169 28.4624 33.3245 31.3372C35.8854 34.0551 36.2005 38.9982 32.3414 41.9934Z" fill="#2251FF"/>
<path d="M35.4568 4.04385C35.3399 3.88572 35.2574 3.67489 35.1038 3.58322C34.2124 3.04812 33.3083 2.53365 32.3997 2.02834C32.0491 1.83355 31.7981 2.00886 31.5827 2.30104C31.3581 2.60698 31.1347 2.92552 30.8586 3.18218C29.0115 4.89405 26.1641 4.55718 24.7181 2.44198C24.3927 1.96646 24.0661 1.82896 23.57 2.12C22.7747 2.58406 21.9738 3.03896 21.1832 3.51218C20.7982 3.74249 20.6951 4.06103 20.9197 4.4827C22.2981 7.0631 20.6424 10.3264 17.4341 10.4868C17.0238 10.5075 16.7718 10.6862 16.7649 11.0976C16.75 12.1173 16.7511 13.1383 16.7637 14.1581C16.7683 14.5396 16.9998 14.7252 17.3791 14.7619C17.7182 14.794 18.0631 14.8261 18.3897 14.9143C20.8532 15.58 22.0781 18.2143 21.0251 20.5586C20.6744 21.339 20.663 21.4146 21.3883 21.8786C22.1285 22.3519 22.9168 22.7506 23.688 23.1769C24.0982 23.4037 24.3881 23.2697 24.6573 22.8996C26.5422 20.3066 29.6543 20.31 31.5518 22.9064C31.8245 23.2777 32.119 23.4026 32.5246 23.1746C33.3278 22.7243 34.1287 22.2694 34.9262 21.8087C35.4086 21.5303 35.5095 21.1751 35.2333 20.6526C34.7555 19.7485 34.6719 18.7746 34.9366 17.7857C35.3777 16.1392 36.7023 15.0128 38.4153 14.8043C39.3617 14.6886 39.4064 14.6909 39.4729 13.7238C39.5302 12.908 39.4626 12.083 39.4591 11.2626C39.458 10.7068 39.1841 10.5166 38.6376 10.4731C35.6515 10.2393 33.9637 7.30029 35.2287 4.57666C35.3032 4.41509 35.3697 4.24895 35.4568 4.04385ZM32.2622 25.2313C31.2447 25.213 30.4907 24.8738 30.0576 24.1027C29.1593 22.4997 27.0143 22.5616 26.1286 24.1153C25.5201 25.1843 24.2368 25.551 23.1219 25.0148C21.9887 24.4705 20.8841 23.838 19.8472 23.1276C18.8251 22.4298 18.5134 21.143 19.139 20.0728C19.9457 18.6932 19.249 16.7304 17.1717 16.664C15.8872 16.6216 14.9316 15.6843 14.8536 14.4033C14.7826 13.246 14.7838 12.0772 14.8491 10.92C14.9247 9.5484 15.9078 8.64663 17.2805 8.56299C19.0726 8.45413 19.9549 6.94164 19.178 5.30769C18.5524 3.99228 18.8125 2.80406 20.0316 1.98479C20.9918 1.33855 22.0093 0.757616 23.0555 0.259182C24.2437 -0.306856 25.4216 0.0850163 26.1744 1.1598C27.3031 2.77083 28.9003 2.76625 30.0381 1.14834C30.7761 0.09762 31.9459 -0.305712 33.1055 0.248869C34.2216 0.782824 35.3055 1.40845 36.3322 2.10053C37.3531 2.78917 37.7003 4.09312 37.077 5.14842C36.1695 6.68727 37.148 8.61799 39.1188 8.59163C40.2463 8.57788 41.2352 9.52777 41.3257 10.6942C41.4242 11.9684 41.4265 13.262 41.3257 14.535C41.2294 15.7599 40.2589 16.5689 39.0134 16.6766C37.0655 16.845 36.2394 18.2613 37.0644 20.0224C37.5903 21.1465 37.4138 22.3748 36.4307 23.0577C35.333 23.8197 34.1287 24.4292 32.9543 25.0755C32.7205 25.2038 32.4134 25.1992 32.2622 25.2313Z" fill="#2251FF"/>
<path d="M49.6113 13.5197C48.603 13.5197 47.7012 13.5243 46.7983 13.5185C46.0902 13.5128 45.6513 13.1439 45.6445 12.5664C45.6376 11.9866 46.0787 11.597 46.7777 11.5924C47.9831 11.5855 49.1896 11.5844 50.3962 11.5924C51.1914 11.5981 51.5363 11.9316 51.5374 12.7325C51.5443 16.2903 51.5443 19.8481 51.5386 23.4047C51.5374 24.1277 51.1708 24.5471 50.5841 24.5471C49.9997 24.546 49.6182 24.1232 49.6159 23.4059C49.6067 20.3706 49.6113 17.3364 49.6113 14.3011C49.6113 14.064 49.6113 13.8268 49.6113 13.5197Z" fill="#2251FF"/>
<path d="M6.59256 13.5195V14.3021C6.59256 17.2354 6.5937 20.1699 6.59026 23.1043C6.59026 23.3438 6.58912 23.5913 6.53412 23.8216C6.41381 24.3212 6.0586 24.5664 5.55902 24.5355C5.05829 24.5045 4.74663 24.2158 4.68132 23.7048C4.6584 23.526 4.66298 23.3438 4.66298 23.1628C4.66184 19.7666 4.66184 16.3703 4.66298 12.9741C4.66298 11.8546 4.92996 11.5911 6.04829 11.5899C7.17349 11.5899 8.29984 11.5842 9.42504 11.5922C10.1228 11.5968 10.5663 11.9875 10.5583 12.5662C10.5514 13.1437 10.1125 13.5126 9.40441 13.5184C8.5015 13.5241 7.59974 13.5195 6.59256 13.5195Z" fill="#2251FF"/>
<path d="M28.1567 9.381C26.3463 9.35006 24.8682 10.7743 24.8453 12.5698C24.8223 14.3699 26.2443 15.8423 28.0444 15.8859C29.8216 15.9283 31.3306 14.4685 31.3581 12.681C31.3856 10.8763 29.966 9.41194 28.1567 9.381ZM28.1086 7.45143C31.0167 7.46861 33.3141 9.78662 33.2877 12.6787C33.2614 15.5203 30.8815 17.8636 28.0627 17.8246C25.1753 17.7845 22.887 15.4367 22.9145 12.5435C22.942 9.72131 25.2738 7.43538 28.1086 7.45143Z" fill="#2251FF"/>
</svg>
