<svg width="540" height="400" viewBox="0 0 540 400" fill="none" xmlns="http://www.w3.org/2000/svg">
<g clip-path="url(#clip0_2046_2065)">
<g opacity="0.2" filter="url(#filter0_f_2046_2065)">
<ellipse cx="385" cy="210.179" rx="237" ry="236.5" fill="#0374D3"/>
</g>
<mask id="mask0_2046_2065" style="mask-type:alpha" maskUnits="userSpaceOnUse" x="-52" y="-509" width="1266" height="1419">
<rect x="463.363" y="-508.857" width="835.074" height="1170.07" transform="rotate(26.1152 463.363 -508.857)" fill="url(#paint0_linear_2046_2065)"/>
</mask>
<g mask="url(#mask0_2046_2065)">
<path d="M865.493 320.906C755.262 545.765 500.753 647.123 297.081 547.278C275.72 536.807 255.69 524.501 237.169 510.663C427.049 562.977 641.251 460.676 739.942 259.358C838.633 58.0391 788.261 -173.854 630.65 -291.996C652.933 -285.83 674.929 -277.535 696.29 -267.063C899.962 -167.218 975.724 96.0465 865.493 320.906Z" fill="url(#paint1_linear_2046_2065)"/>
<g filter="url(#filter1_f_2046_2065)">
<path d="M851.543 314.067C741.312 538.927 500.753 647.123 297.081 547.278C275.72 536.807 255.69 524.501 237.169 510.663C427.049 562.977 655.201 467.515 753.892 266.196C852.583 64.8778 788.261 -173.854 630.65 -291.996C652.933 -285.83 674.929 -277.535 696.29 -267.063C899.963 -167.218 961.774 89.2078 851.543 314.067Z" fill="url(#paint2_linear_2046_2065)"/>
</g>
<g filter="url(#filter2_f_2046_2065)">
<path d="M844.568 310.647C734.337 535.507 483.384 647.26 279.711 547.414C258.35 536.943 238.321 524.637 219.799 510.799C409.68 563.113 662.176 470.934 760.867 269.615C859.558 68.2968 769.524 -181.958 611.913 -300.1C634.196 -293.934 656.192 -285.639 677.553 -275.167C881.225 -175.322 954.799 85.7881 844.568 310.647Z" fill="url(#paint3_linear_2046_2065)"/>
</g>
<g filter="url(#filter3_f_2046_2065)">
<path d="M844.568 310.647C734.337 535.507 483.384 647.26 279.711 547.414C258.35 536.943 238.321 524.637 219.799 510.799C409.68 563.113 662.176 470.934 760.867 269.615C859.558 68.2968 769.524 -181.958 611.913 -300.1C634.196 -293.934 656.192 -285.639 677.553 -275.167C881.225 -175.322 954.799 85.7881 844.568 310.647Z" fill="url(#paint4_linear_2046_2065)"/>
</g>
<g filter="url(#filter4_f_2046_2065)">
<path d="M844.568 310.647C734.337 535.507 483.384 647.26 279.711 547.414C258.35 536.943 238.321 524.637 219.799 510.799C409.68 563.113 662.176 470.934 760.867 269.615C859.558 68.2968 769.524 -181.958 611.913 -300.1C634.196 -293.934 656.192 -285.639 677.553 -275.167C881.225 -175.322 954.799 85.7881 844.568 310.647Z" fill="url(#paint5_linear_2046_2065)"/>
</g>
<g filter="url(#filter5_f_2046_2065)">
<path d="M799.152 306.227C688.921 531.087 483.384 647.259 279.711 547.414C258.35 536.943 238.321 524.637 219.799 510.799C409.68 563.113 682.058 487.732 783.536 280.728C910.684 21.3606 769.524 -181.958 611.913 -300.1C634.196 -293.934 656.192 -285.639 677.553 -275.167C881.225 -175.322 909.384 81.3678 799.152 306.227Z" fill="url(#paint6_linear_2046_2065)"/>
</g>
<g filter="url(#filter6_f_2046_2065)">
<path d="M799.153 306.227C688.921 531.087 492.632 691.265 288.959 591.42C267.598 580.948 221.294 496.5 202.772 482.662C392.653 534.976 682.058 487.732 783.536 280.728C910.684 21.3607 738.007 -169.507 580.397 -287.649C570.438 -267.334 645.183 -332.67 666.544 -322.198C870.217 -222.353 909.384 81.3679 799.153 306.227Z" fill="url(#paint7_linear_2046_2065)"/>
</g>
<g filter="url(#filter7_f_2046_2065)">
<path d="M799.153 306.227C688.921 531.087 492.632 691.265 288.959 591.42C267.598 580.948 221.294 496.5 202.772 482.662C392.653 534.976 682.058 487.732 783.536 280.728C910.684 21.3607 738.007 -169.507 580.397 -287.649C570.438 -267.334 645.183 -332.67 666.544 -322.198C870.217 -222.353 909.384 81.3679 799.153 306.227Z" fill="url(#paint8_linear_2046_2065)"/>
</g>
<g filter="url(#filter8_f_2046_2065)">
<path d="M799.153 306.227C688.921 531.087 492.632 691.265 288.959 591.42C267.598 580.948 221.294 496.5 202.772 482.662C392.653 534.976 682.058 487.732 783.536 280.728C910.684 21.3607 738.007 -169.507 580.397 -287.649C570.438 -267.334 645.183 -332.67 666.544 -322.198C870.217 -222.353 909.384 81.3679 799.153 306.227Z" fill="url(#paint9_linear_2046_2065)"/>
</g>
</g>
<g filter="url(#filter9_f_2046_2065)">
<mask id="mask1_2046_2065" style="mask-type:alpha" maskUnits="userSpaceOnUse" x="321" y="258" width="566" height="415">
<path opacity="0.8" d="M321.925 492.193L443.071 672.347L688.999 596.75L886.745 258.64L696.403 282.487L646.687 277.223L348.628 446.536L321.925 492.193Z" fill="url(#paint10_linear_2046_2065)"/>
</mask>
<g mask="url(#mask1_2046_2065)">
<g opacity="0.8">
<path d="M856.516 238.927C849.704 285.711 884.242 254.901 857.798 300.115C845.612 320.951 688.587 441.212 673.65 458.746C594.87 524.281 499.111 544.347 420.4 510.802C404.399 504.023 389.914 494.987 375.902 484.697C446.825 536.895 556.988 481.415 625.859 414.92C723.397 320.87 774.619 174.912 719.571 39.9716C797.651 97.725 806.883 279.201 813.092 249.793L856.516 238.927Z" fill="#0375D5"/>
<g filter="url(#filter10_f_2046_2065)">
<path d="M836.819 229.065C830.007 275.849 864.545 245.039 838.101 290.253C825.916 311.089 668.89 431.349 653.953 448.884C575.174 514.418 479.414 534.485 400.703 500.94C384.702 494.161 370.217 485.125 356.205 474.835C427.129 527.033 578.588 470.036 647.458 403.541C744.996 309.491 822.957 195.732 767.909 60.7915C845.989 118.545 787.186 269.339 793.395 239.931L836.819 229.065Z" fill="#0375D5"/>
</g>
<g filter="url(#filter11_f_2046_2065)">
<path d="M836.819 229.065C830.007 275.849 864.545 245.039 838.101 290.253C825.916 311.089 668.89 431.349 653.953 448.884C575.174 514.418 479.414 534.485 400.703 500.94C384.702 494.161 370.217 485.125 356.205 474.835C427.129 527.033 578.588 470.036 647.458 403.541C744.996 309.491 822.957 195.732 767.909 60.7915C845.989 118.545 787.186 269.339 793.395 239.931L836.819 229.065Z" fill="#0375D5"/>
</g>
<g filter="url(#filter12_f_2046_2065)">
<path d="M836.819 229.065C830.007 275.849 864.545 245.039 838.101 290.253C825.916 311.089 668.89 431.349 653.953 448.884C575.174 514.418 479.414 534.485 400.703 500.94C384.702 494.161 370.217 485.125 356.205 474.835C427.129 527.033 578.588 470.036 647.458 403.541C744.996 309.491 822.957 195.732 767.909 60.7915C845.989 118.545 787.186 269.339 793.395 239.931L836.819 229.065Z" fill="#0375D5"/>
</g>
<g filter="url(#filter13_f_2046_2065)">
<path d="M836.819 229.065C830.007 275.849 864.545 245.039 838.101 290.253C825.916 311.089 668.89 431.349 653.953 448.884C575.174 514.418 479.414 534.485 400.703 500.94C384.702 494.161 370.217 485.125 356.205 474.835C427.129 527.033 575.782 491.574 644.652 425.079C742.19 331.029 822.957 195.732 767.909 60.7915C845.989 118.545 787.186 269.339 793.395 239.931L836.819 229.065Z" fill="#0375D5"/>
</g>
<g filter="url(#filter14_f_2046_2065)">
<path d="M836.818 229.065C830.007 275.849 864.545 245.039 838.101 290.253C825.915 311.089 668.89 431.349 653.952 448.884C575.173 514.418 479.414 534.485 400.702 500.94C384.702 494.161 363.494 486.307 349.482 476.016C420.406 528.214 572.756 495.601 641.626 429.106C739.164 335.056 822.956 195.732 767.908 60.7916C845.988 118.545 787.185 269.339 793.394 239.931L836.818 229.065Z" fill="#0375D5"/>
</g>
<g filter="url(#filter15_f_2046_2065)">
<path d="M856.516 238.927C849.704 285.711 884.242 254.901 857.798 300.115C845.612 320.951 685.482 432.771 670.544 450.306C591.765 515.84 499.111 544.347 420.4 510.802C404.399 504.023 389.914 494.987 375.902 484.697C446.825 536.895 561.982 484.335 630.852 417.841C728.39 323.791 806.577 193.603 751.529 58.6625C829.609 116.416 806.883 279.201 813.092 249.793L856.516 238.927Z" fill="#0375D5"/>
</g>
<g filter="url(#filter16_f_2046_2065)">
<path d="M846.361 237.958C839.55 284.742 874.088 253.932 847.644 299.146C835.458 319.982 675.328 431.802 660.39 449.336C581.611 514.871 488.957 543.378 410.245 509.833C394.245 503.054 379.759 494.018 365.748 483.728C436.671 535.926 558.818 487.455 627.689 420.96C725.227 326.91 803.413 196.722 748.366 61.7818C826.446 119.535 796.728 278.232 802.937 248.824L846.361 237.958Z" fill="#0375D5"/>
</g>
<g filter="url(#filter17_f_2046_2065)">
<path d="M841.812 231.985C835 278.769 869.538 247.959 843.094 293.173C830.908 314.009 670.778 425.829 655.84 443.363C577.061 508.898 484.407 537.405 405.695 503.86C389.695 497.081 375.21 488.045 361.198 477.755C432.121 529.953 572.967 490.761 641.837 424.267C739.375 330.217 817.562 200.029 762.514 65.0886C840.594 122.842 792.178 272.259 798.387 242.851L841.812 231.985Z" fill="#0375D5"/>
</g>
<g filter="url(#filter18_f_2046_2065)">
<path d="M841.812 231.984C835 278.769 869.538 247.958 843.095 293.173C830.909 314.008 680.729 414.94 665.792 432.474C587.013 498.008 469.056 535.943 390.344 502.398C374.344 495.619 375.21 488.044 361.198 477.754C432.122 529.952 549.775 526.873 618.645 460.378C716.183 366.328 831.779 304.396 776.731 169.455C854.811 227.209 792.179 272.258 798.388 242.85L841.812 231.984Z" fill="#0375D5"/>
</g>
<g filter="url(#filter19_f_2046_2065)">
<path d="M841.812 231.984C835 278.769 869.538 247.958 843.095 293.173C830.909 314.008 658.058 427.349 643.121 444.883C564.341 510.418 469.056 535.943 390.344 502.398C374.344 495.619 375.21 488.044 361.198 477.754C432.122 529.952 545.868 507.199 614.738 440.704C712.276 346.654 831.779 304.396 776.731 169.455C854.811 227.209 792.179 272.258 798.388 242.85L841.812 231.984Z" fill="#0375D5"/>
</g>
</g>
</g>
</g>
<mask id="mask2_2046_2065" style="mask-type:alpha" maskUnits="userSpaceOnUse" x="-468" y="-198" width="742" height="770">
<rect x="-119.131" y="571.125" width="447.074" height="626.424" transform="rotate(-141.164 -119.131 571.125)" fill="url(#paint11_linear_2046_2065)"/>
</mask>
<g mask="url(#mask2_2046_2065)">
<path d="M-231.315 90.3913C-147.24 -14.0419 -2.37941 -36.9703 92.2138 39.1825C102.135 47.1694 111.144 55.9573 119.185 65.3674C26.1911 15.6623 -97.7314 43.835 -173.004 137.335C-248.277 230.835 -249.309 357.874 -180.928 438.152C-191.838 432.305 -202.346 425.38 -212.267 417.393C-306.86 341.24 -315.39 194.824 -231.315 90.3913Z" fill="url(#paint12_linear_2046_2065)"/>
<g filter="url(#filter20_f_2046_2065)">
<path d="M-224.836 95.6072C-140.761 -8.82593 -2.37943 -36.9703 92.2138 39.1825C102.135 47.1694 111.144 55.9573 119.185 65.3674C26.1911 15.6623 -104.21 38.619 -179.483 132.119C-254.756 225.619 -249.309 357.874 -180.928 438.152C-191.838 432.305 -202.346 425.38 -212.267 417.393C-306.86 341.24 -308.911 200.04 -224.836 95.6072Z" fill="url(#paint13_linear_2046_2065)"/>
</g>
<g filter="url(#filter21_f_2046_2065)">
<path d="M-221.597 98.2152C-137.522 -6.21793 6.70744 -34.9939 101.301 41.159C111.222 49.1459 120.231 57.9338 128.272 67.3439C35.2779 17.6388 -107.45 36.0111 -182.723 129.511C-257.995 223.011 -240.479 364.315 -172.098 444.593C-183.008 438.746 -193.517 431.821 -203.438 423.834C-298.031 347.682 -305.671 202.648 -221.597 98.2152Z" fill="url(#paint14_linear_2046_2065)"/>
</g>
<g filter="url(#filter22_f_2046_2065)">
<path d="M-221.597 98.2152C-137.522 -6.21793 6.70744 -34.9939 101.301 41.159C111.222 49.1459 120.231 57.9338 128.272 67.3439C35.2779 17.6388 -107.45 36.0111 -182.723 129.511C-257.995 223.011 -240.479 364.315 -172.098 444.593C-183.008 438.746 -193.517 431.821 -203.438 423.834C-298.031 347.682 -305.671 202.648 -221.597 98.2152Z" fill="url(#paint15_linear_2046_2065)"/>
</g>
<g filter="url(#filter23_f_2046_2065)">
<path d="M-221.597 98.2152C-137.522 -6.21793 6.70744 -34.9939 101.301 41.159C111.222 49.1459 120.231 57.9338 128.272 67.3439C35.2779 17.6388 -107.45 36.0111 -182.723 129.511C-257.995 223.011 -240.479 364.315 -172.098 444.593C-183.008 438.746 -193.517 431.821 -203.438 423.834C-298.031 347.682 -305.671 202.648 -221.597 98.2152Z" fill="url(#paint16_linear_2046_2065)"/>
</g>
<g filter="url(#filter24_f_2046_2065)">
<path d="M-198.4 105.878C-114.326 1.44448 6.70746 -34.9938 101.301 41.159C111.222 49.1459 120.231 57.9338 128.272 67.3439C35.278 17.6388 -115.853 24.8946 -193.251 121.035C-290.228 241.495 -240.479 364.315 -172.098 444.593C-183.008 438.746 -193.517 431.821 -203.438 423.834C-298.031 347.682 -282.475 210.311 -198.4 105.878Z" fill="url(#paint17_linear_2046_2065)"/>
</g>
<g filter="url(#filter25_f_2046_2065)">
<path d="M-198.4 105.878C-114.326 1.44446 7.06559 -59.065 101.659 17.0879C111.58 25.0748 125.806 74.6351 133.847 84.0451C40.8529 34.34 -115.853 24.8946 -193.251 121.035C-290.228 241.495 -222.553 361.529 -154.171 441.807C-146.576 432.372 -193.312 457.68 -203.233 449.693C-297.826 373.54 -282.475 210.311 -198.4 105.878Z" fill="url(#paint18_linear_2046_2065)"/>
</g>
<g filter="url(#filter26_f_2046_2065)">
<path d="M-198.4 105.878C-114.326 1.44446 7.06559 -59.065 101.659 17.0879C111.58 25.0748 125.806 74.6351 133.847 84.0451C40.8529 34.34 -115.853 24.8946 -193.251 121.035C-290.228 241.495 -222.553 361.529 -154.171 441.807C-146.576 432.372 -193.312 457.68 -203.233 449.693C-297.826 373.54 -282.475 210.311 -198.4 105.878Z" fill="url(#paint19_linear_2046_2065)"/>
</g>
<g filter="url(#filter27_f_2046_2065)">
<path d="M-198.4 105.878C-114.326 1.44446 7.06559 -59.065 101.659 17.0879C111.58 25.0748 125.806 74.6351 133.847 84.0451C40.8529 34.34 -115.853 24.8946 -193.251 121.035C-290.228 241.495 -222.553 361.529 -154.171 441.807C-146.576 432.372 -193.312 457.68 -203.233 449.693C-297.826 373.54 -282.475 210.311 -198.4 105.878Z" fill="url(#paint20_linear_2046_2065)"/>
</g>
</g>
<g filter="url(#filter28_f_2046_2065)">
<mask id="mask3_2046_2065" style="mask-type:alpha" maskUnits="userSpaceOnUse" x="-250" y="-44" width="323" height="183">
<path opacity="0.8" d="M72.7451 65.0208L30.7175 -43.3426L-106.625 -32.8561L-249.754 120.403L-147.54 130.389L-122.198 138.999L53.4175 85.7163L72.7451 65.0208Z" fill="url(#paint21_linear_2046_2065)"/>
</mask>
<g mask="url(#mask3_2046_2065)">
<g opacity="0.8">
<path d="M-236.291 134.262C-227.219 110.633 -248.888 122.651 -229.748 102.156C-220.928 92.7119 -124.747 48.4197 -114.879 41.0238C-66.0122 16.0868 -13.6384 16.8966 23.5127 43.6939C31.0694 49.1205 37.5688 55.5471 43.6732 62.5728C12.7883 26.9523 -51.2826 42.9385 -95.0878 69.545C-157.112 107.162 -201.069 177.347 -188.23 254.307C-222.197 214.941 -205.624 119.081 -212.333 133.707L-236.291 134.262Z" fill="#0375D5"/>
<g filter="url(#filter29_f_2046_2065)">
<path d="M-227.168 141.734C-218.095 118.105 -239.764 130.123 -220.624 109.629C-211.804 100.184 -115.624 55.8921 -105.756 48.4962C-56.8889 23.5592 -4.51508 24.3691 32.636 51.1663C40.1926 56.5929 46.6921 63.0195 52.7965 70.0452C21.9116 34.4247 -63.9042 46.3345 -107.71 72.9411C-169.734 110.558 -223.858 160.776 -211.019 237.735C-244.986 198.37 -196.5 126.553 -203.21 141.179L-227.168 141.734Z" fill="#0375D5"/>
</g>
<g filter="url(#filter30_f_2046_2065)">
<path d="M-227.168 141.734C-218.095 118.105 -239.764 130.123 -220.624 109.629C-211.804 100.184 -115.624 55.8921 -105.756 48.4962C-56.8889 23.5592 -4.51508 24.3691 32.636 51.1663C40.1926 56.5929 46.6921 63.0195 52.7965 70.0452C21.9116 34.4247 -63.9042 46.3345 -107.71 72.9411C-169.734 110.558 -223.858 160.776 -211.019 237.735C-244.986 198.37 -196.5 126.553 -203.21 141.179L-227.168 141.734Z" fill="#0375D5"/>
</g>
<g filter="url(#filter31_f_2046_2065)">
<path d="M-227.168 141.734C-218.095 118.105 -239.764 130.123 -220.624 109.629C-211.804 100.184 -115.624 55.8921 -105.756 48.4962C-56.8889 23.5592 -4.51508 24.3691 32.636 51.1663C40.1926 56.5929 46.6921 63.0195 52.7965 70.0452C21.9116 34.4247 -63.9042 46.3345 -107.71 72.9411C-169.734 110.558 -223.858 160.776 -211.019 237.735C-244.986 198.37 -196.5 126.553 -203.21 141.179L-227.168 141.734Z" fill="#0375D5"/>
</g>
<g filter="url(#filter32_f_2046_2065)">
<path d="M-227.168 141.734C-218.095 118.105 -239.764 130.123 -220.624 109.629C-211.804 100.184 -115.624 55.8921 -105.756 48.4962C-56.8889 23.5592 -4.51508 24.3691 32.636 51.1663C40.1926 56.5929 46.6921 63.0195 52.7965 70.0452C21.9116 34.4247 -59.8996 35.4177 -103.705 62.0242C-165.73 99.6413 -223.858 160.776 -211.019 237.735C-244.986 198.37 -196.5 126.553 -203.21 141.179L-227.168 141.734Z" fill="#0375D5"/>
</g>
<g filter="url(#filter33_f_2046_2065)">
<path d="M-227.168 141.734C-218.095 118.105 -239.764 130.123 -220.624 109.629C-211.804 100.184 -115.624 55.8922 -105.756 48.4963C-56.8889 23.5593 -4.51509 24.3692 32.636 51.1664C40.1926 56.593 50.3421 63.1949 56.4465 70.2206C25.5616 34.6001 -57.845 33.6715 -101.65 60.278C-163.675 97.895 -223.858 160.776 -211.019 237.735C-244.986 198.37 -196.5 126.553 -203.21 141.179L-227.168 141.734Z" fill="#0375D5"/>
</g>
<g filter="url(#filter34_f_2046_2065)">
<path d="M-236.291 134.262C-227.219 110.633 -248.888 122.651 -229.748 102.156C-220.928 92.7119 -124.12 53.1936 -114.252 45.7977C-65.3856 20.8608 -13.6384 16.8966 23.5127 43.6939C31.0693 49.1205 37.5688 55.5471 43.6732 62.5728C12.7883 26.9522 -53.546 40.8247 -97.3513 67.4312C-159.376 105.048 -215.555 163.819 -202.716 240.778C-236.683 201.413 -205.624 119.081 -212.333 133.707L-236.291 134.262Z" fill="#0375D5"/>
</g>
<g filter="url(#filter35_f_2046_2065)">
<path d="M-231.103 135.966C-222.03 112.336 -243.699 124.355 -224.559 103.86C-215.739 94.4155 -118.932 54.8972 -109.064 47.5013C-60.1971 22.5644 -8.4499 18.6003 28.7011 45.3975C36.2578 50.8241 42.7573 57.2507 48.8616 64.2764C17.9768 28.6559 -51.5263 39.569 -95.3316 66.1755C-157.356 103.793 -213.535 162.563 -200.696 239.522C-234.663 200.157 -200.435 120.784 -207.145 135.41L-231.103 135.966Z" fill="#0375D5"/>
</g>
<g filter="url(#filter36_f_2046_2065)">
<path d="M-229.431 139.621C-220.359 115.992 -242.028 128.01 -222.888 107.515C-214.067 98.071 -117.26 58.5527 -107.392 51.1568C-58.5255 26.2199 -6.77826 22.2558 30.3728 49.053C37.9294 54.4797 44.4289 60.9062 50.5333 67.9319C19.6484 32.3114 -58.5254 36.1741 -102.331 62.7806C-164.355 100.398 -220.534 159.168 -207.695 236.128C-241.662 196.762 -198.763 124.44 -205.473 139.066L-229.431 139.621Z" fill="#0375D5"/>
</g>
<g filter="url(#filter37_f_2046_2065)">
<path d="M-229.432 139.621C-220.359 115.992 -242.028 128.01 -222.888 107.515C-214.068 98.071 -123.741 63.0662 -113.873 55.6703C-65.0063 30.7334 1.06617 24.8287 38.2172 51.626C45.7739 57.0526 44.4286 60.9062 50.533 67.9319C19.6481 32.3114 -42.1567 20.0495 -85.9619 46.656C-147.987 84.273 -215.655 102.988 -202.816 179.948C-236.783 140.583 -198.764 124.44 -205.473 139.066L-229.432 139.621Z" fill="#0375D5"/>
</g>
<g filter="url(#filter38_f_2046_2065)">
<path d="M-229.432 139.621C-220.359 115.992 -242.028 128.01 -222.888 107.515C-214.068 98.071 -110.438 59.2582 -100.57 51.8623C-51.7037 26.9254 1.06617 24.8287 38.2172 51.626C45.7739 57.0526 44.4286 60.9062 50.533 67.9319C19.6481 32.3114 -42.4356 30.7843 -86.2409 57.3908C-148.266 95.0079 -215.655 102.988 -202.816 179.948C-236.783 140.583 -198.764 124.44 -205.473 139.066L-229.432 139.621Z" fill="#0375D5"/>
</g>
</g>
</g>
</g>
</g>
<defs>
<filter id="filter0_f_2046_2065" x="-52" y="-226.321" width="874" height="873" filterUnits="userSpaceOnUse" color-interpolation-filters="sRGB">
<feFlood flood-opacity="0" result="BackgroundImageFix"/>
<feBlend mode="normal" in="SourceGraphic" in2="BackgroundImageFix" result="shape"/>
<feGaussianBlur stdDeviation="100" result="effect1_foregroundBlur_2046_2065"/>
</filter>
<filter id="filter1_f_2046_2065" x="222.644" y="-306.52" width="697.43" height="905.636" filterUnits="userSpaceOnUse" color-interpolation-filters="sRGB">
<feFlood flood-opacity="0" result="BackgroundImageFix"/>
<feBlend mode="normal" in="SourceGraphic" in2="BackgroundImageFix" result="shape"/>
<feGaussianBlur stdDeviation="7.26216" result="effect1_foregroundBlur_2046_2065"/>
</filter>
<filter id="filter2_f_2046_2065" x="176.226" y="-343.673" width="763.048" height="971.408" filterUnits="userSpaceOnUse" color-interpolation-filters="sRGB">
<feFlood flood-opacity="0" result="BackgroundImageFix"/>
<feBlend mode="normal" in="SourceGraphic" in2="BackgroundImageFix" result="shape"/>
<feGaussianBlur stdDeviation="21.7865" result="effect1_foregroundBlur_2046_2065"/>
</filter>
<filter id="filter3_f_2046_2065" x="156.861" y="-363.039" width="801.779" height="1010.14" filterUnits="userSpaceOnUse" color-interpolation-filters="sRGB">
<feFlood flood-opacity="0" result="BackgroundImageFix"/>
<feBlend mode="normal" in="SourceGraphic" in2="BackgroundImageFix" result="shape"/>
<feGaussianBlur stdDeviation="31.4693" result="effect1_foregroundBlur_2046_2065"/>
</filter>
<filter id="filter4_f_2046_2065" x="156.861" y="-363.039" width="801.779" height="1010.14" filterUnits="userSpaceOnUse" color-interpolation-filters="sRGB">
<feFlood flood-opacity="0" result="BackgroundImageFix"/>
<feBlend mode="normal" in="SourceGraphic" in2="BackgroundImageFix" result="shape"/>
<feGaussianBlur stdDeviation="31.4693" result="effect1_foregroundBlur_2046_2065"/>
</filter>
<filter id="filter5_f_2046_2065" x="69.7147" y="-450.184" width="943.199" height="1183.75" filterUnits="userSpaceOnUse" color-interpolation-filters="sRGB">
<feFlood flood-opacity="0" result="BackgroundImageFix"/>
<feBlend mode="normal" in="SourceGraphic" in2="BackgroundImageFix" result="shape"/>
<feGaussianBlur stdDeviation="75.0423" result="effect1_foregroundBlur_2046_2065"/>
</filter>
<filter id="filter6_f_2046_2065" x="110.785" y="-415.331" width="840.616" height="1129.05" filterUnits="userSpaceOnUse" color-interpolation-filters="sRGB">
<feFlood flood-opacity="0" result="BackgroundImageFix"/>
<feBlend mode="normal" in="SourceGraphic" in2="BackgroundImageFix" result="shape"/>
<feGaussianBlur stdDeviation="45.9937" result="effect1_foregroundBlur_2046_2065"/>
</filter>
<filter id="filter7_f_2046_2065" x="4.27351" y="-521.842" width="1053.64" height="1342.07" filterUnits="userSpaceOnUse" color-interpolation-filters="sRGB">
<feFlood flood-opacity="0" result="BackgroundImageFix"/>
<feBlend mode="normal" in="SourceGraphic" in2="BackgroundImageFix" result="shape"/>
<feGaussianBlur stdDeviation="99.2495" result="effect1_foregroundBlur_2046_2065"/>
</filter>
<filter id="filter8_f_2046_2065" x="-92.5552" y="-618.671" width="1247.3" height="1535.73" filterUnits="userSpaceOnUse" color-interpolation-filters="sRGB">
<feFlood flood-opacity="0" result="BackgroundImageFix"/>
<feBlend mode="normal" in="SourceGraphic" in2="BackgroundImageFix" result="shape"/>
<feGaussianBlur stdDeviation="147.664" result="effect1_foregroundBlur_2046_2065"/>
</filter>
<filter id="filter9_f_2046_2065" x="343.534" y="252.692" width="530.331" height="280.059" filterUnits="userSpaceOnUse" color-interpolation-filters="sRGB">
<feFlood flood-opacity="0" result="BackgroundImageFix"/>
<feBlend mode="normal" in="SourceGraphic" in2="BackgroundImageFix" result="shape"/>
<feGaussianBlur stdDeviation="2.97408" result="effect1_foregroundBlur_2046_2065"/>
</filter>
<filter id="filter10_f_2046_2065" x="350.257" y="54.8433" width="503.911" height="468.045" filterUnits="userSpaceOnUse" color-interpolation-filters="sRGB">
<feFlood flood-opacity="0" result="BackgroundImageFix"/>
<feBlend mode="normal" in="SourceGraphic" in2="BackgroundImageFix" result="shape"/>
<feGaussianBlur stdDeviation="2.97408" result="effect1_foregroundBlur_2046_2065"/>
</filter>
<filter id="filter11_f_2046_2065" x="293.155" y="-2.25903" width="618.116" height="582.25" filterUnits="userSpaceOnUse" color-interpolation-filters="sRGB">
<feFlood flood-opacity="0" result="BackgroundImageFix"/>
<feBlend mode="normal" in="SourceGraphic" in2="BackgroundImageFix" result="shape"/>
<feGaussianBlur stdDeviation="31.5253" result="effect1_foregroundBlur_2046_2065"/>
</filter>
<filter id="filter12_f_2046_2065" x="321.706" y="26.2922" width="561.014" height="525.148" filterUnits="userSpaceOnUse" color-interpolation-filters="sRGB">
<feFlood flood-opacity="0" result="BackgroundImageFix"/>
<feBlend mode="normal" in="SourceGraphic" in2="BackgroundImageFix" result="shape"/>
<feGaussianBlur stdDeviation="17.2497" result="effect1_foregroundBlur_2046_2065"/>
</filter>
<filter id="filter13_f_2046_2065" x="321.706" y="26.2922" width="561.014" height="525.148" filterUnits="userSpaceOnUse" color-interpolation-filters="sRGB">
<feFlood flood-opacity="0" result="BackgroundImageFix"/>
<feBlend mode="normal" in="SourceGraphic" in2="BackgroundImageFix" result="shape"/>
<feGaussianBlur stdDeviation="17.2497" result="effect1_foregroundBlur_2046_2065"/>
</filter>
<filter id="filter14_f_2046_2065" x="314.983" y="26.2922" width="567.736" height="525.148" filterUnits="userSpaceOnUse" color-interpolation-filters="sRGB">
<feFlood flood-opacity="0" result="BackgroundImageFix"/>
<feBlend mode="normal" in="SourceGraphic" in2="BackgroundImageFix" result="shape"/>
<feGaussianBlur stdDeviation="17.2497" result="effect1_foregroundBlur_2046_2065"/>
</filter>
<filter id="filter15_f_2046_2065" x="360.437" y="43.1974" width="522.946" height="497.21" filterUnits="userSpaceOnUse" color-interpolation-filters="sRGB">
<feFlood flood-opacity="0" result="BackgroundImageFix"/>
<feBlend mode="normal" in="SourceGraphic" in2="BackgroundImageFix" result="shape"/>
<feGaussianBlur stdDeviation="7.73261" result="effect1_foregroundBlur_2046_2065"/>
</filter>
<filter id="filter16_f_2046_2065" x="347.903" y="43.9372" width="527.704" height="497.88" filterUnits="userSpaceOnUse" color-interpolation-filters="sRGB">
<feFlood flood-opacity="0" result="BackgroundImageFix"/>
<feBlend mode="normal" in="SourceGraphic" in2="BackgroundImageFix" result="shape"/>
<feGaussianBlur stdDeviation="8.92225" result="effect1_foregroundBlur_2046_2065"/>
</filter>
<filter id="filter17_f_2046_2065" x="351.681" y="55.5716" width="511.049" height="471.946" filterUnits="userSpaceOnUse" color-interpolation-filters="sRGB">
<feFlood flood-opacity="0" result="BackgroundImageFix"/>
<feBlend mode="normal" in="SourceGraphic" in2="BackgroundImageFix" result="shape"/>
<feGaussianBlur stdDeviation="4.75853" result="effect1_foregroundBlur_2046_2065"/>
</filter>
<filter id="filter18_f_2046_2065" x="332.647" y="140.904" width="549.118" height="402.491" filterUnits="userSpaceOnUse" color-interpolation-filters="sRGB">
<feFlood flood-opacity="0" result="BackgroundImageFix"/>
<feBlend mode="normal" in="SourceGraphic" in2="BackgroundImageFix" result="shape"/>
<feGaussianBlur stdDeviation="14.2756" result="effect1_foregroundBlur_2046_2065"/>
</filter>
<filter id="filter19_f_2046_2065" x="332.647" y="140.904" width="549.118" height="404.802" filterUnits="userSpaceOnUse" color-interpolation-filters="sRGB">
<feFlood flood-opacity="0" result="BackgroundImageFix"/>
<feBlend mode="normal" in="SourceGraphic" in2="BackgroundImageFix" result="shape"/>
<feGaussianBlur stdDeviation="14.2756" result="effect1_foregroundBlur_2046_2065"/>
</filter>
<filter id="filter20_f_2046_2065" x="-300.189" y="-18.5182" width="433.898" height="471.194" filterUnits="userSpaceOnUse" color-interpolation-filters="sRGB">
<feFlood flood-opacity="0" result="BackgroundImageFix"/>
<feBlend mode="normal" in="SourceGraphic" in2="BackgroundImageFix" result="shape"/>
<feGaussianBlur stdDeviation="7.26216" result="effect1_foregroundBlur_2046_2065"/>
</filter>
<filter id="filter21_f_2046_2065" x="-323.439" y="-45.3825" width="495.284" height="533.548" filterUnits="userSpaceOnUse" color-interpolation-filters="sRGB">
<feFlood flood-opacity="0" result="BackgroundImageFix"/>
<feBlend mode="normal" in="SourceGraphic" in2="BackgroundImageFix" result="shape"/>
<feGaussianBlur stdDeviation="21.7865" result="effect1_foregroundBlur_2046_2065"/>
</filter>
<filter id="filter22_f_2046_2065" x="-342.805" y="-64.7483" width="534.016" height="572.28" filterUnits="userSpaceOnUse" color-interpolation-filters="sRGB">
<feFlood flood-opacity="0" result="BackgroundImageFix"/>
<feBlend mode="normal" in="SourceGraphic" in2="BackgroundImageFix" result="shape"/>
<feGaussianBlur stdDeviation="31.4693" result="effect1_foregroundBlur_2046_2065"/>
</filter>
<filter id="filter23_f_2046_2065" x="-342.805" y="-64.7483" width="534.016" height="572.28" filterUnits="userSpaceOnUse" color-interpolation-filters="sRGB">
<feFlood flood-opacity="0" result="BackgroundImageFix"/>
<feBlend mode="normal" in="SourceGraphic" in2="BackgroundImageFix" result="shape"/>
<feGaussianBlur stdDeviation="31.4693" result="effect1_foregroundBlur_2046_2065"/>
</filter>
<filter id="filter24_f_2046_2065" x="-418.225" y="-149.482" width="696.582" height="744.159" filterUnits="userSpaceOnUse" color-interpolation-filters="sRGB">
<feFlood flood-opacity="0" result="BackgroundImageFix"/>
<feBlend mode="normal" in="SourceGraphic" in2="BackgroundImageFix" result="shape"/>
<feGaussianBlur stdDeviation="75.0423" result="effect1_foregroundBlur_2046_2065"/>
</filter>
<filter id="filter25_f_2046_2065" x="-360.017" y="-109.085" width="585.852" height="652.35" filterUnits="userSpaceOnUse" color-interpolation-filters="sRGB">
<feFlood flood-opacity="0" result="BackgroundImageFix"/>
<feBlend mode="normal" in="SourceGraphic" in2="BackgroundImageFix" result="shape"/>
<feGaussianBlur stdDeviation="45.9937" result="effect1_foregroundBlur_2046_2065"/>
</filter>
<filter id="filter26_f_2046_2065" x="-466.529" y="-215.597" width="798.875" height="865.373" filterUnits="userSpaceOnUse" color-interpolation-filters="sRGB">
<feFlood flood-opacity="0" result="BackgroundImageFix"/>
<feBlend mode="normal" in="SourceGraphic" in2="BackgroundImageFix" result="shape"/>
<feGaussianBlur stdDeviation="99.2495" result="effect1_foregroundBlur_2046_2065"/>
</filter>
<filter id="filter27_f_2046_2065" x="-563.358" y="-312.426" width="992.532" height="1059.03" filterUnits="userSpaceOnUse" color-interpolation-filters="sRGB">
<feFlood flood-opacity="0" result="BackgroundImageFix"/>
<feBlend mode="normal" in="SourceGraphic" in2="BackgroundImageFix" result="shape"/>
<feGaussianBlur stdDeviation="147.664" result="effect1_foregroundBlur_2046_2065"/>
</filter>
<filter id="filter28_f_2046_2065" x="-243.883" y="16.9884" width="306.278" height="127.959" filterUnits="userSpaceOnUse" color-interpolation-filters="sRGB">
<feFlood flood-opacity="0" result="BackgroundImageFix"/>
<feBlend mode="normal" in="SourceGraphic" in2="BackgroundImageFix" result="shape"/>
<feGaussianBlur stdDeviation="2.97408" result="effect1_foregroundBlur_2046_2065"/>
</filter>
<filter id="filter29_f_2046_2065" x="-234.76" y="24.4608" width="293.505" height="219.223" filterUnits="userSpaceOnUse" color-interpolation-filters="sRGB">
<feFlood flood-opacity="0" result="BackgroundImageFix"/>
<feBlend mode="normal" in="SourceGraphic" in2="BackgroundImageFix" result="shape"/>
<feGaussianBlur stdDeviation="2.97408" result="effect1_foregroundBlur_2046_2065"/>
</filter>
<filter id="filter30_f_2046_2065" x="-291.863" y="-32.6416" width="407.709" height="333.427" filterUnits="userSpaceOnUse" color-interpolation-filters="sRGB">
<feFlood flood-opacity="0" result="BackgroundImageFix"/>
<feBlend mode="normal" in="SourceGraphic" in2="BackgroundImageFix" result="shape"/>
<feGaussianBlur stdDeviation="31.5253" result="effect1_foregroundBlur_2046_2065"/>
</filter>
<filter id="filter31_f_2046_2065" x="-263.311" y="-4.09041" width="350.607" height="276.325" filterUnits="userSpaceOnUse" color-interpolation-filters="sRGB">
<feFlood flood-opacity="0" result="BackgroundImageFix"/>
<feBlend mode="normal" in="SourceGraphic" in2="BackgroundImageFix" result="shape"/>
<feGaussianBlur stdDeviation="17.2497" result="effect1_foregroundBlur_2046_2065"/>
</filter>
<filter id="filter32_f_2046_2065" x="-263.311" y="-4.09041" width="350.607" height="276.325" filterUnits="userSpaceOnUse" color-interpolation-filters="sRGB">
<feFlood flood-opacity="0" result="BackgroundImageFix"/>
<feBlend mode="normal" in="SourceGraphic" in2="BackgroundImageFix" result="shape"/>
<feGaussianBlur stdDeviation="17.2497" result="effect1_foregroundBlur_2046_2065"/>
</filter>
<filter id="filter33_f_2046_2065" x="-263.311" y="-4.09017" width="354.257" height="276.325" filterUnits="userSpaceOnUse" color-interpolation-filters="sRGB">
<feFlood flood-opacity="0" result="BackgroundImageFix"/>
<feBlend mode="normal" in="SourceGraphic" in2="BackgroundImageFix" result="shape"/>
<feGaussianBlur stdDeviation="17.2497" result="effect1_foregroundBlur_2046_2065"/>
</filter>
<filter id="filter34_f_2046_2065" x="-253.401" y="9.81383" width="312.539" height="246.429" filterUnits="userSpaceOnUse" color-interpolation-filters="sRGB">
<feFlood flood-opacity="0" result="BackgroundImageFix"/>
<feBlend mode="normal" in="SourceGraphic" in2="BackgroundImageFix" result="shape"/>
<feGaussianBlur stdDeviation="7.73261" result="effect1_foregroundBlur_2046_2065"/>
</filter>
<filter id="filter35_f_2046_2065" x="-250.591" y="9.13817" width="317.297" height="248.229" filterUnits="userSpaceOnUse" color-interpolation-filters="sRGB">
<feFlood flood-opacity="0" result="BackgroundImageFix"/>
<feBlend mode="normal" in="SourceGraphic" in2="BackgroundImageFix" result="shape"/>
<feGaussianBlur stdDeviation="8.92225" result="effect1_foregroundBlur_2046_2065"/>
</filter>
<filter id="filter36_f_2046_2065" x="-240.592" y="21.1211" width="300.643" height="224.523" filterUnits="userSpaceOnUse" color-interpolation-filters="sRGB">
<feFlood flood-opacity="0" result="BackgroundImageFix"/>
<feBlend mode="normal" in="SourceGraphic" in2="BackgroundImageFix" result="shape"/>
<feGaussianBlur stdDeviation="4.75853" result="effect1_foregroundBlur_2046_2065"/>
</filter>
<filter id="filter37_f_2046_2065" x="-259.627" y="3.7491" width="338.711" height="204.75" filterUnits="userSpaceOnUse" color-interpolation-filters="sRGB">
<feFlood flood-opacity="0" result="BackgroundImageFix"/>
<feBlend mode="normal" in="SourceGraphic" in2="BackgroundImageFix" result="shape"/>
<feGaussianBlur stdDeviation="14.2756" result="effect1_foregroundBlur_2046_2065"/>
</filter>
<filter id="filter38_f_2046_2065" x="-259.627" y="3.78279" width="338.711" height="204.716" filterUnits="userSpaceOnUse" color-interpolation-filters="sRGB">
<feFlood flood-opacity="0" result="BackgroundImageFix"/>
<feBlend mode="normal" in="SourceGraphic" in2="BackgroundImageFix" result="shape"/>
<feGaussianBlur stdDeviation="14.2756" result="effect1_foregroundBlur_2046_2065"/>
</filter>
<linearGradient id="paint0_linear_2046_2065" x1="880.899" y1="-508.857" x2="880.899" y2="661.217" gradientUnits="userSpaceOnUse">
<stop stop-color="#C4C4C4" stop-opacity="0"/>
<stop offset="0.380208" stop-color="#C4C4C4"/>
<stop offset="0.578125" stop-color="#C4C4C4"/>
<stop offset="1" stop-color="#C4C4C4" stop-opacity="0"/>
</linearGradient>
<linearGradient id="paint1_linear_2046_2065" x1="849.306" y1="-192.051" x2="450.097" y2="622.29" gradientUnits="userSpaceOnUse">
<stop stop-color="#057FE2"/>
<stop offset="1" stop-color="#178AEC"/>
</linearGradient>
<linearGradient id="paint2_linear_2046_2065" x1="842.331" y1="-195.47" x2="443.122" y2="618.871" gradientUnits="userSpaceOnUse">
<stop stop-color="#057FE2"/>
<stop offset="1" stop-color="#178AEC"/>
</linearGradient>
<linearGradient id="paint3_linear_2046_2065" x1="829.261" y1="-200.796" x2="427.06" y2="619.648" gradientUnits="userSpaceOnUse">
<stop stop-color="#057FE2"/>
<stop offset="1" stop-color="#178AEC"/>
</linearGradient>
<linearGradient id="paint4_linear_2046_2065" x1="829.261" y1="-200.796" x2="427.06" y2="619.648" gradientUnits="userSpaceOnUse">
<stop stop-color="#057FE2"/>
<stop offset="1" stop-color="#178AEC"/>
</linearGradient>
<linearGradient id="paint5_linear_2046_2065" x1="829.261" y1="-200.796" x2="427.06" y2="619.648" gradientUnits="userSpaceOnUse">
<stop stop-color="white"/>
<stop offset="1" stop-color="#A4D5FF"/>
</linearGradient>
<linearGradient id="paint6_linear_2046_2065" x1="810.08" y1="-210.2" x2="407.879" y2="610.245" gradientUnits="userSpaceOnUse">
<stop stop-color="#057FE2"/>
<stop offset="1" stop-color="#178AEC"/>
</linearGradient>
<linearGradient id="paint7_linear_2046_2065" x1="816.291" y1="-248.789" x2="382.033" y2="637.047" gradientUnits="userSpaceOnUse">
<stop stop-color="#057FE2"/>
<stop offset="1" stop-color="#178AEC"/>
</linearGradient>
<linearGradient id="paint8_linear_2046_2065" x1="816.291" y1="-248.789" x2="382.033" y2="637.047" gradientUnits="userSpaceOnUse">
<stop stop-color="#057FE2"/>
<stop offset="1" stop-color="#178AEC"/>
</linearGradient>
<linearGradient id="paint9_linear_2046_2065" x1="816.291" y1="-248.789" x2="382.033" y2="637.047" gradientUnits="userSpaceOnUse">
<stop stop-color="#057FE2"/>
<stop offset="1" stop-color="#178AEC"/>
</linearGradient>
<linearGradient id="paint10_linear_2046_2065" x1="727.585" y1="325.159" x2="353.045" y2="406.183" gradientUnits="userSpaceOnUse">
<stop stop-color="#C4C4C4" stop-opacity="0"/>
<stop offset="0.565737" stop-color="#C4C4C4"/>
<stop offset="1" stop-color="#C4C4C4" stop-opacity="0"/>
</linearGradient>
<linearGradient id="paint11_linear_2046_2065" x1="104.406" y1="571.125" x2="104.406" y2="1197.55" gradientUnits="userSpaceOnUse">
<stop stop-color="#C4C4C4" stop-opacity="0"/>
<stop offset="0.380208" stop-color="#C4C4C4"/>
<stop offset="0.578125" stop-color="#C4C4C4"/>
<stop offset="1" stop-color="#C4C4C4" stop-opacity="0"/>
</linearGradient>
<linearGradient id="paint12_linear_2046_2065" x1="-283.334" y1="360.181" x2="21.1474" y2="-18.0299" gradientUnits="userSpaceOnUse">
<stop stop-color="#057FE2"/>
<stop offset="1" stop-color="#178AEC"/>
</linearGradient>
<linearGradient id="paint13_linear_2046_2065" x1="-280.094" y1="362.789" x2="24.3869" y2="-15.422" gradientUnits="userSpaceOnUse">
<stop stop-color="#057FE2"/>
<stop offset="1" stop-color="#178AEC"/>
</linearGradient>
<linearGradient id="paint14_linear_2046_2065" x1="-273.897" y1="367.111" x2="32.8663" y2="-13.9344" gradientUnits="userSpaceOnUse">
<stop stop-color="#057FE2"/>
<stop offset="1" stop-color="#178AEC"/>
</linearGradient>
<linearGradient id="paint15_linear_2046_2065" x1="-273.897" y1="367.111" x2="32.8663" y2="-13.9344" gradientUnits="userSpaceOnUse">
<stop stop-color="#057FE2"/>
<stop offset="1" stop-color="#178AEC"/>
</linearGradient>
<linearGradient id="paint16_linear_2046_2065" x1="-273.897" y1="367.111" x2="32.8663" y2="-13.9344" gradientUnits="userSpaceOnUse">
<stop stop-color="#057FE2"/>
<stop offset="1" stop-color="#178AEC"/>
</linearGradient>
<linearGradient id="paint17_linear_2046_2065" x1="-264.988" y1="374.283" x2="41.775" y2="-6.76249" gradientUnits="userSpaceOnUse">
<stop stop-color="#057FE2"/>
<stop offset="1" stop-color="#178AEC"/>
</linearGradient>
<linearGradient id="paint18_linear_2046_2065" x1="-272.781" y1="393.703" x2="58.4318" y2="-17.7123" gradientUnits="userSpaceOnUse">
<stop stop-color="#057FE2"/>
<stop offset="1" stop-color="#178AEC"/>
</linearGradient>
<linearGradient id="paint19_linear_2046_2065" x1="-272.781" y1="393.703" x2="58.4318" y2="-17.7123" gradientUnits="userSpaceOnUse">
<stop stop-color="#057FE2"/>
<stop offset="1" stop-color="#178AEC"/>
</linearGradient>
<linearGradient id="paint20_linear_2046_2065" x1="-272.781" y1="393.703" x2="58.4318" y2="-17.7123" gradientUnits="userSpaceOnUse">
<stop stop-color="#057FE2"/>
<stop offset="1" stop-color="#178AEC"/>
</linearGradient>
<linearGradient id="paint21_linear_2046_2065" x1="-158.794" y1="104.428" x2="46.354" y2="106.269" gradientUnits="userSpaceOnUse">
<stop stop-color="#C4C4C4" stop-opacity="0"/>
<stop offset="0.565737" stop-color="#C4C4C4"/>
<stop offset="1" stop-color="#C4C4C4" stop-opacity="0"/>
</linearGradient>
<clipPath id="clip0_2046_2065">
<rect width="540" height="400" fill="white"/>
</clipPath>
</defs>
</svg>
