<svg width="60" height="60" fill="none" xmlns="http://www.w3.org/2000/svg"><path d="M53.438 56.25H6.562a4.69 4.69 0 01-4.687-4.688V15a.94.94 0 01.938-.938.94.94 0 01.937.938v36.563a2.82 2.82 0 002.813 2.812h46.874a2.82 2.82 0 002.813-2.813V19.689a.94.94 0 01.938-.938.94.94 0 01.937.938v31.875a4.69 4.69 0 01-4.688 4.687z" fill="#232332"/><path d="M48.75 48.75h-37.5a1.88 1.88 0 01-1.875-1.875v-3.75a1.88 1.88 0 011.875-1.875h37.5a1.88 1.88 0 011.875 1.875v3.75a1.88 1.88 0 01-1.875 1.875zm-37.5-5.625v3.75h37.5v-3.75h-37.5z" fill="#232332"/><path d="M49.688 22.5h-15a.94.94 0 01-.938-.938.94.94 0 01.938-.937h15a.94.94 0 01.937.938.94.94 0 01-.938.937zm0 7.5h-15a.94.94 0 01-.938-.938.94.94 0 01.938-.937h15a.94.94 0 01.937.938.94.94 0 01-.938.937zm0 7.5h-15a.94.94 0 01-.938-.938.94.94 0 01.938-.937h15a.94.94 0 01.937.938.94.94 0 01-.938.937z" fill="#057FE2"/><path d="M28.125 20.625H12.187a2.82 2.82 0 00-2.812 2.813v11.25a2.82 2.82 0 002.813 2.812h15.937a2.82 2.82 0 002.813-2.813v-11.25a2.82 2.82 0 00-2.813-2.812zm.938 3.038v10.8l-7.322-5.4 7.322-5.4zM20.155 27.9l-7.322-5.4h14.654l-7.322 5.4h-.01zm-1.584 1.163l-7.322 5.4v-10.8l7.322 5.4zm1.584 1.162l7.322 5.4H12.825l7.322-5.4h.01z" fill="#232332"/><path d="M51.094 11.719a1.406 1.406 0 100-2.813 1.406 1.406 0 000 2.813z" fill="#2251FF"/><path d="M45.469 11.719a1.406 1.406 0 100-2.813 1.406 1.406 0 000 2.813zm-5.625 0a1.406 1.406 0 100-2.813 1.406 1.406 0 000 2.813z" fill="#057FE2"/><path d="M57.188 16.875H36.561a.937.937 0 01-.73-.356l-3.47-4.331H2.812a.94.94 0 01-.937-.938V8.437A4.69 4.69 0 016.563 3.75h46.874a4.69 4.69 0 014.688 4.688v7.5a.94.94 0 01-.938.937zM37.013 15H56.25V8.437a2.82 2.82 0 00-2.813-2.812H6.563A2.82 2.82 0 003.75 8.438v1.874h29.063a.937.937 0 01.73.357L37.014 15z" fill="#057FE2"/></svg>