<svg width="140" height="80" viewBox="0 0 140 80" fill="none" xmlns="http://www.w3.org/2000/svg">
<path d="M45.5283 33.2994V41.5429C45.5283 41.6765 45.4752 41.8047 45.3807 41.8992C45.2862 41.9937 45.1581 42.0468 45.0244 42.0468H42.4222C42.2886 42.0467 42.1605 41.9936 42.066 41.8991C41.9716 41.8047 41.9185 41.6765 41.9184 41.5429V28.1344C41.9184 28.0007 41.9715 27.8726 42.066 27.7781C42.1605 27.6836 42.2886 27.6305 42.4222 27.6305H44.8303C44.9639 27.6305 45.0921 27.6836 45.1865 27.7781C45.281 27.8726 45.3341 28.0007 45.3341 28.1344V30.0226C45.3341 30.0226 46.1949 27.3291 48.7496 27.3291C48.7496 27.3291 51.2765 27.0236 52.3039 29.8283C52.3039 29.8283 53.1647 27.3291 55.775 27.3291C55.775 27.3291 59.6567 27.0983 59.6567 31.115L59.6863 33.3271V41.5707C59.6863 41.7043 59.6332 41.8325 59.5387 41.927C59.4442 42.0214 59.3161 42.0745 59.1824 42.0745H56.58C56.4464 42.0745 56.3183 42.0214 56.2238 41.9269C56.1293 41.8324 56.0762 41.7043 56.0762 41.5707L56.0524 32.5774C56.1264 30.5409 54.479 30.6891 54.479 30.6891C52.4057 30.7262 52.6052 33.3271 52.6052 33.3271V41.5707C52.6052 41.7043 52.5521 41.8325 52.4576 41.927C52.3631 42.0214 52.235 42.0745 52.1013 42.0745H49.4991C49.3655 42.0745 49.2374 42.0214 49.1429 41.9269C49.0485 41.8324 48.9953 41.7043 48.9953 41.5707V32.7809C48.9953 32.7809 49.1475 30.6704 47.2961 30.6704C47.2963 30.6704 45.4636 30.4299 45.5283 33.2994ZM112.606 33.2747V41.518C112.606 41.6517 112.553 41.7798 112.459 41.8742C112.364 41.9687 112.236 42.0218 112.102 42.0219L109.396 42.0743C109.262 42.0742 109.134 42.0211 109.04 41.9267C108.945 41.8322 108.892 41.7041 108.892 41.5705V32.7809C108.892 32.7809 109.044 30.6704 107.193 30.6704C107.193 30.6704 105.425 30.5834 105.425 33.8923V41.5427C105.425 41.6763 105.372 41.8044 105.277 41.8989C105.183 41.9934 105.055 42.0465 104.921 42.0465H102.319C102.185 42.0465 102.057 41.9934 101.963 41.8989C101.868 41.8044 101.815 41.6763 101.815 41.5427V28.1344C101.815 28.0008 101.868 27.8726 101.963 27.7782C102.057 27.6837 102.185 27.6306 102.319 27.6305H104.727C104.861 27.6305 104.989 27.6836 105.083 27.7781C105.178 27.8726 105.231 28.0007 105.231 28.1344V30.0226C105.231 30.0226 106.092 27.3291 108.646 27.3291C108.646 27.3291 111.383 26.9139 112.305 29.7761C112.305 29.7758 112.606 30.3663 112.606 33.2747ZM93.8171 27.2735C90.4894 27.2735 87.7914 30.0782 87.7914 34.7989C87.7914 38.9551 89.8741 42.3242 93.8171 42.3242C97.5381 42.3242 99.8428 38.9551 99.8428 34.7989C99.8428 30.1615 97.1451 27.2735 93.8171 27.2735ZM95.9175 34.9655C95.9175 36.7427 95.6954 37.6868 95.6954 37.6868C95.3793 39.5656 94.0155 39.5682 93.8145 39.5582C93.5974 39.5669 92.2221 39.5473 91.9376 37.6868C91.9376 37.6868 91.7154 36.7427 91.7154 34.9655V34.6694C91.7154 32.8922 91.9376 31.948 91.9376 31.948C92.2221 30.0875 93.5977 30.068 93.8145 30.0764C94.0155 30.0664 95.3793 30.0689 95.6954 31.948C95.6954 31.948 95.9175 32.8922 95.9175 34.6694V34.9655ZM86.2811 30.004V28.0802C86.281 27.9466 86.2279 27.8184 86.1334 27.724C86.039 27.6295 85.9109 27.5764 85.7773 27.5763H77.1758C77.0421 27.5763 76.914 27.6294 76.8195 27.7239C76.725 27.8184 76.6719 27.9465 76.6719 28.0802V29.9891C76.672 30.1227 76.7251 30.2508 76.8196 30.3453C76.9141 30.4398 77.0422 30.4929 77.1758 30.4929H81.6624L76.3518 38.1971C76.3518 38.1971 76.1426 38.5095 76.1495 38.8545V41.1979C76.1495 41.1979 76.1148 42.0014 77.026 41.5351C77.026 41.5351 78.6446 40.5572 81.3586 40.5572C81.3586 40.5572 84.0387 40.5239 85.8257 41.6193C85.8257 41.6193 86.5674 41.9566 86.5674 41.215V39.1752C86.5674 39.1752 86.6347 38.6354 85.9268 38.2984C85.9268 38.2984 83.8701 37.169 81.1731 37.3543L86.2811 30.004ZM39.91 39.6489L39.0954 38.4088C38.8361 37.9459 38.8548 37.4274 38.8548 37.4274V31.7072C38.9659 26.7644 33.4862 27.1902 33.4862 27.1902C28.615 27.1902 27.8955 30.9812 27.8955 30.9812C27.6924 31.7434 28.2829 31.7619 28.2829 31.7619L30.6632 32.0033C30.6632 32.0033 31.069 32.0962 31.2168 31.613C31.2168 31.613 31.5302 29.9591 33.2832 29.9591C35.1905 29.9591 35.1707 31.5961 35.1707 31.5961V32.9666C31.3632 33.0939 29.5987 34.1509 29.5987 34.1509C27.2477 35.4838 27.3956 38.1311 27.3956 38.1311C27.3956 42.4444 31.5053 42.2591 31.5053 42.2591C34.134 42.2591 35.689 40.334 35.689 40.334C36.1517 41.1488 37.0034 41.9259 37.0034 41.9259C37.4295 42.388 37.8736 42.0001 37.8736 42.0001L39.7989 40.3526C40.2245 40.0376 39.91 39.6489 39.91 39.6489ZM32.7882 39.5956C31.5518 39.5956 31.0921 38.3668 31.2974 37.1592C31.5029 35.9516 32.5701 35.0026 35.171 35.0304V35.7646C35.2632 38.972 33.8174 39.5956 32.7882 39.5956ZM74.4905 39.6489L73.6761 38.4088C73.4169 37.9459 73.4353 37.4274 73.4353 37.4274V31.7072C73.5464 26.7644 68.0667 27.1902 68.0667 27.1902C63.1955 27.1902 62.476 30.9812 62.476 30.9812C62.2729 31.7434 62.8634 31.7619 62.8634 31.7619L65.2437 32.0033C65.2437 32.0033 65.6495 32.0962 65.7973 31.613C65.7973 31.613 66.1107 29.9591 67.8637 29.9591C69.771 29.9591 69.7512 31.5961 69.7512 31.5961V32.9666C65.9439 33.0939 64.1792 34.1509 64.1792 34.1509C61.8282 35.4838 61.9761 38.1311 61.9761 38.1311C61.9761 42.4444 66.0858 42.2591 66.0858 42.2591C68.7145 42.2591 70.2695 40.334 70.2695 40.334C70.7324 41.1488 71.5837 41.9259 71.5837 41.9259C72.0098 42.388 72.4541 42.0001 72.4541 42.0001L74.3792 40.3526C74.805 40.0376 74.4905 39.6489 74.4905 39.6489ZM67.3687 39.5956C66.1323 39.5956 65.6726 38.3668 65.8779 37.1592C66.0834 35.9516 67.1506 35.0026 69.7512 35.0304V35.7646C69.8436 38.972 68.3981 39.5956 67.3687 39.5956Z" fill="#232332"/>
<path d="M81.0423 50.4757C81.0423 50.4757 80.8246 50.8545 81.0921 50.9391C81.0921 50.9391 81.3942 51.0571 81.771 50.7074C81.771 50.7074 84.5187 48.3071 84.5849 43.9369C84.5849 43.9369 84.6051 43.3911 84.386 43.2418C84.386 43.2418 83.5252 42.4803 80.4299 42.712C80.4299 42.712 77.7317 42.8941 76.2586 44.2019C76.2586 44.2019 76.1262 44.3177 76.1262 44.4665C76.1262 44.4665 76.0945 44.788 76.9042 44.6487C76.9042 44.6487 79.6021 44.2677 81.2078 44.4665C81.2078 44.4665 82.0357 44.5658 82.2674 44.8475C82.2674 44.8475 82.6482 45.1621 82.4494 46.2046C82.4494 46.2051 81.9029 48.8535 81.0423 50.4757Z" fill="#FF9900"/>
<path d="M80.498 46.2827C80.498 46.2827 80.901 46.8047 80.2508 47.255C80.2508 47.255 73.3049 52.811 61.6423 52.811C61.6423 52.811 49.6371 53.4033 39.6128 44.2951C39.6128 44.2951 39.2614 43.9865 39.4795 43.6997C39.4795 43.6997 39.6745 43.4358 40.1795 43.7228C40.1795 43.7228 49.6093 49.5989 61.994 49.5989C61.994 49.5989 70.6021 49.9322 79.4324 46.1556C79.4324 46.1556 80.1359 45.7911 80.498 46.2827Z" fill="#FF9900"/>
</svg>
