<svg width="52" height="40" viewBox="0 0 52 40" fill="none" xmlns="http://www.w3.org/2000/svg">
<path d="M16.956 3.944V6.644H6.624L5.112 14.24C6.36 12.896 8.076 12.224 10.26 12.224C12.66 12.224 14.604 13.004 16.092 14.564C17.58 16.1 18.324 18.104 18.324 20.576C18.324 23.168 17.508 25.304 15.876 26.984C14.244 28.664 12.12 29.504 9.504 29.504C7.08 29.504 5.112 28.832 3.6 27.488C2.112 26.144 1.332 24.356 1.26 22.124H4.356C4.476 23.54 5.016 24.692 5.976 25.58C6.936 26.468 8.124 26.912 9.54 26.912C11.124 26.912 12.444 26.336 13.5 25.184C14.556 24.032 15.084 22.604 15.084 20.9C15.084 19.124 14.568 17.684 13.536 16.58C12.504 15.452 11.16 14.888 9.504 14.888C7.392 14.888 5.76 15.716 4.608 17.372L1.98 17.192L4.356 3.944H16.956ZM32.6399 2.756L21.9479 29.612H19.3559L30.1199 2.756H32.6399ZM48.9482 3.944V6.644H38.6162L37.1042 14.24C38.3522 12.896 40.0682 12.224 42.2522 12.224C44.6522 12.224 46.5962 13.004 48.0842 14.564C49.5722 16.1 50.3162 18.104 50.3162 20.576C50.3162 23.168 49.5002 25.304 47.8682 26.984C46.2362 28.664 44.1122 29.504 41.4962 29.504C39.0722 29.504 37.1042 28.832 35.5922 27.488C34.1042 26.144 33.3242 24.356 33.2522 22.124H36.3482C36.4682 23.54 37.0082 24.692 37.9682 25.58C38.9282 26.468 40.1162 26.912 41.5322 26.912C43.1162 26.912 44.4362 26.336 45.4922 25.184C46.5482 24.032 47.0762 22.604 47.0762 20.9C47.0762 19.124 46.5602 17.684 45.5282 16.58C44.4962 15.452 43.1522 14.888 41.4962 14.888C39.3842 14.888 37.7522 15.716 36.6002 17.372L33.9722 17.192L36.3482 3.944H48.9482Z" fill="white"/>
</svg>
