<svg width="43" height="41" viewBox="0 0 43 41" fill="none" xmlns="http://www.w3.org/2000/svg">
<path d="M9.78918 15.6322H17.5784" stroke="white" stroke-width="2.5" stroke-linecap="round" stroke-linejoin="round"/>
<path d="M38.6734 17.5795H33.6065C30.1305 17.5795 27.3147 20.1947 27.3147 23.4214C27.3147 26.6481 30.1325 29.2634 33.6045 29.2634H38.6734C38.837 29.2634 38.9168 29.2634 38.985 29.2595C40.0365 29.1952 40.8739 28.4182 40.942 27.4426C40.9459 27.3803 40.9459 27.3044 40.9459 27.1544V19.6884C40.9459 19.5385 40.9459 19.4625 40.942 19.4002C40.8719 18.4246 40.0365 17.6476 38.985 17.5834C38.9168 17.5795 38.837 17.5795 38.6734 17.5795Z" stroke="white" stroke-width="2.5"/>
<path d="M9.78918 7.84297L17.0624 3.01947C18.0853 2.35415 19.2792 2 20.4994 2C21.7196 2 22.9136 2.35415 23.9364 3.01947L31.2097 7.84297" stroke="white" stroke-width="2.5" stroke-linecap="round"/>
<path d="M33.1406 23.4215H33.1596" stroke="white" stroke-width="2.5" stroke-linecap="round" stroke-linejoin="round"/>
<path d="M38.9308 17.5795C38.7789 13.9341 38.2921 11.6986 36.7167 10.1251C34.4364 7.8429 30.7638 7.8429 23.4205 7.8429H17.5785C10.2352 7.8429 6.56256 7.8429 4.28225 10.1251C2 12.4055 2 16.0781 2 23.4214C2 30.7647 2 34.4374 4.28225 36.7177C6.56256 38.9999 10.2352 38.9999 17.5785 38.9999H23.4205C30.7638 38.9999 34.4364 38.9999 36.7167 36.7177C38.2921 35.1443 38.7809 32.9087 38.9308 29.2634" stroke="white" stroke-width="2.5"/>
</svg>
