<svg width="41" height="41" viewBox="0 0 41 41" fill="none" xmlns="http://www.w3.org/2000/svg">
<path d="M14.3331 16.3886L21.0301 21.4124C21.445 21.7236 21.9622 21.8664 22.4779 21.8123C22.9937 21.7581 23.47 21.511 23.8112 21.1205L36.9442 6.11084" stroke="white" stroke-width="3" stroke-linecap="round"/>
<path d="M39 20.4997C39.0001 24.3652 37.7893 28.1336 35.5377 31.2757C33.2862 34.4178 30.1069 36.7757 26.4466 38.0182C22.7862 39.2608 18.8285 39.3255 15.1295 38.2033C11.4304 37.0811 8.17576 34.8285 5.82266 31.7617C3.46956 28.6949 2.13621 24.9681 2.00989 21.1046C1.88356 17.2411 2.9706 13.4351 5.11833 10.2212C7.26606 7.00723 10.3666 4.54676 13.9844 3.18535C17.6023 1.82394 21.5557 1.62998 25.2894 2.63072" stroke="white" stroke-width="3" stroke-linecap="round"/>
</svg>
