<svg width="34" height="40" viewBox="0 0 34 40" fill="none" xmlns="http://www.w3.org/2000/svg">
<path d="M14.8952 24.5556V28.3333C11.9324 28.3333 9.0909 29.5274 6.99585 31.6528C4.9008 33.7782 3.72381 36.6609 3.72381 39.6667H0C4.48881e-05 35.7407 1.50616 31.969 4.19947 29.1499C6.89278 26.3308 10.5618 24.6858 14.4298 24.5631L14.8952 24.5556ZM14.8952 0C21.0675 0 26.0667 5.07167 26.0667 11.3333C26.0677 14.2659 24.9478 17.0846 22.9426 19.1968C20.9373 21.309 18.2028 22.5501 15.3142 22.6591L14.8952 22.6667C8.72302 22.6667 3.72381 17.595 3.72381 11.3333C3.72277 8.40078 4.84263 5.58206 6.84791 3.46987C8.85319 1.35768 11.5876 0.116585 14.4763 0.00755546L14.8952 0ZM14.8952 3.77778C10.7804 3.77778 7.44762 7.15889 7.44762 11.3333C7.44762 15.5078 10.7804 18.8889 14.8952 18.8889C19.01 18.8889 22.3429 15.5078 22.3429 11.3333C22.3429 7.15889 19.01 3.77778 14.8952 3.77778Z" fill="white"/>
<path d="M26.0647 27.6458L25.7172 27.3115C25.3046 26.9168 24.8149 26.6037 24.2759 26.3902C23.7369 26.1766 23.1592 26.0667 22.5758 26.0667C21.9924 26.0667 21.4147 26.1766 20.8757 26.3902C20.3368 26.6037 19.847 26.9168 19.4345 27.3115C19.022 27.7061 18.6947 28.1746 18.4715 28.6903C18.2482 29.2059 18.1333 29.7585 18.1333 30.3167C18.1333 30.8748 18.2482 31.4274 18.4715 31.9431C18.6947 32.4587 19.022 32.9272 19.4345 33.3219L26.0647 39.6667L32.6988 33.3219C33.1113 32.9272 33.4385 32.4587 33.6618 31.9431C33.8851 31.4274 34 30.8748 34 30.3167C34 29.7585 33.8851 29.2059 33.6618 28.6903C33.4385 28.1746 33.1113 27.7061 32.6988 27.3115C32.2863 26.9168 31.7965 26.6037 31.2575 26.3902C30.7185 26.1766 30.1408 26.0667 29.5574 26.0667C28.974 26.0667 28.3964 26.1766 27.8574 26.3902C27.3184 26.6037 26.8286 26.9168 26.4161 27.3115L26.0647 27.6458Z" fill="white"/>
</svg>
