<svg width="52" height="25" viewBox="0 0 52 25" fill="none" xmlns="http://www.w3.org/2000/svg">
<circle cx="39.6312" cy="11.6559" r="5.06107" stroke="white" stroke-width="2"/>
<circle cx="11.6568" cy="11.6559" r="5.06107" stroke="white" stroke-width="2"/>
<path d="M51.286 12.1168C51.2857 14.5134 50.5972 16.856 49.3077 18.8486C48.0182 20.8412 46.1854 22.3942 44.0412 23.3113C41.897 24.2283 39.5377 24.4683 37.2614 24.0009C34.9852 23.5334 32.8942 22.3795 31.253 20.685C31.2338 20.6667 31.2156 20.6472 31.1987 20.6267L18.1591 5.42471C16.8797 4.11426 15.2532 3.22424 13.4846 2.86681C11.7161 2.50938 9.88465 2.70054 8.22116 3.4162C6.55766 4.13186 5.13653 5.33999 4.13688 6.88832C3.13723 8.43666 2.60379 10.2559 2.60379 12.1168C2.60379 13.9777 3.13723 15.797 4.13688 17.3453C5.13653 18.8936 6.55766 20.1018 8.22116 20.8174C9.88465 21.5331 11.7161 21.7242 13.4846 21.3668C15.2532 21.0094 16.8797 20.1194 18.1591 18.8089L20.0216 16.6388C20.1358 16.5062 20.2741 16.3981 20.4287 16.3207C20.5833 16.2433 20.7512 16.1981 20.9228 16.1876C21.0943 16.1772 21.2661 16.2018 21.4285 16.2599C21.5908 16.3181 21.7405 16.4087 21.8689 16.5266C21.9973 16.6445 22.102 16.7873 22.177 16.947C22.2519 17.1067 22.2957 17.28 22.3058 17.4571C22.3159 17.6343 22.2921 17.8117 22.2358 17.9793C22.1795 18.147 22.0917 18.3015 21.9776 18.4341L20.089 20.6357C20.072 20.6562 20.0539 20.6757 20.0347 20.694C18.3935 22.3891 16.3024 23.5435 14.0259 24.0113C11.7494 24.4791 9.38961 24.2392 7.24509 23.3221C5.10056 22.4049 3.26758 20.8516 1.97796 18.8587C0.688336 16.8658 0 14.5227 0 12.1258C0 9.72887 0.688336 7.38579 1.97796 5.39287C3.26758 3.39994 5.10056 1.84668 7.24509 0.929528C9.38961 0.0123777 11.7494 -0.227468 14.0259 0.240321C16.3024 0.708109 18.3935 1.86252 20.0347 3.55756C20.0539 3.5759 20.072 3.59538 20.089 3.61591L33.1285 18.8179C34.408 20.1283 36.0345 21.0184 37.803 21.3758C39.5716 21.7332 41.403 21.5421 43.0665 20.8264C44.73 20.1107 46.1511 18.9026 47.1508 17.3543C48.1504 15.8059 48.6839 13.9867 48.6839 12.1258C48.6839 10.2649 48.1504 8.44564 47.1508 6.8973C46.1511 5.34896 44.73 4.14083 43.0665 3.42518C41.403 2.70952 39.5716 2.51836 37.803 2.87579C36.0345 3.23322 34.408 4.12324 33.1285 5.43369L31.266 7.6038C31.1519 7.73641 31.0135 7.84452 30.8589 7.92193C30.7043 7.99934 30.5364 8.04454 30.3649 8.05496C30.1934 8.06538 30.0215 8.04081 29.8592 7.98265C29.6968 7.92449 29.5472 7.83389 29.4188 7.716C29.2903 7.59812 29.1856 7.45527 29.1107 7.29561C29.0357 7.13595 28.9919 6.9626 28.9819 6.78547C28.9718 6.60834 28.9956 6.43089 29.0519 6.26326C29.1082 6.09562 29.1959 5.94108 29.3101 5.80846L31.1987 3.60694C31.2156 3.5864 31.2338 3.56692 31.253 3.54859C32.8942 1.85412 34.9852 0.700222 37.2614 0.232767C39.5377 -0.234688 41.897 0.00529508 44.0412 0.922376C46.1854 1.83946 48.0182 3.39246 49.3077 5.38502C50.5972 7.37759 51.2857 9.72025 51.286 12.1168Z" fill="white"/>
</svg>
