<svg width="36" height="36" viewBox="0 0 36 36" fill="none" xmlns="http://www.w3.org/2000/svg">
<path d="M1 18H35" stroke="white" stroke-width="2" stroke-linecap="round" stroke-linejoin="round"/>
<path d="M18.0008 35C21.7561 35 24.8008 27.3891 24.8008 18C24.8008 8.6109 21.7561 1 18.0008 1C14.2455 1 11.2008 8.6109 11.2008 18C11.2008 27.3891 14.2455 35 18.0008 35Z" stroke="white" stroke-width="2" stroke-linecap="round" stroke-linejoin="round"/>
<path d="M5.97961 6.2207C7.55643 7.80168 9.43013 9.05545 11.4931 9.90997C13.556 10.7645 15.7674 11.2029 18.0003 11.2C20.2332 11.2029 22.4447 10.7645 24.5076 9.90997C26.5705 9.05545 28.4442 7.80168 30.021 6.2207M30.021 29.7793C28.4442 28.1983 26.5705 26.9446 24.5076 26.09C22.4447 25.2355 20.2332 24.7971 18.0003 24.8C15.7674 24.7971 13.556 25.2355 11.4931 26.09C9.43013 26.9446 7.55643 28.1983 5.97961 29.7793" stroke="white" stroke-width="2" stroke-linecap="round" stroke-linejoin="round"/>
<path d="M18 35C27.3891 35 35 27.3891 35 18C35 8.6109 27.3891 1 18 1C8.6109 1 1 8.6109 1 18C1 27.3891 8.6109 35 18 35Z" stroke="white" stroke-width="2" stroke-linecap="round" stroke-linejoin="round"/>
</svg>
